<?xml version="1.0" encoding="UTF-8" standalone="no"?>
<!DOCTYPE svg PUBLIC "-//W3C//DTD SVG 1.1//EN" "http://www.w3.org/Graphics/SVG/1.1/DTD/svg11.dtd">
<svg xmlns="http://www.w3.org/2000/svg" version="1.1" viewBox="0 0 225 225" width="225.0pt" height="225.0pt">
<path d="M 0.00 0.00 L 225.00 0.00 L 225.00 225.00 L 0.00 225.00 L 0.00 0.00 Z" fill="#fefefe" />
<path d="M 91.10 5.58 C 105.59 5.34 120.17 5.56 134.68 5.48 C 133.35 17.10 131.93 28.72 130.51 40.34 C 118.52 40.75 106.51 40.30 94.52 40.54 C 93.44 28.91 91.74 17.23 91.10 5.58 Z" fill="#92581a" />
<path d="M 106.00 7.99 C 106.00 10.54 106.00 13.09 105.99 15.64 C 102.94 16.24 100.16 16.33 97.06 16.03 C 96.67 13.69 96.37 11.35 96.33 8.98 C 98.29 6.48 103.22 7.98 106.00 7.99 Z" fill="#a8753b" />
<path d="M 119.12 8.08 C 122.41 7.50 125.60 7.82 128.91 8.04 C 128.71 10.71 128.40 13.36 127.94 16.00 C 124.96 16.01 121.97 15.98 118.99 15.91 C 118.95 13.32 118.84 10.66 119.12 8.08 Z" fill="#a0703e" />
<path d="M 102.53 9.41 C 103.15 8.85 103.73 8.73 104.27 9.06 C 105.01 10.02 103.71 12.38 102.68 12.69 C 101.48 12.29 101.83 10.14 102.53 9.41 Z" fill="#956228" />
<path d="M 120.19 10.40 C 121.80 9.99 121.80 12.92 120.19 12.51 C 119.48 11.81 119.48 11.11 120.19 10.40 Z" fill="#86511b" />
<path d="M 96.54 30.41 C 97.71 30.05 98.90 29.76 100.10 29.52 C 100.64 32.63 101.19 35.74 101.76 38.84 C 100.05 38.79 98.31 38.64 96.60 38.50 C 96.49 35.84 96.27 33.06 96.54 30.41 Z" fill="#a47138" />
<path d="M 100.10 29.52 C 101.74 29.72 103.87 29.71 105.22 30.75 C 106.44 32.70 105.82 35.75 105.93 37.98 C 104.54 38.28 103.16 38.59 101.76 38.84 C 101.19 35.74 100.64 32.63 100.10 29.52 Z" fill="#b47d44" />
<path d="M 128.17 30.00 C 128.90 33.21 128.81 35.56 128.07 38.75 C 125.16 38.71 122.25 38.63 119.34 38.49 C 119.08 35.77 118.94 33.06 119.23 30.33 C 122.21 30.03 125.19 30.00 128.17 30.00 Z" fill="#9f703a" />
<path d="M 104.45 32.00 C 105.80 33.29 102.98 34.85 102.12 35.46 C 101.69 33.73 101.96 30.78 104.45 32.00 Z" fill="#9c662c" />
<path d="M 94.52 40.54 C 92.72 40.72 90.92 40.99 89.14 41.24 C 88.49 46.34 88.59 51.44 88.77 56.57 L 87.16 56.27 C 87.44 51.52 87.65 46.83 87.15 42.08 L 86.99 41.03 C 84.14 40.75 81.29 40.65 78.41 40.50 C 83.78 40.40 89.15 40.35 94.52 40.54 Z" fill="#dde140" />
<path d="M 94.52 40.54 C 106.51 40.30 118.52 40.75 130.51 40.34 L 130.51 40.56 C 130.53 41.35 131.03 41.82 132.02 41.96 C 135.63 42.56 139.44 42.23 143.10 42.23 C 143.51 46.48 143.47 50.45 142.99 54.69 C 139.53 55.17 136.14 55.75 132.94 57.23 C 131.68 56.97 130.43 56.67 129.18 56.35 C 128.40 55.79 127.62 55.22 126.86 54.63 C 123.61 54.61 120.92 54.43 118.22 56.52 C 114.34 57.10 110.29 56.79 106.38 57.03 C 106.58 56.27 106.78 55.50 106.98 54.73 C 103.52 51.86 99.94 52.52 95.79 52.90 C 95.98 54.23 96.21 55.56 96.44 56.90 C 94.20 56.87 91.97 56.83 89.73 56.70 L 88.77 56.57 C 88.59 51.44 88.49 46.34 89.14 41.24 C 90.92 40.99 92.72 40.72 94.52 40.54 Z" fill="#aeb506" />
<path d="M 78.41 40.50 C 81.29 40.65 84.14 40.75 86.99 41.03 L 87.15 42.08 C 85.05 42.17 82.81 42.24 80.76 42.72 C 80.03 45.72 79.32 50.64 81.93 52.92 C 83.44 54.58 85.02 55.57 87.16 56.27 L 88.77 56.57 L 89.73 56.70 C 86.06 57.46 82.38 57.54 78.71 56.68 C 77.96 51.38 78.45 45.85 78.41 40.50 Z" fill="#afb530" />
<path d="M 130.51 40.56 C 135.18 40.42 139.87 40.56 144.55 40.47 C 144.56 46.06 144.65 51.63 144.43 57.22 C 140.60 57.22 136.77 57.27 132.94 57.23 C 136.14 55.75 139.53 55.17 142.99 54.69 C 143.47 50.45 143.51 46.48 143.10 42.23 C 139.44 42.23 135.63 42.56 132.02 41.96 C 131.03 41.82 130.53 41.35 130.51 40.56 Z" fill="#aab02f" />
<path d="M 87.15 42.08 C 87.65 46.83 87.44 51.52 87.16 56.27 C 85.02 55.57 83.44 54.58 81.93 52.92 C 79.32 50.64 80.03 45.72 80.76 42.72 C 82.81 42.24 85.05 42.17 87.15 42.08 Z" fill="#adb403" />
<path d="M 95.79 52.90 C 99.94 52.52 103.52 51.86 106.98 54.73 C 106.78 55.50 106.58 56.27 106.38 57.03 C 103.05 56.68 99.77 56.57 96.44 56.90 C 96.21 55.56 95.98 54.23 95.79 52.90 Z" fill="#b0b920" />
<path d="M 127.97 52.61 L 127.96 54.13 C 125.08 54.12 122.20 54.06 119.34 53.72 C 122.13 52.22 124.93 52.61 127.97 52.61 Z" fill="#c4c732" />
<path d="M 126.86 54.63 C 127.62 55.22 128.40 55.79 129.18 56.35 C 128.56 57.28 127.94 58.21 127.31 59.15 C 126.74 58.42 126.18 57.66 125.51 57.03 C 124.17 56.67 122.67 56.68 121.29 56.62 C 120.26 56.59 119.24 56.56 118.22 56.52 C 120.92 54.43 123.61 54.61 126.86 54.63 Z" fill="#b4b936" />
<path d="M 106.38 57.03 C 106.12 58.33 105.89 59.63 105.67 60.94 C 102.89 61.05 100.12 61.14 97.34 61.15 C 97.04 59.73 96.74 58.31 96.44 56.90 C 99.77 56.57 103.05 56.68 106.38 57.03 Z" fill="#8c9028" />
<path d="M 121.29 56.62 C 122.67 56.68 124.17 56.67 125.51 57.03 C 126.18 57.66 126.74 58.42 127.31 59.15 L 128.56 60.79 C 125.50 60.97 122.45 61.20 119.38 61.04 C 119.01 59.53 118.62 58.03 118.22 56.52 C 119.24 56.56 120.26 56.59 121.29 56.62 Z" fill="#8b8d28" />
<path d="M 89.73 56.70 C 91.97 56.83 94.20 56.87 96.44 56.90 C 96.74 58.31 97.04 59.73 97.34 61.15 C 95.13 61.16 92.92 61.15 90.71 61.14 C 90.39 59.66 90.06 58.18 89.73 56.70 Z" fill="#727708" />
<path d="M 106.38 57.03 C 110.29 56.79 114.34 57.10 118.22 56.52 C 118.62 58.03 119.01 59.53 119.38 61.04 C 114.79 60.75 110.26 60.70 105.67 60.94 C 105.89 59.63 106.12 58.33 106.38 57.03 Z" fill="#747901" />
<path d="M 129.18 56.35 C 130.43 56.67 131.68 56.97 132.94 57.23 C 132.75 58.59 132.55 59.94 132.29 61.28 C 131.05 61.12 129.80 60.95 128.56 60.79 L 127.31 59.15 C 127.94 58.21 128.56 57.28 129.18 56.35 Z" fill="#6f750d" />
<path d="M 90.71 61.14 C 92.92 61.15 95.13 61.16 97.34 61.15 C 100.12 61.14 102.89 61.05 105.67 60.94 C 110.26 60.70 114.79 60.75 119.38 61.04 C 122.45 61.20 125.50 60.97 128.56 60.79 C 129.80 60.95 131.05 61.12 132.29 61.28 C 132.12 62.07 131.93 62.85 131.74 63.63 C 129.26 67.02 128.99 70.79 128.14 74.76 C 125.08 74.98 122.03 75.20 118.98 75.40 C 118.66 77.83 118.40 80.26 118.17 82.70 C 121.03 83.32 123.90 83.83 126.79 84.26 C 127.68 83.23 128.58 82.21 129.47 81.19 C 129.99 82.11 130.51 83.03 131.03 83.95 C 131.06 82.92 131.08 81.88 131.09 80.85 C 132.20 86.71 134.90 91.47 138.73 95.97 C 140.18 99.16 141.43 102.42 142.64 105.71 C 137.84 105.26 133.13 104.24 128.32 103.91 C 128.28 101.90 128.25 99.89 128.21 97.88 C 125.15 97.68 122.11 97.25 119.06 96.92 C 118.95 99.13 118.93 101.36 118.90 103.57 C 114.71 103.52 110.46 103.47 106.28 103.71 C 106.16 101.60 106.03 99.49 105.91 97.37 C 104.79 98.39 103.68 99.42 102.56 100.44 C 103.04 99.54 103.52 98.64 104.00 97.74 C 101.42 97.67 98.85 97.78 96.27 97.94 C 96.17 100.01 96.07 102.08 95.97 104.15 C 92.27 104.21 88.60 104.54 84.92 104.83 C 88.01 101.97 91.41 99.24 93.74 95.74 C 96.05 92.28 97.86 88.45 99.07 84.48 C 99.25 83.71 99.41 82.95 99.56 82.18 C 101.71 83.22 103.48 83.73 105.85 83.92 C 106.19 81.26 106.29 78.69 106.16 76.01 C 105.13 75.71 104.10 75.41 103.06 75.12 C 102.90 76.73 102.73 78.34 102.57 79.96 C 102.34 78.13 102.04 76.31 101.78 74.48 C 101.18 76.08 100.55 77.65 100.05 79.29 C 100.06 77.82 100.05 76.35 100.01 74.88 C 99.65 70.31 100.29 65.22 96.99 61.57 C 96.26 66.06 97.69 70.31 97.31 74.92 C 97.08 77.83 96.87 80.74 96.73 83.66 C 94.63 90.93 90.66 98.34 84.49 102.93 C 83.09 102.43 81.69 101.92 80.29 101.41 C 81.48 101.28 82.67 101.16 83.86 101.03 C 83.96 99.89 84.06 98.76 84.18 97.63 L 82.04 98.03 C 85.88 94.58 89.05 90.55 90.62 85.57 C 93.56 77.72 92.31 69.14 90.71 61.14 Z" fill="#adb504" />
<path d="M 96.99 61.57 C 100.29 65.22 99.65 70.31 100.01 74.88 C 99.11 74.89 98.21 74.91 97.31 74.92 C 97.69 70.31 96.26 66.06 96.99 61.57 Z" fill="#d7e10e" />
<path d="M 131.74 63.63 C 131.26 69.45 130.25 75.00 131.09 80.85 C 131.08 81.88 131.06 82.92 131.03 83.95 C 130.51 83.03 129.99 82.11 129.47 81.19 C 128.58 82.21 127.68 83.23 126.79 84.26 C 123.90 83.83 121.03 83.32 118.17 82.70 C 118.40 80.26 118.66 77.83 118.98 75.40 C 122.03 75.20 125.08 74.98 128.14 74.76 C 128.99 70.79 129.26 67.02 131.74 63.63 Z" fill="#b9bd29" />
<path d="M 97.31 74.92 C 98.21 74.91 99.11 74.89 100.01 74.88 C 100.05 76.35 100.06 77.82 100.05 79.29 C 99.89 80.25 99.73 81.21 99.56 82.18 C 99.41 82.95 99.25 83.71 99.07 84.48 L 96.73 83.66 C 96.87 80.74 97.08 77.83 97.31 74.92 Z" fill="#d7df31" />
<path d="M 101.78 74.48 C 102.04 76.31 102.34 78.13 102.57 79.96 C 102.73 78.34 102.90 76.73 103.06 75.12 C 104.10 75.41 105.13 75.71 106.16 76.01 C 106.29 78.69 106.19 81.26 105.85 83.92 C 103.48 83.73 101.71 83.22 99.56 82.18 C 99.73 81.21 99.89 80.25 100.05 79.29 C 100.55 77.65 101.18 76.08 101.78 74.48 Z" fill="#bbbd2e" />
<path d="M 96.73 83.66 L 99.07 84.48 C 97.86 88.45 96.05 92.28 93.74 95.74 C 91.41 99.24 88.01 101.97 84.92 104.83 C 88.60 104.54 92.27 104.21 95.97 104.15 C 99.42 104.14 102.84 103.98 106.28 103.71 C 110.46 103.47 114.71 103.52 118.90 103.57 C 122.04 103.65 125.18 103.72 128.32 103.91 C 133.13 104.24 137.84 105.26 142.64 105.71 L 143.10 105.75 C 142.72 106.48 142.35 107.21 141.97 107.94 C 140.99 108.12 140.02 108.32 139.05 108.51 C 135.41 109.28 131.72 109.65 128.02 109.85 C 116.39 110.61 104.72 110.62 93.10 109.68 C 90.12 109.48 87.18 108.99 84.24 108.51 C 82.96 108.39 81.50 107.93 80.25 108.25 C 77.06 110.72 75.42 115.45 74.53 119.25 C 74.00 121.76 73.78 124.34 73.70 126.90 C 73.66 129.57 73.73 132.14 73.34 134.79 C 72.72 137.92 72.35 140.95 72.78 144.14 C 71.03 136.42 70.72 128.34 71.70 120.49 C 72.58 114.56 75.33 109.46 80.28 105.98 C 81.68 104.95 83.11 103.97 84.49 102.93 C 90.66 98.34 94.63 90.93 96.73 83.66 Z" fill="#d7e10a" />
<path d="M 119.06 96.92 C 122.11 97.25 125.15 97.68 128.21 97.88 C 128.25 99.89 128.28 101.90 128.32 103.91 C 125.18 103.72 122.04 103.65 118.90 103.57 C 118.93 101.36 118.95 99.13 119.06 96.92 Z" fill="#b5bb25" />
<path d="M 138.73 95.97 C 142.70 99.18 147.32 102.08 150.70 105.90 C 148.17 105.97 145.62 105.95 143.10 105.75 L 142.64 105.71 C 141.43 102.42 140.18 99.16 138.73 95.97 Z" fill="#b2b837" />
<path d="M 104.00 97.74 C 103.52 98.64 103.04 99.54 102.56 100.44 C 103.68 99.42 104.79 98.39 105.91 97.37 C 106.03 99.49 106.16 101.60 106.28 103.71 C 102.84 103.98 99.42 104.14 95.97 104.15 C 96.07 102.08 96.17 100.01 96.27 97.94 C 98.85 97.78 101.42 97.67 104.00 97.74 Z" fill="#b5bb2a" />
<path d="M 82.04 98.03 L 84.18 97.63 C 84.06 98.76 83.96 99.89 83.86 101.03 C 82.67 101.16 81.48 101.28 80.29 101.41 C 81.69 101.92 83.09 102.43 84.49 102.93 C 83.11 103.97 81.68 104.95 80.28 105.98 C 79.35 105.75 78.41 105.50 77.47 105.30 C 76.02 105.09 74.57 104.98 73.12 104.84 C 75.85 102.24 78.90 100.10 82.04 98.03 Z" fill="#b4bb34" />
<path d="M 77.47 105.30 C 78.41 105.50 79.35 105.75 80.28 105.98 C 75.33 109.46 72.58 114.56 71.70 120.49 C 70.72 128.34 71.03 136.42 72.78 144.14 C 74.27 152.04 76.26 159.81 77.55 167.75 C 77.93 169.40 78.36 171.03 78.83 172.67 L 79.09 173.50 C 77.83 173.10 76.57 172.70 75.32 172.30 C 74.99 173.64 74.68 174.98 74.38 176.32 C 70.59 161.56 66.73 146.26 65.99 130.99 C 65.55 121.58 67.19 112.40 73.12 104.84 C 74.57 104.98 76.02 105.09 77.47 105.30 Z" fill="#aeb508" />
<path d="M 150.70 105.90 C 155.52 112.11 156.69 119.34 157.05 126.99 C 157.11 139.03 154.81 150.25 152.24 161.95 C 151.06 163.62 149.88 165.16 147.99 166.07 C 146.68 165.48 146.25 164.36 145.58 163.18 C 146.34 159.75 147.15 156.33 148.07 152.93 C 149.05 149.57 149.67 146.26 149.96 142.77 C 150.17 140.55 150.36 138.33 150.54 136.12 L 150.62 135.07 C 150.77 132.54 150.85 130.00 150.81 127.47 C 150.70 125.21 150.48 122.97 150.20 120.73 C 149.55 115.53 147.74 111.32 143.95 107.64 L 141.97 107.94 C 142.35 107.21 142.72 106.48 143.10 105.75 C 145.62 105.95 148.17 105.97 150.70 105.90 Z" fill="#adb509" />
<path d="M 80.25 108.25 C 81.50 107.93 82.96 108.39 84.24 108.51 C 81.68 111.90 80.31 115.76 78.91 119.72 C 77.45 119.56 75.99 119.38 74.53 119.25 C 75.42 115.45 77.06 110.72 80.25 108.25 Z" fill="#737801" />
<path d="M 141.97 107.94 L 143.95 107.64 C 147.74 111.32 149.55 115.53 150.20 120.73 C 148.12 120.33 146.04 119.92 143.95 119.55 C 142.73 115.60 141.19 112.06 139.05 108.51 C 140.02 108.32 140.99 108.12 141.97 107.94 Z" fill="#646904" />
<path d="M 84.24 108.51 C 87.18 108.99 90.12 109.48 93.10 109.68 C 91.50 109.71 89.83 109.76 88.28 110.16 C 83.91 118.34 84.72 126.42 84.85 135.29 C 82.82 135.17 80.79 135.16 78.75 135.11 C 78.72 134.05 78.69 132.99 78.63 131.94 C 78.58 131.01 78.53 130.08 78.49 129.15 C 80.37 128.66 82.24 128.15 84.12 127.66 C 84.07 125.44 84.35 122.79 83.33 120.78 C 81.91 120.28 80.38 120.03 78.91 119.72 C 80.31 115.76 81.68 111.90 84.24 108.51 Z" fill="#9ca409" />
<path d="M 139.05 108.51 C 141.19 112.06 142.73 115.60 143.95 119.55 C 139.76 120.86 141.78 125.94 141.95 129.04 C 142.91 129.03 143.88 129.02 144.84 129.00 C 144.91 131.02 144.97 133.04 145.04 135.05 C 127.69 134.95 110.35 135.04 93.00 134.99 C 90.28 134.98 87.57 135.08 84.85 135.29 C 84.72 126.42 83.91 118.34 88.28 110.16 C 89.83 109.76 91.50 109.71 93.10 109.68 C 104.72 110.62 116.39 110.61 128.02 109.85 C 131.72 109.65 135.41 109.28 139.05 108.51 Z" fill="#747803" />
<path d="M 74.53 119.25 C 75.99 119.38 77.45 119.56 78.91 119.72 C 78.59 122.86 78.34 125.99 78.49 129.15 C 78.53 130.08 78.58 131.01 78.63 131.94 C 77.71 129.44 75.68 128.46 73.70 126.90 C 73.78 124.34 74.00 121.76 74.53 119.25 Z" fill="#7f8324" />
<path d="M 119.14 119.80 C 122.32 119.74 125.52 120.18 128.68 120.44 C 128.67 123.27 128.49 126.05 128.12 128.86 C 125.02 128.87 121.94 128.70 118.86 128.32 C 118.88 125.50 118.79 122.61 119.14 119.80 Z" fill="#888d2e" />
<path d="M 78.91 119.72 C 80.38 120.03 81.91 120.28 83.33 120.78 C 84.35 122.79 84.07 125.44 84.12 127.66 C 82.24 128.15 80.37 128.66 78.49 129.15 C 78.34 125.99 78.59 122.86 78.91 119.72 Z" fill="#afb231" />
<path d="M 97.06 120.21 C 99.98 119.77 103.12 119.93 106.08 119.99 C 106.11 122.69 106.12 125.39 106.10 128.09 C 102.91 128.54 99.71 128.77 96.49 128.89 C 96.40 125.99 96.24 123.02 97.06 120.21 Z" fill="#878c2b" />
<path d="M 143.95 119.55 C 146.04 119.92 148.12 120.33 150.20 120.73 C 150.48 122.97 150.70 125.21 150.81 127.47 C 148.89 128.27 146.95 128.93 144.84 129.00 C 143.88 129.02 142.91 129.03 141.95 129.04 C 141.78 125.94 139.76 120.86 143.95 119.55 Z" fill="#7f8528" />
<path d="M 102.41 122.24 C 103.60 122.93 104.00 124.53 102.87 125.48 C 101.28 125.80 101.93 122.96 102.41 122.24 Z" fill="#6d7014" />
<path d="M 120.85 122.49 C 121.63 123.08 121.58 125.84 120.24 125.52 C 119.46 124.92 119.51 122.18 120.85 122.49 Z" fill="#6d720e" />
<path d="M 147.31 122.18 C 149.01 122.99 148.78 124.92 147.23 125.75 C 146.75 124.50 146.78 123.31 147.31 122.18 Z" fill="#5d6210" />
<path d="M 73.70 126.90 C 75.68 128.46 77.71 129.44 78.63 131.94 C 78.69 132.99 78.72 134.05 78.75 135.11 C 76.95 135.05 75.14 134.92 73.34 134.79 C 73.73 132.14 73.66 129.57 73.70 126.90 Z" fill="#707607" />
<path d="M 150.81 127.47 C 150.85 130.00 150.77 132.54 150.62 135.07 C 148.76 135.06 146.90 135.05 145.04 135.05 C 144.97 133.04 144.91 131.02 144.84 129.00 C 146.95 128.93 148.89 128.27 150.81 127.47 Z" fill="#616903" />
<path d="M 73.34 134.79 C 75.14 134.92 76.95 135.05 78.75 135.11 C 80.79 135.16 82.82 135.17 84.85 135.29 C 93.57 136.68 102.16 135.48 111.00 135.96 C 116.17 136.28 122.52 135.17 127.31 137.27 C 126.52 138.48 125.77 139.70 125.04 140.95 C 123.69 143.07 122.28 145.14 121.07 147.35 C 119.50 145.31 118.06 143.41 115.60 142.39 C 112.68 141.00 109.51 141.76 106.43 142.10 C 103.56 142.30 101.68 142.90 99.18 144.30 C 98.00 144.04 96.82 143.78 95.64 143.51 C 94.03 141.50 92.71 139.79 90.08 139.08 C 89.10 140.74 88.20 142.40 87.14 144.02 C 85.38 144.18 83.62 144.32 81.86 144.47 C 81.46 143.62 81.04 142.78 80.62 141.93 C 79.20 142.34 77.75 142.74 76.39 143.32 C 75.16 145.62 75.15 148.30 74.89 150.83 C 78.04 150.72 81.18 150.38 84.33 150.19 L 85.32 150.23 C 86.85 151.28 88.00 152.50 90.00 152.46 C 93.03 152.60 95.73 153.07 98.59 154.15 C 99.19 156.36 99.86 158.53 100.65 160.67 C 100.86 161.18 101.07 161.69 101.28 162.20 C 99.53 163.41 97.88 164.93 95.97 165.87 C 93.65 166.82 91.17 167.31 88.83 168.23 C 88.39 169.09 88.06 170.00 87.82 170.97 C 89.35 172.51 91.23 173.17 93.16 174.07 C 92.93 175.43 92.83 178.22 94.96 177.72 C 98.49 177.72 100.27 175.58 101.14 172.35 C 102.09 172.04 103.03 171.68 103.96 171.31 C 104.48 171.69 105.00 172.07 105.51 172.46 C 106.79 173.54 108.00 174.69 109.21 175.85 C 110.43 175.86 111.66 175.87 112.88 175.87 C 114.68 174.17 116.51 172.51 118.45 170.98 C 118.57 170.26 118.68 169.54 118.79 168.82 L 120.00 169.88 C 122.31 171.52 122.99 173.49 123.91 176.05 C 124.32 177.89 125.72 178.07 127.13 179.00 C 127.61 178.00 128.09 177.01 128.57 176.01 C 130.08 174.43 132.10 172.93 133.13 170.99 C 133.03 169.12 132.60 167.20 131.07 165.98 C 128.76 164.28 125.65 163.50 122.98 162.56 C 122.55 160.23 122.13 157.91 121.79 155.56 L 121.88 154.35 C 122.45 154.04 123.02 153.74 123.60 153.44 C 124.86 152.86 125.82 151.96 126.84 151.03 L 127.52 150.46 C 129.91 149.40 134.39 148.83 135.51 146.12 C 135.17 145.29 134.79 144.48 134.38 143.67 C 132.90 140.07 131.57 138.40 128.40 136.20 C 135.80 136.35 143.13 135.49 150.54 136.12 C 150.36 138.33 150.17 140.55 149.96 142.77 C 147.81 142.49 145.48 142.13 143.32 142.36 C 141.80 144.40 141.24 147.29 140.38 149.69 C 142.95 150.76 145.51 151.85 148.07 152.93 C 147.15 156.33 146.34 159.75 145.58 163.18 C 144.77 166.77 143.93 170.35 143.03 173.92 C 142.21 177.12 141.33 180.33 140.56 183.55 C 138.42 183.47 136.28 183.41 134.14 183.40 C 121.22 183.54 108.29 183.31 95.37 183.54 C 94.19 183.55 93.02 183.53 91.84 183.49 C 90.83 183.47 89.82 183.46 88.81 183.46 C 87.11 183.48 85.42 183.59 83.72 183.71 C 82.53 182.22 81.47 180.68 80.74 178.91 C 80.23 177.09 79.66 175.30 79.09 173.50 L 78.83 172.67 C 80.69 173.19 81.88 174.15 83.53 172.51 C 85.89 170.54 83.05 166.24 81.52 164.51 C 79.43 162.80 78.59 166.51 77.55 167.75 C 76.26 159.81 74.27 152.04 72.78 144.14 C 72.35 140.95 72.72 137.92 73.34 134.79 Z" fill="#fbe83d" />
<path d="M 84.85 135.29 C 87.57 135.08 90.28 134.98 93.00 134.99 C 110.35 135.04 127.69 134.95 145.04 135.05 C 146.90 135.05 148.76 135.06 150.62 135.07 L 150.54 136.12 C 143.13 135.49 135.80 136.35 128.40 136.20 C 131.57 138.40 132.90 140.07 134.38 143.67 C 131.91 141.67 130.00 138.91 127.31 137.27 C 122.52 135.17 116.17 136.28 111.00 135.96 C 102.16 135.48 93.57 136.68 84.85 135.29 Z" fill="#e6db4d" />
<path d="M 127.31 137.27 C 130.00 138.91 131.91 141.67 134.38 143.67 C 134.79 144.48 135.17 145.29 135.51 146.12 C 134.39 148.83 129.91 149.40 127.52 150.46 L 128.29 149.13 C 129.85 148.04 131.53 147.08 133.17 146.12 C 131.62 143.70 130.21 141.40 127.64 139.93 C 126.94 140.97 126.23 142.02 125.53 143.06 L 124.64 142.95 L 125.04 140.95 C 125.77 139.70 126.52 138.48 127.31 137.27 Z" fill="#5b531e" />
<path d="M 90.08 139.08 C 92.71 139.79 94.03 141.50 95.64 143.51 C 96.26 144.25 96.88 144.99 97.50 145.73 C 96.84 147.70 96.15 149.65 95.49 151.62 C 92.15 150.86 88.72 150.46 85.32 150.23 L 84.33 150.19 C 84.87 147.69 85.63 146.05 87.14 144.02 C 88.20 142.40 89.10 140.74 90.08 139.08 Z" fill="#454746" />
<path d="M 127.64 139.93 C 130.21 141.40 131.62 143.70 133.17 146.12 C 131.53 147.08 129.85 148.04 128.29 149.13 C 128.42 148.03 127.96 147.32 126.91 147.01 C 124.55 147.62 126.69 149.76 128.29 149.13 L 127.52 150.46 L 126.84 151.03 C 125.42 150.73 124.11 150.76 122.89 151.12 C 122.75 150.03 122.60 148.94 122.43 147.84 C 123.16 146.33 123.89 144.82 124.62 143.31 C 125.76 143.38 126.91 143.44 128.05 143.50 C 127.21 143.35 126.37 143.20 125.53 143.06 C 126.23 142.02 126.94 140.97 127.64 139.93 Z" fill="#505357" />
<path d="M 115.60 142.39 C 118.06 143.41 119.50 145.31 121.07 147.35 C 121.53 149.67 121.95 151.97 121.88 154.35 L 121.79 155.56 L 121.65 156.74 L 119.21 155.63 C 117.50 155.09 115.75 154.69 113.99 154.35 C 113.34 156.13 112.80 157.56 113.39 159.47 C 114.26 159.63 115.14 159.77 116.02 159.90 C 117.02 160.02 118.02 160.13 119.03 160.22 L 121.25 160.41 L 121.15 161.01 C 120.77 161.57 120.39 162.12 120.00 162.67 C 118.77 163.04 117.49 163.36 116.30 163.84 C 113.23 165.63 110.37 165.92 106.87 166.03 C 106.44 165.17 106.02 164.31 105.60 163.45 C 104.16 163.04 102.72 162.62 101.28 162.20 C 101.07 161.69 100.86 161.18 100.65 160.67 C 100.91 157.77 100.28 155.00 100.08 152.12 C 100.29 147.71 102.84 144.45 106.43 142.10 C 109.51 141.76 112.68 141.00 115.60 142.39 Z" fill="#484846" />
<path d="M 125.04 140.95 L 124.64 142.95 L 125.53 143.06 C 126.37 143.20 127.21 143.35 128.05 143.50 C 126.91 143.44 125.76 143.38 124.62 143.31 C 123.89 144.82 123.16 146.33 122.43 147.84 C 122.60 148.94 122.75 150.03 122.89 151.12 C 122.93 152.02 123.17 152.79 123.60 153.44 C 123.02 153.74 122.45 154.04 121.88 154.35 C 121.95 151.97 121.53 149.67 121.07 147.35 C 122.28 145.14 123.69 143.07 125.04 140.95 Z" fill="#c0b775" />
<path d="M 80.62 141.93 C 81.04 142.78 81.46 143.62 81.86 144.47 C 83.62 144.32 85.38 144.18 87.14 144.02 C 85.63 146.05 84.87 147.69 84.33 150.19 C 81.18 150.38 78.04 150.72 74.89 150.83 C 75.15 148.30 75.16 145.62 76.39 143.32 C 77.75 142.74 79.20 142.34 80.62 141.93 Z" fill="#fbe95b" />
<path d="M 106.43 142.10 C 102.84 144.45 100.29 147.71 100.08 152.12 C 100.28 155.00 100.91 157.77 100.65 160.67 C 99.86 158.53 99.19 156.36 98.59 154.15 C 95.73 153.07 93.03 152.60 90.00 152.46 C 88.00 152.50 86.85 151.28 85.32 150.23 C 88.72 150.46 92.15 150.86 95.49 151.62 C 96.81 152.18 98.10 152.82 99.40 153.43 C 99.49 150.23 100.08 148.12 97.50 145.73 C 96.88 144.99 96.26 144.25 95.64 143.51 C 96.82 143.78 98.00 144.04 99.18 144.30 C 101.68 142.90 103.56 142.30 106.43 142.10 Z" fill="#f3e569" />
<path d="M 143.32 142.36 C 145.48 142.13 147.81 142.49 149.96 142.77 C 149.67 146.26 149.05 149.57 148.07 152.93 C 145.51 151.85 142.95 150.76 140.38 149.69 C 141.24 147.29 141.80 144.40 143.32 142.36 Z" fill="#f7e854" />
<path d="M 126.44 145.09 L 127.16 144.68 L 127.88 145.09 L 127.88 145.91 L 127.16 146.32 L 126.44 145.91 L 126.44 145.09 Z" fill="#7a7578" />
<path d="M 97.50 145.73 C 100.08 148.12 99.49 150.23 99.40 153.43 C 98.10 152.82 96.81 152.18 95.49 151.62 C 96.15 149.65 96.84 147.70 97.50 145.73 Z" fill="#635d3e" />
<path d="M 126.91 147.01 C 127.96 147.32 128.42 148.03 128.29 149.13 C 126.69 149.76 124.55 147.62 126.91 147.01 Z" fill="#848082" />
<path d="M 122.89 151.12 C 124.11 150.76 125.42 150.73 126.84 151.03 C 125.82 151.96 124.86 152.86 123.60 153.44 C 123.17 152.79 122.93 152.02 122.89 151.12 Z" fill="#675f25" />
<path d="M 113.99 154.35 C 115.75 154.69 117.50 155.09 119.21 155.63 C 119.15 157.16 119.09 158.69 119.03 160.22 C 118.02 160.13 117.02 160.02 116.02 159.90 C 116.96 159.24 117.90 158.58 118.84 157.91 C 117.87 157.00 116.88 156.11 115.89 155.23 C 115.13 156.69 114.14 158.01 113.39 159.47 C 112.80 157.56 113.34 156.13 113.99 154.35 Z" fill="#d6cf6b" />
<path d="M 103.30 155.58 C 104.92 155.03 106.63 154.66 108.30 154.24 C 108.65 156.03 108.97 157.75 108.71 159.57 C 107.97 158.36 107.22 157.15 106.47 155.95 C 105.41 156.49 104.37 157.06 103.33 157.64 C 104.21 158.40 105.09 159.16 105.97 159.91 C 104.91 159.99 103.85 160.06 102.79 160.12 C 102.91 158.63 102.87 157.02 103.30 155.58 Z" fill="#ded86e" />
<path d="M 106.47 155.95 C 107.22 157.15 107.97 158.36 108.71 159.57 C 107.80 159.70 106.89 159.81 105.97 159.91 C 105.09 159.16 104.21 158.40 103.33 157.64 C 104.37 157.06 105.41 156.49 106.47 155.95 Z" fill="#eadf47" />
<path d="M 115.89 155.23 C 116.88 156.11 117.87 157.00 118.84 157.91 C 117.90 158.58 116.96 159.24 116.02 159.90 C 115.14 159.77 114.26 159.63 113.39 159.47 C 114.14 158.01 115.13 156.69 115.89 155.23 Z" fill="#eddf49" />
<path d="M 119.21 155.63 L 121.65 156.74 C 121.52 157.97 121.38 159.19 121.25 160.41 L 119.03 160.22 C 119.09 158.69 119.15 157.16 119.21 155.63 Z" fill="#5f5b12" />
<path d="M 121.65 156.74 L 121.79 155.56 C 122.13 157.91 122.55 160.23 122.98 162.56 C 125.65 163.50 128.76 164.28 131.07 165.98 C 132.60 167.20 133.03 169.12 133.13 170.99 C 132.10 172.93 130.08 174.43 128.57 176.01 C 128.73 174.77 128.88 173.53 129.01 172.29 C 130.07 172.18 131.14 172.06 132.20 171.94 C 131.95 168.76 131.61 167.29 128.61 165.83 C 125.68 164.93 122.78 163.98 120.00 162.67 C 120.39 162.12 120.77 161.57 121.15 161.01 L 121.25 160.41 C 121.38 159.19 121.52 157.97 121.65 156.74 Z" fill="#e0d65f" />
<path d="M 110.67 158.10 C 112.26 158.72 112.66 161.24 112.81 162.74 C 111.62 165.19 109.93 164.14 109.15 162.08 C 109.60 160.73 110.10 159.40 110.67 158.10 Z" fill="#c2c15c" />
<path d="M 101.28 162.20 C 102.72 162.62 104.16 163.04 105.60 163.45 C 106.02 164.31 106.44 165.17 106.87 166.03 C 109.23 167.39 111.56 167.04 114.18 167.22 C 114.88 166.09 115.59 164.97 116.30 163.84 L 117.63 163.79 C 116.47 166.12 116.45 168.70 113.68 169.66 C 110.99 171.00 109.05 169.67 106.50 168.83 C 105.73 166.48 104.89 164.47 102.97 162.78 C 103.03 165.68 103.40 168.47 103.96 171.31 C 103.03 171.68 102.09 172.04 101.14 172.35 C 98.94 172.47 98.91 172.92 97.94 174.73 C 97.61 173.26 97.25 171.80 96.81 170.36 C 98.20 170.92 99.47 171.50 101.01 171.35 C 102.08 169.52 101.46 168.33 101.08 166.46 C 101.77 166.53 102.46 166.46 103.18 166.26 L 102.03 164.60 C 99.57 165.13 97.49 167.18 95.02 167.81 C 92.98 168.10 90.89 168.08 88.83 168.23 C 91.17 167.31 93.65 166.82 95.97 165.87 C 97.88 164.93 99.53 163.41 101.28 162.20 Z" fill="#e4e056" />
<path d="M 152.24 161.95 C 150.24 169.05 149.12 176.33 146.91 183.37 C 147.33 179.66 148.05 176.31 147.24 172.59 C 145.83 172.99 144.43 173.45 143.03 173.92 C 143.93 170.35 144.77 166.77 145.58 163.18 C 146.25 164.36 146.68 165.48 147.99 166.07 C 149.88 165.16 151.06 163.62 152.24 161.95 Z" fill="#b6c031" />
<path d="M 120.00 162.67 C 120.00 165.07 119.99 167.48 120.00 169.88 L 118.79 168.82 C 118.84 167.12 118.90 165.42 118.95 163.72 L 117.63 163.79 L 116.30 163.84 C 117.49 163.36 118.77 163.04 120.00 162.67 Z" fill="#b4b481" />
<path d="M 120.00 162.67 C 122.78 163.98 125.68 164.93 128.61 165.83 C 128.67 168.59 128.52 171.18 128.03 173.90 C 126.54 173.81 125.04 173.72 123.55 173.64 C 123.66 174.44 123.78 175.25 123.91 176.05 C 122.99 173.49 122.31 171.52 120.00 169.88 C 119.99 167.48 120.00 165.07 120.00 162.67 Z" fill="#60625d" />
<path d="M 81.52 164.51 C 83.05 166.24 85.89 170.54 83.53 172.51 C 81.88 174.15 80.69 173.19 78.83 172.67 C 78.36 171.03 77.93 169.40 77.55 167.75 C 78.59 166.51 79.43 162.80 81.52 164.51 Z" fill="#fae959" />
<path d="M 102.03 164.60 L 103.18 166.26 C 102.46 166.46 101.77 166.53 101.08 166.46 C 101.46 168.33 102.08 169.52 101.01 171.35 C 99.47 171.50 98.20 170.92 96.81 170.36 C 97.25 171.80 97.61 173.26 97.94 174.73 C 98.91 172.92 98.94 172.47 101.14 172.35 C 100.27 175.58 98.49 177.72 94.96 177.72 C 92.83 178.22 92.93 175.43 93.16 174.07 C 91.23 173.17 89.35 172.51 87.82 170.97 C 88.06 170.00 88.39 169.09 88.83 168.23 C 90.89 168.08 92.98 168.10 95.02 167.81 C 97.49 167.18 99.57 165.13 102.03 164.60 Z" fill="#484647" />
<path d="M 102.97 162.78 C 104.89 164.47 105.73 166.48 106.50 168.83 C 106.17 170.04 105.84 171.25 105.51 172.46 C 105.00 172.07 104.48 171.69 103.96 171.31 C 103.40 168.47 103.03 165.68 102.97 162.78 Z" fill="#6f6d47" />
<path d="M 116.30 163.84 C 115.59 164.97 114.88 166.09 114.18 167.22 C 111.56 167.04 109.23 167.39 106.87 166.03 C 110.37 165.92 113.23 165.63 116.30 163.84 Z" fill="#665d1b" />
<path d="M 117.63 163.79 L 118.95 163.72 C 118.90 165.42 118.84 167.12 118.79 168.82 C 118.68 169.54 118.57 170.26 118.45 170.98 C 116.51 172.51 114.68 174.17 112.88 175.87 C 111.66 175.87 110.43 175.86 109.21 175.85 C 108.00 174.69 106.79 173.54 105.51 172.46 C 105.84 171.25 106.17 170.04 106.50 168.83 C 109.05 169.67 110.99 171.00 113.68 169.66 C 116.45 168.70 116.47 166.12 117.63 163.79 Z" fill="#45433d" />
<path d="M 128.61 165.83 C 131.61 167.29 131.95 168.76 132.20 171.94 C 131.14 172.06 130.07 172.18 129.01 172.29 C 128.88 173.53 128.73 174.77 128.57 176.01 C 128.09 177.01 127.61 178.00 127.13 179.00 C 125.72 178.07 124.32 177.89 123.91 176.05 C 123.78 175.25 123.66 174.44 123.55 173.64 C 125.04 173.72 126.54 173.81 128.03 173.90 C 128.52 171.18 128.67 168.59 128.61 165.83 Z" fill="#443d3e" />
<path d="M 75.32 172.30 C 76.57 172.70 77.83 173.10 79.09 173.50 C 79.66 175.30 80.23 177.09 80.74 178.91 C 81.63 183.44 82.54 188.24 82.22 192.88 C 79.71 190.41 78.34 187.43 76.38 184.54 C 75.65 181.82 74.97 179.08 74.38 176.32 C 74.68 174.98 74.99 173.64 75.32 172.30 Z" fill="#afb407" />
<path d="M 147.24 172.59 C 148.05 176.31 147.33 179.66 146.91 183.37 C 145.77 188.60 144.40 193.79 143.11 198.98 C 140.87 206.15 138.50 213.53 132.68 218.63 C 131.24 218.33 129.79 218.05 128.34 217.80 C 128.72 216.31 129.05 214.81 129.53 213.34 C 136.11 205.40 138.37 193.39 140.56 183.55 C 141.33 180.33 142.21 177.12 143.03 173.92 C 144.43 173.45 145.83 172.99 147.24 172.59 Z" fill="#adb70c" />
<path d="M 80.74 178.91 C 81.47 180.68 82.53 182.22 83.72 183.71 C 86.52 193.91 88.39 203.78 94.22 212.87 C 92.83 212.49 91.59 212.68 90.81 211.26 C 87.45 205.99 85.40 199.49 83.71 193.50 C 83.19 193.89 82.66 194.28 82.15 194.68 C 82.17 194.08 82.20 193.48 82.22 192.88 C 82.54 188.24 81.63 183.44 80.74 178.91 Z" fill="#d2dd1e" />
<path d="M 83.72 183.71 C 85.42 183.59 87.11 183.48 88.81 183.46 C 90.28 190.74 92.10 198.20 95.08 205.03 C 96.21 207.58 96.90 210.25 97.50 212.97 L 96.13 212.94 L 94.22 212.87 C 88.39 203.78 86.52 193.91 83.72 183.71 Z" fill="#757804" />
<path d="M 88.81 183.46 C 89.82 183.46 90.83 183.47 91.84 183.49 C 93.02 183.53 94.19 183.55 95.37 183.54 C 95.64 184.94 95.92 186.34 96.22 187.73 C 96.89 190.66 97.75 193.51 98.54 196.40 C 99.74 201.39 101.53 206.03 103.58 210.72 C 101.72 210.41 99.83 210.22 97.95 210.02 C 98.93 211.03 99.91 212.02 100.89 213.02 C 99.76 213.00 98.63 212.99 97.50 212.97 C 96.90 210.25 96.21 207.58 95.08 205.03 C 92.10 198.20 90.28 190.74 88.81 183.46 Z" fill="#9da408" />
<path d="M 95.37 183.54 C 108.29 183.31 121.22 183.54 134.14 183.40 C 132.97 192.23 131.36 202.62 126.10 210.02 C 123.88 209.92 121.66 210.01 119.44 210.11 C 119.16 211.06 118.88 212.01 118.60 212.95 C 114.40 212.93 110.20 212.89 106.01 212.71 C 104.86 212.67 103.71 212.63 102.57 212.62 C 103.37 211.85 103.71 211.22 103.58 210.72 C 101.53 206.03 99.74 201.39 98.54 196.40 C 100.81 196.12 103.97 196.49 105.77 194.88 C 106.26 192.48 106.07 189.85 106.02 187.41 C 102.74 187.37 99.49 187.47 96.22 187.73 C 95.92 186.34 95.64 184.94 95.37 183.54 Z" fill="#737803" />
<path d="M 134.14 183.40 C 136.28 183.41 138.42 183.47 140.56 183.55 C 138.37 193.39 136.11 205.40 129.53 213.34 C 129.14 212.30 128.75 211.26 128.36 210.21 C 127.61 210.14 126.85 210.08 126.10 210.02 C 131.36 202.62 132.97 192.23 134.14 183.40 Z" fill="#646906" />
<path d="M 76.38 184.54 C 78.34 187.43 79.71 190.41 82.22 192.88 C 82.20 193.48 82.17 194.08 82.15 194.68 C 81.20 195.42 80.25 196.17 79.30 196.91 C 78.05 192.85 77.17 188.71 76.38 184.54 Z" fill="#b2bd40" />
<path d="M 128.87 187.57 C 128.79 190.12 128.86 192.81 128.28 195.31 C 125.79 196.89 121.97 196.36 119.11 196.53 C 118.91 193.21 118.85 189.94 119.53 186.67 C 122.70 186.49 125.78 186.93 128.87 187.57 Z" fill="#878c27" />
<path d="M 106.02 187.41 C 106.07 189.85 106.26 192.48 105.77 194.88 C 103.97 196.49 100.81 196.12 98.54 196.40 C 97.75 193.51 96.89 190.66 96.22 187.73 C 99.49 187.47 102.74 187.37 106.02 187.41 Z" fill="#848829" />
<path d="M 83.71 193.50 C 85.40 199.49 87.45 205.99 90.81 211.26 C 91.59 212.68 92.83 212.49 94.22 212.87 L 96.13 212.94 C 96.15 214.53 96.17 216.11 96.19 217.70 C 94.28 217.94 92.40 218.27 90.51 218.63 C 84.15 213.83 81.65 204.19 79.30 196.91 C 80.25 196.17 81.20 195.42 82.15 194.68 C 82.66 194.28 83.19 193.89 83.71 193.50 Z" fill="#adb509" />
<path d="M 97.95 210.02 C 99.83 210.22 101.72 210.41 103.58 210.72 C 103.71 211.22 103.37 211.85 102.57 212.62 C 103.71 212.63 104.86 212.67 106.01 212.71 C 106.18 213.99 106.35 215.27 106.52 216.56 C 107.00 216.94 107.48 217.33 107.97 217.72 C 104.05 217.71 100.10 217.53 96.19 217.70 C 96.17 216.11 96.15 214.53 96.13 212.94 L 97.50 212.97 C 98.63 212.99 99.76 213.00 100.89 213.02 C 99.91 212.02 98.93 211.03 97.95 210.02 Z" fill="#bbc329" />
<path d="M 119.44 210.11 C 121.66 210.01 123.88 209.92 126.10 210.02 C 126.85 210.08 127.61 210.14 128.36 210.21 C 128.75 211.26 129.14 212.30 129.53 213.34 C 125.89 213.12 122.25 213.03 118.60 212.95 C 118.88 212.01 119.16 211.06 119.44 210.11 Z" fill="#888824" />
<path d="M 106.01 212.71 C 110.20 212.89 114.40 212.93 118.60 212.95 C 119.06 214.54 119.51 216.13 119.97 217.72 C 115.97 217.71 111.97 217.73 107.97 217.72 C 107.48 217.33 107.00 216.94 106.52 216.56 C 106.35 215.27 106.18 213.99 106.01 212.71 Z" fill="#acb706" />
<path d="M 118.60 212.95 C 122.25 213.03 125.89 213.12 129.53 213.34 C 129.05 214.81 128.72 216.31 128.34 217.80 C 125.56 217.66 122.75 217.73 119.97 217.72 C 119.51 216.13 119.06 214.54 118.60 212.95 Z" fill="#bdc12e" />
<path d="M 96.19 217.70 C 100.10 217.53 104.05 217.71 107.97 217.72 C 111.97 217.73 115.97 217.71 119.97 217.72 C 122.75 217.73 125.56 217.66 128.34 217.80 C 129.79 218.05 131.24 218.33 132.68 218.63 C 130.80 218.99 128.91 219.23 127.00 219.24 C 117.00 219.25 107.00 219.15 97.00 219.25 C 94.80 219.26 92.67 219.07 90.51 218.63 C 92.40 218.27 94.28 217.94 96.19 217.70 Z" fill="#a4a941" />
</svg>