<?xml version="1.0" encoding="UTF-8" standalone="no"?>
<!DOCTYPE svg PUBLIC "-//W3C//DTD SVG 1.1//EN" "http://www.w3.org/Graphics/SVG/1.1/DTD/svg11.dtd">
<svg xmlns="http://www.w3.org/2000/svg" version="1.1" viewBox="0 0 166 166" width="166.0pt" height="166.0pt">
<path d="M 0.00 0.00 L 13.42 0.00 C 11.64 3.79 10.79 7.05 6.44 8.57 C 3.14 9.59 5.38 13.41 4.86 15.92 C 3.12 16.11 1.60 15.68 0.00 15.07 L 0.00 0.00 Z" fill="#90805b" />
<path d="M 13.42 0.00 L 24.64 0.00 C 21.20 3.31 19.68 8.10 15.97 10.97 C 11.09 14.03 12.55 18.90 6.83 21.78 C 5.58 27.91 2.59 32.62 0.00 38.21 L 0.00 15.07 C 1.60 15.68 3.12 16.11 4.86 15.92 C 5.38 13.41 3.14 9.59 6.44 8.57 C 10.79 7.05 11.64 3.79 13.42 0.00 Z" fill="#ac9d79" />
<path d="M 24.64 0.00 L 30.32 0.00 C 26.12 3.86 24.78 9.31 19.84 12.80 C 16.24 14.53 17.67 18.60 15.05 21.03 C 11.66 23.55 12.06 27.80 8.76 30.67 C 6.38 37.41 4.99 45.14 3.11 52.13 C 2.12 55.59 2.94 58.68 0.00 61.34 L 0.00 38.21 C 2.59 32.62 5.58 27.91 6.83 21.78 C 12.55 18.90 11.09 14.03 15.97 10.97 C 19.68 8.10 21.20 3.31 24.64 0.00 Z" fill="#c1b392" />
<path d="M 30.32 0.00 L 41.29 0.00 C 39.66 5.76 34.55 3.29 31.65 7.65 C 28.60 12.20 23.57 14.11 20.98 19.07 C 15.67 25.69 18.42 33.63 11.70 39.69 C 8.40 41.92 10.59 44.24 11.72 46.96 C 7.60 50.09 5.58 57.79 6.54 62.76 C 2.60 71.35 5.56 78.23 5.01 87.00 C 3.62 95.82 7.86 102.28 8.38 110.75 C 11.37 115.53 12.17 119.55 12.84 125.07 C 12.76 129.91 18.58 128.74 21.12 132.91 C 19.46 132.92 17.80 132.94 16.14 132.93 C 13.74 130.59 10.48 130.97 8.82 128.26 C 7.33 123.14 4.97 118.49 3.54 113.32 C 1.20 109.40 2.87 105.16 0.00 101.45 L 0.00 61.34 C 2.94 58.68 2.12 55.59 3.11 52.13 C 4.99 45.14 6.38 37.41 8.76 30.67 C 12.06 27.80 11.66 23.55 15.05 21.03 C 17.67 18.60 16.24 14.53 19.84 12.80 C 24.78 9.31 26.12 3.86 30.32 0.00 Z" fill="#d3c5a7" />
<path d="M 41.29 0.00 L 51.48 0.00 C 45.90 1.13 43.78 5.40 39.39 8.41 C 36.91 10.73 33.97 11.22 32.63 14.65 C 31.18 18.72 24.54 18.41 23.40 22.27 C 23.34 25.45 25.45 30.25 22.44 32.45 C 18.53 36.31 15.82 42.42 14.60 47.65 C 15.85 52.87 9.93 54.08 11.15 58.93 C 13.61 67.02 7.73 75.20 10.12 83.86 C 11.58 88.30 11.13 92.69 10.29 97.19 C 11.13 104.26 12.00 113.13 17.40 118.33 C 16.55 121.89 17.78 124.53 18.75 128.19 C 23.04 129.80 26.48 132.26 31.16 132.86 L 28.88 133.02 C 26.56 133.06 24.23 133.12 21.91 133.12 L 21.12 132.91 C 18.58 128.74 12.76 129.91 12.84 125.07 C 12.17 119.55 11.37 115.53 8.38 110.75 C 7.86 102.28 3.62 95.82 5.01 87.00 C 5.56 78.23 2.60 71.35 6.54 62.76 C 5.58 57.79 7.60 50.09 11.72 46.96 C 10.59 44.24 8.40 41.92 11.70 39.69 C 18.42 33.63 15.67 25.69 20.98 19.07 C 23.57 14.11 28.60 12.20 31.65 7.65 C 34.55 3.29 39.66 5.76 41.29 0.00 Z" fill="#dfd6bd" />
<path d="M 51.48 0.00 L 68.40 0.00 C 66.65 4.01 64.86 0.30 61.00 2.90 C 52.38 -1.02 50.02 6.74 42.99 9.98 C 37.63 12.74 36.73 18.56 31.81 21.69 C 30.23 27.11 29.02 31.69 24.52 35.52 C 21.83 38.42 23.93 44.83 19.31 45.82 C 16.27 46.92 21.50 49.10 19.61 51.62 C 14.37 59.91 15.82 68.60 15.98 77.95 C 16.05 79.72 14.65 79.72 13.47 80.50 C 13.94 82.68 15.07 84.69 15.54 86.86 C 11.01 93.65 18.43 99.07 16.38 107.35 C 14.57 113.38 20.24 111.41 20.82 117.16 C 23.16 121.41 26.00 123.83 25.81 129.29 C 29.61 130.38 33.34 131.70 37.16 132.74 C 35.16 132.92 33.16 132.91 31.16 132.86 C 26.48 132.26 23.04 129.80 18.75 128.19 C 17.78 124.53 16.55 121.89 17.40 118.33 C 12.00 113.13 11.13 104.26 10.29 97.19 C 11.13 92.69 11.58 88.30 10.12 83.86 C 7.73 75.20 13.61 67.02 11.15 58.93 C 9.93 54.08 15.85 52.87 14.60 47.65 C 15.82 42.42 18.53 36.31 22.44 32.45 C 25.45 30.25 23.34 25.45 23.40 22.27 C 24.54 18.41 31.18 18.72 32.63 14.65 C 33.97 11.22 36.91 10.73 39.39 8.41 C 43.78 5.40 45.90 1.13 51.48 0.00 Z" fill="#ece5d1" />
<path d="M 68.40 0.00 L 99.78 0.00 C 107.48 4.76 114.02 10.02 122.59 13.54 C 124.82 14.83 124.64 14.80 123.56 16.96 C 128.54 19.31 130.55 23.92 134.98 27.02 C 141.20 31.25 139.63 41.68 145.34 45.71 C 150.61 49.04 149.72 53.07 147.09 57.93 C 149.16 62.28 153.09 62.96 149.39 67.76 C 153.65 72.13 148.93 72.62 149.99 77.99 C 149.59 87.53 148.94 97.50 145.43 106.36 C 144.72 111.65 145.77 114.32 141.60 118.37 C 142.24 124.06 136.69 125.61 134.75 130.29 C 134.15 133.32 129.75 130.73 128.70 133.85 C 125.18 134.03 121.67 134.01 118.15 134.05 C 117.79 132.66 117.42 131.28 117.18 129.87 C 121.42 133.95 123.21 130.09 127.35 128.35 C 128.80 123.10 133.82 118.99 135.80 113.93 C 136.38 110.73 136.17 106.26 139.18 104.23 C 141.91 102.56 142.05 98.43 141.43 95.63 C 140.23 90.81 144.06 87.06 142.82 82.03 C 141.82 76.91 143.85 72.82 145.51 68.13 C 144.98 66.91 143.94 68.25 143.07 68.41 C 139.95 62.27 141.13 52.41 139.05 45.98 C 136.18 44.50 136.02 42.78 134.92 40.01 C 131.30 32.69 126.74 26.26 119.00 22.91 C 116.05 15.50 112.12 14.21 105.92 10.03 C 104.15 10.69 104.01 13.44 103.17 14.98 C 103.34 13.95 103.26 12.94 102.93 11.95 C 102.50 8.32 99.16 7.44 96.17 6.55 C 94.17 6.09 92.04 5.91 89.99 5.67 C 87.61 4.40 85.54 4.61 83.01 5.26 C 82.15 5.16 81.30 5.05 80.44 4.95 C 75.62 3.33 69.69 3.70 64.75 4.67 C 63.41 4.95 62.08 5.29 60.77 5.67 C 58.74 6.21 56.79 6.90 54.99 8.01 C 53.44 9.36 54.08 13.14 53.76 15.09 C 52.47 14.02 46.55 9.11 49.46 13.97 C 45.97 16.81 41.09 17.80 39.40 23.46 C 31.46 23.71 36.45 31.76 31.91 35.91 C 28.23 39.81 26.62 43.67 25.79 48.94 C 23.18 56.00 20.76 63.60 19.77 71.08 C 22.59 76.22 19.34 80.17 20.55 85.37 C 21.30 89.02 20.94 92.58 20.68 96.24 C 20.44 102.65 26.19 107.23 26.50 113.96 C 26.67 119.13 29.48 123.32 31.74 128.20 C 34.09 128.08 37.51 130.53 39.28 129.32 C 40.62 126.79 39.82 122.65 40.15 119.77 C 40.69 121.55 41.24 123.33 41.79 125.11 L 41.79 125.89 C 41.18 128.04 40.60 130.20 39.94 132.33 C 39.02 132.51 38.09 132.65 37.16 132.74 C 33.34 131.70 29.61 130.38 25.81 129.29 C 26.00 123.83 23.16 121.41 20.82 117.16 C 20.24 111.41 14.57 113.38 16.38 107.35 C 18.43 99.07 11.01 93.65 15.54 86.86 C 15.07 84.69 13.94 82.68 13.47 80.50 C 14.65 79.72 16.05 79.72 15.98 77.95 C 15.82 68.60 14.37 59.91 19.61 51.62 C 21.50 49.10 16.27 46.92 19.31 45.82 C 23.93 44.83 21.83 38.42 24.52 35.52 C 29.02 31.69 30.23 27.11 31.81 21.69 C 36.73 18.56 37.63 12.74 42.99 9.98 C 50.02 6.74 52.38 -1.02 61.00 2.90 C 64.86 0.30 66.65 4.01 68.40 0.00 Z" fill="#f7f1e0" />
<path d="M 99.78 0.00 L 110.64 0.00 C 114.13 6.58 125.22 4.56 128.73 13.31 C 133.75 15.20 133.02 18.33 135.08 22.51 C 136.25 22.05 137.02 20.48 138.13 21.84 C 140.07 26.15 142.87 29.88 144.99 34.10 C 148.26 39.39 153.63 42.21 152.62 49.11 C 153.05 53.01 150.02 59.73 154.17 61.86 C 159.56 65.61 156.64 71.34 154.30 75.91 C 157.15 81.09 155.85 88.21 155.86 93.97 C 153.97 101.23 149.40 106.09 151.79 114.03 C 152.79 116.46 149.61 115.12 148.26 115.60 C 145.85 120.07 145.22 126.23 142.26 130.51 C 139.55 131.54 136.99 130.79 135.82 134.00 L 135.05 134.21 C 132.93 134.12 130.81 133.97 128.70 133.85 C 129.75 130.73 134.15 133.32 134.75 130.29 C 136.69 125.61 142.24 124.06 141.60 118.37 C 145.77 114.32 144.72 111.65 145.43 106.36 C 148.94 97.50 149.59 87.53 149.99 77.99 C 148.93 72.62 153.65 72.13 149.39 67.76 C 153.09 62.96 149.16 62.28 147.09 57.93 C 149.72 53.07 150.61 49.04 145.34 45.71 C 139.63 41.68 141.20 31.25 134.98 27.02 C 130.55 23.92 128.54 19.31 123.56 16.96 C 124.64 14.80 124.82 14.83 122.59 13.54 C 114.02 10.02 107.48 4.76 99.78 0.00 Z" fill="#efe6ce" />
<path d="M 110.64 0.00 L 119.58 0.00 C 121.84 3.49 126.16 3.97 128.73 7.31 C 140.02 14.88 146.20 25.50 153.65 36.32 C 155.98 40.92 156.72 44.81 157.08 49.84 C 160.90 54.20 160.81 55.41 160.10 61.01 C 163.68 70.02 162.03 79.69 160.05 88.98 C 160.84 100.62 158.02 113.16 152.53 123.45 C 150.13 129.56 145.62 131.67 139.85 133.86 C 138.51 133.90 137.16 133.95 135.82 134.00 C 136.99 130.79 139.55 131.54 142.26 130.51 C 145.22 126.23 145.85 120.07 148.26 115.60 C 149.61 115.12 152.79 116.46 151.79 114.03 C 149.40 106.09 153.97 101.23 155.86 93.97 C 155.85 88.21 157.15 81.09 154.30 75.91 C 156.64 71.34 159.56 65.61 154.17 61.86 C 150.02 59.73 153.05 53.01 152.62 49.11 C 153.63 42.21 148.26 39.39 144.99 34.10 C 142.87 29.88 140.07 26.15 138.13 21.84 C 137.02 20.48 136.25 22.05 135.08 22.51 C 133.02 18.33 133.75 15.20 128.73 13.31 C 125.22 4.56 114.13 6.58 110.64 0.00 Z" fill="#e6d9bc" />
<path d="M 119.58 0.00 L 126.86 0.00 C 128.58 4.52 132.09 4.17 135.84 6.11 C 142.08 8.15 137.40 16.25 145.53 16.54 C 148.34 21.60 150.36 24.40 155.05 27.90 C 157.46 33.54 158.86 40.30 161.40 46.27 C 162.05 51.36 163.07 56.19 166.00 60.52 L 166.00 112.69 C 163.76 115.62 165.05 119.03 160.52 119.24 C 163.18 121.99 159.59 130.25 155.17 129.36 C 161.02 131.41 153.75 130.57 152.36 133.32 C 149.04 134.87 143.58 133.66 139.85 133.86 C 145.62 131.67 150.13 129.56 152.53 123.45 C 158.02 113.16 160.84 100.62 160.05 88.98 C 162.03 79.69 163.68 70.02 160.10 61.01 C 160.81 55.41 160.90 54.20 157.08 49.84 C 156.72 44.81 155.98 40.92 153.65 36.32 C 146.20 25.50 140.02 14.88 128.73 7.31 C 126.16 3.97 121.84 3.49 119.58 0.00 Z" fill="#dbc9a8" />
<path d="M 126.86 0.00 L 135.59 0.00 C 140.37 5.74 143.80 10.80 150.81 14.20 C 153.83 15.32 148.29 16.59 150.96 18.04 C 154.45 20.47 155.78 24.34 159.43 26.57 C 160.54 33.08 161.20 34.77 166.00 39.30 L 166.00 60.52 C 163.07 56.19 162.05 51.36 161.40 46.27 C 158.86 40.30 157.46 33.54 155.05 27.90 C 150.36 24.40 148.34 21.60 145.53 16.54 C 137.40 16.25 142.08 8.15 135.84 6.11 C 132.09 4.17 128.58 4.52 126.86 0.00 Z" fill="#cfbc96" />
<path d="M 135.59 0.00 L 143.96 0.00 C 142.56 9.20 151.65 4.61 152.89 12.12 C 154.28 16.51 159.41 19.34 161.95 23.01 C 163.40 26.13 164.52 29.39 166.00 32.50 L 166.00 39.30 C 161.20 34.77 160.54 33.08 159.43 26.57 C 155.78 24.34 154.45 20.47 150.96 18.04 C 148.29 16.59 153.83 15.32 150.81 14.20 C 143.80 10.80 140.37 5.74 135.59 0.00 Z" fill="#c2ab80" />
<path d="M 143.96 0.00 L 151.77 0.00 C 152.23 4.77 157.06 5.70 158.78 10.21 C 160.28 14.37 164.43 15.34 166.00 19.36 L 166.00 32.50 C 164.52 29.39 163.40 26.13 161.95 23.01 C 159.41 19.34 154.28 16.51 152.89 12.12 C 151.65 4.61 142.56 9.20 143.96 0.00 Z" fill="#b5996d" />
<path d="M 151.77 0.00 L 166.00 0.00 L 166.00 19.36 C 164.43 15.34 160.28 14.37 158.78 10.21 C 157.06 5.70 152.23 4.77 151.77 0.00 Z" fill="#997d50" />
<path d="M 80.44 4.95 C 75.20 5.04 69.98 5.14 64.75 4.67 C 69.69 3.70 75.62 3.33 80.44 4.95 Z" fill="#dab494" />
<path d="M 64.75 4.67 C 69.98 5.14 75.20 5.04 80.44 4.95 C 76.41 6.44 72.35 6.74 68.14 7.26 C 71.44 16.22 78.70 12.04 86.08 13.12 C 83.20 16.73 73.72 14.58 69.34 14.74 C 68.85 10.33 61.38 8.90 66.82 6.14 C 64.80 5.95 62.78 5.81 60.77 5.67 C 62.08 5.29 63.41 4.95 64.75 4.67 Z" fill="#6d2f0e" />
<path d="M 80.44 4.95 C 81.30 5.05 82.15 5.16 83.01 5.26 C 83.61 5.59 84.23 5.91 84.85 6.21 C 86.87 7.54 89.35 7.12 88.43 10.26 C 87.65 11.22 86.89 12.19 86.08 13.12 C 78.70 12.04 71.44 16.22 68.14 7.26 C 72.35 6.74 76.41 6.44 80.44 4.95 Z" fill="#b25211" />
<path d="M 83.01 5.26 C 85.54 4.61 87.61 4.40 89.99 5.67 C 88.29 6.08 86.61 6.37 84.85 6.21 C 84.23 5.91 83.61 5.59 83.01 5.26 Z" fill="#c79974" />
<path d="M 60.77 5.67 C 62.78 5.81 64.80 5.95 66.82 6.14 C 61.38 8.90 68.85 10.33 69.34 14.74 C 73.72 14.58 83.20 16.73 86.08 13.12 C 86.89 12.19 87.65 11.22 88.43 10.26 C 90.95 8.70 93.12 6.98 96.17 6.55 C 99.16 7.44 102.50 8.32 102.93 11.95 C 101.60 13.21 101.67 14.37 102.17 16.02 C 101.37 17.29 100.55 18.58 99.87 19.91 C 98.38 24.08 98.53 34.04 99.88 38.32 L 100.19 39.21 C 98.13 40.16 96.98 39.79 94.94 39.11 C 87.03 33.71 90.80 27.19 90.67 19.34 C 90.43 17.73 91.79 15.84 89.26 16.16 C 83.47 15.82 77.64 16.03 71.85 16.07 C 64.42 14.63 70.83 20.46 73.98 19.98 C 75.33 20.07 76.68 20.17 78.03 20.29 C 76.05 23.84 68.59 19.81 69.00 25.01 C 69.92 30.64 70.58 34.80 66.05 39.14 C 64.33 39.48 62.61 39.75 60.87 39.99 C 60.07 34.84 65.04 23.83 58.94 21.22 L 58.20 20.79 C 58.37 18.92 58.08 18.22 56.17 17.80 C 55.74 17.24 55.31 16.69 54.89 16.14 C 54.93 13.43 54.96 10.72 54.99 8.01 C 56.79 6.90 58.74 6.21 60.77 5.67 Z" fill="#230d06" />
<path d="M 84.85 6.21 C 86.61 6.37 88.29 6.08 89.99 5.67 C 92.04 5.91 94.17 6.09 96.17 6.55 C 93.12 6.98 90.95 8.70 88.43 10.26 C 89.35 7.12 86.87 7.54 84.85 6.21 Z" fill="#654024" />
<path d="M 54.99 8.01 C 54.96 10.72 54.93 13.43 54.89 16.14 L 53.76 15.09 C 54.08 13.14 53.44 9.36 54.99 8.01 Z" fill="#9d9582" />
<path d="M 105.92 10.03 C 112.12 14.21 116.05 15.50 119.00 22.91 C 126.74 26.26 131.30 32.69 134.92 40.01 C 136.02 42.78 136.18 44.50 139.05 45.98 C 141.13 52.41 139.95 62.27 143.07 68.41 C 143.94 68.25 144.98 66.91 145.51 68.13 C 143.85 72.82 141.82 76.91 142.82 82.03 C 144.06 87.06 140.23 90.81 141.43 95.63 C 142.05 98.43 141.91 102.56 139.18 104.23 C 136.17 106.26 136.38 110.73 135.80 113.93 C 133.82 118.99 128.80 123.10 127.35 128.35 C 123.21 130.09 121.42 133.95 117.18 129.87 C 116.84 126.90 116.91 123.88 116.92 120.89 C 117.35 119.54 117.20 118.56 116.86 117.21 C 116.95 114.04 116.98 110.88 116.81 107.71 L 117.24 107.00 C 118.62 105.63 118.88 103.96 116.79 103.16 C 117.00 99.75 116.98 96.34 116.94 92.93 C 117.89 90.73 117.89 90.26 116.92 88.07 C 116.92 85.37 116.98 82.66 117.04 79.96 L 117.11 79.05 C 118.72 77.65 118.76 76.33 117.03 75.03 L 116.80 74.23 C 116.91 71.43 116.95 68.65 116.91 65.84 C 119.03 64.10 118.57 62.05 117.20 60.00 C 116.39 57.33 115.96 54.53 114.96 51.93 C 112.57 46.08 105.53 42.07 100.19 39.21 L 99.88 38.32 C 100.04 32.17 100.06 26.05 99.87 19.91 C 100.55 18.58 101.37 17.29 102.17 16.02 L 103.17 14.98 C 104.01 13.44 104.15 10.69 105.92 10.03 Z" fill="#fdfdf7" />
<path d="M 53.76 15.09 L 54.89 16.14 C 55.31 16.69 55.74 17.24 56.17 17.80 C 56.26 19.31 56.55 20.43 58.20 20.79 C 57.95 24.04 57.68 27.15 58.77 30.29 L 59.25 32.04 C 58.71 34.52 58.68 36.48 59.23 38.97 C 56.18 43.23 50.33 43.70 47.03 48.04 C 42.30 52.58 40.98 60.50 41.18 66.77 C 41.09 69.56 41.08 72.34 41.13 75.13 L 40.89 75.83 C 39.40 77.41 39.23 78.76 41.18 80.03 C 41.07 82.72 41.08 85.39 41.16 88.08 L 40.95 88.78 C 39.84 91.24 41.11 94.30 41.04 96.99 C 41.45 100.87 39.66 104.57 40.90 108.16 C 41.01 110.77 41.05 113.38 41.03 115.99 C 40.48 117.25 40.07 118.37 40.15 119.77 C 39.82 122.65 40.62 126.79 39.28 129.32 C 37.51 130.53 34.09 128.08 31.74 128.20 C 29.48 123.32 26.67 119.13 26.50 113.96 C 26.19 107.23 20.44 102.65 20.68 96.24 C 20.94 92.58 21.30 89.02 20.55 85.37 C 19.34 80.17 22.59 76.22 19.77 71.08 C 20.76 63.60 23.18 56.00 25.79 48.94 C 26.62 43.67 28.23 39.81 31.91 35.91 C 36.45 31.76 31.46 23.71 39.40 23.46 C 41.09 17.80 45.97 16.81 49.46 13.97 C 46.55 9.11 52.47 14.02 53.76 15.09 Z" fill="#fcfcf5" />
<path d="M 102.93 11.95 C 103.26 12.94 103.34 13.95 103.17 14.98 L 102.17 16.02 C 101.67 14.37 101.60 13.21 102.93 11.95 Z" fill="#756d5f" />
<path d="M 71.85 16.07 C 76.24 19.62 81.33 19.69 86.71 19.57 C 87.95 19.02 88.58 17.26 89.26 16.16 C 91.79 15.84 90.43 17.73 90.67 19.34 C 90.80 27.19 87.03 33.71 94.94 39.11 C 94.01 39.09 93.08 39.08 92.15 39.08 L 91.18 39.00 L 89.96 38.00 C 87.81 33.50 88.06 29.16 87.74 24.34 C 82.28 23.04 76.67 22.55 71.08 23.21 C 72.53 29.08 74.39 37.87 66.05 39.14 C 70.58 34.80 69.92 30.64 69.00 25.01 C 68.59 19.81 76.05 23.84 78.03 20.29 C 76.68 20.17 75.33 20.07 73.98 19.98 C 70.83 20.46 64.42 14.63 71.85 16.07 Z" fill="#4e1406" />
<path d="M 71.85 16.07 C 77.64 16.03 83.47 15.82 89.26 16.16 C 88.58 17.26 87.95 19.02 86.71 19.57 C 81.33 19.69 76.24 19.62 71.85 16.07 Z" fill="#6f2c14" />
<path d="M 56.17 17.80 C 58.08 18.22 58.37 18.92 58.20 20.79 C 56.55 20.43 56.26 19.31 56.17 17.80 Z" fill="#8e8679" />
<path d="M 99.87 19.91 C 100.06 26.05 100.04 32.17 99.88 38.32 C 98.53 34.04 98.38 24.08 99.87 19.91 Z" fill="#a69e94" />
<path d="M 58.20 20.79 L 58.94 21.22 C 59.05 24.25 58.92 27.27 58.77 30.29 C 57.68 27.15 57.95 24.04 58.20 20.79 Z" fill="#9f9182" />
<path d="M 58.94 21.22 C 65.04 23.83 60.07 34.84 60.87 39.99 C 59.46 43.06 62.40 42.05 64.37 42.36 C 67.13 42.25 69.69 41.93 72.16 40.62 C 76.85 41.24 81.53 41.08 86.23 40.74 C 87.78 40.85 89.32 40.91 90.87 40.92 C 97.97 40.37 104.39 43.28 109.47 48.09 C 104.43 48.76 99.90 45.55 94.38 47.45 C 89.83 48.91 85.69 45.96 81.38 47.47 C 74.32 50.78 64.04 51.59 57.20 47.53 C 53.30 49.06 49.19 51.08 46.24 54.10 C 46.48 52.08 46.77 50.06 47.03 48.04 C 50.33 43.70 56.18 43.23 59.23 38.97 C 60.99 36.90 60.43 34.24 59.25 32.04 L 58.77 30.29 C 58.92 27.27 59.05 24.25 58.94 21.22 Z" fill="#351408" />
<path d="M 71.08 23.21 C 76.67 22.55 82.28 23.04 87.74 24.34 C 88.06 29.16 87.81 33.50 89.96 38.00 C 85.82 35.19 85.68 30.98 85.59 26.47 C 83.12 25.17 79.35 22.69 76.68 24.69 C 75.52 26.01 77.52 28.61 77.73 30.14 C 78.28 34.67 70.05 36.87 72.16 40.62 C 69.69 41.93 67.13 42.25 64.37 42.36 C 62.40 42.05 59.46 43.06 60.87 39.99 C 62.61 39.75 64.33 39.48 66.05 39.14 C 74.39 37.87 72.53 29.08 71.08 23.21 Z" fill="#833310" />
<path d="M 85.59 26.47 C 85.68 30.98 85.82 35.19 89.96 38.00 L 91.18 39.00 C 83.80 39.23 80.32 33.46 73.93 39.77 C 78.17 40.18 82.08 39.58 86.23 40.74 C 81.53 41.08 76.85 41.24 72.16 40.62 C 70.05 36.87 78.28 34.67 77.73 30.14 C 77.52 28.61 75.52 26.01 76.68 24.69 C 79.35 22.69 83.12 25.17 85.59 26.47 Z" fill="#aa410a" />
<path d="M 59.25 32.04 C 60.43 34.24 60.99 36.90 59.23 38.97 C 58.68 36.48 58.71 34.52 59.25 32.04 Z" fill="#675c4b" />
<path d="M 91.18 39.00 L 92.15 39.08 C 91.72 39.69 91.30 40.30 90.87 40.92 C 89.32 40.91 87.78 40.85 86.23 40.74 C 82.08 39.58 78.17 40.18 73.93 39.77 C 80.32 33.46 83.80 39.23 91.18 39.00 Z" fill="#dd722d" />
<path d="M 92.15 39.08 C 93.08 39.08 94.01 39.09 94.94 39.11 C 96.98 39.79 98.13 40.16 100.19 39.21 C 105.53 42.07 112.57 46.08 114.96 51.93 C 114.40 52.29 113.84 52.64 113.28 53.00 L 112.27 51.87 C 111.45 50.49 110.70 49.15 109.47 48.09 C 104.39 43.28 97.97 40.37 90.87 40.92 C 91.30 40.30 91.72 39.69 92.15 39.08 Z" fill="#967454" />
<path d="M 57.20 47.53 C 64.04 51.59 74.32 50.78 81.38 47.47 C 85.69 45.96 89.83 48.91 94.38 47.45 C 99.90 45.55 104.43 48.76 109.47 48.09 C 110.70 49.15 111.45 50.49 112.27 51.87 C 102.76 47.43 94.73 50.73 84.99 48.97 C 82.85 49.02 80.63 49.89 78.66 50.69 C 69.17 57.92 54.05 47.62 46.02 56.07 L 46.24 54.10 C 49.19 51.08 53.30 49.06 57.20 47.53 Z" fill="#93400a" />
<path d="M 47.03 48.04 C 46.77 50.06 46.48 52.08 46.24 54.10 L 46.02 56.07 L 45.78 57.95 C 44.95 61.20 44.91 64.47 44.77 67.79 C 43.99 69.25 44.78 73.68 42.23 72.18 C 41.98 70.35 41.64 68.56 41.18 66.77 C 40.98 60.50 42.30 52.58 47.03 48.04 Z" fill="#75481f" />
<path d="M 84.99 48.97 C 94.73 50.73 102.76 47.43 112.27 51.87 L 113.28 53.00 C 113.66 54.94 113.92 56.91 114.22 58.87 C 113.31 58.20 112.13 55.01 110.83 55.92 C 104.65 58.67 99.79 53.32 93.78 55.75 C 90.70 50.40 89.80 52.29 85.16 54.23 C 82.48 56.21 80.45 52.06 79.33 54.94 C 79.12 53.52 78.89 52.11 78.66 50.69 C 80.63 49.89 82.85 49.02 84.99 48.97 Z" fill="#e68619" />
<path d="M 78.66 50.69 C 78.89 52.11 79.12 53.52 79.33 54.94 C 79.91 57.64 78.15 56.87 76.39 57.82 C 74.09 63.59 74.26 73.06 76.01 78.88 C 74.98 82.34 74.88 84.53 75.62 88.07 C 74.17 87.05 67.99 87.11 69.30 89.84 C 73.01 94.97 65.25 99.79 68.02 105.99 C 69.75 109.81 67.22 112.24 64.28 114.28 C 60.29 111.46 58.37 112.02 53.90 113.13 C 52.03 106.82 51.15 115.54 47.87 108.07 C 54.47 107.59 46.57 104.11 50.98 100.75 C 53.12 102.52 53.86 105.28 55.69 107.14 C 63.19 108.29 66.15 104.74 64.15 96.94 C 65.14 96.64 69.15 97.91 66.92 95.96 C 64.88 94.18 68.81 94.53 68.24 92.60 C 67.71 86.73 69.99 81.54 68.49 75.62 C 67.84 72.71 70.76 72.34 72.92 72.33 C 72.68 68.94 72.32 65.80 72.71 62.39 C 70.34 61.61 65.21 62.35 68.28 58.43 C 68.45 53.31 64.51 55.64 61.11 55.62 C 56.34 54.06 52.15 54.02 47.79 56.85 C 47.12 57.22 46.45 57.59 45.78 57.95 L 46.02 56.07 C 54.05 47.62 69.17 57.92 78.66 50.69 Z" fill="#df650d" />
<path d="M 93.78 55.75 C 94.90 57.54 98.75 56.77 100.66 57.27 C 100.47 59.48 100.14 61.68 100.08 63.90 C 99.95 65.90 99.90 67.76 98.79 69.49 C 95.81 69.89 92.62 67.56 91.82 71.84 C 91.34 75.32 88.35 81.50 92.84 83.30 C 92.95 85.51 92.98 87.72 93.04 89.94 L 93.10 92.37 C 92.05 96.72 89.99 89.27 89.94 88.02 C 86.93 90.17 87.43 92.87 86.39 96.05 C 85.80 94.09 86.40 87.25 83.03 88.02 C 80.33 87.29 80.77 91.68 80.29 93.44 C 82.61 93.65 83.35 94.11 84.90 95.84 C 82.93 96.29 81.55 96.67 79.75 95.58 C 77.51 91.38 79.84 82.24 76.01 78.88 C 74.26 73.06 74.09 63.59 76.39 57.82 C 78.15 56.87 79.91 57.64 79.33 54.94 C 80.45 52.06 82.48 56.21 85.16 54.23 C 89.80 52.29 90.70 50.40 93.78 55.75 Z" fill="#f8a91d" />
<path d="M 114.96 51.93 C 115.96 54.53 116.39 57.33 117.20 60.00 C 116.78 61.99 116.72 63.83 116.91 65.84 C 115.58 69.00 115.68 71.04 116.80 74.23 L 117.03 75.03 C 116.76 76.39 116.79 77.73 117.11 79.05 L 117.04 79.96 L 116.06 80.00 C 115.75 79.22 115.44 78.43 115.14 77.65 C 112.41 70.85 117.52 64.77 114.22 58.87 C 113.92 56.91 113.66 54.94 113.28 53.00 C 113.84 52.64 114.40 52.29 114.96 51.93 Z" fill="#8a611d" />
<path d="M 61.11 55.62 C 64.51 55.64 68.45 53.31 68.28 58.43 C 65.21 62.35 70.34 61.61 72.71 62.39 C 72.32 65.80 72.68 68.94 72.92 72.33 C 70.76 72.34 67.84 72.71 68.49 75.62 C 69.99 81.54 67.71 86.73 68.24 92.60 C 68.81 94.53 64.88 94.18 66.92 95.96 C 69.15 97.91 65.14 96.64 64.15 96.94 C 61.66 96.11 57.02 94.57 57.02 98.81 C 59.31 101.23 60.74 101.14 58.03 104.23 C 55.52 102.91 55.61 97.54 52.90 97.03 C 47.07 95.83 46.18 104.42 47.87 108.07 C 51.15 115.54 52.03 106.82 53.90 113.13 C 49.26 112.92 48.32 115.58 46.19 118.93 C 46.08 116.99 46.05 115.07 45.86 113.14 C 45.40 109.43 44.84 105.81 45.02 102.06 C 46.57 100.91 46.39 99.63 45.78 97.99 L 45.65 97.22 C 45.45 90.40 48.25 85.19 45.20 78.79 C 45.01 75.13 44.94 71.46 44.77 67.79 C 44.91 64.47 44.95 61.20 45.78 57.95 C 46.45 57.59 47.12 57.22 47.79 56.85 C 46.54 61.02 46.15 71.39 52.97 70.02 C 56.28 70.36 56.00 65.55 55.66 63.39 C 54.42 60.35 62.14 63.70 60.81 60.27 C 56.06 59.77 51.77 59.94 47.79 56.85 C 52.15 54.02 56.34 54.06 61.11 55.62 Z" fill="#f6851b" />
<path d="M 110.83 55.92 C 110.62 58.40 111.96 67.17 107.29 65.95 C 107.21 63.01 110.06 57.43 105.15 57.68 C 99.03 56.03 102.56 66.49 105.76 68.15 C 102.23 67.56 101.57 67.15 100.08 63.90 C 100.14 61.68 100.47 59.48 100.66 57.27 C 98.75 56.77 94.90 57.54 93.78 55.75 C 99.79 53.32 104.65 58.67 110.83 55.92 Z" fill="#974d06" />
<path d="M 114.22 58.87 C 117.52 64.77 112.41 70.85 115.14 77.65 C 113.44 80.64 112.30 82.76 113.71 86.21 C 114.44 88.70 114.94 90.37 113.94 92.89 C 111.28 96.99 110.12 94.74 106.29 93.78 C 107.27 93.04 114.07 88.91 109.23 89.21 C 107.47 89.09 105.70 88.99 103.93 88.91 C 105.22 86.80 106.74 83.77 103.99 82.09 C 110.16 83.23 111.90 78.55 108.71 74.25 C 104.43 73.69 100.00 74.12 95.68 73.92 L 96.00 72.97 C 97.92 72.45 108.21 74.52 106.83 71.20 C 102.99 70.98 98.47 70.39 94.79 71.66 C 91.86 73.66 93.33 79.16 92.87 82.28 L 92.84 83.30 C 88.35 81.50 91.34 75.32 91.82 71.84 C 92.62 67.56 95.81 69.89 98.79 69.49 C 99.90 67.76 99.95 65.90 100.08 63.90 C 101.57 67.15 102.23 67.56 105.76 68.15 C 102.56 66.49 99.03 56.03 105.15 57.68 C 110.06 57.43 107.21 63.01 107.29 65.95 C 111.96 67.17 110.62 58.40 110.83 55.92 C 112.13 55.01 113.31 58.20 114.22 58.87 Z" fill="#f1a832" />
<path d="M 47.79 56.85 C 51.77 59.94 56.06 59.77 60.81 60.27 C 62.14 63.70 54.42 60.35 55.66 63.39 C 56.00 65.55 56.28 70.36 52.97 70.02 C 46.15 71.39 46.54 61.02 47.79 56.85 Z" fill="#da6e0f" />
<path d="M 83.34 60.28 C 87.00 59.06 85.64 65.83 82.98 64.95 C 79.75 65.97 80.58 60.30 83.34 60.28 Z" fill="#8a4602" />
<path d="M 117.20 60.00 C 118.57 62.05 119.03 64.10 116.91 65.84 C 116.72 63.83 116.78 61.99 117.20 60.00 Z" fill="#ada071" />
<path d="M 116.91 65.84 C 116.95 68.65 116.91 71.43 116.80 74.23 C 115.68 71.04 115.58 69.00 116.91 65.84 Z" fill="#b99c72" />
<path d="M 41.18 66.77 C 41.64 68.56 41.98 70.35 42.23 72.18 C 41.87 73.17 41.51 74.15 41.13 75.13 C 41.08 72.34 41.09 69.56 41.18 66.77 Z" fill="#ccc1a1" />
<path d="M 44.77 67.79 C 44.94 71.46 45.01 75.13 45.20 78.79 C 45.12 84.84 44.39 91.28 45.65 97.22 L 45.78 97.99 C 44.56 99.30 44.61 100.40 45.02 102.06 C 44.84 105.81 45.40 109.43 45.86 113.14 L 45.02 112.84 C 43.68 110.60 42.83 108.32 42.13 105.82 C 41.61 100.27 42.92 94.00 40.95 88.78 L 41.16 88.08 C 42.38 84.95 42.35 83.16 41.18 80.03 C 42.27 78.17 42.20 77.55 40.89 75.83 L 41.13 75.13 C 41.51 74.15 41.87 73.17 42.23 72.18 C 44.78 73.68 43.99 69.25 44.77 67.79 Z" fill="#602909" />
<path d="M 106.83 71.20 C 108.21 74.52 97.92 72.45 96.00 72.97 L 94.79 71.66 C 98.47 70.39 102.99 70.98 106.83 71.20 Z" fill="#b55f05" />
<path d="M 94.79 71.66 L 96.00 72.97 L 95.68 73.92 C 94.65 76.31 94.93 78.48 95.61 80.91 C 96.23 84.06 94.79 82.30 92.87 82.28 C 93.33 79.16 91.86 73.66 94.79 71.66 Z" fill="#742501" />
<path d="M 56.37 73.30 C 62.16 72.62 65.17 79.11 60.88 82.90 C 56.54 83.94 47.58 87.87 47.30 80.25 C 46.75 73.18 50.19 72.49 56.37 73.30 Z" fill="#d66909" />
<path d="M 95.68 73.92 C 98.04 78.82 106.87 72.32 107.98 77.11 C 109.28 84.13 99.47 77.66 95.61 80.91 C 94.93 78.48 94.65 76.31 95.68 73.92 Z" fill="#f39a32" />
<path d="M 95.68 73.92 C 100.00 74.12 104.43 73.69 108.71 74.25 C 111.90 78.55 110.16 83.23 103.99 82.09 C 101.21 81.49 98.46 81.00 95.61 80.91 C 99.47 77.66 109.28 84.13 107.98 77.11 C 106.87 72.32 98.04 78.82 95.68 73.92 Z" fill="#aa4d04" />
<path d="M 117.03 75.03 C 118.76 76.33 118.72 77.65 117.11 79.05 C 116.79 77.73 116.76 76.39 117.03 75.03 Z" fill="#b09f8e" />
<path d="M 40.89 75.83 C 42.20 77.55 42.27 78.17 41.18 80.03 C 39.23 78.76 39.40 77.41 40.89 75.83 Z" fill="#bca584" />
<path d="M 51.13 77.20 C 53.61 77.39 64.04 75.04 60.31 80.28 C 57.38 81.20 48.97 82.92 51.13 77.20 Z" fill="#fc902a" />
<path d="M 115.14 77.65 C 115.01 80.58 114.42 83.37 113.71 86.21 C 112.30 82.76 113.44 80.64 115.14 77.65 Z" fill="#ac6d14" />
<path d="M 115.14 77.65 C 115.44 78.43 115.75 79.22 116.06 80.00 C 116.06 82.86 115.60 85.41 116.92 88.07 C 117.89 90.26 117.89 90.73 116.94 92.93 C 115.34 96.26 115.77 99.74 116.79 103.16 C 116.70 104.47 116.85 105.75 117.24 107.00 L 116.81 107.71 L 115.87 109.01 C 111.95 113.19 116.13 117.02 113.40 121.81 L 112.10 123.11 C 112.12 122.13 112.15 121.14 112.20 120.16 C 113.40 116.02 110.89 112.69 112.75 108.69 C 115.47 103.44 111.42 98.53 113.94 92.89 C 114.94 90.37 114.44 88.70 113.71 86.21 C 114.42 83.37 115.01 80.58 115.14 77.65 Z" fill="#5d2f0b" />
<path d="M 45.20 78.79 C 48.25 85.19 45.45 90.40 45.65 97.22 C 44.39 91.28 45.12 84.84 45.20 78.79 Z" fill="#b56118" />
<path d="M 76.01 78.88 C 79.84 82.24 77.51 91.38 79.75 95.58 C 81.55 96.67 82.93 96.29 84.90 95.84 C 83.35 94.11 82.61 93.65 80.29 93.44 C 80.77 91.68 80.33 87.29 83.03 88.02 C 86.40 87.25 85.80 94.09 86.39 96.05 C 87.43 92.87 86.93 90.17 89.94 88.02 C 89.99 89.27 92.05 96.72 93.10 92.37 C 98.50 90.72 104.00 91.38 109.23 89.21 C 114.07 88.91 107.27 93.04 106.29 93.78 C 110.12 94.74 111.28 96.99 113.94 92.89 C 111.42 98.53 115.47 103.44 112.75 108.69 C 110.89 112.69 113.40 116.02 112.20 120.16 C 111.28 119.18 110.37 117.99 109.22 117.28 C 108.24 116.66 107.22 116.13 106.16 115.70 C 102.77 114.21 98.80 114.50 95.51 112.95 C 101.94 109.96 101.24 104.97 105.47 100.55 C 109.54 99.77 106.57 97.20 104.76 98.72 C 100.35 101.05 100.56 106.62 97.01 109.17 C 92.76 107.18 96.35 102.20 96.88 99.02 C 92.90 99.23 92.68 103.95 91.69 106.86 C 90.73 109.56 89.72 111.81 86.79 112.77 C 83.81 113.27 87.67 114.88 88.19 116.09 C 86.77 116.87 82.41 119.53 83.09 116.00 C 83.57 112.17 80.69 112.72 80.54 110.20 C 83.17 107.52 82.46 107.07 85.91 108.85 C 86.69 104.02 85.20 102.40 80.88 105.00 C 80.23 105.62 79.60 106.26 78.97 106.91 C 77.55 100.57 75.86 94.64 75.62 88.07 C 74.88 84.53 74.98 82.34 76.01 78.88 Z" fill="#e97617" />
<path d="M 41.18 80.03 C 42.35 83.16 42.38 84.95 41.16 88.08 C 41.08 85.39 41.07 82.72 41.18 80.03 Z" fill="#b4a180" />
<path d="M 116.06 80.00 L 117.04 79.96 C 116.98 82.66 116.92 85.37 116.92 88.07 C 115.60 85.41 116.06 82.86 116.06 80.00 Z" fill="#af957c" />
<path d="M 95.61 80.91 C 98.46 81.00 101.21 81.49 103.99 82.09 C 106.74 83.77 105.22 86.80 103.93 88.91 C 100.25 89.03 96.46 88.57 93.04 89.94 C 92.98 87.72 92.95 85.51 92.84 83.30 L 92.87 82.28 C 94.79 82.30 96.23 84.06 95.61 80.91 Z" fill="#ef891a" />
<path d="M 75.62 88.07 C 75.86 94.64 77.55 100.57 78.97 106.91 C 78.52 108.97 78.49 111.05 78.40 113.15 C 74.41 108.43 78.39 104.51 73.65 100.47 C 71.72 100.71 68.24 102.65 70.01 104.97 C 73.35 110.56 65.03 115.90 68.00 121.00 C 70.24 127.28 66.17 133.57 58.98 132.06 C 51.85 131.83 60.34 130.98 61.88 129.92 C 61.09 125.09 56.34 127.49 53.04 127.80 C 55.27 124.97 47.47 126.33 46.91 123.00 C 51.88 123.21 56.81 122.65 61.66 121.58 C 64.67 120.25 63.78 116.98 64.28 114.28 C 67.22 112.24 69.75 109.81 68.02 105.99 C 65.25 99.79 73.01 94.97 69.30 89.84 C 67.99 87.11 74.17 87.05 75.62 88.07 Z" fill="#b2450c" />
<path d="M 63.88 89.49 C 60.76 90.84 57.74 91.92 54.39 92.57 C 52.26 93.09 50.29 93.73 48.09 93.92 C 47.20 88.98 52.04 90.42 55.15 89.14 C 57.93 88.76 61.84 86.61 63.88 89.49 Z" fill="#dc6508" />
<path d="M 40.95 88.78 C 42.92 94.00 41.61 100.27 42.13 105.82 L 42.01 107.92 L 40.90 108.16 C 39.66 104.57 41.45 100.87 41.04 96.99 C 41.11 94.30 39.84 91.24 40.95 88.78 Z" fill="#a09066" />
<path d="M 103.93 88.91 C 105.70 88.99 107.47 89.09 109.23 89.21 C 104.00 91.38 98.50 90.72 93.10 92.37 L 93.04 89.94 C 96.46 88.57 100.25 89.03 103.93 88.91 Z" fill="#9d3701" />
<path d="M 116.94 92.93 C 116.98 96.34 117.00 99.75 116.79 103.16 C 115.77 99.74 115.34 96.26 116.94 92.93 Z" fill="#a29584" />
<path d="M 64.15 96.94 C 66.15 104.74 63.19 108.29 55.69 107.14 C 53.86 105.28 53.12 102.52 50.98 100.75 C 46.57 104.11 54.47 107.59 47.87 108.07 C 46.18 104.42 47.07 95.83 52.90 97.03 C 55.61 97.54 55.52 102.91 58.03 104.23 C 60.74 101.14 59.31 101.23 57.02 98.81 C 57.02 94.57 61.66 96.11 64.15 96.94 Z" fill="#b94206" />
<path d="M 45.78 97.99 C 46.39 99.63 46.57 100.91 45.02 102.06 C 44.61 100.40 44.56 99.30 45.78 97.99 Z" fill="#b25b1a" />
<path d="M 105.47 100.55 C 101.24 104.97 101.94 109.96 95.51 112.95 C 92.78 111.74 92.67 109.36 91.69 106.86 C 92.68 103.95 92.90 99.23 96.88 99.02 C 96.35 102.20 92.76 107.18 97.01 109.17 C 100.56 106.62 100.35 101.05 104.76 98.72 C 106.57 97.20 109.54 99.77 105.47 100.55 Z" fill="#781b05" />
<path d="M 73.65 100.47 C 78.39 104.51 74.41 108.43 78.40 113.15 C 79.54 115.77 77.46 125.89 81.23 119.05 C 80.76 121.94 81.22 123.18 78.09 124.27 C 76.02 121.60 77.20 121.12 77.93 118.27 C 74.85 118.19 71.98 117.97 69.06 119.19 C 70.24 120.63 71.65 121.77 72.95 123.08 C 70.98 125.56 67.78 126.72 72.71 128.53 C 71.14 132.03 67.58 132.78 67.74 136.76 C 66.75 139.06 71.91 140.18 71.61 141.86 C 69.82 144.24 67.62 142.37 65.92 141.04 C 63.95 138.85 60.18 139.34 57.45 138.88 C 57.08 135.34 46.16 137.60 47.00 140.82 C 50.50 140.20 53.89 139.20 57.45 138.88 C 53.92 141.17 48.66 140.78 46.06 144.01 C 46.18 140.02 45.60 136.18 45.24 132.24 C 47.70 129.16 49.14 128.47 53.04 127.80 C 56.34 127.49 61.09 125.09 61.88 129.92 C 60.34 130.98 51.85 131.83 58.98 132.06 C 66.17 133.57 70.24 127.28 68.00 121.00 C 65.03 115.90 73.35 110.56 70.01 104.97 C 68.24 102.65 71.72 100.71 73.65 100.47 Z" fill="#77260a" />
<path d="M 0.00 101.45 C 2.87 105.16 1.20 109.40 3.54 113.32 C 4.97 118.49 7.33 123.14 8.82 128.26 C 10.48 130.97 13.74 130.59 16.14 132.93 L 15.03 133.02 C 9.55 133.75 5.38 130.75 0.00 130.70 L 0.00 101.45 Z" fill="#c7ae84" />
<path d="M 106.53 101.99 C 110.93 100.77 109.63 111.73 105.12 110.97 C 105.62 109.29 106.55 107.68 106.84 105.95 C 106.82 104.62 106.63 103.31 106.53 101.99 Z" fill="#8c2003" />
<path d="M 116.79 103.16 C 118.88 103.96 118.62 105.63 117.24 107.00 C 116.85 105.75 116.70 104.47 116.79 103.16 Z" fill="#a8a18d" />
<path d="M 85.91 108.85 C 82.46 107.07 83.17 107.52 80.54 110.20 C 80.46 108.48 80.70 106.71 80.88 105.00 C 85.20 102.40 86.69 104.02 85.91 108.85 Z" fill="#962b02" />
<path d="M 80.88 105.00 C 80.70 106.71 80.46 108.48 80.54 110.20 C 80.69 112.72 83.57 112.17 83.09 116.00 C 82.41 119.53 86.77 116.87 88.19 116.09 C 87.67 114.88 83.81 113.27 86.79 112.77 C 89.72 111.81 90.73 109.56 91.69 106.86 C 92.67 109.36 92.78 111.74 95.51 112.95 C 98.80 114.50 102.77 114.21 106.16 115.70 C 98.42 116.69 93.04 115.69 90.69 124.66 C 84.19 124.00 89.08 117.66 81.23 119.05 C 77.46 125.89 79.54 115.77 78.40 113.15 C 78.49 111.05 78.52 108.97 78.97 106.91 C 79.60 106.26 80.23 105.62 80.88 105.00 Z" fill="#c85618" />
<path d="M 42.13 105.82 C 42.83 108.32 43.68 110.60 45.02 112.84 C 44.87 119.58 46.75 125.45 45.24 132.24 C 45.60 136.18 46.18 140.02 46.06 144.01 C 45.14 148.14 49.87 143.99 51.46 143.54 C 58.49 141.45 61.10 145.41 66.82 148.24 C 65.87 149.66 64.73 150.98 63.64 152.30 C 59.76 150.81 56.80 149.98 54.88 145.95 C 51.65 149.91 46.60 149.95 43.05 146.28 C 42.96 149.20 42.95 152.11 42.85 155.03 L 42.00 155.02 C 42.36 152.84 42.53 150.91 41.23 148.99 L 40.89 148.30 C 42.13 146.57 42.23 145.91 41.26 144.02 C 42.48 140.95 42.22 138.20 41.10 135.16 C 42.17 132.08 42.04 129.09 41.79 125.89 L 41.79 125.11 C 42.08 121.81 41.92 119.17 41.03 115.99 C 42.38 113.35 41.97 110.77 42.01 107.92 L 42.13 105.82 Z" fill="#371106" />
<path d="M 40.90 108.16 L 42.01 107.92 C 41.97 110.77 42.38 113.35 41.03 115.99 C 41.05 113.38 41.01 110.77 40.90 108.16 Z" fill="#998568" />
<path d="M 116.81 107.71 C 116.98 110.88 116.95 114.04 116.86 117.21 C 115.91 114.54 115.85 111.81 115.87 109.01 L 116.81 107.71 Z" fill="#a7a09a" />
<path d="M 115.87 109.01 C 115.85 111.81 115.91 114.54 116.86 117.21 C 117.20 118.56 117.35 119.54 116.92 120.89 C 115.15 125.48 115.95 131.22 116.86 135.94 C 115.60 139.11 115.65 141.02 116.82 144.20 L 117.04 144.91 C 115.65 147.08 116.10 147.94 117.24 150.07 C 117.44 155.12 114.25 158.04 110.89 161.27 C 108.30 162.18 114.93 164.45 115.31 166.00 L 41.41 166.00 C 42.66 163.61 44.12 161.89 46.11 160.09 C 47.54 159.22 43.38 155.99 42.85 155.03 C 42.95 152.11 42.96 149.20 43.05 146.28 C 46.60 149.95 51.65 149.91 54.88 145.95 C 56.80 149.98 59.76 150.81 63.64 152.30 C 65.31 154.25 67.40 156.90 69.91 157.73 C 74.99 155.21 76.99 155.22 81.96 157.92 C 83.03 158.05 84.12 158.11 85.23 158.10 C 90.79 157.19 97.00 155.20 101.90 152.38 C 98.80 151.04 96.28 152.31 96.74 148.13 C 102.20 148.29 107.02 147.81 111.28 151.89 C 114.61 147.30 111.18 143.72 113.00 139.01 C 115.62 133.19 114.60 127.81 113.40 121.81 C 116.13 117.02 111.95 113.19 115.87 109.01 Z" fill="#0d0404" />
<path d="M 64.28 114.28 C 63.78 116.98 64.67 120.25 61.66 121.58 C 56.81 122.65 51.88 123.21 46.91 123.00 C 47.77 117.23 47.80 119.56 51.08 121.96 C 53.62 121.18 59.35 120.67 59.63 117.37 C 58.37 115.94 57.34 116.19 58.35 114.21 C 56.87 113.83 55.37 113.51 53.90 113.13 C 58.37 112.02 60.29 111.46 64.28 114.28 Z" fill="#8e2203" />
<path d="M 45.02 112.84 L 45.86 113.14 C 46.05 115.07 46.08 116.99 46.19 118.93 C 48.32 115.58 49.26 112.92 53.90 113.13 C 55.37 113.51 56.87 113.83 58.35 114.21 C 57.34 116.19 58.37 115.94 59.63 117.37 C 59.35 120.67 53.62 121.18 51.08 121.96 C 47.80 119.56 47.77 117.23 46.91 123.00 C 47.47 126.33 55.27 124.97 53.04 127.80 C 49.14 128.47 47.70 129.16 45.24 132.24 C 46.75 125.45 44.87 119.58 45.02 112.84 Z" fill="#c7541e" />
<path d="M 166.00 112.69 L 166.00 134.09 C 159.14 133.43 152.66 135.44 145.79 135.21 C 143.50 135.04 141.23 135.02 138.94 135.21 C 140.52 135.98 142.16 136.59 143.83 137.12 C 147.16 138.06 148.24 139.25 149.97 142.14 C 148.87 143.82 145.84 144.34 147.15 146.62 C 141.90 149.88 137.17 155.89 131.01 157.04 C 124.43 157.42 119.93 161.18 113.83 162.42 C 112.84 162.05 111.86 161.66 110.89 161.27 C 114.25 158.04 117.44 155.12 117.24 150.07 L 117.87 149.94 C 117.40 156.06 120.34 153.96 122.99 150.99 C 125.68 147.51 129.17 145.75 133.60 145.84 C 129.61 142.55 138.06 143.16 139.87 141.84 C 136.38 138.74 132.28 137.04 128.02 135.30 C 130.41 135.06 132.75 134.95 135.05 134.21 L 135.82 134.00 C 137.16 133.95 138.51 133.90 139.85 133.86 C 143.58 133.66 149.04 134.87 152.36 133.32 C 153.75 130.57 161.02 131.41 155.17 129.36 C 159.59 130.25 163.18 121.99 160.52 119.24 C 165.05 119.03 163.76 115.62 166.00 112.69 Z" fill="#c2aa89" />
<path d="M 41.03 115.99 C 41.92 119.17 42.08 121.81 41.79 125.11 C 41.24 123.33 40.69 121.55 40.15 119.77 C 40.07 118.37 40.48 117.25 41.03 115.99 Z" fill="#a88b71" />
<path d="M 106.16 115.70 C 107.22 116.13 108.24 116.66 109.22 117.28 C 105.27 118.18 100.65 118.23 96.99 120.00 C 95.16 121.28 93.91 124.33 97.09 124.87 C 101.65 124.56 109.51 127.56 107.60 119.85 C 110.81 120.86 110.80 124.49 108.25 126.24 C 104.61 128.52 100.09 127.82 96.01 128.22 C 98.45 133.03 106.27 130.10 110.74 132.16 C 112.78 133.57 111.85 129.87 112.35 128.80 C 113.72 132.81 111.58 136.61 110.57 140.61 C 106.41 141.06 102.71 141.46 99.08 143.75 L 101.13 144.43 C 99.39 144.76 97.64 144.84 95.88 144.94 C 97.47 142.37 104.66 139.39 104.18 136.69 C 105.13 135.87 109.43 135.22 107.10 133.78 C 103.44 132.09 98.31 134.05 94.14 133.11 C 89.94 138.14 85.86 132.16 80.36 134.38 C 76.68 137.56 78.40 131.55 76.55 129.52 C 75.15 127.32 77.42 127.13 78.79 126.03 C 79.42 127.42 79.68 128.44 81.20 129.01 C 80.79 124.08 90.22 130.38 87.57 125.45 C 83.70 121.54 82.73 124.19 78.79 126.03 C 78.56 125.44 78.32 124.85 78.09 124.27 C 81.22 123.18 80.76 121.94 81.23 119.05 C 89.08 117.66 84.19 124.00 90.69 124.66 C 93.04 115.69 98.42 116.69 106.16 115.70 Z" fill="#641b0a" />
<path d="M 109.22 117.28 C 110.37 117.99 111.28 119.18 112.20 120.16 C 112.15 121.14 112.12 122.13 112.10 123.11 C 112.02 125.01 112.13 126.91 112.35 128.80 C 111.85 129.87 112.78 133.57 110.74 132.16 C 106.27 130.10 98.45 133.03 96.01 128.22 C 100.09 127.82 104.61 128.52 108.25 126.24 C 110.80 124.49 110.81 120.86 107.60 119.85 C 109.51 127.56 101.65 124.56 97.09 124.87 C 93.91 124.33 95.16 121.28 96.99 120.00 C 100.65 118.23 105.27 118.18 109.22 117.28 Z" fill="#bf551f" />
<path d="M 77.93 118.27 C 77.20 121.12 76.02 121.60 78.09 124.27 C 78.32 124.85 78.56 125.44 78.79 126.03 C 77.42 127.13 75.15 127.32 76.55 129.52 C 78.40 131.55 76.68 137.56 80.36 134.38 C 79.59 137.22 77.53 138.57 79.89 141.22 C 80.20 141.72 80.51 142.23 80.83 142.73 C 80.66 144.64 78.95 147.84 81.98 148.10 C 83.92 148.25 80.74 149.16 80.50 149.58 C 79.72 151.10 81.16 153.65 79.71 154.76 C 73.93 155.86 69.01 154.15 63.64 152.30 C 64.73 150.98 65.87 149.66 66.82 148.24 C 61.10 145.41 58.49 141.45 51.46 143.54 C 49.87 143.99 45.14 148.14 46.06 144.01 C 48.66 140.78 53.92 141.17 57.45 138.88 C 60.18 139.34 63.95 138.85 65.92 141.04 C 67.62 142.37 69.82 144.24 71.61 141.86 C 71.91 140.18 66.75 139.06 67.74 136.76 C 67.58 132.78 71.14 132.03 72.71 128.53 C 67.78 126.72 70.98 125.56 72.95 123.08 C 71.65 121.77 70.24 120.63 69.06 119.19 C 71.98 117.97 74.85 118.19 77.93 118.27 Z" fill="#501506" />
<path d="M 116.92 120.89 C 116.91 123.88 116.84 126.90 117.18 129.87 C 117.42 131.28 117.79 132.66 118.15 134.05 C 117.72 134.68 117.29 135.31 116.86 135.94 C 115.95 131.22 115.15 125.48 116.92 120.89 Z" fill="#99907e" />
<path d="M 113.40 121.81 C 114.60 127.81 115.62 133.19 113.00 139.01 C 111.18 143.72 114.61 147.30 111.28 151.89 C 107.02 147.81 102.20 148.29 96.74 148.13 C 96.28 152.31 98.80 151.04 101.90 152.38 C 97.00 155.20 90.79 157.19 85.23 158.10 C 85.69 155.98 85.37 155.40 84.05 153.71 C 83.25 155.07 82.61 156.49 81.96 157.92 C 76.99 155.22 74.99 155.21 69.91 157.73 C 67.40 156.90 65.31 154.25 63.64 152.30 C 69.01 154.15 73.93 155.86 79.71 154.76 C 81.16 153.65 79.72 151.10 80.50 149.58 C 80.74 149.16 83.92 148.25 81.98 148.10 C 78.95 147.84 80.66 144.64 80.83 142.73 C 82.21 141.93 89.33 143.64 86.17 140.79 C 84.87 137.82 82.03 140.86 79.89 141.22 C 77.53 138.57 79.59 137.22 80.36 134.38 C 85.86 132.16 89.94 138.14 94.14 133.11 C 98.31 134.05 103.44 132.09 107.10 133.78 C 102.66 135.62 95.48 135.36 93.02 139.86 C 96.80 139.06 100.50 137.87 104.18 136.69 C 104.66 139.39 97.47 142.37 95.88 144.94 C 95.14 145.77 92.22 148.52 95.34 147.31 C 100.11 145.23 106.84 147.21 110.73 144.81 C 110.69 141.25 103.20 144.46 101.13 144.43 L 99.08 143.75 C 102.71 141.46 106.41 141.06 110.57 140.61 C 111.58 136.61 113.72 132.81 112.35 128.80 C 112.13 126.91 112.02 125.01 112.10 123.11 L 113.40 121.81 Z" fill="#320905" />
<path d="M 87.57 125.45 C 90.22 130.38 80.79 124.08 81.20 129.01 C 79.68 128.44 79.42 127.42 78.79 126.03 C 82.73 124.19 83.70 121.54 87.57 125.45 Z" fill="#a3492a" />
<path d="M 41.79 125.89 C 42.04 129.09 42.17 132.08 41.10 135.16 C 40.70 134.22 40.31 133.28 39.94 132.33 C 40.60 130.20 41.18 128.04 41.79 125.89 Z" fill="#937e59" />
<path d="M 0.00 130.70 C 5.38 130.75 9.55 133.75 15.03 133.02 C 15.98 133.56 16.94 134.11 17.88 134.68 C 11.53 135.13 6.40 138.85 0.00 139.11 L 0.00 130.70 Z" fill="#987b52" />
<path d="M 39.94 132.33 C 40.31 133.28 40.70 134.22 41.10 135.16 C 42.22 138.20 42.48 140.95 41.26 144.02 C 39.25 145.31 39.41 146.63 40.89 148.30 L 41.23 148.99 C 40.72 151.26 40.22 153.15 42.00 155.02 C 40.72 161.52 38.92 154.10 37.15 152.19 C 32.33 156.07 25.84 147.38 21.29 146.57 C 26.24 142.67 20.43 144.88 19.10 141.25 C 23.19 138.61 27.33 136.30 31.84 134.46 C 30.86 133.97 29.88 133.49 28.88 133.02 L 31.16 132.86 C 33.16 132.91 35.16 132.92 37.16 132.74 C 38.09 132.65 39.02 132.51 39.94 132.33 Z" fill="#d8c5aa" />
<path d="M 15.03 133.02 L 16.14 132.93 C 17.80 132.94 19.46 132.92 21.12 132.91 L 21.91 133.12 C 22.95 133.56 28.31 134.55 24.07 135.13 C 17.61 135.01 16.37 139.96 9.97 140.04 C 5.89 140.11 9.77 141.99 10.92 143.07 C 9.96 144.86 7.40 146.57 8.20 148.72 C 17.67 150.96 24.77 158.03 34.89 160.81 C 31.24 161.44 27.92 160.42 33.14 163.22 C 25.89 165.82 20.33 164.93 13.66 161.39 C 11.89 158.55 9.63 155.10 6.65 153.38 C 4.02 152.86 2.10 152.41 0.00 150.65 L 0.00 139.11 C 6.40 138.85 11.53 135.13 17.88 134.68 C 16.94 134.11 15.98 133.56 15.03 133.02 Z" fill="#ae997b" />
<path d="M 21.91 133.12 C 24.23 133.12 26.56 133.06 28.88 133.02 C 29.88 133.49 30.86 133.97 31.84 134.46 C 27.33 136.30 23.19 138.61 19.10 141.25 C 20.43 144.88 26.24 142.67 21.29 146.57 C 25.84 147.38 32.33 156.07 37.15 152.19 C 38.92 154.10 40.72 161.52 42.00 155.02 L 42.85 155.03 C 43.38 155.99 47.54 159.22 46.11 160.09 C 44.78 160.43 43.46 160.77 42.14 161.09 C 39.03 161.42 36.09 162.22 33.14 163.22 C 27.92 160.42 31.24 161.44 34.89 160.81 C 24.77 158.03 17.67 150.96 8.20 148.72 C 7.40 146.57 9.96 144.86 10.92 143.07 C 9.77 141.99 5.89 140.11 9.97 140.04 C 16.37 139.96 17.61 135.01 24.07 135.13 C 28.31 134.55 22.95 133.56 21.91 133.12 Z" fill="#c1ae92" />
<path d="M 107.10 133.78 C 109.43 135.22 105.13 135.87 104.18 136.69 C 100.50 137.87 96.80 139.06 93.02 139.86 C 95.48 135.36 102.66 135.62 107.10 133.78 Z" fill="#88473f" />
<path d="M 118.15 134.05 C 121.67 134.01 125.18 134.03 128.70 133.85 C 130.81 133.97 132.93 134.12 135.05 134.21 C 132.75 134.95 130.41 135.06 128.02 135.30 C 132.28 137.04 136.38 138.74 139.87 141.84 C 138.06 143.16 129.61 142.55 133.60 145.84 C 129.17 145.75 125.68 147.51 122.99 150.99 C 120.34 153.96 117.40 156.06 117.87 149.94 C 118.32 148.00 118.39 146.51 117.04 144.91 L 116.82 144.20 C 116.93 141.44 116.96 138.70 116.86 135.94 C 117.29 135.31 117.72 134.68 118.15 134.05 Z" fill="#dac4a7" />
<path d="M 166.00 134.09 L 166.00 141.26 C 161.55 136.12 152.00 137.60 145.79 135.21 C 152.66 135.44 159.14 133.43 166.00 134.09 Z" fill="#8f7145" />
<path d="M 138.94 135.21 C 141.23 135.02 143.50 135.04 145.79 135.21 C 152.00 137.60 161.55 136.12 166.00 141.26 L 166.00 151.08 C 164.06 151.49 162.12 151.86 160.17 152.22 C 161.52 153.01 162.89 153.61 163.99 154.77 C 160.58 156.29 156.99 155.72 153.55 156.98 C 154.34 158.87 155.03 159.01 153.00 160.32 C 148.94 157.99 147.24 163.91 144.72 166.00 L 130.46 166.00 C 134.93 164.65 135.73 165.68 136.52 160.57 C 141.63 159.00 144.21 155.13 150.03 155.94 C 151.35 156.21 157.81 154.15 153.00 154.04 C 148.45 153.83 154.57 152.62 155.60 151.65 C 155.50 147.47 153.35 145.30 157.97 142.88 C 156.97 137.84 147.93 137.35 143.83 137.12 C 142.16 136.59 140.52 135.98 138.94 135.21 Z" fill="#a08766" />
<path d="M 116.86 135.94 C 116.96 138.70 116.93 141.44 116.82 144.20 C 115.65 141.02 115.60 139.11 116.86 135.94 Z" fill="#837a66" />
<path d="M 57.45 138.88 C 53.89 139.20 50.50 140.20 47.00 140.82 C 46.16 137.60 57.08 135.34 57.45 138.88 Z" fill="#a8502d" />
<path d="M 143.83 137.12 C 147.93 137.35 156.97 137.84 157.97 142.88 C 153.35 145.30 155.50 147.47 155.60 151.65 C 154.57 152.62 148.45 153.83 153.00 154.04 C 157.81 154.15 151.35 156.21 150.03 155.94 C 144.21 155.13 141.63 159.00 136.52 160.57 C 135.73 165.68 134.93 164.65 130.46 166.00 L 120.41 166.00 C 119.20 163.79 116.01 163.49 113.83 162.42 C 119.93 161.18 124.43 157.42 131.01 157.04 C 137.17 155.89 141.90 149.88 147.15 146.62 C 145.84 144.34 148.87 143.82 149.97 142.14 C 148.24 139.25 147.16 138.06 143.83 137.12 Z" fill="#ac9678" />
<path d="M 86.17 140.79 C 89.33 143.64 82.21 141.93 80.83 142.73 C 80.51 142.23 80.20 141.72 79.89 141.22 C 82.03 140.86 84.87 137.82 86.17 140.79 Z" fill="#844941" />
<path d="M 110.73 144.81 C 106.84 147.21 100.11 145.23 95.34 147.31 C 92.22 148.52 95.14 145.77 95.88 144.94 C 97.64 144.84 99.39 144.76 101.13 144.43 C 103.20 144.46 110.69 141.25 110.73 144.81 Z" fill="#8e4b39" />
<path d="M 41.26 144.02 C 42.23 145.91 42.13 146.57 40.89 148.30 C 39.41 146.63 39.25 145.31 41.26 144.02 Z" fill="#75614a" />
<path d="M 117.04 144.91 C 118.39 146.51 118.32 148.00 117.87 149.94 L 117.24 150.07 C 116.10 147.94 115.65 147.08 117.04 144.91 Z" fill="#6f5744" />
<path d="M 41.23 148.99 C 42.53 150.91 42.36 152.84 42.00 155.02 C 40.22 153.15 40.72 151.26 41.23 148.99 Z" fill="#958875" />
<path d="M 0.00 150.65 C 2.10 152.41 4.02 152.86 6.65 153.38 C 9.63 155.10 11.89 158.55 13.66 161.39 C 20.33 164.93 25.89 165.82 33.14 163.22 C 36.09 162.22 39.03 161.42 42.14 161.09 C 39.38 162.51 36.68 163.78 34.45 166.00 L 0.00 166.00 L 0.00 150.65 Z" fill="#97866b" />
<path d="M 166.00 151.08 L 166.00 166.00 L 144.72 166.00 C 147.24 163.91 148.94 157.99 153.00 160.32 C 155.03 159.01 154.34 158.87 153.55 156.98 C 156.99 155.72 160.58 156.29 163.99 154.77 C 162.89 153.61 161.52 153.01 160.17 152.22 C 162.12 151.86 164.06 151.49 166.00 151.08 Z" fill="#8e795d" />
<path d="M 84.05 153.71 C 85.37 155.40 85.69 155.98 85.23 158.10 C 84.12 158.11 83.03 158.05 81.96 157.92 C 82.61 156.49 83.25 155.07 84.05 153.71 Z" fill="#6c433f" />
<path d="M 46.11 160.09 C 44.12 161.89 42.66 163.61 41.41 166.00 L 34.45 166.00 C 36.68 163.78 39.38 162.51 42.14 161.09 C 43.46 160.77 44.78 160.43 46.11 160.09 Z" fill="#574a36" />
<path d="M 110.89 161.27 C 111.86 161.66 112.84 162.05 113.83 162.42 C 116.01 163.49 119.20 163.79 120.41 166.00 L 115.31 166.00 C 114.93 164.45 108.30 162.18 110.89 161.27 Z" fill="#625242" />
</svg>