<?xml version="1.0" encoding="UTF-8" standalone="no"?>
<!DOCTYPE svg PUBLIC "-//W3C//DTD SVG 1.1//EN" "http://www.w3.org/Graphics/SVG/1.1/DTD/svg11.dtd">
<svg xmlns="http://www.w3.org/2000/svg" version="1.1" viewBox="0 0 206 205" width="206.0pt" height="205.0pt">
<path d="M 0.00 0.00 L 206.00 0.00 L 206.00 205.00 L 0.00 205.00 L 0.00 0.00 Z" fill="#fffefe" />
<path d="M 106.23 17.25 C 99.78 18.80 92.73 17.63 86.12 18.06 C 87.89 15.77 102.31 17.46 106.23 17.25 Z" fill="#e8c9b0" />
<path d="M 106.23 17.25 C 108.75 17.05 111.26 17.04 113.79 17.17 C 116.85 18.30 120.14 16.89 120.46 21.15 C 119.95 25.35 119.72 29.67 119.80 33.91 C 118.19 33.66 116.59 33.37 114.98 33.09 C 111.24 29.65 112.89 25.07 109.92 21.17 C 106.97 22.07 103.43 26.82 100.85 23.16 C 103.62 19.75 100.14 17.92 97.26 20.29 C 97.11 21.81 98.13 23.46 98.69 24.85 C 100.11 27.54 100.29 28.63 99.01 31.43 C 95.96 29.83 93.00 29.52 90.98 32.79 C 98.40 33.36 105.83 32.63 113.26 33.29 C 108.66 34.38 104.40 33.96 99.70 34.10 C 95.99 33.88 92.32 33.88 88.69 34.72 C 86.60 32.76 86.96 29.55 86.30 26.81 C 86.02 23.90 85.81 20.97 86.12 18.06 C 92.73 17.63 99.78 18.80 106.23 17.25 Z" fill="#ca946a" />
<path d="M 113.79 17.17 C 118.04 17.78 122.33 14.58 120.46 21.15 C 120.14 16.89 116.85 18.30 113.79 17.17 Z" fill="#dbc8b5" />
<path d="M 100.85 23.16 C 100.03 23.61 99.31 24.17 98.69 24.85 C 98.13 23.46 97.11 21.81 97.26 20.29 C 100.14 17.92 103.62 19.75 100.85 23.16 Z" fill="#b16d3f" />
<path d="M 109.92 21.17 C 112.89 25.07 111.24 29.65 114.98 33.09 L 113.26 33.29 C 105.83 32.63 98.40 33.36 90.98 32.79 C 93.00 29.52 95.96 29.83 99.01 31.43 C 100.29 28.63 100.11 27.54 98.69 24.85 C 99.31 24.17 100.03 23.61 100.85 23.16 C 103.43 26.82 106.97 22.07 109.92 21.17 Z" fill="#f4b685" />
<path d="M 86.30 26.81 C 86.96 29.55 86.60 32.76 88.69 34.72 C 86.13 35.20 88.53 36.59 88.98 37.95 L 88.36 39.20 C 85.70 41.53 83.67 41.78 83.91 45.92 L 83.05 46.02 C 83.28 40.49 82.32 41.25 77.95 39.23 C 80.37 39.70 88.00 32.27 81.82 33.68 C 87.19 32.87 85.72 31.40 86.30 26.81 Z" fill="#c3ac97" />
<path d="M 24.63 29.37 C 27.93 28.91 36.46 30.52 32.88 35.39 C 29.73 34.51 26.54 34.24 23.28 34.26 C 24.90 37.10 25.11 35.59 23.65 40.01 C 22.42 38.68 22.14 37.12 21.42 35.52 C 19.88 34.67 16.45 35.58 17.08 33.04 C 17.83 30.10 22.00 29.17 24.63 29.37 Z" fill="#857349" />
<path d="M 113.26 33.29 L 114.98 33.09 C 116.59 33.37 118.19 33.66 119.80 33.91 C 120.74 35.80 121.01 37.77 121.23 39.85 L 120.31 40.19 C 119.27 40.54 118.22 40.86 117.17 41.17 C 113.50 41.02 109.86 40.87 106.20 41.35 C 103.12 41.16 100.12 40.73 97.23 39.62 C 98.93 38.70 99.54 38.98 99.49 36.85 C 103.70 38.72 107.35 38.60 111.79 37.74 C 112.80 33.53 100.49 38.52 99.70 34.10 C 104.40 33.96 108.66 34.38 113.26 33.29 Z" fill="#682806" />
<path d="M 129.16 37.01 C 127.96 39.09 125.95 39.36 123.88 40.15 C 122.99 40.05 122.11 39.95 121.23 39.85 C 121.01 37.77 120.74 35.80 119.80 33.91 C 123.86 32.13 126.81 33.51 129.16 37.01 Z" fill="#a59b8c" />
<path d="M 81.82 33.68 C 88.00 32.27 80.37 39.70 77.95 39.23 C 75.02 36.64 79.33 33.89 81.82 33.68 Z" fill="#827c6a" />
<path d="M 99.70 34.10 C 100.49 38.52 112.80 33.53 111.79 37.74 C 107.35 38.60 103.70 38.72 99.49 36.85 C 96.64 35.32 94.60 36.76 91.85 37.57 C 90.89 37.70 89.94 37.83 88.98 37.95 C 88.53 36.59 86.13 35.20 88.69 34.72 C 92.32 33.88 95.99 33.88 99.70 34.10 Z" fill="#9c5a29" />
<path d="M 99.49 36.85 C 99.54 38.98 98.93 38.70 97.23 39.62 C 100.12 40.73 103.12 41.16 106.20 41.35 C 103.15 41.92 100.07 42.07 96.99 42.31 C 101.04 43.14 101.93 45.61 99.99 48.53 C 94.89 48.63 101.64 50.95 99.87 53.70 C 96.35 53.74 95.23 53.27 92.68 56.04 C 90.43 55.37 87.71 54.93 88.15 51.84 C 91.91 51.04 88.69 48.63 87.33 47.19 C 91.10 46.46 91.34 47.67 89.53 44.01 C 91.71 43.47 93.91 43.37 96.14 43.31 C 95.12 41.08 92.99 41.02 90.95 40.07 C 92.66 40.02 94.35 39.92 96.05 39.75 C 94.70 38.94 93.28 38.23 91.85 37.57 C 94.60 36.76 96.64 35.32 99.49 36.85 Z" fill="#cf803e" />
<path d="M 88.98 37.95 C 89.94 37.83 90.89 37.70 91.85 37.57 C 93.28 38.23 94.70 38.94 96.05 39.75 C 94.35 39.92 92.66 40.02 90.95 40.07 C 90.09 39.77 89.23 39.48 88.36 39.20 L 88.98 37.95 Z" fill="#602703" />
<path d="M 88.36 39.20 C 89.23 39.48 90.09 39.77 90.95 40.07 C 92.99 41.02 95.12 41.08 96.14 43.31 C 93.91 43.37 91.71 43.47 89.53 44.01 C 91.34 47.67 91.10 46.46 87.33 47.19 C 88.69 48.63 91.91 51.04 88.15 51.84 C 87.71 54.93 90.43 55.37 92.68 56.04 C 93.38 56.26 94.07 56.46 94.76 56.67 C 95.59 57.01 96.41 57.36 97.23 57.71 C 93.75 57.91 90.26 58.10 86.78 58.29 C 82.11 57.73 84.61 49.18 83.91 45.92 C 83.67 41.78 85.70 41.53 88.36 39.20 Z" fill="#905f33" />
<path d="M 120.31 40.19 C 121.70 46.28 118.65 51.63 120.87 57.80 C 118.20 58.82 116.49 59.21 115.10 61.92 C 116.47 56.65 104.32 59.98 101.20 58.79 C 99.88 58.43 98.56 58.06 97.23 57.71 C 96.41 57.36 95.59 57.01 94.76 56.67 C 97.78 55.98 100.83 55.89 103.91 55.96 C 107.23 56.15 110.45 56.46 113.79 56.47 C 114.09 53.39 114.22 50.28 114.45 47.20 C 111.79 46.34 106.55 48.34 111.15 44.54 C 112.82 44.48 116.53 46.13 113.40 43.59 C 110.16 41.51 115.90 42.07 117.17 41.17 C 118.22 40.86 119.27 40.54 120.31 40.19 Z" fill="#814b1f" />
<path d="M 120.31 40.19 L 121.23 39.85 C 122.01 44.20 123.16 54.52 120.87 57.80 C 118.65 51.63 121.70 46.28 120.31 40.19 Z" fill="#9e8468" />
<path d="M 121.23 39.85 C 122.11 39.95 122.99 40.05 123.88 40.15 C 122.25 46.76 122.94 54.90 123.33 61.69 C 126.32 67.43 136.59 66.70 140.96 72.04 C 147.52 76.46 149.80 82.84 152.08 90.01 C 150.16 86.01 149.20 85.88 144.99 85.44 C 144.67 83.30 144.52 81.18 143.97 79.07 C 142.36 76.39 141.34 74.81 137.98 75.91 C 137.58 71.28 132.16 75.12 137.98 75.91 C 138.87 77.44 139.82 78.90 140.91 80.29 C 141.64 81.89 142.24 83.56 143.02 85.14 C 145.24 87.63 146.43 89.57 147.35 92.83 C 146.90 94.46 147.20 99.28 146.00 95.00 C 144.68 90.29 145.26 96.67 144.82 98.15 C 143.87 97.77 142.93 97.36 142.00 96.94 C 140.74 93.67 141.71 87.38 136.81 87.56 C 124.38 90.50 110.76 88.34 98.00 89.00 C 88.14 88.36 77.09 90.37 67.60 87.86 C 64.03 88.18 70.35 79.15 66.54 83.53 C 63.22 88.99 60.07 86.03 54.96 85.83 L 55.09 84.96 C 56.46 82.98 62.08 77.86 59.92 75.63 C 62.44 74.42 63.75 74.54 64.64 71.51 C 66.93 67.98 70.88 68.21 71.20 63.07 C 72.42 63.01 73.64 62.97 74.85 62.97 C 72.69 64.65 71.54 64.68 72.08 67.85 C 75.76 66.25 82.40 65.76 82.83 60.89 C 83.28 55.97 82.87 50.97 83.05 46.02 L 83.91 45.92 C 84.61 49.18 82.11 57.73 86.78 58.29 C 88.86 59.02 90.94 59.08 93.12 59.19 C 87.89 59.79 92.59 65.36 95.97 64.02 C 101.66 62.91 110.83 65.78 115.10 61.92 C 116.49 59.21 118.20 58.82 120.87 57.80 C 123.16 54.52 122.01 44.20 121.23 39.85 Z" fill="#ded2c0" />
<path d="M 106.20 41.35 C 109.86 40.87 113.50 41.02 117.17 41.17 C 115.90 42.07 110.16 41.51 113.40 43.59 C 116.53 46.13 112.82 44.48 111.15 44.54 C 108.46 44.01 105.77 43.91 103.04 44.09 C 103.82 45.15 109.14 47.09 105.06 46.98 C 101.49 45.90 106.70 53.90 104.52 53.30 C 101.46 51.00 103.77 54.43 103.91 55.96 C 100.83 55.89 97.78 55.98 94.76 56.67 C 94.07 56.46 93.38 56.26 92.68 56.04 C 95.23 53.27 96.35 53.74 99.87 53.70 C 101.64 50.95 94.89 48.63 99.99 48.53 C 101.93 45.61 101.04 43.14 96.99 42.31 C 100.07 42.07 103.15 41.92 106.20 41.35 Z" fill="#ac571a" />
<path d="M 103.04 44.09 C 105.77 43.91 108.46 44.01 111.15 44.54 C 106.55 48.34 111.79 46.34 114.45 47.20 C 114.22 50.28 114.09 53.39 113.79 56.47 C 110.45 56.46 107.23 56.15 103.91 55.96 C 103.77 54.43 101.46 51.00 104.52 53.30 C 106.70 53.90 101.49 45.90 105.06 46.98 C 109.14 47.09 103.82 45.15 103.04 44.09 Z" fill="#ca7a3e" />
<path d="M 86.78 58.29 C 90.26 58.10 93.75 57.91 97.23 57.71 C 98.56 58.06 99.88 58.43 101.20 58.79 C 98.50 58.89 95.81 59.03 93.12 59.19 C 90.94 59.08 88.86 59.02 86.78 58.29 Z" fill="#b38b66" />
<path d="M 93.12 59.19 C 95.81 59.03 98.50 58.89 101.20 58.79 C 104.32 59.98 116.47 56.65 115.10 61.92 C 110.83 65.78 101.66 62.91 95.97 64.02 C 92.59 65.36 87.89 59.79 93.12 59.19 Z" fill="#faf1e7" />
<path d="M 71.20 63.07 C 70.88 68.21 66.93 67.98 64.64 71.51 C 63.75 74.54 62.44 74.42 59.92 75.63 C 56.58 76.78 58.80 70.83 58.86 69.08 C 61.23 68.07 63.23 67.80 64.24 65.12 C 66.45 63.97 68.66 63.02 71.20 63.07 Z" fill="#836948" />
<path d="M 64.24 65.12 C 63.23 67.80 61.23 68.07 58.86 69.08 C 54.61 65.86 62.35 66.35 64.24 65.12 Z" fill="#ddccba" />
<path d="M 84.05 67.07 C 91.31 67.11 98.63 68.96 105.94 68.82 C 111.94 68.01 117.52 66.36 123.68 67.07 C 122.30 71.87 117.90 68.91 113.99 70.93 C 104.46 68.20 95.72 72.39 86.37 70.59 C 85.51 70.17 80.86 67.28 84.05 67.07 Z" fill="#b9a48c" />
<path d="M 113.99 70.93 C 117.14 72.30 118.19 73.51 121.52 71.60 C 121.99 73.37 122.52 75.12 123.09 76.86 C 118.54 75.29 120.68 76.49 122.17 79.19 C 118.74 81.42 118.62 81.35 119.95 85.39 C 120.18 90.86 117.12 85.84 115.57 84.39 C 108.43 83.42 101.23 84.60 94.00 83.16 C 85.15 84.79 77.31 82.47 69.05 86.94 C 68.62 83.20 73.74 80.60 75.48 77.43 C 83.63 69.51 91.97 74.59 102.05 72.28 C 106.46 72.75 109.88 73.11 113.99 70.93 Z" fill="#f5efe7" />
<path d="M 137.98 75.91 C 132.16 75.12 137.58 71.28 137.98 75.91 Z" fill="#8a8479" />
<path d="M 134.98 76.09 C 133.34 78.66 131.55 80.24 128.69 81.37 C 125.82 80.93 126.72 82.11 125.86 84.17 C 123.85 84.89 122.16 85.81 119.95 85.39 C 118.62 81.35 118.74 81.42 122.17 79.19 C 123.38 78.89 124.87 78.91 125.76 77.97 C 127.98 74.83 131.70 74.42 134.98 76.09 Z" fill="#4e3721" />
<path d="M 143.97 79.07 C 142.96 79.48 141.93 79.89 140.91 80.29 C 139.82 78.90 138.87 77.44 137.98 75.91 C 141.34 74.81 142.36 76.39 143.97 79.07 Z" fill="#878176" />
<path d="M 123.09 76.86 C 123.97 77.24 124.86 77.61 125.76 77.97 C 124.87 78.91 123.38 78.89 122.17 79.19 C 120.68 76.49 118.54 75.29 123.09 76.86 Z" fill="#aa9780" />
<path d="M 143.97 79.07 C 144.52 81.18 144.67 83.30 144.99 85.44 C 144.33 85.35 143.67 85.25 143.02 85.14 C 142.24 83.56 141.64 81.89 140.91 80.29 C 141.93 79.89 142.96 79.48 143.97 79.07 Z" fill="#423931" />
<path d="M 128.69 81.37 C 130.06 82.30 131.60 82.87 133.07 83.65 C 130.68 84.09 128.29 84.38 125.86 84.17 C 126.72 82.11 125.82 80.93 128.69 81.37 Z" fill="#9c876c" />
<path d="M 67.60 87.86 C 77.09 90.37 88.14 88.36 98.00 89.00 C 110.76 88.34 124.38 90.50 136.81 87.56 C 141.71 87.38 140.74 93.67 142.00 96.94 C 136.36 95.94 142.80 90.00 137.24 90.43 C 129.45 91.18 121.76 91.46 114.01 90.12 C 100.40 89.77 86.54 90.29 73.02 91.88 C 70.72 91.74 68.49 90.08 66.31 89.32 C 66.28 94.36 63.06 96.79 60.59 100.73 C 56.27 101.94 56.72 97.69 57.77 94.98 C 58.42 97.53 56.92 99.66 60.63 98.72 C 61.86 95.33 62.93 91.66 62.92 88.03 C 60.24 88.24 59.40 93.11 57.77 94.98 C 58.06 92.28 58.29 89.56 58.47 86.86 C 56.06 87.30 55.32 89.17 53.79 90.82 C 54.22 89.17 54.61 87.51 54.96 85.83 C 60.07 86.03 63.22 88.99 66.54 83.53 C 70.35 79.15 64.03 88.18 67.60 87.86 Z" fill="#d8c288" />
<path d="M 55.09 84.96 L 54.96 85.83 C 54.61 87.51 54.22 89.17 53.79 90.82 C 50.60 99.75 52.56 110.52 51.95 120.01 C 49.59 134.41 51.95 150.48 50.73 165.23 C 49.02 144.49 50.52 122.90 49.96 101.99 C 50.13 96.64 51.17 88.88 55.09 84.96 Z" fill="#fcf6da" />
<path d="M 143.02 85.14 C 143.67 85.25 144.33 85.35 144.99 85.44 C 149.20 85.88 150.16 86.01 152.08 90.01 L 152.23 90.86 C 153.00 96.63 152.62 102.53 153.70 108.22 C 154.11 112.07 154.08 115.92 153.85 119.78 C 150.59 124.35 152.45 131.60 151.98 137.02 C 152.24 137.79 151.44 141.34 152.89 140.79 C 153.32 135.56 152.37 130.92 153.74 125.78 C 154.35 145.49 153.78 165.27 154.05 185.00 C 154.16 188.26 153.97 191.11 152.58 194.12 C 150.82 196.44 156.74 196.95 156.70 198.22 C 155.50 199.87 151.00 199.82 149.04 200.18 C 155.34 197.99 150.74 198.52 150.18 194.18 C 138.92 199.29 124.11 197.57 111.92 197.93 L 112.21 196.93 L 113.20 196.89 C 118.03 196.88 126.42 198.02 130.04 194.21 C 132.85 192.62 126.78 192.31 125.88 191.81 C 127.03 191.05 128.16 190.28 129.29 189.50 C 135.57 189.04 139.06 193.01 145.02 193.48 C 148.32 191.37 152.43 191.85 152.15 187.03 C 152.11 183.03 155.78 175.47 149.27 175.54 C 149.16 169.94 148.49 163.96 150.67 158.83 C 152.02 145.58 148.96 132.54 151.58 119.25 C 153.67 109.73 151.69 101.32 147.35 92.83 C 146.43 89.57 145.24 87.63 143.02 85.14 Z" fill="#b79f69" />
<path d="M 58.47 86.86 C 58.29 89.56 58.06 92.28 57.77 94.98 C 56.72 97.69 56.27 101.94 60.59 100.73 C 63.06 96.79 66.28 94.36 66.31 89.32 C 68.49 90.08 70.72 91.74 73.02 91.88 C 86.54 90.29 100.40 89.77 114.01 90.12 C 121.76 91.46 129.45 91.18 137.24 90.43 C 142.80 90.00 136.36 95.94 142.00 96.94 C 142.93 97.36 143.87 97.77 144.82 98.15 C 144.85 100.33 142.14 98.69 141.51 101.64 C 141.27 93.98 127.72 97.43 132.90 104.24 C 121.54 105.04 109.96 103.05 98.83 104.70 L 98.02 104.82 C 91.40 105.20 84.57 103.59 78.20 105.25 C 74.45 105.80 69.88 101.78 70.98 108.01 C 70.95 118.83 71.34 129.44 71.18 140.27 C 70.84 150.15 71.00 160.10 71.04 169.99 C 70.09 173.32 75.81 171.54 77.69 171.87 C 80.14 171.95 82.60 172.03 85.06 172.06 C 83.92 173.97 83.24 175.70 82.76 177.88 C 81.56 181.53 71.15 175.31 72.07 180.89 C 72.74 185.28 76.47 183.21 79.60 183.43 C 87.10 182.49 94.36 185.74 102.00 185.03 C 110.88 184.05 118.34 187.36 127.18 187.62 C 117.62 191.18 111.35 185.11 102.00 185.96 C 98.35 185.99 94.63 186.18 91.00 185.86 C 82.75 184.32 74.45 187.18 66.04 186.64 C 64.71 186.57 63.38 186.55 62.04 186.56 C 59.11 181.82 59.05 179.82 58.81 174.16 C 58.75 165.82 55.54 158.29 55.02 150.02 C 54.44 137.32 53.83 125.12 53.88 112.36 C 52.29 112.16 53.53 118.38 51.95 120.01 C 52.56 110.52 50.60 99.75 53.79 90.82 C 55.32 89.17 56.06 87.30 58.47 86.86 Z" fill="#e4bf6a" />
<path d="M 62.92 88.03 C 62.93 91.66 61.86 95.33 60.63 98.72 C 56.92 99.66 58.42 97.53 57.77 94.98 C 59.40 93.11 60.24 88.24 62.92 88.03 Z" fill="#faedbf" />
<path d="M 152.23 90.86 C 153.10 93.11 153.95 95.36 154.38 97.75 C 154.10 101.24 153.90 104.73 153.70 108.22 C 152.62 102.53 153.00 96.63 152.23 90.86 Z" fill="#dfcfa1" />
<path d="M 146.00 95.00 C 147.20 99.28 146.90 94.46 147.35 92.83 C 151.69 101.32 153.67 109.73 151.58 119.25 C 148.96 132.54 152.02 145.58 150.67 158.83 C 148.49 163.96 149.16 169.94 149.27 175.54 C 155.78 175.47 152.11 183.03 152.15 187.03 C 152.43 191.85 148.32 191.37 145.02 193.48 C 139.06 193.01 135.57 189.04 129.29 189.50 C 128.62 188.83 127.91 188.20 127.18 187.62 C 118.34 187.36 110.88 184.05 102.00 185.03 C 94.36 185.74 87.10 182.49 79.60 183.43 C 76.47 183.21 72.74 185.28 72.07 180.89 C 71.15 175.31 81.56 181.53 82.76 177.88 C 83.24 175.70 83.92 173.97 85.06 172.06 C 88.10 172.01 91.13 172.03 94.16 172.00 C 98.46 172.02 102.75 171.98 107.05 171.98 C 113.45 172.02 119.87 172.08 126.27 171.85 C 128.45 171.97 130.57 172.08 132.75 171.81 C 134.15 153.17 132.10 136.78 132.91 117.79 C 132.94 115.96 132.93 114.13 132.89 112.30 C 132.97 109.64 133.17 106.90 132.90 104.24 C 127.72 97.43 141.27 93.98 141.51 101.64 C 142.14 98.69 144.85 100.33 144.82 98.15 C 145.26 96.67 144.68 90.29 146.00 95.00 Z" fill="#dcb65c" />
<path d="M 154.38 97.75 C 155.95 128.39 154.35 160.12 155.17 190.91 C 155.22 195.38 162.18 193.35 165.02 194.08 C 167.81 194.27 175.48 195.15 173.66 199.56 C 164.29 203.48 153.08 204.27 143.00 204.00 C 119.67 204.00 96.33 204.00 73.00 204.00 C 58.28 203.88 43.20 204.91 29.21 199.56 C 29.30 195.76 31.99 195.65 35.03 195.16 C 40.09 194.94 44.74 193.27 49.80 193.65 C 50.66 193.96 50.66 192.25 50.99 191.75 C 51.65 192.17 52.31 192.58 52.97 192.99 C 53.38 193.56 53.78 194.14 54.18 194.71 C 49.46 195.11 44.73 195.89 40.20 197.26 C 41.06 200.52 43.39 200.09 46.15 200.72 C 64.91 203.14 84.10 201.55 103.00 202.00 C 125.47 201.55 146.97 203.41 168.96 199.83 C 170.62 200.12 169.82 197.47 169.36 196.70 C 163.80 195.77 158.06 195.48 152.58 194.12 C 153.97 191.11 154.16 188.26 154.05 185.00 C 153.78 165.27 154.35 145.49 153.74 125.78 C 153.85 123.78 153.85 121.78 153.85 119.78 C 154.08 115.92 154.11 112.07 153.70 108.22 C 153.90 104.73 154.10 101.24 154.38 97.75 Z" fill="#ebe7de" />
<path d="M 78.20 105.25 C 75.91 105.85 72.62 111.26 70.98 108.01 C 69.88 101.78 74.45 105.80 78.20 105.25 Z" fill="#835b21" />
<path d="M 98.02 104.82 C 96.63 105.74 95.24 106.60 94.01 107.74 C 100.10 110.98 106.41 105.83 113.08 108.90 C 106.83 108.26 101.09 110.94 94.95 110.25 C 92.74 110.03 90.79 111.21 88.58 111.73 C 88.74 106.08 81.60 105.89 78.93 109.61 C 76.62 110.90 71.85 112.21 73.28 115.80 C 75.34 120.43 73.97 124.75 77.97 128.31 C 78.98 136.89 76.94 145.44 77.91 154.17 C 71.46 149.24 78.42 141.48 77.00 135.01 C 76.79 132.77 74.63 127.70 72.22 131.29 C 71.40 134.86 74.26 137.26 71.18 140.27 C 71.34 129.44 70.95 118.83 70.98 108.01 C 72.62 111.26 75.91 105.85 78.20 105.25 C 84.57 103.59 91.40 105.20 98.02 104.82 Z" fill="#b18a5e" />
<path d="M 132.90 104.24 C 133.17 106.90 132.97 109.64 132.89 112.30 C 128.07 110.16 131.23 105.31 124.37 105.54 C 118.63 112.30 125.56 114.07 128.07 119.98 C 129.71 119.31 131.28 118.48 132.91 117.79 C 132.10 136.78 134.15 153.17 132.75 171.81 C 130.57 172.08 128.45 171.97 126.27 171.85 C 121.32 169.33 112.73 168.03 107.02 166.97 C 101.95 167.86 104.33 169.96 107.05 171.98 C 102.75 171.98 98.46 172.02 94.16 172.00 C 96.69 167.14 90.10 167.36 87.20 168.11 C 83.43 167.89 79.83 168.34 76.11 168.82 C 76.24 165.07 76.98 161.30 77.81 157.65 C 81.19 160.23 77.09 162.64 79.32 165.67 C 85.52 168.09 91.13 164.06 97.22 167.68 C 102.45 168.74 101.82 167.96 102.16 163.29 C 105.22 167.99 108.90 163.30 113.32 165.74 C 118.19 168.19 125.14 170.45 128.17 164.22 C 129.40 160.40 128.67 157.93 131.92 154.83 C 129.69 145.39 126.22 134.55 125.49 124.67 C 127.69 116.52 117.44 114.00 113.08 108.90 C 114.58 107.73 118.62 107.45 115.72 105.26 C 110.13 104.59 104.45 105.33 98.83 104.70 C 109.96 103.05 121.54 105.04 132.90 104.24 Z" fill="#a77f57" />
<path d="M 98.02 104.82 L 98.83 104.70 C 104.45 105.33 110.13 104.59 115.72 105.26 C 118.62 107.45 114.58 107.73 113.08 108.90 C 106.41 105.83 100.10 110.98 94.01 107.74 C 95.24 106.60 96.63 105.74 98.02 104.82 Z" fill="#835c2e" />
<path d="M 124.37 105.54 C 131.23 105.31 128.07 110.16 132.89 112.30 C 132.93 114.13 132.94 115.96 132.91 117.79 C 131.28 118.48 129.71 119.31 128.07 119.98 C 125.56 114.07 118.63 112.30 124.37 105.54 Z" fill="#7c5939" />
<path d="M 88.58 111.73 C 90.79 111.21 92.74 110.03 94.95 110.25 C 101.09 110.94 106.83 108.26 113.08 108.90 C 117.44 114.00 127.69 116.52 125.49 124.67 C 126.22 134.55 129.69 145.39 131.92 154.83 C 128.67 157.93 129.40 160.40 128.17 164.22 C 125.14 170.45 118.19 168.19 113.32 165.74 C 108.90 163.30 105.22 167.99 102.16 163.29 C 101.82 167.96 102.45 168.74 97.22 167.68 C 91.13 164.06 85.52 168.09 79.32 165.67 C 77.09 162.64 81.19 160.23 77.81 157.65 C 77.87 156.49 77.90 155.33 77.91 154.17 C 76.94 145.44 78.98 136.89 77.97 128.31 C 82.14 125.22 80.74 123.98 78.82 119.93 C 79.86 115.61 85.50 116.26 83.10 111.47 C 82.63 108.55 81.23 109.95 78.93 109.61 C 81.60 105.89 88.74 106.08 88.58 111.73 Z" fill="#ceab8c" />
<path d="M 83.10 111.47 C 85.50 116.26 79.86 115.61 78.82 119.93 C 76.95 116.15 80.89 113.43 78.93 109.61 C 81.23 109.95 82.63 108.55 83.10 111.47 Z" fill="#b68e6e" />
<path d="M 78.93 109.61 C 80.89 113.43 76.95 116.15 78.82 119.93 C 79.03 122.79 78.46 125.51 77.97 128.31 C 73.97 124.75 75.34 120.43 73.28 115.80 C 71.85 112.21 76.62 110.90 78.93 109.61 Z" fill="#8c6446" />
<path d="M 53.88 112.36 C 53.83 125.12 54.44 137.32 55.02 150.02 C 55.54 158.29 58.75 165.82 58.81 174.16 C 57.58 172.33 56.82 165.27 54.00 166.25 C 53.31 166.43 52.63 166.64 51.95 166.87 C 53.89 158.72 51.06 151.38 52.28 143.23 C 53.44 137.34 53.42 129.66 52.29 123.77 C 52.15 122.52 52.04 121.27 51.95 120.01 C 53.53 118.38 52.29 112.16 53.88 112.36 Z" fill="#bea667" />
<path d="M 115.03 124.99 C 113.18 129.84 114.52 135.95 108.68 137.29 C 108.98 141.62 109.47 145.44 103.99 146.02 C 96.91 146.29 93.85 143.78 95.53 136.51 C 90.91 136.16 89.95 127.66 88.95 123.99 C 89.57 110.68 115.10 110.39 115.03 124.99 Z" fill="#66513f" />
<path d="M 51.95 120.01 C 52.04 121.27 52.15 122.52 52.29 123.77 C 51.85 130.24 51.86 136.76 52.28 143.23 C 51.06 151.38 53.89 158.72 51.95 166.87 C 51.93 172.65 52.69 178.26 52.17 184.06 C 57.38 180.35 54.11 171.57 54.00 166.25 C 56.82 165.27 57.58 172.33 58.81 174.16 C 59.05 179.82 59.11 181.82 62.04 186.56 C 61.74 188.23 61.63 189.92 61.45 191.60 C 59.36 192.30 56.47 191.54 55.56 193.98 C 54.70 193.65 53.83 193.32 52.97 192.99 C 52.31 192.58 51.65 192.17 50.99 191.75 C 50.86 182.92 51.32 174.04 50.73 165.23 C 51.95 150.48 49.59 134.41 51.95 120.01 Z" fill="#d6c6a7" />
<path d="M 78.82 119.93 C 80.74 123.98 82.14 125.22 77.97 128.31 C 78.46 125.51 79.03 122.79 78.82 119.93 Z" fill="#b08967" />
<path d="M 153.85 119.78 C 153.85 121.78 153.85 123.78 153.74 125.78 C 152.37 130.92 153.32 135.56 152.89 140.79 C 151.44 141.34 152.24 137.79 151.98 137.02 C 152.45 131.60 150.59 124.35 153.85 119.78 Z" fill="#8b774c" />
<path d="M 52.29 123.77 C 53.42 129.66 53.44 137.34 52.28 143.23 C 51.86 136.76 51.85 130.24 52.29 123.77 Z" fill="#8c7644" />
<path d="M 95.31 128.22 C 97.70 127.62 98.94 127.89 100.24 130.05 C 98.82 132.81 91.06 131.11 95.31 128.22 Z" fill="#b29c84" />
<path d="M 106.12 128.13 C 108.69 128.36 112.01 126.58 110.76 130.70 C 108.02 133.23 105.00 132.60 106.12 128.13 Z" fill="#b49a86" />
<path d="M 77.00 135.01 C 78.42 141.48 71.46 149.24 77.91 154.17 C 77.90 155.33 77.87 156.49 77.81 157.65 C 76.98 161.30 76.24 165.07 76.11 168.82 C 79.83 168.34 83.43 167.89 87.20 168.11 C 83.76 169.38 79.50 168.22 77.69 171.87 C 75.81 171.54 70.09 173.32 71.04 169.99 C 71.00 160.10 70.84 150.15 71.18 140.27 C 74.26 137.26 71.40 134.86 72.22 131.29 C 74.63 127.70 76.79 132.77 77.00 135.01 Z" fill="#906b41" />
<path d="M 102.25 130.46 C 102.76 128.72 104.94 135.27 103.01 133.90 C 100.14 134.72 100.68 131.41 102.25 130.46 Z" fill="#9f8c7a" />
<path d="M 96.30 146.71 C 102.61 150.99 109.71 147.15 114.11 142.09 C 116.47 143.56 118.80 144.28 117.83 147.63 C 113.80 148.08 110.16 148.76 106.69 151.00 C 110.47 153.40 114.60 154.04 118.77 155.31 C 119.64 158.93 115.40 161.87 112.89 158.10 C 104.32 150.39 95.98 153.94 87.72 159.80 C 84.92 160.80 82.93 158.12 84.63 155.70 C 88.87 154.47 94.10 154.11 97.48 150.80 C 96.41 146.04 83.30 150.44 86.27 143.33 C 89.59 137.60 92.40 145.67 96.30 146.71 Z" fill="#6d533b" />
<path d="M 54.00 166.25 C 54.11 171.57 57.38 180.35 52.17 184.06 C 52.69 178.26 51.93 172.65 51.95 166.87 C 52.63 166.64 53.31 166.43 54.00 166.25 Z" fill="#938565" />
<path d="M 94.16 172.00 C 91.13 172.03 88.10 172.01 85.06 172.06 C 82.60 172.03 80.14 171.95 77.69 171.87 C 79.50 168.22 83.76 169.38 87.20 168.11 C 90.10 167.36 96.69 167.14 94.16 172.00 Z" fill="#734f2a" />
<path d="M 107.02 166.97 C 112.73 168.03 121.32 169.33 126.27 171.85 C 119.87 172.08 113.45 172.02 107.05 171.98 C 104.33 169.96 101.95 167.86 107.02 166.97 Z" fill="#876037" />
<path d="M 91.00 185.86 C 94.63 186.18 98.35 185.99 102.00 185.96 C 111.35 185.11 117.62 191.18 127.18 187.62 C 127.91 188.20 128.62 188.83 129.29 189.50 C 128.16 190.28 127.03 191.05 125.88 191.81 C 118.60 191.49 112.01 189.47 104.95 188.10 C 94.98 189.39 85.35 187.24 75.20 188.28 C 77.91 192.47 75.28 191.27 72.04 192.69 C 69.21 190.88 63.23 195.10 63.89 190.35 C 67.59 193.53 65.41 188.92 66.04 186.64 C 74.45 187.18 82.75 184.32 91.00 185.86 Z" fill="#dec38b" />
<path d="M 66.04 186.64 C 65.41 188.92 67.59 193.53 63.89 190.35 C 63.23 195.10 69.21 190.88 72.04 192.69 C 70.76 194.85 74.06 197.12 75.95 196.98 C 88.03 197.02 100.13 197.05 112.21 196.93 L 111.92 197.93 C 99.62 198.10 87.31 197.94 75.00 198.01 C 67.97 198.20 61.52 198.29 55.56 193.98 C 56.47 191.54 59.36 192.30 61.45 191.60 C 61.63 189.92 61.74 188.23 62.04 186.56 C 63.38 186.55 64.71 186.57 66.04 186.64 Z" fill="#bca683" />
<path d="M 75.20 188.28 C 85.35 187.24 94.98 189.39 104.95 188.10 C 112.01 189.47 118.60 191.49 125.88 191.81 C 126.78 192.31 132.85 192.62 130.04 194.21 C 126.57 194.81 123.65 196.00 120.72 193.30 C 117.52 189.88 112.99 195.03 109.17 195.49 C 110.51 195.98 111.86 196.43 113.20 196.89 L 112.21 196.93 C 100.13 197.05 88.03 197.02 75.95 196.98 C 74.06 197.12 70.76 194.85 72.04 192.69 C 75.28 191.27 77.91 192.47 75.20 188.28 Z" fill="#e1d0b7" />
<path d="M 120.72 193.30 C 123.65 196.00 126.57 194.81 130.04 194.21 C 126.42 198.02 118.03 196.88 113.20 196.89 C 111.86 196.43 110.51 195.98 109.17 195.49 C 112.99 195.03 117.52 189.88 120.72 193.30 Z" fill="#ceba93" />
<path d="M 52.97 192.99 C 53.83 193.32 54.70 193.65 55.56 193.98 C 61.52 198.29 67.97 198.20 75.00 198.01 C 87.31 197.94 99.62 198.10 111.92 197.93 C 124.11 197.57 138.92 199.29 150.18 194.18 C 150.74 198.52 155.34 197.99 149.04 200.18 C 120.71 199.95 83.52 199.77 55.64 200.21 L 54.83 200.10 C 51.36 197.05 56.49 197.92 54.95 195.81 L 54.18 194.71 C 53.78 194.14 53.38 193.56 52.97 192.99 Z" fill="#6c583f" />
<path d="M 152.58 194.12 C 158.06 195.48 163.80 195.77 169.36 196.70 C 169.82 197.47 170.62 200.12 168.96 199.83 C 146.97 203.41 125.47 201.55 103.00 202.00 C 84.10 201.55 64.91 203.14 46.15 200.72 C 43.39 200.09 41.06 200.52 40.20 197.26 C 44.73 195.89 49.46 195.11 54.18 194.71 L 54.95 195.81 C 52.64 196.50 50.14 197.08 48.00 198.17 C 48.98 200.25 52.94 199.61 54.83 200.10 L 55.64 200.21 C 74.05 202.04 93.40 200.49 112.00 201.00 C 124.18 200.48 137.08 202.06 149.04 200.18 C 151.00 199.82 155.50 199.87 156.70 198.22 C 156.74 196.95 150.82 196.44 152.58 194.12 Z" fill="#cec9c0" />
<path d="M 54.95 195.81 C 56.49 197.92 51.36 197.05 54.83 200.10 C 52.94 199.61 48.98 200.25 48.00 198.17 C 50.14 197.08 52.64 196.50 54.95 195.81 Z" fill="#a99e8f" />
<path d="M 149.04 200.18 C 137.08 202.06 124.18 200.48 112.00 201.00 C 93.40 200.49 74.05 202.04 55.64 200.21 C 83.52 199.77 120.71 199.95 149.04 200.18 Z" fill="#aca091" />
</svg>