<?xml version="1.0" encoding="UTF-8" standalone="no"?>
<!DOCTYPE svg PUBLIC "-//W3C//DTD SVG 1.1//EN" "http://www.w3.org/Graphics/SVG/1.1/DTD/svg11.dtd">
<svg xmlns="http://www.w3.org/2000/svg" version="1.1" viewBox="0 0 223 223" width="223.0pt" height="223.0pt">
<path d="M 0.00 0.00 L 32.50 0.00 C 21.19 4.23 10.82 9.43 2.87 18.81 C 1.90 19.86 0.93 20.93 0.00 22.01 L 0.00 0.00 Z" fill="#fcfbf5" />
<path d="M 32.50 0.00 L 35.19 0.00 L 35.31 0.88 C 35.03 2.24 34.71 3.60 34.41 4.95 C 32.40 6.11 29.13 6.77 28.02 8.93 C 30.00 9.23 33.44 7.43 34.80 9.16 C 33.80 12.09 31.66 11.87 29.01 12.05 C 34.20 9.09 24.59 8.89 25.09 12.05 C 18.40 15.92 12.72 20.04 4.99 21.96 C 2.82 22.41 3.51 20.17 2.87 18.81 C 10.82 9.43 21.19 4.23 32.50 0.00 Z" fill="#a18b5f" />
<path d="M 35.19 0.00 L 223.00 0.00 L 223.00 202.44 C 221.23 199.71 220.10 196.51 218.04 194.00 L 217.18 192.99 C 216.96 199.64 216.70 206.54 217.32 213.16 C 218.42 216.28 220.91 217.03 223.00 214.05 L 223.00 223.00 L 208.66 223.00 C 209.20 221.76 209.75 220.51 210.23 219.25 C 212.69 213.26 209.47 208.26 207.14 202.95 C 206.48 201.09 205.91 200.06 204.18 199.04 C 203.81 203.12 203.97 207.15 204.23 211.23 C 203.93 214.21 203.87 217.20 204.25 220.19 C 204.35 221.13 204.48 222.07 204.64 223.00 L 0.00 223.00 L 0.00 23.68 L 0.81 24.18 C 4.95 29.69 9.57 34.95 13.87 40.37 C 14.49 41.20 15.08 42.07 15.75 42.86 C 19.72 48.08 29.58 41.57 33.99 39.45 C 39.90 35.90 45.41 32.72 47.95 25.91 C 47.20 21.76 43.94 17.72 41.90 14.03 C 41.99 12.02 41.71 11.23 40.08 10.03 C 38.51 6.97 36.95 3.91 35.31 0.88 L 35.19 0.00 Z" fill="#fffefe" />
<path d="M 35.31 0.88 C 36.95 3.91 38.51 6.97 40.08 10.03 C 39.69 12.17 39.76 13.15 41.90 14.03 C 43.94 17.72 47.20 21.76 47.95 25.91 C 45.41 32.72 39.90 35.90 33.99 39.45 C 32.27 37.61 37.86 36.23 38.72 34.74 C 40.56 31.67 42.56 28.18 43.92 24.88 C 44.77 21.65 40.95 19.76 40.05 16.99 C 38.97 12.78 36.97 8.45 34.41 4.95 C 34.71 3.60 35.03 2.24 35.31 0.88 Z" fill="#4e442f" />
<path d="M 34.41 4.95 C 36.97 8.45 38.97 12.78 40.05 16.99 C 40.95 19.76 44.77 21.65 43.92 24.88 C 42.56 28.18 40.56 31.67 38.72 34.74 C 37.86 36.23 32.27 37.61 33.99 39.45 C 29.58 41.57 19.72 48.08 15.75 42.86 C 18.42 42.63 19.15 42.12 21.01 40.26 C 29.63 45.14 33.26 33.68 39.00 29.91 C 35.48 24.78 37.56 24.60 39.06 19.50 C 34.78 20.04 36.54 19.48 36.48 16.15 C 34.23 13.88 29.60 16.05 26.79 13.16 C 27.53 12.78 28.27 12.41 29.01 12.05 C 31.66 11.87 33.80 12.09 34.80 9.16 C 33.44 7.43 30.00 9.23 28.02 8.93 C 29.13 6.77 32.40 6.11 34.41 4.95 Z" fill="#72603e" />
<path d="M 29.01 12.05 C 28.27 12.41 27.53 12.78 26.79 13.16 C 22.75 15.48 19.18 18.29 14.83 20.15 C 10.03 23.11 6.51 24.13 0.81 24.18 L 0.00 23.68 L 0.00 22.01 C 0.93 20.93 1.90 19.86 2.87 18.81 C 3.51 20.17 2.82 22.41 4.99 21.96 C 12.72 20.04 18.40 15.92 25.09 12.05 C 24.59 8.89 34.20 9.09 29.01 12.05 Z" fill="#b9a071" />
<path d="M 40.08 10.03 C 41.71 11.23 41.99 12.02 41.90 14.03 C 39.76 13.15 39.69 12.17 40.08 10.03 Z" fill="#ada292" />
<path d="M 26.79 13.16 C 29.60 16.05 34.23 13.88 36.48 16.15 C 36.54 19.48 34.78 20.04 39.06 19.50 C 37.56 24.60 35.48 24.78 39.00 29.91 C 33.26 33.68 29.63 45.14 21.01 40.26 C 19.15 42.12 18.42 42.63 15.75 42.86 C 15.08 42.07 14.49 41.20 13.87 40.37 C 15.70 39.80 16.45 40.40 16.68 38.23 C 22.80 37.29 30.86 37.61 30.35 29.31 C 31.67 28.23 37.38 22.71 31.81 25.20 C 28.12 23.72 24.91 23.90 21.31 21.71 C 19.26 20.01 15.14 23.74 14.83 20.15 C 19.18 18.29 22.75 15.48 26.79 13.16 Z" fill="#8d764b" />
<path d="M 14.83 20.15 C 15.14 23.74 19.26 20.01 21.31 21.71 C 24.91 23.90 28.12 23.72 31.81 25.20 C 37.38 22.71 31.67 28.23 30.35 29.31 C 30.86 37.61 22.80 37.29 16.68 38.23 C 16.45 40.40 15.70 39.80 13.87 40.37 C 9.57 34.95 4.95 29.69 0.81 24.18 C 6.51 24.13 10.03 23.11 14.83 20.15 Z" fill="#a58d5b" />
<path d="M 114.72 59.25 C 114.48 59.85 114.23 60.44 113.98 61.03 C 103.96 59.84 95.79 59.16 85.89 61.98 C 92.44 55.82 106.50 60.15 114.72 59.25 Z" fill="#faf2d4" />
<path d="M 113.98 61.03 L 113.81 61.69 C 115.00 65.13 125.02 69.58 125.98 74.93 C 121.32 71.37 117.95 67.01 112.18 64.89 C 102.14 60.78 94.50 64.13 84.62 65.63 C 66.12 72.21 47.49 78.49 28.93 84.91 C 24.91 84.80 23.84 85.47 21.00 88.06 C 22.45 80.98 30.72 82.44 35.89 79.89 C 52.54 74.09 69.80 69.20 85.89 61.98 C 95.79 59.16 103.96 59.84 113.98 61.03 Z" fill="#ac925e" />
<path d="M 113.81 61.69 C 121.40 63.54 127.25 69.86 131.18 76.30 C 129.71 77.39 128.27 78.49 127.02 79.83 C 131.30 78.83 137.38 78.21 140.44 74.83 C 141.27 75.29 141.84 75.99 142.15 76.96 C 142.00 79.61 141.88 82.21 142.16 84.86 C 145.70 85.43 142.78 77.79 147.36 79.55 C 150.88 80.17 150.08 76.80 148.89 74.82 C 152.30 72.23 154.82 72.27 158.89 72.95 C 160.06 74.96 161.08 77.06 162.02 79.19 C 159.36 80.61 158.48 74.84 156.40 76.35 C 153.02 83.51 156.58 88.08 158.10 94.90 C 158.91 97.53 160.50 99.53 162.19 101.63 C 161.12 101.69 160.05 101.75 158.98 101.85 C 158.20 99.27 157.72 96.17 156.08 94.00 C 156.12 96.65 156.69 99.14 157.05 101.75 C 152.73 101.72 150.04 105.59 147.13 101.03 C 146.55 104.78 147.29 106.71 149.14 109.83 L 147.15 110.42 C 146.02 109.92 145.21 109.09 144.74 107.95 C 142.90 102.82 136.69 105.05 133.52 107.52 C 130.93 108.63 133.54 110.08 134.80 110.81 C 135.84 111.29 136.90 111.74 137.97 112.14 C 137.96 117.20 135.26 122.33 132.26 126.28 C 132.66 123.43 134.37 120.65 133.90 117.85 C 133.38 117.41 132.84 116.97 132.30 116.56 C 127.07 109.16 121.18 105.65 112.67 111.29 C 105.10 111.24 100.29 116.10 93.09 113.63 C 89.22 104.08 87.85 94.42 87.65 84.19 C 87.86 80.32 90.66 75.84 89.27 72.16 C 91.16 70.55 100.51 73.22 96.33 68.86 C 94.93 67.61 98.25 69.10 98.58 69.02 C 101.06 71.91 104.82 71.99 101.89 67.38 C 105.27 65.78 108.76 67.57 112.18 64.89 C 117.95 67.01 121.32 71.37 125.98 74.93 C 125.02 69.58 115.00 65.13 113.81 61.69 Z" fill="#483109" />
<path d="M 112.18 64.89 C 108.76 67.57 105.27 65.78 101.89 67.38 C 100.78 67.92 99.68 68.47 98.58 69.02 C 98.25 69.10 94.93 67.61 96.33 68.86 C 100.51 73.22 91.16 70.55 89.27 72.16 C 88.58 72.37 87.89 72.60 87.22 72.85 C 86.07 71.07 86.69 69.57 84.19 70.90 C 83.86 67.58 83.72 67.68 80.68 68.68 C 63.59 75.65 46.24 81.53 29.17 88.04 C 26.78 86.27 27.22 86.94 28.93 84.91 C 47.49 78.49 66.12 72.21 84.62 65.63 C 94.50 64.13 102.14 60.78 112.18 64.89 Z" fill="#765618" />
<path d="M 155.13 67.64 C 151.09 73.05 151.59 69.39 146.72 67.73 C 149.26 66.79 152.63 66.45 155.13 67.64 Z" fill="#a89263" />
<path d="M 84.19 70.90 C 83.38 75.26 82.59 79.50 83.06 83.97 C 82.33 82.86 81.03 77.63 80.98 82.00 C 80.67 85.97 80.47 82.73 79.69 81.39 C 77.42 84.68 71.71 84.36 68.15 85.30 C 62.99 85.66 58.47 88.47 53.35 88.42 C 54.48 92.54 50.41 89.47 48.00 91.76 C 44.55 93.18 42.86 90.52 40.56 94.94 C 39.84 95.28 39.11 95.62 38.39 95.96 C 34.31 91.13 33.88 97.31 28.68 97.15 C 28.32 96.05 27.97 94.94 27.63 93.83 C 28.15 91.90 28.73 89.99 29.17 88.04 C 46.24 81.53 63.59 75.65 80.68 68.68 C 83.72 67.68 83.86 67.58 84.19 70.90 Z" fill="#ddcea4" />
<path d="M 101.89 67.38 C 104.82 71.99 101.06 71.91 98.58 69.02 C 99.68 68.47 100.78 67.92 101.89 67.38 Z" fill="#e8cba1" />
<path d="M 105.14 68.14 C 108.24 67.37 116.22 70.77 114.87 74.85 C 111.85 75.35 103.08 72.50 105.14 68.14 Z" fill="#e3cca9" />
<path d="M 145.91 67.99 C 144.90 69.38 143.63 70.23 142.10 70.97 C 141.99 67.94 143.25 67.76 145.91 67.99 Z" fill="#a6926b" />
<path d="M 145.91 67.99 L 146.72 67.73 C 151.59 69.39 151.09 73.05 155.13 67.64 C 156.63 69.17 157.81 71.10 158.89 72.95 C 154.82 72.27 152.30 72.23 148.89 74.82 C 146.16 75.20 143.82 74.23 142.15 76.96 C 141.84 75.99 141.27 75.29 140.44 74.83 L 140.09 74.06 C 140.78 73.05 141.45 72.01 142.10 70.97 C 143.63 70.23 144.90 69.38 145.91 67.99 Z" fill="#6f511b" />
<path d="M 87.22 72.85 C 87.05 74.16 86.87 75.48 86.67 76.79 C 84.59 93.67 88.80 112.38 97.25 127.21 C 96.87 127.87 96.49 128.53 96.12 129.18 C 93.93 124.79 91.53 120.59 90.03 115.89 C 86.34 105.22 84.62 94.93 83.06 83.97 C 82.59 79.50 83.38 75.26 84.19 70.90 C 86.69 69.57 86.07 71.07 87.22 72.85 Z" fill="#573c0f" />
<path d="M 89.27 72.16 C 90.66 75.84 87.86 80.32 87.65 84.19 C 87.06 81.75 86.81 79.28 86.67 76.79 C 86.87 75.48 87.05 74.16 87.22 72.85 C 87.89 72.60 88.58 72.37 89.27 72.16 Z" fill="#e5c69c" />
<path d="M 140.09 74.06 L 140.44 74.83 C 137.38 78.21 131.30 78.83 127.02 79.83 C 128.27 78.49 129.71 77.39 131.18 76.30 C 134.17 76.58 137.08 74.46 140.09 74.06 Z" fill="#a0895d" />
<path d="M 148.89 74.82 C 150.08 76.80 150.88 80.17 147.36 79.55 C 142.78 77.79 145.70 85.43 142.16 84.86 C 141.88 82.21 142.00 79.61 142.15 76.96 C 143.82 74.23 146.16 75.20 148.89 74.82 Z" fill="#867042" />
<path d="M 156.40 76.35 C 158.48 74.84 159.36 80.61 162.02 79.19 C 164.28 84.19 165.53 89.39 166.40 94.78 C 166.20 96.10 165.99 97.41 165.75 98.72 C 164.03 99.69 164.17 101.90 162.19 101.63 C 160.50 99.53 158.91 97.53 158.10 94.90 C 156.58 88.08 153.02 83.51 156.40 76.35 Z" fill="#2d1f0a" />
<path d="M 86.67 76.79 C 86.81 79.28 87.06 81.75 87.65 84.19 C 87.85 94.42 89.22 104.08 93.09 113.63 C 94.18 117.11 95.47 120.64 97.13 123.88 C 97.47 124.54 97.81 125.21 98.14 125.87 L 97.25 127.21 C 88.80 112.38 84.59 93.67 86.67 76.79 Z" fill="#a0814f" />
<path d="M 83.06 83.97 C 83.11 86.93 82.81 89.69 81.90 92.51 C 79.97 91.19 79.92 92.10 78.09 93.12 C 72.67 89.04 64.11 91.11 59.78 95.76 C 58.57 96.57 57.78 99.79 56.41 97.53 C 55.70 95.92 54.46 99.46 53.90 99.90 C 51.81 100.30 47.70 99.13 48.39 102.65 C 49.13 105.82 46.37 102.53 45.55 101.88 C 46.09 97.91 50.24 99.42 50.93 94.99 C 50.37 93.29 49.84 92.26 48.00 91.76 C 50.41 89.47 54.48 92.54 53.35 88.42 C 58.47 88.47 62.99 85.66 68.15 85.30 C 71.71 84.36 77.42 84.68 79.69 81.39 C 80.47 82.73 80.67 85.97 80.98 82.00 C 81.03 77.63 82.33 82.86 83.06 83.97 Z" fill="#c3b48d" />
<path d="M 132.35 80.39 C 134.20 79.87 136.02 79.96 137.91 80.10 C 135.97 85.06 131.11 86.72 126.12 85.83 C 124.93 80.88 129.12 81.83 132.35 80.39 Z" fill="#887245" />
<path d="M 83.06 83.97 C 84.62 94.93 86.34 105.22 90.03 115.89 C 88.31 119.86 86.27 114.12 85.93 117.91 C 86.22 119.70 83.77 116.91 83.21 116.83 C 84.92 109.32 81.51 99.84 78.09 93.12 C 79.92 92.10 79.97 91.19 81.90 92.51 C 82.81 89.69 83.11 86.93 83.06 83.97 Z" fill="#ae9c71" />
<path d="M 28.93 84.91 C 27.22 86.94 26.78 86.27 29.17 88.04 C 28.73 89.99 28.15 91.90 27.63 93.83 C 25.78 107.47 30.67 127.11 37.75 139.03 C 38.56 140.39 39.35 141.77 40.12 143.15 C 36.13 142.93 36.80 141.53 34.58 146.08 C 25.79 137.29 21.54 123.10 19.76 111.08 C 20.34 109.43 20.60 108.16 19.11 106.94 C 18.59 100.26 19.15 94.48 21.00 88.06 C 23.84 85.47 24.91 84.80 28.93 84.91 Z" fill="#4d3811" />
<path d="M 78.09 93.12 C 81.51 99.84 84.92 109.32 83.21 116.83 C 80.21 124.14 72.70 123.27 66.17 122.75 C 62.08 119.23 62.57 126.12 58.24 120.78 C 56.37 115.73 54.84 117.47 50.28 116.70 C 49.20 114.24 47.97 110.99 48.24 108.30 C 52.23 105.12 54.86 106.35 53.90 99.90 C 54.46 99.46 55.70 95.92 56.41 97.53 C 57.78 99.79 58.57 96.57 59.78 95.76 C 64.11 91.11 72.67 89.04 78.09 93.12 Z" fill="#3d2d0a" />
<path d="M 22.37 92.29 C 26.72 91.40 22.82 100.74 22.65 102.73 C 19.16 104.23 21.83 93.94 22.37 92.29 Z" fill="#d5bf9b" />
<path d="M 48.00 91.76 C 49.84 92.26 50.37 93.29 50.93 94.99 C 50.24 99.42 46.09 97.91 45.55 101.88 C 44.99 106.25 42.06 113.40 44.74 117.23 C 48.47 121.19 51.48 129.54 57.86 128.04 C 61.29 132.33 60.53 131.93 56.18 134.08 C 53.77 137.28 51.99 135.34 49.87 133.06 C 51.91 128.83 46.21 122.61 43.18 120.05 C 42.90 126.52 41.48 130.39 47.94 133.97 C 46.95 140.08 45.94 137.17 41.89 136.92 C 38.53 137.59 36.47 135.77 37.38 132.53 C 42.87 131.13 40.50 127.30 41.04 123.00 C 42.28 115.67 36.74 108.94 33.65 102.43 C 28.27 103.28 29.40 101.62 28.68 97.15 C 33.88 97.31 34.31 91.13 38.39 95.96 C 34.68 101.60 37.65 105.16 40.95 109.98 C 43.47 105.64 43.87 99.58 40.56 94.94 C 42.86 90.52 44.55 93.18 48.00 91.76 Z" fill="#3e2e0d" />
<path d="M 27.63 93.83 C 27.97 94.94 28.32 96.05 28.68 97.15 C 29.40 101.62 28.27 103.28 33.65 102.43 C 36.74 108.94 42.28 115.67 41.04 123.00 C 40.50 127.30 42.87 131.13 37.38 132.53 C 36.47 135.77 38.53 137.59 41.89 136.92 C 40.54 137.67 39.13 138.33 37.75 139.03 C 30.67 127.11 25.78 107.47 27.63 93.83 Z" fill="#ae9e75" />
<path d="M 156.08 94.00 C 157.72 96.17 158.20 99.27 158.98 101.85 L 159.03 102.84 C 158.37 102.48 157.71 102.11 157.05 101.75 C 156.69 99.14 156.12 96.65 156.08 94.00 Z" fill="#9e8753" />
<path d="M 40.56 94.94 C 43.87 99.58 43.47 105.64 40.95 109.98 C 37.65 105.16 34.68 101.60 38.39 95.96 C 39.11 95.62 39.84 95.28 40.56 94.94 Z" fill="#b2a27d" />
<path d="M 166.40 94.78 C 167.30 98.39 167.33 101.65 166.39 105.25 C 166.16 103.07 165.94 100.90 165.75 98.72 C 165.99 97.41 166.20 96.10 166.40 94.78 Z" fill="#cbbfac" />
<path d="M 63.32 96.31 C 69.63 93.69 69.25 101.85 68.75 105.72 C 66.62 108.08 63.29 108.46 60.32 107.73 C 58.43 103.41 58.05 98.18 63.32 96.31 Z" fill="#ac9d74" />
<path d="M 165.75 98.72 C 165.94 100.90 166.16 103.07 166.39 105.25 C 166.07 106.67 165.74 108.08 165.16 109.43 C 162.86 107.46 160.99 105.14 159.03 102.84 L 158.98 101.85 C 160.05 101.75 161.12 101.69 162.19 101.63 C 164.17 101.90 164.03 99.69 165.75 98.72 Z" fill="#65491c" />
<path d="M 53.90 99.90 C 54.86 106.35 52.23 105.12 48.24 108.30 C 47.97 110.99 49.20 114.24 50.28 116.70 C 54.84 117.47 56.37 115.73 58.24 120.78 C 62.57 126.12 62.08 119.23 66.17 122.75 C 62.69 124.02 60.18 124.98 57.86 128.04 C 51.48 129.54 48.47 121.19 44.74 117.23 C 42.06 113.40 44.99 106.25 45.55 101.88 C 46.37 102.53 49.13 105.82 48.39 102.65 C 47.70 99.13 51.81 100.30 53.90 99.90 Z" fill="#ac9d76" />
<path d="M 147.13 101.03 C 150.04 105.59 152.73 101.72 157.05 101.75 C 157.71 102.11 158.37 102.48 159.03 102.84 C 159.45 105.50 162.32 108.27 159.30 110.27 C 157.11 111.54 153.39 110.89 150.85 111.19 C 150.28 110.74 149.71 110.29 149.14 109.83 C 147.29 106.71 146.55 104.78 147.13 101.03 Z" fill="#6d4d13" />
<path d="M 159.03 102.84 C 160.99 105.14 162.86 107.46 165.16 109.43 C 162.69 112.57 153.40 116.64 150.85 111.19 C 153.39 110.89 157.11 111.54 159.30 110.27 C 162.32 108.27 159.45 105.50 159.03 102.84 Z" fill="#aa925d" />
<path d="M 144.74 107.95 C 141.31 108.58 138.10 109.70 134.80 110.81 C 133.54 110.08 130.93 108.63 133.52 107.52 C 136.69 105.05 142.90 102.82 144.74 107.95 Z" fill="#674d1c" />
<path d="M 19.11 106.94 C 20.60 108.16 20.34 109.43 19.76 111.08 C 18.53 109.74 18.63 108.60 19.11 106.94 Z" fill="#aea292" />
<path d="M 57.13 108.11 C 59.68 107.90 60.25 109.67 59.87 111.86 C 57.74 112.44 57.23 109.63 57.13 108.11 Z" fill="#968662" />
<path d="M 132.30 116.56 C 127.16 119.19 120.73 120.07 115.01 120.11 C 111.49 120.71 105.33 124.19 102.22 121.49 C 100.53 126.26 101.88 126.32 97.13 123.88 C 95.47 120.64 94.18 117.11 93.09 113.63 C 100.29 116.10 105.10 111.24 112.67 111.29 C 121.18 105.65 127.07 109.16 132.30 116.56 Z" fill="#5b3f0b" />
<path d="M 144.74 107.95 C 145.21 109.09 146.02 109.92 147.15 110.42 C 143.94 111.40 140.97 110.40 137.97 112.14 C 136.90 111.74 135.84 111.29 134.80 110.81 C 138.10 109.70 141.31 108.58 144.74 107.95 Z" fill="#a08757" />
<path d="M 66.36 109.33 C 71.63 107.41 76.27 121.20 68.99 121.05 C 62.55 121.81 56.74 109.62 66.36 109.33 Z" fill="#a89971" />
<path d="M 90.03 115.89 C 91.53 120.59 93.93 124.79 96.12 129.18 L 96.11 129.98 C 94.15 129.28 91.73 125.10 90.00 127.72 C 88.11 125.22 86.56 128.92 84.37 129.35 C 77.08 131.05 69.39 131.74 62.30 134.20 C 60.46 134.87 58.09 134.19 56.18 134.08 C 60.53 131.93 61.29 132.33 57.86 128.04 C 60.18 124.98 62.69 124.02 66.17 122.75 C 72.70 123.27 80.21 124.14 83.21 116.83 C 83.77 116.91 86.22 119.70 85.93 117.91 C 86.27 114.12 88.31 119.86 90.03 115.89 Z" fill="#c3b58c" />
<path d="M 132.30 116.56 C 132.84 116.97 133.38 117.41 133.90 117.85 C 130.62 120.12 130.00 125.62 126.23 128.23 C 123.27 123.91 123.68 130.83 122.56 125.05 C 121.88 132.48 114.33 125.34 112.38 131.25 C 112.36 134.46 108.66 130.40 106.63 131.61 C 103.12 132.97 103.61 127.96 101.05 130.61 C 100.00 129.09 99.10 127.45 98.14 125.87 C 97.81 125.21 97.47 124.54 97.13 123.88 C 101.88 126.32 100.53 126.26 102.22 121.49 C 105.33 124.19 111.49 120.71 115.01 120.11 C 120.73 120.07 127.16 119.19 132.30 116.56 Z" fill="#704d0f" />
<path d="M 133.90 117.85 C 134.37 120.65 132.66 123.43 132.26 126.28 C 126.18 133.90 115.60 139.38 105.97 140.84 C 87.56 142.99 69.32 146.09 51.04 149.08 C 46.72 149.62 41.70 152.00 37.90 149.21 C 42.55 149.75 45.47 146.78 49.96 146.77 C 64.28 145.08 78.50 142.13 92.84 140.82 L 91.83 139.54 C 94.16 138.38 101.29 140.31 101.16 137.09 C 102.43 138.23 102.82 139.58 104.83 138.80 C 112.54 136.00 120.35 134.37 126.23 128.23 C 130.00 125.62 130.62 120.12 133.90 117.85 Z" fill="#ab9461" />
<path d="M 43.18 120.05 C 46.21 122.61 51.91 128.83 49.87 133.06 C 47.67 130.52 48.36 130.72 47.94 133.97 C 41.48 130.39 42.90 126.52 43.18 120.05 Z" fill="#ac9d77" />
<path d="M 122.56 125.05 C 123.68 130.83 123.27 123.91 126.23 128.23 C 120.35 134.37 112.54 136.00 104.83 138.80 C 102.82 139.58 102.43 138.23 101.16 137.09 C 99.31 134.83 97.68 132.43 96.11 129.98 L 96.12 129.18 C 96.49 128.53 96.87 127.87 97.25 127.21 L 98.14 125.87 C 99.10 127.45 100.00 129.09 101.05 130.61 C 103.61 127.96 103.12 132.97 106.63 131.61 C 108.66 130.40 112.36 134.46 112.38 131.25 C 114.33 125.34 121.88 132.48 122.56 125.05 Z" fill="#835c1a" />
<path d="M 90.00 127.72 C 91.73 125.10 94.15 129.28 96.11 129.98 C 97.68 132.43 99.31 134.83 101.16 137.09 C 101.29 140.31 94.16 138.38 91.83 139.54 C 76.63 141.54 61.42 142.53 46.34 145.46 C 43.69 146.25 42.29 144.31 40.12 143.15 C 39.35 141.77 38.56 140.39 37.75 139.03 C 39.13 138.33 40.54 137.67 41.89 136.92 C 45.94 137.17 46.95 140.08 47.94 133.97 C 48.36 130.72 47.67 130.52 49.87 133.06 C 51.99 135.34 53.77 137.28 56.18 134.08 C 58.09 134.19 60.46 134.87 62.30 134.20 C 69.39 131.74 77.08 131.05 84.37 129.35 C 86.56 128.92 88.11 125.22 90.00 127.72 Z" fill="#ddcea4" />
<path d="M 91.83 139.54 L 92.84 140.82 C 78.50 142.13 64.28 145.08 49.96 146.77 C 45.47 146.78 42.55 149.75 37.90 149.21 C 36.69 148.26 35.66 147.17 34.58 146.08 C 36.80 141.53 36.13 142.93 40.12 143.15 C 42.29 144.31 43.69 146.25 46.34 145.46 C 61.42 142.53 76.63 141.54 91.83 139.54 Z" fill="#765a1e" />
<path d="M 217.18 192.99 L 218.04 194.00 C 218.72 199.57 220.27 208.15 217.32 213.16 C 216.70 206.54 216.96 199.64 217.18 192.99 Z" fill="#715e32" />
<path d="M 218.04 194.00 C 220.10 196.51 221.23 199.71 223.00 202.44 L 223.00 204.76 C 223.04 206.98 217.55 215.25 223.00 212.30 L 223.00 214.05 C 220.91 217.03 218.42 216.28 217.32 213.16 C 220.27 208.15 218.72 199.57 218.04 194.00 Z" fill="#938150" />
<path d="M 204.18 199.04 C 205.91 200.06 206.48 201.09 207.14 202.95 L 206.29 202.70 C 203.74 200.83 205.86 209.70 204.23 211.23 C 203.97 207.15 203.81 203.12 204.18 199.04 Z" fill="#b3a88f" />
<path d="M 206.29 202.70 C 205.36 209.12 207.30 214.34 204.25 220.19 C 203.87 217.20 203.93 214.21 204.23 211.23 C 205.86 209.70 203.74 200.83 206.29 202.70 Z" fill="#6d5b31" />
<path d="M 206.29 202.70 L 207.14 202.95 C 209.47 208.26 212.69 213.26 210.23 219.25 C 209.82 218.05 210.64 211.98 209.28 212.34 C 210.09 215.19 204.38 222.07 210.23 219.25 C 209.75 220.51 209.20 221.76 208.66 223.00 L 204.64 223.00 C 204.48 222.07 204.35 221.13 204.25 220.19 C 207.30 214.34 205.36 209.12 206.29 202.70 Z" fill="#988257" />
<path d="M 223.00 204.76 L 223.00 212.30 C 217.55 215.25 223.04 206.98 223.00 204.76 Z" fill="#f2e8c0" />
<path d="M 209.28 212.34 C 210.64 211.98 209.82 218.05 210.23 219.25 C 204.38 222.07 210.09 215.19 209.28 212.34 Z" fill="#f9eec6" />
</svg>