<?xml version="1.0" encoding="UTF-8" standalone="no"?>
<!DOCTYPE svg PUBLIC "-//W3C//DTD SVG 1.1//EN" "http://www.w3.org/Graphics/SVG/1.1/DTD/svg11.dtd">
<svg xmlns="http://www.w3.org/2000/svg" version="1.1" viewBox="0 0 189 190" width="189.0pt" height="190.0pt">
<path d="M 0.00 0.00 L 189.00 0.00 L 189.00 128.97 C 170.63 130.48 155.09 127.06 137.64 122.37 C 130.85 121.56 123.88 122.19 117.04 121.99 C 116.95 116.04 117.08 110.09 116.95 104.13 C 116.18 105.15 115.45 106.18 114.63 107.16 C 114.07 102.72 115.03 98.49 114.93 94.10 C 110.80 87.66 109.98 81.04 101.11 80.00 L 100.23 79.86 C 99.34 77.96 98.56 76.02 97.98 74.00 C 97.67 71.03 97.14 68.09 96.93 65.10 L 98.07 64.13 C 101.62 61.31 99.73 61.65 96.76 60.17 C 95.83 59.78 94.90 59.37 94.00 58.92 C 94.32 54.76 92.56 50.14 96.43 47.36 C 98.27 44.67 94.91 43.89 92.78 44.06 C 96.65 40.57 91.56 39.46 88.93 37.94 C 86.91 31.62 89.75 27.96 95.63 25.90 C 92.40 30.08 98.45 31.66 98.93 26.90 C 99.34 20.99 89.55 27.06 89.70 21.15 C 90.11 18.11 83.01 19.50 84.68 22.16 C 85.66 26.55 81.25 19.92 79.94 22.94 C 76.59 25.19 78.76 29.29 82.45 29.10 C 80.26 33.59 78.15 29.85 75.25 32.10 C 76.23 37.12 77.97 38.80 81.99 34.62 L 82.89 35.04 L 83.32 36.81 C 78.83 37.91 84.11 39.55 81.16 42.13 C 79.01 44.67 82.10 45.29 83.76 46.37 C 83.40 50.62 83.62 54.53 83.97 58.78 C 82.34 59.15 80.69 59.46 79.06 59.81 L 78.13 59.92 C 70.96 59.60 74.87 62.80 76.28 66.60 C 76.47 71.51 76.20 76.13 73.11 80.19 C 70.70 79.62 69.72 80.17 67.99 81.77 L 66.59 82.72 C 65.62 83.37 64.67 84.07 63.78 84.85 C 54.86 90.84 58.67 106.47 58.25 115.77 C 57.94 119.73 58.19 123.72 57.77 127.66 C 54.99 128.30 52.76 127.39 51.30 130.41 C 48.35 135.28 42.17 125.03 38.93 128.89 C 37.54 131.20 32.37 134.75 35.83 129.40 C 31.52 128.71 26.68 128.24 22.71 126.46 C 15.15 124.81 7.68 124.97 0.00 124.90 L 0.00 0.00 Z" fill="#020202" />
<path d="M 89.70 21.15 C 89.55 27.06 99.34 20.99 98.93 26.90 C 98.45 31.66 92.40 30.08 95.63 25.90 C 89.75 27.96 86.91 31.62 88.93 37.94 C 85.77 38.00 85.33 36.35 82.89 35.04 L 81.99 34.62 C 83.42 32.32 87.80 31.03 87.03 28.05 C 87.27 26.40 84.77 25.80 83.66 25.11 C 83.51 26.64 83.57 27.89 82.45 29.10 C 78.76 29.29 76.59 25.19 79.94 22.94 C 81.25 19.92 85.66 26.55 84.68 22.16 C 83.01 19.50 90.11 18.11 89.70 21.15 Z" fill="#2b2b2b" />
<path d="M 83.66 25.11 C 84.77 25.80 87.27 26.40 87.03 28.05 C 87.80 31.03 83.42 32.32 81.99 34.62 C 77.97 38.80 76.23 37.12 75.25 32.10 C 78.15 29.85 80.26 33.59 82.45 29.10 C 83.57 27.89 83.51 26.64 83.66 25.11 Z" fill="#555555" />
<path d="M 82.89 35.04 C 85.33 36.35 85.77 38.00 88.93 37.94 C 90.05 40.08 91.25 42.17 92.78 44.06 C 92.80 44.97 92.81 45.88 92.81 46.79 C 90.83 50.48 90.82 53.87 91.07 57.95 C 90.40 58.70 89.72 59.44 89.04 60.18 C 89.18 56.74 90.59 52.73 89.72 49.39 C 84.96 47.61 84.35 41.09 83.32 36.81 L 82.89 35.04 Z" fill="#676768" />
<path d="M 83.32 36.81 C 84.35 41.09 84.96 47.61 89.72 49.39 C 90.59 52.73 89.18 56.74 89.04 60.18 C 86.44 58.62 86.04 54.25 83.97 58.78 C 83.62 54.53 83.40 50.62 83.76 46.37 C 82.10 45.29 79.01 44.67 81.16 42.13 C 84.11 39.55 78.83 37.91 83.32 36.81 Z" fill="#2d2d2f" />
<path d="M 88.93 37.94 C 91.56 39.46 96.65 40.57 92.78 44.06 C 91.25 42.17 90.05 40.08 88.93 37.94 Z" fill="#2b2b2b" />
<path d="M 92.78 44.06 C 94.91 43.89 98.27 44.67 96.43 47.36 C 92.56 50.14 94.32 54.76 94.00 58.92 C 92.00 56.88 93.43 49.88 92.81 46.79 C 92.81 45.88 92.80 44.97 92.78 44.06 Z" fill="#29292a" />
<path d="M 92.81 46.79 C 93.43 49.88 92.00 56.88 94.00 58.92 C 94.90 59.37 95.83 59.78 96.76 60.17 C 96.63 62.21 96.44 62.68 98.07 64.13 L 96.93 65.10 C 95.88 65.40 94.84 65.71 93.80 66.03 C 94.94 60.34 94.21 62.47 91.07 57.95 C 90.82 53.87 90.83 50.48 92.81 46.79 Z" fill="#858d88" />
<path d="M 89.04 60.18 C 90.06 65.57 89.61 71.13 91.23 76.54 C 85.18 78.58 89.85 68.81 83.75 74.25 C 82.49 74.28 81.24 74.28 79.98 74.21 C 79.69 72.24 78.83 71.94 77.25 71.09 C 76.94 73.86 77.01 76.41 76.23 79.10 C 75.51 79.44 74.79 79.77 74.07 80.09 L 73.11 80.19 C 76.20 76.13 76.47 71.51 76.28 66.60 C 74.87 62.80 70.96 59.60 78.13 59.92 C 74.91 61.33 77.18 64.41 79.57 65.10 C 79.51 63.33 79.35 61.56 79.06 59.81 C 80.69 59.46 82.34 59.15 83.97 58.78 C 86.04 54.25 86.44 58.62 89.04 60.18 Z" fill="#525f50" />
<path d="M 91.07 57.95 C 94.21 62.47 94.94 60.34 93.80 66.03 C 93.85 67.88 93.92 69.74 93.93 71.59 C 93.10 73.14 93.66 77.04 91.23 76.54 C 89.61 71.13 90.06 65.57 89.04 60.18 C 89.72 59.44 90.40 58.70 91.07 57.95 Z" fill="#b5c0b2" />
<path d="M 78.13 59.92 L 79.06 59.81 C 79.35 61.56 79.51 63.33 79.57 65.10 C 77.18 64.41 74.91 61.33 78.13 59.92 Z" fill="#9cb29f" />
<path d="M 96.76 60.17 C 99.73 61.65 101.62 61.31 98.07 64.13 C 96.44 62.68 96.63 62.21 96.76 60.17 Z" fill="#46534e" />
<path d="M 96.93 65.10 C 97.14 68.09 97.67 71.03 97.98 74.00 C 95.54 77.55 95.59 73.31 93.93 71.59 C 93.92 69.74 93.85 67.88 93.80 66.03 C 94.84 65.71 95.88 65.40 96.93 65.10 Z" fill="#4a564b" />
<path d="M 77.25 71.09 C 78.83 71.94 79.69 72.24 79.98 74.21 C 80.39 78.48 88.51 80.32 91.80 82.20 C 94.40 83.83 95.56 81.95 97.97 81.12 C 98.07 86.20 88.84 84.26 89.46 89.47 C 92.65 96.53 96.81 90.81 102.18 90.69 C 105.69 91.78 108.65 92.68 111.31 95.37 C 107.34 98.00 103.75 98.98 99.01 98.95 C 94.29 98.79 90.56 101.59 85.74 101.19 C 86.59 98.38 88.33 96.29 89.97 93.93 C 89.30 91.45 85.04 92.53 83.40 90.59 C 81.33 89.32 78.79 85.98 76.39 88.34 C 74.66 89.54 72.74 89.14 72.04 87.06 C 73.58 84.31 75.61 82.32 76.23 79.10 C 77.01 76.41 76.94 73.86 77.25 71.09 Z" fill="#c6d5c7" />
<path d="M 91.23 76.54 C 93.66 77.04 93.10 73.14 93.93 71.59 C 95.59 73.31 95.54 77.55 97.98 74.00 C 98.56 76.02 99.34 77.96 100.23 79.86 C 98.71 79.01 97.17 78.03 95.52 77.43 C 93.35 84.70 86.79 76.46 83.75 74.25 C 89.85 68.81 85.18 78.58 91.23 76.54 Z" fill="#798578" />
<path d="M 79.98 74.21 C 81.24 74.28 82.49 74.28 83.75 74.25 C 86.79 76.46 93.35 84.70 95.52 77.43 C 97.17 78.03 98.71 79.01 100.23 79.86 C 100.76 82.52 99.92 83.39 98.62 85.52 C 100.35 87.14 101.32 88.48 102.18 90.69 C 96.81 90.81 92.65 96.53 89.46 89.47 C 88.84 84.26 98.07 86.20 97.97 81.12 C 95.56 81.95 94.40 83.83 91.80 82.20 C 88.51 80.32 80.39 78.48 79.98 74.21 Z" fill="#a0aca0" />
<path d="M 76.23 79.10 C 75.61 82.32 73.58 84.31 72.04 87.06 C 72.74 89.14 74.66 89.54 76.39 88.34 C 78.79 85.98 81.33 89.32 83.40 90.59 C 85.04 92.53 89.30 91.45 89.97 93.93 C 88.33 96.29 86.59 98.38 85.74 101.19 L 85.07 100.95 C 85.17 97.07 82.10 96.92 79.03 97.09 C 79.35 98.82 80.67 99.04 81.92 99.98 C 79.10 99.46 75.84 101.68 76.54 97.40 C 73.19 97.07 70.41 95.29 67.05 95.55 C 68.62 93.99 70.67 92.78 72.00 91.02 C 71.18 88.25 68.35 86.19 68.03 83.38 C 71.94 83.73 72.59 84.10 74.07 80.09 C 74.79 79.77 75.51 79.44 76.23 79.10 Z" fill="#a3b9a2" />
<path d="M 73.11 80.19 C 71.76 82.56 70.41 82.38 67.99 81.77 C 69.72 80.17 70.70 79.62 73.11 80.19 Z" fill="#3c5645" />
<path d="M 73.11 80.19 L 74.07 80.09 C 72.59 84.10 71.94 83.73 68.03 83.38 C 68.35 86.19 71.18 88.25 72.00 91.02 C 70.67 92.78 68.62 93.99 67.05 95.55 C 70.41 95.29 73.19 97.07 76.54 97.40 C 75.84 101.68 79.10 99.46 81.92 99.98 C 80.67 99.04 79.35 98.82 79.03 97.09 C 82.10 96.92 85.17 97.07 85.07 100.95 C 78.99 100.86 72.14 101.91 66.95 98.03 C 66.28 96.83 62.17 93.01 65.20 92.42 C 71.03 90.49 65.16 86.73 66.59 82.72 L 67.99 81.77 C 70.41 82.38 71.76 82.56 73.11 80.19 Z" fill="#7aa47b" />
<path d="M 100.23 79.86 L 101.11 80.00 C 102.44 81.81 102.50 83.37 102.67 85.51 C 106.18 88.30 109.39 91.35 112.03 95.00 L 111.31 95.37 C 108.65 92.68 105.69 91.78 102.18 90.69 C 101.32 88.48 100.35 87.14 98.62 85.52 C 99.92 83.39 100.76 82.52 100.23 79.86 Z" fill="#667266" />
<path d="M 101.11 80.00 C 109.98 81.04 110.80 87.66 114.93 94.10 C 115.03 98.49 114.07 102.72 114.63 107.16 C 115.45 106.18 116.18 105.15 116.95 104.13 C 117.08 110.09 116.95 116.04 117.04 121.99 C 116.93 123.40 116.82 124.81 116.71 126.23 C 114.36 120.90 118.83 111.58 112.83 109.03 C 112.86 104.76 113.62 99.93 112.38 95.81 L 112.03 95.00 C 109.39 91.35 106.18 88.30 102.67 85.51 C 102.50 83.37 102.44 81.81 101.11 80.00 Z" fill="#303e27" />
<path d="M 66.59 82.72 C 65.16 86.73 71.03 90.49 65.20 92.42 C 62.17 93.01 66.28 96.83 66.95 98.03 C 65.99 97.78 65.02 97.56 64.04 97.34 C 62.25 93.16 62.97 89.14 63.78 84.85 C 64.67 84.07 65.62 83.37 66.59 82.72 Z" fill="#487552" />
<path d="M 63.78 84.85 C 62.97 89.14 62.25 93.16 64.04 97.34 C 59.33 98.46 61.69 95.49 60.79 92.24 C 59.08 91.93 60.13 97.99 60.85 99.06 C 61.78 109.76 64.23 119.71 62.71 130.62 C 58.72 131.92 59.18 136.54 59.08 139.98 C 59.12 141.00 59.17 142.03 59.24 143.06 C 58.29 143.45 57.34 143.83 56.39 144.18 C 59.10 140.80 57.21 138.04 57.01 134.23 C 60.64 130.29 58.95 120.80 58.25 115.77 C 58.67 106.47 54.86 90.84 63.78 84.85 Z" fill="#103611" />
<path d="M 60.79 92.24 C 61.69 95.49 59.33 98.46 64.04 97.34 C 65.02 97.56 65.99 97.78 66.95 98.03 C 72.14 101.91 78.99 100.86 85.07 100.95 L 85.12 101.81 C 81.13 102.26 77.28 103.16 73.23 102.99 C 71.57 102.52 70.16 101.83 68.39 102.17 C 67.54 104.48 68.33 110.04 64.40 108.82 C 63.48 105.90 63.60 100.95 60.85 99.06 C 60.13 97.99 59.08 91.93 60.79 92.24 Z" fill="#1b771d" />
<path d="M 111.31 95.37 L 112.03 95.00 L 112.38 95.81 C 112.02 96.95 112.21 100.04 110.83 100.44 C 106.33 100.19 102.36 99.24 97.93 100.78 C 94.06 101.14 89.34 102.97 85.74 101.19 C 90.56 101.59 94.29 98.79 99.01 98.95 C 103.75 98.98 107.34 98.00 111.31 95.37 Z" fill="#99c399" />
<path d="M 112.38 95.81 C 113.62 99.93 112.86 104.76 112.83 109.03 L 112.11 108.76 C 111.80 106.64 111.46 105.41 109.18 104.86 C 106.77 99.16 102.96 101.47 97.93 100.78 C 102.36 99.24 106.33 100.19 110.83 100.44 C 112.21 100.04 112.02 96.95 112.38 95.81 Z" fill="#6c9a63" />
<path d="M 60.85 99.06 C 63.60 100.95 63.48 105.90 64.40 108.82 C 68.33 110.04 67.54 104.48 68.39 102.17 C 70.16 101.83 71.57 102.52 73.23 102.99 C 67.98 104.87 68.98 109.66 69.84 114.05 C 69.26 121.38 69.71 128.29 70.33 135.64 C 72.55 138.99 71.36 133.92 72.90 132.97 C 74.23 133.69 75.61 137.50 76.17 134.16 C 77.11 131.57 81.16 133.80 79.19 136.20 C 77.00 140.61 81.02 135.86 82.22 139.66 L 82.73 140.31 C 83.38 142.88 81.88 146.61 85.74 146.44 C 92.76 145.39 99.97 144.23 106.89 142.66 C 112.86 144.56 104.81 149.48 101.79 148.94 C 95.67 145.95 93.17 151.38 87.12 151.59 C 82.86 149.28 81.72 147.99 77.05 150.61 C 74.71 148.98 73.13 147.90 70.13 147.83 C 64.86 144.19 68.74 146.39 70.74 142.84 C 68.82 139.25 66.22 135.67 63.12 133.01 C 61.97 135.18 61.83 137.93 61.23 140.32 L 59.08 139.98 C 59.18 136.54 58.72 131.92 62.71 130.62 C 64.23 119.71 61.78 109.76 60.85 99.06 Z" fill="#0a5707" />
<path d="M 85.07 100.95 L 85.74 101.19 C 89.34 102.97 94.06 101.14 97.93 100.78 C 96.62 101.90 95.28 102.98 93.93 104.05 C 92.06 105.64 87.19 107.12 88.67 110.22 C 87.76 111.59 86.69 111.82 85.20 112.30 C 84.92 108.80 85.40 105.30 85.12 101.81 L 85.07 100.95 Z" fill="#708b5b" />
<path d="M 97.93 100.78 C 102.96 101.47 106.77 99.16 109.18 104.86 C 104.02 103.55 99.31 103.77 94.18 105.00 L 93.93 104.05 C 95.28 102.98 96.62 101.90 97.93 100.78 Z" fill="#315711" />
<path d="M 85.12 101.81 C 85.40 105.30 84.92 108.80 85.20 112.30 C 84.77 113.10 84.34 113.90 83.91 114.70 C 81.27 115.42 82.24 117.88 81.96 119.99 C 82.13 126.53 81.74 133.13 82.22 139.66 C 81.02 135.86 77.00 140.61 79.19 136.20 C 81.16 133.80 77.11 131.57 76.17 134.16 C 75.61 137.50 74.23 133.69 72.90 132.97 C 71.36 133.92 72.55 138.99 70.33 135.64 C 69.71 128.29 69.26 121.38 69.84 114.05 C 68.98 109.66 67.98 104.87 73.23 102.99 C 77.28 103.16 81.13 102.26 85.12 101.81 Z" fill="#053d03" />
<path d="M 93.93 104.05 L 94.18 105.00 C 92.28 106.69 90.33 108.28 88.67 110.22 C 87.19 107.12 92.06 105.64 93.93 104.05 Z" fill="#475210" />
<path d="M 109.18 104.86 C 109.50 106.95 109.82 108.26 112.11 108.76 L 112.83 109.03 C 118.83 111.58 114.36 120.90 116.71 126.23 C 117.03 129.50 117.02 132.76 117.09 136.04 C 117.09 137.02 117.10 138.00 117.10 138.98 C 116.65 139.65 116.20 140.31 115.75 140.98 C 112.80 141.52 109.81 141.95 106.89 142.66 C 99.97 144.23 92.76 145.39 85.74 146.44 C 81.88 146.61 83.38 142.88 82.73 140.31 C 83.23 134.63 82.86 128.98 83.05 123.30 C 83.57 123.41 85.35 125.70 84.94 123.94 C 84.69 121.06 86.51 116.67 83.91 114.70 C 84.34 113.90 84.77 113.10 85.20 112.30 C 86.69 111.82 87.76 111.59 88.67 110.22 C 90.33 108.28 92.28 106.69 94.18 105.00 C 99.31 103.77 104.02 103.55 109.18 104.86 Z" fill="#9f9617" />
<path d="M 109.18 104.86 C 111.46 105.41 111.80 106.64 112.11 108.76 C 109.82 108.26 109.50 106.95 109.18 104.86 Z" fill="#3f570a" />
<path d="M 98.27 111.22 C 100.07 110.83 102.03 110.92 103.85 111.15 C 104.56 115.20 103.69 118.99 99.96 121.16 C 97.75 118.56 94.57 114.00 98.27 111.22 Z" fill="#4d440c" />
<path d="M 83.91 114.70 C 86.51 116.67 84.69 121.06 84.94 123.94 C 85.35 125.70 83.57 123.41 83.05 123.30 C 82.86 128.98 83.23 134.63 82.73 140.31 L 82.22 139.66 C 81.74 133.13 82.13 126.53 81.96 119.99 C 82.24 117.88 81.27 115.42 83.91 114.70 Z" fill="#788c1e" />
<path d="M 58.25 115.77 C 58.95 120.80 60.64 130.29 57.01 134.23 C 53.73 136.73 48.23 137.83 44.50 135.69 C 41.45 134.70 37.21 131.79 34.86 135.60 L 34.23 135.58 C 30.02 134.53 27.03 140.17 22.89 140.84 C 18.03 141.36 13.05 140.65 8.17 141.18 C 6.88 144.53 13.72 141.76 13.77 143.86 C 9.12 143.91 4.61 144.55 0.00 145.07 L 0.00 124.90 C 7.68 124.97 15.15 124.81 22.71 126.46 C 26.68 128.24 31.52 128.71 35.83 129.40 C 32.37 134.75 37.54 131.20 38.93 128.89 C 42.17 125.03 48.35 135.28 51.30 130.41 C 52.76 127.39 54.99 128.30 57.77 127.66 C 58.19 123.72 57.94 119.73 58.25 115.77 Z" fill="#0f0e0a" />
<path d="M 99.99 121.99 C 101.61 121.54 103.15 120.70 104.72 120.08 C 103.94 122.28 103.80 122.68 104.75 124.86 C 101.92 124.31 99.02 123.71 96.35 122.61 C 94.77 118.23 97.93 121.94 99.99 121.99 Z" fill="#675802" />
<path d="M 117.04 121.99 C 123.88 122.19 130.85 121.56 137.64 122.37 C 155.09 127.06 170.63 130.48 189.00 128.97 L 189.00 139.32 C 185.01 138.64 184.29 139.87 183.56 135.29 C 177.06 134.38 170.97 136.07 164.63 133.46 C 149.24 131.87 134.36 131.83 118.91 131.58 C 119.04 133.73 120.41 134.54 121.77 135.94 C 120.21 136.00 118.65 136.01 117.09 136.04 C 117.02 132.76 117.03 129.50 116.71 126.23 C 116.82 124.81 116.93 123.40 117.04 121.99 Z" fill="#100f0a" />
<path d="M 107.96 127.08 C 110.37 128.55 112.12 129.80 112.02 132.91 C 110.30 131.17 108.69 129.49 107.96 127.08 Z" fill="#5e4a02" />
<path d="M 97.30 129.45 C 98.68 129.55 98.29 134.56 97.70 135.55 C 96.33 135.45 96.71 130.44 97.30 129.45 Z" fill="#584b01" />
<path d="M 95.96 133.04 C 96.26 137.98 94.74 130.67 93.16 131.32 C 90.83 133.11 93.06 135.04 93.62 137.17 C 91.45 136.46 91.30 134.98 90.39 133.13 C 88.80 134.55 89.53 138.20 87.14 137.89 C 86.92 135.74 86.84 133.48 87.23 131.34 C 90.01 131.36 97.48 127.53 95.96 133.04 Z" fill="#726602" />
<path d="M 118.91 131.58 C 134.36 131.83 149.24 131.87 164.63 133.46 C 170.97 136.07 177.06 134.38 183.56 135.29 C 184.29 139.87 185.01 138.64 189.00 139.32 L 189.00 142.93 C 176.90 141.99 163.08 140.80 151.00 141.02 C 148.86 140.47 144.42 142.43 147.69 139.05 C 137.50 138.90 127.30 139.07 117.10 138.98 C 117.10 138.00 117.09 137.02 117.09 136.04 C 118.65 136.01 120.21 136.00 121.77 135.94 C 120.41 134.54 119.04 133.73 118.91 131.58 Z" fill="#29251d" />
<path d="M 44.50 135.69 C 48.23 137.83 53.73 136.73 57.01 134.23 C 57.21 138.04 59.10 140.80 56.39 144.18 C 57.34 143.83 58.29 143.45 59.24 143.06 C 59.76 143.67 60.28 144.28 60.80 144.90 L 60.76 145.65 L 60.06 146.25 C 57.31 148.77 54.57 150.27 55.09 154.54 C 51.88 151.51 50.32 159.95 46.18 156.18 C 49.89 156.03 49.95 152.77 50.99 149.98 C 51.56 147.27 53.06 145.63 51.36 143.01 C 51.39 140.06 42.50 138.24 40.08 136.68 C 38.43 136.13 36.59 135.90 34.86 135.60 C 37.21 131.79 41.45 134.70 44.50 135.69 Z" fill="#39301c" />
<path d="M 63.12 133.01 C 66.22 135.67 68.82 139.25 70.74 142.84 C 68.74 146.39 64.86 144.19 70.13 147.83 C 69.32 149.53 68.55 151.25 67.70 152.92 C 66.79 149.52 64.82 150.15 61.95 149.38 C 66.38 146.46 65.91 146.31 60.76 145.65 L 60.80 144.90 C 60.93 143.37 61.07 141.85 61.23 140.32 C 61.83 137.93 61.97 135.18 63.12 133.01 Z" fill="#1a9121" />
<path d="M 34.23 135.58 C 33.10 137.15 31.89 138.66 30.67 140.15 L 29.77 141.17 C 28.36 142.74 25.53 142.59 27.57 144.95 C 23.09 145.15 20.03 143.91 16.98 147.99 C 14.20 150.04 18.80 149.91 19.97 150.47 C 13.26 153.18 6.56 150.60 0.00 154.22 L 0.00 145.07 C 4.61 144.55 9.12 143.91 13.77 143.86 C 13.72 141.76 6.88 144.53 8.17 141.18 C 13.05 140.65 18.03 141.36 22.89 140.84 C 27.03 140.17 30.02 134.53 34.23 135.58 Z" fill="#201c14" />
<path d="M 34.23 135.58 L 34.86 135.60 C 36.59 135.90 38.43 136.13 40.08 136.68 C 36.19 136.86 40.07 141.89 42.06 142.56 C 42.48 145.56 44.53 145.22 46.91 146.12 C 42.69 151.34 40.11 145.84 36.05 143.86 C 33.76 143.10 32.24 141.93 30.67 140.15 C 31.89 138.66 33.10 137.15 34.23 135.58 Z" fill="#a88e58" />
<path d="M 40.08 136.68 C 42.50 138.24 51.39 140.06 51.36 143.01 C 49.67 143.84 48.29 144.85 46.91 146.12 C 44.53 145.22 42.48 145.56 42.06 142.56 C 40.07 141.89 36.19 136.86 40.08 136.68 Z" fill="#d1ba8a" />
<path d="M 117.10 138.98 C 127.30 139.07 137.50 138.90 147.69 139.05 C 144.42 142.43 148.86 140.47 151.00 141.02 C 163.08 140.80 176.90 141.99 189.00 142.93 L 189.00 147.20 C 187.73 147.06 186.47 146.91 185.20 146.77 C 179.90 144.02 174.95 145.32 169.26 144.85 C 168.24 144.11 167.36 143.00 166.00 143.05 C 149.51 143.26 133.52 141.19 116.95 142.08 L 115.75 140.98 C 116.20 140.31 116.65 139.65 117.10 138.98 Z" fill="#494537" />
<path d="M 30.67 140.15 C 32.24 141.93 33.76 143.10 36.05 143.86 C 40.11 145.84 42.69 151.34 46.91 146.12 C 48.29 144.85 49.67 143.84 51.36 143.01 C 53.06 145.63 51.56 147.27 50.99 149.98 C 49.95 152.77 49.89 156.03 46.18 156.18 C 44.72 150.43 40.18 149.64 35.18 148.12 C 32.59 146.21 30.17 144.65 29.77 141.17 L 30.67 140.15 Z" fill="#6d542a" />
<path d="M 59.08 139.98 L 61.23 140.32 C 61.07 141.85 60.93 143.37 60.80 144.90 C 60.28 144.28 59.76 143.67 59.24 143.06 C 59.17 142.03 59.12 141.00 59.08 139.98 Z" fill="#a0d498" />
<path d="M 29.77 141.17 C 30.17 144.65 32.59 146.21 35.18 148.12 C 34.85 151.81 30.63 147.66 30.04 146.00 C 28.79 143.18 29.15 148.17 28.72 148.94 C 28.11 152.10 24.49 151.33 26.49 154.08 C 22.54 155.01 18.74 152.58 15.42 155.41 C 13.76 156.70 11.42 156.80 9.84 158.08 C 10.86 159.66 12.90 161.03 14.84 160.67 C 21.10 159.69 27.72 159.53 33.94 160.80 C 39.67 162.80 28.90 161.78 27.43 161.86 C 23.94 160.40 15.12 161.69 11.95 163.70 C 14.64 163.98 17.34 164.03 20.03 164.28 C 16.00 165.73 9.81 171.04 6.00 167.41 C 6.76 166.93 11.98 166.96 8.87 165.97 C 6.27 164.28 3.32 167.89 0.00 167.07 L 0.00 154.22 C 6.56 150.60 13.26 153.18 19.97 150.47 C 18.80 149.91 14.20 150.04 16.98 147.99 C 20.03 143.91 23.09 145.15 27.57 144.95 C 25.53 142.59 28.36 142.74 29.77 141.17 Z" fill="#2e291e" />
<path d="M 115.75 140.98 L 116.95 142.08 C 117.27 142.64 117.59 143.20 117.91 143.77 L 117.36 145.12 L 117.18 146.96 L 117.11 147.83 L 116.99 148.78 C 115.04 149.73 113.08 150.65 111.15 151.63 C 112.86 152.09 114.57 152.53 116.26 153.06 C 116.41 157.82 105.30 159.62 101.82 158.81 C 102.91 158.24 104.01 157.67 105.10 157.09 C 106.59 156.21 108.86 156.25 108.95 154.16 C 107.68 153.93 101.45 155.94 105.22 153.19 C 108.81 151.91 104.70 151.28 103.28 151.70 C 102.21 151.46 101.14 151.22 100.07 151.00 C 100.64 150.31 101.22 149.63 101.79 148.94 C 104.81 149.48 112.86 144.56 106.89 142.66 C 109.81 141.95 112.80 141.52 115.75 140.98 Z" fill="#229029" />
<path d="M 116.95 142.08 C 133.52 141.19 149.51 143.26 166.00 143.05 C 167.36 143.00 168.24 144.11 169.26 144.85 C 166.32 145.50 156.37 144.00 155.20 145.83 C 165.27 146.64 175.06 147.60 185.20 146.77 C 186.47 146.91 187.73 147.06 189.00 147.20 L 189.00 159.16 C 187.07 159.05 185.13 158.96 183.19 158.89 C 178.12 156.92 173.49 154.49 167.97 153.97 C 163.18 152.21 158.05 150.93 153.07 149.81 C 143.10 147.64 132.98 147.96 122.81 146.82 C 123.61 146.43 124.42 146.04 125.22 145.65 C 132.18 146.32 139.26 146.01 146.24 145.80 C 149.02 146.07 150.80 146.05 153.05 144.25 C 145.03 143.79 136.79 143.89 128.77 144.26 C 125.15 143.97 121.53 144.00 117.91 143.77 C 117.59 143.20 117.27 142.64 116.95 142.08 Z" fill="#7c7868" />
<path d="M 117.91 143.77 C 121.53 144.00 125.15 143.97 128.77 144.26 C 134.74 146.07 140.41 143.89 146.24 145.80 C 139.26 146.01 132.18 146.32 125.22 145.65 C 122.59 144.99 120.07 144.88 117.36 145.12 L 117.91 143.77 Z" fill="#16180f" />
<path d="M 128.77 144.26 C 136.79 143.89 145.03 143.79 153.05 144.25 C 150.80 146.05 149.02 146.07 146.24 145.80 C 140.41 143.89 134.74 146.07 128.77 144.26 Z" fill="#433f35" />
<path d="M 30.04 146.00 C 30.63 147.66 34.85 151.81 35.18 148.12 C 40.18 149.64 44.72 150.43 46.18 156.18 C 50.32 159.95 51.88 151.51 55.09 154.54 C 57.76 156.31 60.61 155.02 59.34 159.22 C 57.96 159.57 56.58 159.91 55.19 160.23 C 52.85 160.13 50.53 159.94 48.21 159.68 C 44.51 159.05 40.82 158.46 37.16 157.65 C 34.50 156.49 30.71 158.25 33.33 154.24 C 30.76 152.66 28.86 152.50 28.72 148.94 C 29.15 148.17 28.79 143.18 30.04 146.00 Z" fill="#1f150a" />
<path d="M 117.36 145.12 C 120.07 144.88 122.59 144.99 125.22 145.65 C 124.42 146.04 123.61 146.43 122.81 146.82 C 120.93 146.92 119.05 146.95 117.18 146.96 L 117.36 145.12 Z" fill="#425242" />
<path d="M 169.26 144.85 C 174.95 145.32 179.90 144.02 185.20 146.77 C 175.06 147.60 165.27 146.64 155.20 145.83 C 156.37 144.00 166.32 145.50 169.26 144.85 Z" fill="#2b2519" />
<path d="M 60.06 146.25 C 60.19 147.31 59.83 149.24 60.81 149.93 C 62.67 151.64 64.52 153.35 66.25 155.20 C 66.52 155.70 66.79 156.19 67.06 156.69 C 64.56 157.04 62.38 157.93 60.14 159.03 L 59.34 159.22 C 60.61 155.02 57.76 156.31 55.09 154.54 C 54.57 150.27 57.31 148.77 60.06 146.25 Z" fill="#586447" />
<path d="M 60.06 146.25 L 60.76 145.65 C 65.91 146.31 66.38 146.46 61.95 149.38 L 60.81 149.93 C 59.83 149.24 60.19 147.31 60.06 146.25 Z" fill="#a9e4ab" />
<path d="M 101.79 148.94 C 101.22 149.63 100.64 150.31 100.07 151.00 C 91.97 152.59 84.16 158.34 76.12 154.06 C 75.04 162.10 82.64 157.86 86.61 156.54 C 93.89 154.47 85.28 160.97 93.17 160.38 C 90.01 161.03 86.84 160.91 83.73 161.84 C 77.50 161.77 72.53 159.27 67.06 156.69 C 66.79 156.19 66.52 155.70 66.25 155.20 C 66.78 154.47 67.26 153.71 67.70 152.92 C 68.55 151.25 69.32 149.53 70.13 147.83 C 73.13 147.90 74.71 148.98 77.05 150.61 C 81.72 147.99 82.86 149.28 87.12 151.59 C 93.17 151.38 95.67 145.95 101.79 148.94 Z" fill="#14601e" />
<path d="M 117.18 146.96 C 119.05 146.95 120.93 146.92 122.81 146.82 C 132.98 147.96 143.10 147.64 153.07 149.81 C 156.88 153.98 164.99 154.29 169.98 157.58 C 165.95 158.31 162.46 159.44 158.30 159.35 C 154.59 160.72 156.30 163.62 159.93 163.43 C 157.39 164.98 154.63 165.96 151.81 166.89 C 142.25 167.05 132.64 167.09 123.07 166.90 C 118.42 165.54 113.61 164.82 108.76 165.24 C 100.56 163.27 91.86 163.84 83.73 161.84 C 86.84 160.91 90.01 161.03 93.17 160.38 C 94.38 160.15 95.59 159.91 96.80 159.67 C 103.93 161.53 113.46 159.92 120.63 158.56 C 123.40 158.28 130.43 161.13 126.50 156.11 C 129.28 155.47 132.46 155.48 135.05 154.25 C 130.28 153.53 117.41 154.60 117.11 147.83 L 117.18 146.96 Z" fill="#0d1a0c" />
<path d="M 117.11 147.83 C 117.41 154.60 130.28 153.53 135.05 154.25 C 132.46 155.48 129.28 155.47 126.50 156.11 C 130.43 161.13 123.40 158.28 120.63 158.56 C 113.46 159.92 103.93 161.53 96.80 159.67 C 98.46 159.29 100.14 159.03 101.82 158.81 C 105.30 159.62 116.41 157.82 116.26 153.06 C 116.60 151.65 116.82 150.22 116.99 148.78 L 117.11 147.83 Z" fill="#0f5913" />
<path d="M 28.72 148.94 C 28.86 152.50 30.76 152.66 33.33 154.24 C 30.71 158.25 34.50 156.49 37.16 157.65 C 35.62 158.66 32.32 158.28 33.94 160.80 C 27.72 159.53 21.10 159.69 14.84 160.67 C 12.90 161.03 10.86 159.66 9.84 158.08 C 11.42 156.80 13.76 156.70 15.42 155.41 C 18.74 152.58 22.54 155.01 26.49 154.08 C 24.49 151.33 28.11 152.10 28.72 148.94 Z" fill="#3d382d" />
<path d="M 61.95 149.38 C 64.82 150.15 66.79 149.52 67.70 152.92 C 67.26 153.71 66.78 154.47 66.25 155.20 C 64.52 153.35 62.67 151.64 60.81 149.93 L 61.95 149.38 Z" fill="#46a755" />
<path d="M 116.99 148.78 C 116.82 150.22 116.60 151.65 116.26 153.06 C 114.57 152.53 112.86 152.09 111.15 151.63 C 113.08 150.65 115.04 149.73 116.99 148.78 Z" fill="#5bb16b" />
<path d="M 153.07 149.81 C 158.05 150.93 163.18 152.21 167.97 153.97 C 171.90 157.33 178.07 159.60 183.19 158.89 C 185.13 158.96 187.07 159.05 189.00 159.16 L 189.00 167.23 C 181.96 165.73 175.28 167.05 168.20 167.20 C 166.57 167.08 164.95 166.94 163.32 166.78 C 159.54 166.08 155.68 167.36 151.81 166.89 C 154.63 165.96 157.39 164.98 159.93 163.43 C 156.30 163.62 154.59 160.72 158.30 159.35 C 162.46 159.44 165.95 158.31 169.98 157.58 C 164.99 154.29 156.88 153.98 153.07 149.81 Z" fill="#2f2b22" />
<path d="M 100.07 151.00 C 101.14 151.22 102.21 151.46 103.28 151.70 C 101.69 153.12 92.13 154.46 98.94 155.49 C 96.39 156.56 93.74 156.94 91.03 157.38 C 93.43 160.55 101.14 155.79 105.10 157.09 C 104.01 157.67 102.91 158.24 101.82 158.81 C 100.14 159.03 98.46 159.29 96.80 159.67 C 95.59 159.91 94.38 160.15 93.17 160.38 C 85.28 160.97 93.89 154.47 86.61 156.54 C 82.64 157.86 75.04 162.10 76.12 154.06 C 84.16 158.34 91.97 152.59 100.07 151.00 Z" fill="#3f8c4c" />
<path d="M 105.22 153.19 C 101.45 155.94 107.68 153.93 108.95 154.16 C 108.86 156.25 106.59 156.21 105.10 157.09 C 101.14 155.79 93.43 160.55 91.03 157.38 C 93.74 156.94 96.39 156.56 98.94 155.49 C 92.13 154.46 101.69 153.12 103.28 151.70 C 104.70 151.28 108.81 151.91 105.22 153.19 Z" fill="#0d4f11" />
<path d="M 167.97 153.97 C 173.49 154.49 178.12 156.92 183.19 158.89 C 178.07 159.60 171.90 157.33 167.97 153.97 Z" fill="#585244" />
<path d="M 67.06 156.69 C 72.53 159.27 77.50 161.77 83.73 161.84 C 91.86 163.84 100.56 163.27 108.76 165.24 C 113.49 166.46 118.16 167.28 123.07 166.90 C 126.42 168.89 129.22 170.71 133.22 171.03 C 129.39 176.28 120.83 173.19 115.00 174.02 C 108.55 173.94 102.13 174.13 95.68 173.84 C 97.01 172.53 98.52 171.45 99.97 170.29 C 95.37 170.27 91.33 168.63 86.93 167.69 C 80.49 169.20 74.33 167.66 68.81 164.19 C 68.29 166.68 65.92 166.05 63.97 166.72 C 65.11 169.15 69.30 169.11 70.70 170.85 C 67.11 172.02 63.71 172.31 59.96 171.84 C 61.16 171.04 62.53 170.90 63.96 170.49 C 60.70 168.74 56.69 168.60 53.02 167.65 C 53.76 165.01 61.32 167.02 57.55 164.41 C 54.32 162.49 60.44 162.30 60.14 159.03 C 62.38 157.93 64.56 157.04 67.06 156.69 Z" fill="#b2ae9d" />
<path d="M 37.16 157.65 C 40.82 158.46 44.51 159.05 48.21 159.68 C 45.25 160.28 40.55 159.27 45.89 161.77 C 40.64 161.14 39.03 165.00 44.91 165.35 C 39.81 166.67 44.43 166.74 46.04 168.79 C 42.12 168.99 40.38 166.19 41.15 171.94 C 44.87 171.32 45.63 168.82 49.79 171.05 C 52.32 171.54 48.69 172.14 48.08 172.75 C 52.37 173.90 56.65 173.97 61.04 174.26 C 59.35 174.97 57.59 175.40 55.80 175.82 C 50.65 176.06 45.37 176.19 40.23 175.74 C 36.25 173.97 30.26 176.82 28.27 172.66 C 27.27 171.45 25.40 170.96 24.05 170.20 C 26.29 169.49 30.42 171.37 27.28 167.93 C 29.23 166.77 34.56 167.12 29.35 165.67 C 36.01 161.58 25.13 166.91 24.15 163.46 C 25.24 162.91 26.33 162.38 27.43 161.86 C 28.90 161.78 39.67 162.80 33.94 160.80 C 32.32 158.28 35.62 158.66 37.16 157.65 Z" fill="#565145" />
<path d="M 59.34 159.22 L 60.14 159.03 C 60.44 162.30 54.32 162.49 57.55 164.41 C 61.32 167.02 53.76 165.01 53.02 167.65 C 56.69 168.60 60.70 168.74 63.96 170.49 C 62.53 170.90 61.16 171.04 59.96 171.84 C 63.71 172.31 67.11 172.02 70.70 170.85 C 69.30 169.11 65.11 169.15 63.97 166.72 C 65.92 166.05 68.29 166.68 68.81 164.19 C 74.33 167.66 80.49 169.20 86.93 167.69 C 91.33 168.63 95.37 170.27 99.97 170.29 C 98.52 171.45 97.01 172.53 95.68 173.84 C 87.49 175.22 81.73 170.63 74.28 174.65 C 69.95 173.79 69.36 172.02 65.01 174.99 C 61.63 172.81 58.09 173.14 54.42 171.99 C 58.01 168.28 48.62 171.15 48.71 166.41 C 50.54 164.17 52.08 164.53 48.14 163.59 C 50.26 161.91 52.59 160.94 55.19 160.23 C 56.58 159.91 57.96 159.57 59.34 159.22 Z" fill="#9b9483" />
<path d="M 48.21 159.68 C 50.53 159.94 52.85 160.13 55.19 160.23 C 52.59 160.94 50.26 161.91 48.14 163.59 C 52.08 164.53 50.54 164.17 48.71 166.41 C 48.62 171.15 58.01 168.28 54.42 171.99 C 58.09 173.14 61.63 172.81 65.01 174.99 C 69.36 172.02 69.95 173.79 74.28 174.65 C 81.73 170.63 87.49 175.22 95.68 173.84 C 102.13 174.13 108.55 173.94 115.00 174.02 L 115.00 174.96 C 109.26 175.53 102.43 173.88 97.06 175.96 C 95.76 175.60 94.40 175.02 93.04 175.16 C 80.75 176.65 68.16 175.91 55.80 175.82 C 57.59 175.40 59.35 174.97 61.04 174.26 C 56.65 173.97 52.37 173.90 48.08 172.75 C 48.69 172.14 52.32 171.54 49.79 171.05 C 45.63 168.82 44.87 171.32 41.15 171.94 C 40.38 166.19 42.12 168.99 46.04 168.79 C 44.43 166.74 39.81 166.67 44.91 165.35 C 39.03 165.00 40.64 161.14 45.89 161.77 C 40.55 159.27 45.25 160.28 48.21 159.68 Z" fill="#767162" />
<path d="M 27.43 161.86 C 26.33 162.38 25.24 162.91 24.15 163.46 C 25.13 166.91 36.01 161.58 29.35 165.67 C 34.56 167.12 29.23 166.77 27.28 167.93 C 30.42 171.37 26.29 169.49 24.05 170.20 C 25.40 170.96 27.27 171.45 28.27 172.66 C 30.26 176.82 36.25 173.97 40.23 175.74 C 36.23 176.03 32.26 176.10 28.26 175.89 C 27.90 174.63 27.26 174.17 26.34 174.51 C 18.96 175.64 11.68 174.49 4.22 174.83 C 4.76 169.75 4.57 171.40 0.00 170.75 L 0.00 167.07 C 3.32 167.89 6.27 164.28 8.87 165.97 C 11.98 166.96 6.76 166.93 6.00 167.41 C 9.81 171.04 16.00 165.73 20.03 164.28 C 17.34 164.03 14.64 163.98 11.95 163.70 C 15.12 161.69 23.94 160.40 27.43 161.86 Z" fill="#3a362c" />
<path d="M 108.76 165.24 C 113.61 164.82 118.42 165.54 123.07 166.90 C 118.16 167.28 113.49 166.46 108.76 165.24 Z" fill="#65675a" />
<path d="M 163.32 166.78 C 161.22 168.50 155.45 167.05 154.90 169.50 C 158.18 169.09 160.22 168.49 163.09 170.60 C 164.89 169.65 166.55 168.39 168.20 167.20 C 175.28 167.05 181.96 165.73 189.00 167.23 L 189.00 172.08 C 183.78 171.93 174.60 171.65 170.06 173.87 C 176.47 174.51 182.66 173.70 189.00 172.99 L 189.00 175.10 C 178.40 175.33 167.20 174.11 156.77 175.74 C 152.20 176.14 147.68 175.94 143.08 176.12 L 141.92 175.87 C 145.93 173.90 151.77 176.10 155.27 174.26 C 157.63 171.94 153.81 171.71 152.25 171.67 C 145.97 172.22 139.51 171.38 133.22 171.03 C 129.22 170.71 126.42 168.89 123.07 166.90 C 132.64 167.09 142.25 167.05 151.81 166.89 C 155.68 167.36 159.54 166.08 163.32 166.78 Z" fill="#706b5b" />
<path d="M 163.32 166.78 C 164.95 166.94 166.57 167.08 168.20 167.20 C 166.55 168.39 164.89 169.65 163.09 170.60 C 160.22 168.49 158.18 169.09 154.90 169.50 C 155.45 167.05 161.22 168.50 163.32 166.78 Z" fill="#9c9786" />
<path d="M 0.00 170.75 C 4.57 171.40 4.76 169.75 4.22 174.83 C 11.68 174.49 18.96 175.64 26.34 174.51 C 27.26 174.17 27.90 174.63 28.26 175.89 C 18.86 176.07 9.40 176.08 0.00 175.89 L 0.00 170.75 Z" fill="#1a170f" />
<path d="M 133.22 171.03 C 139.51 171.38 145.97 172.22 152.25 171.67 C 153.81 171.71 157.63 171.94 155.27 174.26 C 151.77 176.10 145.93 173.90 141.92 175.87 C 132.75 176.81 124.07 174.94 115.00 174.96 L 115.00 174.02 C 120.83 173.19 129.39 176.28 133.22 171.03 Z" fill="#989281" />
<path d="M 189.00 172.08 L 189.00 172.99 C 182.66 173.70 176.47 174.51 170.06 173.87 C 174.60 171.65 183.78 171.93 189.00 172.08 Z" fill="#9a9383" />
<path d="M 93.04 175.16 C 94.40 175.02 95.76 175.60 97.06 175.96 C 95.06 176.33 93.03 176.46 91.04 176.94 C 60.70 177.01 30.34 177.10 0.00 176.89 L 0.00 175.89 C 9.40 176.08 18.86 176.07 28.26 175.89 C 32.26 176.10 36.23 176.03 40.23 175.74 C 45.37 176.19 50.65 176.06 55.80 175.82 C 68.16 175.91 80.75 176.65 93.04 175.16 Z" fill="#c5c3bf" />
<path d="M 115.00 174.96 C 124.07 174.94 132.75 176.81 141.92 175.87 L 143.08 176.12 C 132.91 178.23 121.26 176.50 110.82 176.32 C 106.10 175.69 101.63 177.17 97.06 175.96 C 102.43 173.88 109.26 175.53 115.00 174.96 Z" fill="#c2c0b9" />
<path d="M 189.00 175.10 L 189.00 176.11 C 178.27 175.74 167.49 176.35 156.77 175.74 C 167.20 174.11 178.40 175.33 189.00 175.10 Z" fill="#9c958a" />
<path d="M 97.06 175.96 C 101.63 177.17 106.10 175.69 110.82 176.32 C 121.26 176.50 132.91 178.23 143.08 176.12 C 147.68 175.94 152.20 176.14 156.77 175.74 C 167.49 176.35 178.27 175.74 189.00 176.11 L 189.00 190.00 L 120.79 190.00 C 120.99 184.95 117.93 189.16 114.74 186.76 C 117.93 186.02 124.74 181.97 117.32 181.38 C 117.66 185.88 112.01 186.71 115.60 181.86 C 111.73 181.78 113.07 184.06 113.92 186.58 C 113.23 186.44 112.54 186.30 111.86 186.14 C 112.63 180.46 110.05 182.34 105.98 181.41 C 105.96 183.03 106.26 184.60 106.68 186.16 C 107.06 189.40 106.10 186.94 104.96 186.00 C 104.26 184.59 104.51 181.85 102.36 182.11 C 102.32 183.51 102.37 184.92 102.37 186.32 C 101.08 186.59 99.90 186.31 98.63 186.05 C 99.10 185.00 100.79 183.31 100.44 182.16 C 97.75 181.03 97.77 184.18 97.99 185.95 L 97.09 185.84 C 94.59 184.62 96.37 184.01 96.83 182.03 C 93.61 182.02 93.61 182.40 92.79 185.39 C 92.46 184.55 92.32 181.39 91.22 181.43 C 90.60 182.69 90.92 184.43 90.98 185.79 C 89.34 186.00 88.42 185.74 88.21 185.00 C 89.57 183.56 89.68 182.19 87.77 181.22 C 87.95 179.57 90.11 178.26 91.04 176.94 C 93.03 176.46 95.06 176.33 97.06 175.96 Z" fill="#f4f4f3" />
<path d="M 0.00 176.89 C 30.34 177.10 60.70 177.01 91.04 176.94 C 90.11 178.26 87.95 179.57 87.77 181.22 C 87.50 182.59 87.65 183.84 88.21 185.00 C 88.42 185.74 89.34 186.00 90.98 185.79 C 91.59 185.78 92.19 185.65 92.79 185.39 C 94.23 185.54 95.65 185.69 97.09 185.84 L 97.99 185.95 L 98.63 186.05 C 99.90 186.31 101.08 186.59 102.37 186.32 C 103.23 186.21 104.10 186.11 104.96 186.00 C 106.10 186.94 107.06 189.40 106.68 186.16 C 108.51 185.42 110.00 185.77 111.86 186.14 C 112.54 186.30 113.23 186.44 113.92 186.58 L 114.74 186.76 C 117.93 189.16 120.99 184.95 120.79 190.00 L 0.00 190.00 L 0.00 176.89 Z" fill="#fdfdfd" />
<path d="M 79.10 180.07 C 81.91 181.07 83.58 189.23 80.37 183.39 C 78.22 189.08 79.27 182.26 79.10 180.07 Z" fill="#a2a2a2" />
<path d="M 149.51 180.11 C 151.04 179.15 152.86 180.97 151.89 182.49 C 151.25 183.04 148.96 180.75 149.51 180.11 Z" fill="#9a9a9a" />
<path d="M 153.29 180.15 C 156.48 179.67 158.42 181.79 155.20 183.95 C 155.36 180.84 152.71 182.21 153.29 180.15 Z" fill="#b0b0b0" />
<path d="M 164.19 180.16 C 165.53 180.76 165.21 184.50 165.54 185.94 C 161.69 187.11 164.43 182.18 164.19 180.16 Z" fill="#929292" />
<path d="M 173.35 180.29 C 174.49 179.08 176.39 181.76 175.96 183.02 C 177.62 187.20 168.82 182.02 173.35 180.29 Z" fill="#a7a7a7" />
<path d="M 178.35 180.28 C 179.79 178.24 182.86 188.02 179.02 185.95 C 176.01 187.30 176.51 180.92 178.35 180.28 Z" fill="#afafaf" />
<path d="M 184.78 185.83 C 181.41 186.41 182.89 185.47 182.61 183.00 C 182.13 175.63 184.94 183.49 184.78 185.83 Z" fill="#9f9f9f" />
<path d="M 87.77 181.22 C 89.68 182.19 89.57 183.56 88.21 185.00 C 87.65 183.84 87.50 182.59 87.77 181.22 Z" fill="#7d7d7d" />
<path d="M 91.22 181.43 C 92.32 181.39 92.46 184.55 92.79 185.39 C 92.19 185.65 91.59 185.78 90.98 185.79 C 90.92 184.43 90.60 182.69 91.22 181.43 Z" fill="#7d7d7d" />
<path d="M 105.98 181.41 C 110.05 182.34 112.63 180.46 111.86 186.14 C 110.00 185.77 108.51 185.42 106.68 186.16 C 106.26 184.60 105.96 183.03 105.98 181.41 Z" fill="#ababab" />
<path d="M 117.32 181.38 C 124.74 181.97 117.93 186.02 114.74 186.76 L 113.92 186.58 C 113.07 184.06 111.73 181.78 115.60 181.86 C 112.01 186.71 117.66 185.88 117.32 181.38 Z" fill="#aeaeae" />
<path d="M 158.22 181.43 C 161.74 183.32 156.17 187.45 158.22 181.43 Z" fill="#848484" />
<path d="M 161.22 181.43 C 164.74 183.32 159.17 187.45 161.22 181.43 Z" fill="#888888" />
<path d="M 170.40 181.59 C 171.00 179.17 171.07 187.01 169.81 185.90 C 166.13 186.65 169.53 182.72 170.40 181.59 Z" fill="#939393" />
<path d="M 77.61 184.31 C 79.40 186.28 73.13 187.27 74.97 184.37 C 72.86 180.58 77.30 181.60 77.61 184.31 Z" fill="#afafaf" />
<path d="M 85.38 184.79 C 87.91 177.67 88.12 189.33 83.70 185.29 C 81.80 181.24 84.32 181.17 85.38 184.79 Z" fill="#9d9d9d" />
<path d="M 96.83 182.03 C 96.37 184.01 94.59 184.62 97.09 185.84 C 95.65 185.69 94.23 185.54 92.79 185.39 C 93.61 182.40 93.61 182.02 96.83 182.03 Z" fill="#9e9e9e" />
<path d="M 100.44 182.16 C 100.79 183.31 99.10 185.00 98.63 186.05 L 97.99 185.95 C 97.77 184.18 97.75 181.03 100.44 182.16 Z" fill="#b5b5b5" />
<path d="M 102.36 182.11 C 104.51 181.85 104.26 184.59 104.96 186.00 C 104.10 186.11 103.23 186.21 102.37 186.32 C 102.37 184.92 102.32 183.51 102.36 182.11 Z" fill="#a0a0a0" />
<path d="M 125.39 184.00 C 126.68 186.47 127.55 186.33 124.18 185.75 C 122.28 181.91 128.68 179.92 125.39 184.00 Z" fill="#9b9b9b" />
<path d="M 128.09 182.14 C 130.06 182.37 132.53 180.87 131.95 184.01 C 132.56 188.05 126.70 185.55 128.09 182.14 Z" fill="#b0b0b0" />
<path d="M 138.83 182.16 C 139.02 185.89 139.44 186.96 137.27 183.24 C 136.68 185.06 137.19 187.01 135.77 184.16 C 134.97 180.41 132.96 187.86 133.02 185.03 C 132.27 180.38 135.82 182.32 138.83 182.16 Z" fill="#929292" />
<path d="M 155.20 183.95 C 160.06 187.62 149.15 186.41 155.20 183.95 Z" fill="#878787" />
</svg>