<?xml version="1.0" encoding="UTF-8" standalone="no"?>
<!DOCTYPE svg PUBLIC "-//W3C//DTD SVG 1.1//EN" "http://www.w3.org/Graphics/SVG/1.1/DTD/svg11.dtd">
<svg xmlns="http://www.w3.org/2000/svg" version="1.1" viewBox="0 0 178 178" width="178.0pt" height="178.0pt">
<path d="M 0.00 0.00 L 178.00 0.00 L 178.00 178.00 L 93.49 178.00 L 94.23 177.18 L 95.02 176.75 C 97.26 177.39 98.97 177.57 101.05 176.34 C 104.80 175.25 108.84 174.20 112.27 172.31 C 117.11 170.50 117.39 164.29 119.18 160.07 C 120.43 158.77 120.38 157.68 120.01 156.01 L 120.22 155.22 C 122.02 143.21 120.50 130.23 121.00 118.00 C 120.97 101.34 121.05 84.68 120.96 68.02 C 120.71 63.17 121.85 57.49 120.15 52.90 C 118.73 48.89 116.90 46.14 113.93 43.14 C 113.49 41.26 112.83 40.87 110.93 41.03 C 110.21 40.57 109.49 40.11 108.77 39.65 C 104.17 36.24 98.96 34.33 94.91 30.08 L 94.26 28.82 L 93.85 28.00 C 94.24 25.59 94.38 23.32 93.67 20.94 C 94.17 20.33 94.64 19.71 95.09 19.07 C 96.66 15.89 96.41 7.13 95.22 3.74 C 88.46 1.60 82.54 1.71 75.77 3.69 C 73.33 4.13 74.31 6.12 73.97 7.98 C 74.06 11.90 73.43 16.43 74.84 20.13 C 75.85 22.74 76.08 25.24 76.06 28.01 L 76.04 28.94 C 74.10 31.58 72.10 33.61 69.10 35.04 C 63.59 38.23 55.80 42.00 52.80 47.83 C 50.98 49.82 50.29 51.30 49.73 53.96 C 48.55 60.24 48.53 75.05 49.77 81.31 C 49.95 82.13 50.12 82.95 50.30 83.77 C 49.76 96.45 49.94 109.39 50.16 122.09 C 49.81 124.66 51.80 120.89 51.88 120.36 C 52.53 118.77 53.17 117.16 53.86 115.59 C 57.22 115.07 57.88 120.04 55.35 120.77 C 56.68 123.17 57.21 125.58 57.73 128.24 C 57.70 130.65 59.64 132.47 59.97 129.01 C 59.98 125.38 62.99 125.75 65.37 123.94 C 65.78 125.99 66.05 128.20 66.82 130.15 C 68.19 132.42 70.39 133.22 72.87 133.74 C 74.39 131.69 75.43 129.17 76.42 126.83 C 76.79 127.59 77.16 128.35 77.53 129.11 C 77.39 130.46 77.17 131.80 77.05 133.15 C 78.33 137.16 84.74 141.93 78.80 144.98 C 74.14 145.16 69.61 145.06 65.05 144.00 C 63.06 143.53 61.07 143.12 59.06 142.76 C 57.75 142.12 56.43 141.47 55.15 140.76 C 53.61 139.55 52.11 138.74 50.23 138.18 C 51.75 144.17 50.13 150.28 51.76 156.15 C 51.59 157.77 51.64 158.82 52.94 159.95 C 53.85 163.93 54.71 170.37 58.99 172.14 C 61.14 173.52 63.33 174.75 65.83 175.39 C 66.85 175.71 67.89 176.01 68.92 176.30 C 70.62 177.50 72.13 177.38 74.05 176.84 C 74.96 176.87 75.88 176.90 76.79 176.93 L 76.71 178.00 L 0.00 178.00 L 0.00 0.00 Z" fill="#fefefe" />
<path d="M 95.22 3.74 C 93.87 3.85 92.52 3.97 91.17 4.09 C 87.73 4.02 84.29 4.01 80.85 4.10 C 79.54 4.01 78.22 3.90 76.91 3.80 L 75.77 3.69 C 82.54 1.71 88.46 1.60 95.22 3.74 Z" fill="#a6a6aa" />
<path d="M 75.77 3.69 C 74.40 8.92 75.24 14.72 74.84 20.13 C 73.43 16.43 74.06 11.90 73.97 7.98 C 74.31 6.12 73.33 4.13 75.77 3.69 Z" fill="#7b7c82" />
<path d="M 75.77 3.69 L 76.91 3.80 C 79.99 7.43 74.68 17.10 81.83 13.99 C 81.89 16.65 82.46 18.56 83.61 20.91 C 81.44 21.05 79.25 21.06 77.07 21.10 C 76.33 20.78 75.58 20.46 74.84 20.13 C 75.24 14.72 74.40 8.92 75.77 3.69 Z" fill="#3d3d45" />
<path d="M 76.91 3.80 C 78.22 3.90 79.54 4.01 80.85 4.10 C 81.27 5.01 81.70 5.91 82.14 6.81 C 82.05 9.21 81.95 11.60 81.83 13.99 C 74.68 17.10 79.99 7.43 76.91 3.80 Z" fill="#6c6b76" />
<path d="M 80.85 4.10 C 84.29 4.01 87.73 4.02 91.17 4.09 L 89.91 5.00 C 81.61 3.10 86.32 12.37 84.65 17.28 C 83.29 14.58 85.38 7.51 82.14 6.81 C 81.70 5.91 81.27 5.01 80.85 4.10 Z" fill="#424349" />
<path d="M 91.17 4.09 C 92.52 3.97 93.87 3.85 95.22 3.74 C 94.86 8.85 95.01 13.95 95.09 19.07 C 94.64 19.71 94.17 20.33 93.67 20.94 L 93.31 21.29 C 91.67 23.05 91.67 25.30 89.24 26.49 C 86.96 20.41 79.23 21.80 78.64 28.37 C 78.04 28.29 77.44 28.20 76.84 28.11 C 76.94 25.77 77.01 23.43 77.07 21.10 C 79.25 21.06 81.44 21.05 83.61 20.91 C 82.46 18.56 81.89 16.65 81.83 13.99 C 81.95 11.60 82.05 9.21 82.14 6.81 C 85.38 7.51 83.29 14.58 84.65 17.28 C 84.28 21.72 88.90 17.24 91.50 17.80 C 88.91 14.50 90.34 9.02 89.91 5.00 L 91.17 4.09 Z" fill="#221b1b" />
<path d="M 95.22 3.74 C 96.41 7.13 96.66 15.89 95.09 19.07 C 95.01 13.95 94.86 8.85 95.22 3.74 Z" fill="#a2a4a4" />
<path d="M 89.91 5.00 C 90.34 9.02 88.91 14.50 91.50 17.80 C 88.90 17.24 84.28 21.72 84.65 17.28 C 86.32 12.37 81.61 3.10 89.91 5.00 Z" fill="#020307" />
<path d="M 74.84 20.13 C 75.58 20.46 76.33 20.78 77.07 21.10 C 77.01 23.43 76.94 25.77 76.84 28.11 L 76.06 28.01 C 76.08 25.24 75.85 22.74 74.84 20.13 Z" fill="#817c7c" />
<path d="M 93.31 21.29 C 92.50 23.64 92.40 25.87 93.85 28.00 L 94.26 28.82 C 93.71 30.52 92.65 31.07 91.25 31.95 C 86.86 29.79 81.08 31.91 76.18 31.07 L 76.04 28.94 L 76.06 28.01 L 76.84 28.11 C 77.44 28.20 78.04 28.29 78.64 28.37 C 80.01 31.46 84.86 28.80 87.61 29.37 C 89.58 29.84 88.77 27.71 89.24 26.49 C 91.67 25.30 91.67 23.05 93.31 21.29 Z" fill="#4b2d1d" />
<path d="M 93.31 21.29 L 93.67 20.94 C 94.38 23.32 94.24 25.59 93.85 28.00 C 92.40 25.87 92.50 23.64 93.31 21.29 Z" fill="#b8b7b6" />
<path d="M 89.24 26.49 C 88.77 27.71 89.58 29.84 87.61 29.37 C 84.86 28.80 80.01 31.46 78.64 28.37 C 79.23 21.80 86.96 20.41 89.24 26.49 Z" fill="#905a46" />
<path d="M 81.15 26.21 C 82.93 25.91 83.85 28.57 81.94 29.15 C 79.76 29.49 79.29 27.05 81.15 26.21 Z" fill="#eec4a8" />
<path d="M 76.04 28.94 L 76.18 31.07 C 75.22 33.42 74.28 36.54 72.26 38.19 C 69.45 39.79 65.69 38.70 65.96 42.99 C 63.62 44.10 61.33 43.97 58.81 43.84 C 61.99 40.42 66.31 38.89 69.10 35.04 C 72.10 33.61 74.10 31.58 76.04 28.94 Z" fill="#8d7876" />
<path d="M 94.26 28.82 L 94.91 30.08 C 94.48 32.78 94.53 32.68 96.70 34.31 C 100.43 36.69 104.92 41.75 109.23 42.28 C 109.80 42.84 110.34 43.41 110.87 43.99 C 106.16 45.33 103.68 43.55 99.43 42.07 C 94.82 39.79 93.41 36.26 91.25 31.95 C 92.65 31.07 93.71 30.52 94.26 28.82 Z" fill="#725853" />
<path d="M 94.91 30.08 C 98.96 34.33 104.17 36.24 108.77 39.65 C 108.91 40.53 109.06 41.41 109.23 42.28 C 104.92 41.75 100.43 36.69 96.70 34.31 C 94.53 32.68 94.48 32.78 94.91 30.08 Z" fill="#979398" />
<path d="M 76.18 31.07 C 81.08 31.91 86.86 29.79 91.25 31.95 C 93.41 36.26 94.82 39.79 99.43 42.07 C 88.84 43.76 76.80 43.13 65.96 42.99 C 65.69 38.70 69.45 39.79 72.26 38.19 C 74.28 36.54 75.22 33.42 76.18 31.07 Z" fill="#884f3c" />
<path d="M 69.10 35.04 C 66.31 38.89 61.99 40.42 58.81 43.84 C 56.82 45.19 54.84 46.55 52.80 47.83 C 55.80 42.00 63.59 38.23 69.10 35.04 Z" fill="#cec1ba" />
<path d="M 108.77 39.65 C 109.49 40.11 110.21 40.57 110.93 41.03 C 111.60 42.72 112.11 43.06 113.93 43.14 C 116.90 46.14 118.73 48.89 120.15 52.90 C 120.05 57.33 119.97 61.77 119.78 66.20 C 119.27 64.40 118.77 62.59 118.29 60.77 C 117.99 59.13 117.67 57.50 117.24 55.89 C 116.21 50.62 114.64 47.75 110.87 43.99 C 110.34 43.41 109.80 42.84 109.23 42.28 C 109.06 41.41 108.91 40.53 108.77 39.65 Z" fill="#4c321c" />
<path d="M 110.93 41.03 C 112.83 40.87 113.49 41.26 113.93 43.14 C 112.11 43.06 111.60 42.72 110.93 41.03 Z" fill="#978883" />
<path d="M 99.43 42.07 C 103.68 43.55 106.16 45.33 110.87 43.99 C 114.64 47.75 116.21 50.62 117.24 55.89 C 116.52 55.26 115.80 54.62 115.09 53.98 C 114.00 51.59 113.65 48.09 110.65 47.39 C 97.45 43.79 84.88 45.86 71.99 46.01 C 62.94 47.65 55.67 44.24 52.09 55.12 C 53.41 68.11 54.19 81.80 58.83 94.15 C 58.84 96.28 61.99 95.46 63.36 95.27 C 66.49 92.76 68.47 89.13 72.19 87.12 C 68.54 93.61 63.57 98.91 59.44 105.08 C 57.85 104.65 56.22 104.28 54.67 103.74 C 54.80 93.49 51.13 83.68 51.91 73.25 C 50.39 73.29 51.30 78.83 50.06 80.34 C 49.84 71.55 50.29 62.73 49.73 53.96 C 52.44 52.63 52.22 50.41 52.80 47.83 C 54.84 46.55 56.82 45.19 58.81 43.84 C 61.33 43.97 63.62 44.10 65.96 42.99 C 76.80 43.13 88.84 43.76 99.43 42.07 Z" fill="#b37640" />
<path d="M 110.65 47.39 C 113.65 48.09 114.00 51.59 115.09 53.98 C 109.21 46.98 96.21 47.76 88.00 48.02 C 79.87 48.74 71.02 46.20 63.90 49.62 C 58.00 48.16 53.26 53.76 54.50 59.37 C 56.86 69.93 60.53 79.85 70.10 85.89 C 71.84 84.76 73.38 83.30 74.96 81.96 C 74.73 83.07 74.51 84.17 74.29 85.28 C 73.59 85.90 72.89 86.52 72.19 87.12 C 68.47 89.13 66.49 92.76 63.36 95.27 C 61.99 95.46 58.84 96.28 58.83 94.15 C 54.19 81.80 53.41 68.11 52.09 55.12 C 55.67 44.24 62.94 47.65 71.99 46.01 C 84.88 45.86 97.45 43.79 110.65 47.39 Z" fill="#db902f" />
<path d="M 88.00 48.02 C 96.21 47.76 109.21 46.98 115.09 53.98 C 115.86 68.70 112.85 82.79 111.13 97.28 C 109.89 99.31 108.30 95.71 107.19 94.95 C 103.71 90.39 99.69 86.46 96.73 81.54 C 100.30 82.04 99.65 76.54 103.70 77.32 C 106.79 77.82 106.53 79.69 107.67 82.01 C 106.63 73.24 118.44 61.07 110.53 53.81 C 103.37 51.30 95.51 50.46 87.98 49.92 C 84.81 49.65 82.88 51.40 80.37 52.94 C 78.63 52.51 76.88 52.12 75.12 51.74 C 72.13 51.29 67.74 49.25 64.96 50.93 C 61.98 51.93 63.16 56.58 62.96 59.02 C 61.91 64.50 70.93 62.68 74.07 63.13 C 67.99 66.21 73.84 67.86 76.58 70.27 C 76.23 73.34 76.32 74.40 78.11 76.98 C 77.43 79.12 76.53 80.37 74.96 81.96 C 73.38 83.30 71.84 84.76 70.10 85.89 C 60.53 79.85 56.86 69.93 54.50 59.37 C 53.26 53.76 58.00 48.16 63.90 49.62 C 71.02 46.20 79.87 48.74 88.00 48.02 Z" fill="#f2b027" />
<path d="M 52.80 47.83 C 52.22 50.41 52.44 52.63 49.73 53.96 C 50.29 51.30 50.98 49.82 52.80 47.83 Z" fill="#dac0a3" />
<path d="M 75.12 51.74 C 72.66 52.46 65.13 50.68 64.66 53.82 C 61.85 60.52 66.67 62.59 72.40 61.51 C 77.00 61.41 80.60 53.79 75.12 51.74 C 76.88 52.12 78.63 52.51 80.37 52.94 C 79.80 57.49 78.69 61.27 74.07 63.13 C 70.93 62.68 61.91 64.50 62.96 59.02 C 63.16 56.58 61.98 51.93 64.96 50.93 C 67.74 49.25 72.13 51.29 75.12 51.74 Z" fill="#f7c954" />
<path d="M 87.98 49.92 C 95.51 50.46 103.37 51.30 110.53 53.81 C 118.44 61.07 106.63 73.24 107.67 82.01 C 106.53 79.69 106.79 77.82 103.70 77.32 C 99.65 76.54 100.30 82.04 96.73 81.54 C 92.69 78.49 90.23 67.46 84.31 70.27 C 82.15 72.48 80.66 75.12 78.11 76.98 C 76.32 74.40 76.23 73.34 76.58 70.27 C 73.84 67.86 67.99 66.21 74.07 63.13 C 78.69 61.27 79.80 57.49 80.37 52.94 C 82.88 51.40 84.81 49.65 87.98 49.92 Z" fill="#fac825" />
<path d="M 75.12 51.74 C 80.60 53.79 77.00 61.41 72.40 61.51 C 66.67 62.59 61.85 60.52 64.66 53.82 C 65.62 61.46 72.45 61.51 76.00 55.96 C 76.21 52.04 67.11 53.08 64.66 53.82 C 65.13 50.68 72.66 52.46 75.12 51.74 Z" fill="#fee089" />
<path d="M 76.00 55.96 C 72.45 61.51 65.62 61.46 64.66 53.82 C 67.11 53.08 76.21 52.04 76.00 55.96 Z" fill="#f9ebb6" />
<path d="M 120.15 52.90 C 121.85 57.49 120.71 63.17 120.96 68.02 L 120.01 68.00 L 119.78 66.20 C 119.97 61.77 120.05 57.33 120.15 52.90 Z" fill="#b2a194" />
<path d="M 49.73 53.96 C 50.29 62.73 49.84 71.55 50.06 80.34 L 49.77 81.31 C 48.53 75.05 48.55 60.24 49.73 53.96 Z" fill="#dbccba" />
<path d="M 115.09 53.98 C 115.80 54.62 116.52 55.26 117.24 55.89 C 116.99 72.24 116.90 88.38 115.67 104.68 C 114.96 106.87 114.24 106.75 112.17 107.13 C 111.51 104.67 109.91 103.40 108.03 101.89 C 107.70 101.32 107.38 100.75 107.05 100.18 C 107.63 98.29 107.56 96.87 107.19 94.95 C 108.30 95.71 109.89 99.31 111.13 97.28 C 112.85 82.79 115.86 68.70 115.09 53.98 Z" fill="#d0903c" />
<path d="M 117.24 55.89 C 117.67 57.50 117.99 59.13 118.29 60.77 C 117.99 64.45 117.85 68.10 118.25 71.77 C 117.51 87.26 118.52 102.84 117.71 118.32 C 117.02 112.45 112.46 112.91 112.17 107.13 C 114.24 106.75 114.96 106.87 115.67 104.68 C 116.90 88.38 116.99 72.24 117.24 55.89 Z" fill="#a46c3c" />
<path d="M 118.29 60.77 C 118.77 62.59 119.27 64.40 119.78 66.20 L 120.01 68.00 C 119.87 86.41 120.25 104.86 119.81 123.26 C 119.16 122.30 118.50 121.42 118.27 120.25 C 119.86 112.43 118.61 103.98 119.00 96.00 C 118.60 88.03 119.88 79.57 118.25 71.77 C 117.85 68.10 117.99 64.45 118.29 60.77 Z" fill="#80604a" />
<path d="M 120.01 68.00 L 120.96 68.02 C 121.05 84.68 120.97 101.34 121.00 118.00 C 120.50 130.23 122.02 143.21 120.22 155.22 C 119.95 150.47 120.00 145.72 119.95 140.97 C 119.98 135.07 120.17 129.15 119.81 123.26 C 120.25 104.86 119.87 86.41 120.01 68.00 Z" fill="#d8cdc6" />
<path d="M 84.31 70.27 C 90.23 67.46 92.69 78.49 96.73 81.54 C 99.69 86.46 103.71 90.39 107.19 94.95 C 107.56 96.87 107.63 98.29 107.05 100.18 C 104.58 96.79 102.55 93.09 99.99 89.76 C 96.02 83.53 92.07 77.39 87.00 71.96 L 85.95 72.73 C 81.71 76.55 78.80 81.63 74.29 85.28 C 74.51 84.17 74.73 83.07 74.96 81.96 C 76.53 80.37 77.43 79.12 78.11 76.98 C 80.66 75.12 82.15 72.48 84.31 70.27 Z" fill="#dabb65" />
<path d="M 87.00 71.96 C 92.07 77.39 96.02 83.53 99.99 89.76 C 98.54 92.16 102.49 97.01 98.24 97.45 C 104.39 100.32 101.75 105.72 102.46 111.23 C 103.96 114.44 100.85 116.24 105.18 116.91 C 104.98 121.65 104.76 126.56 105.31 131.28 L 105.60 133.01 C 106.94 136.82 106.58 138.26 104.40 141.55 C 106.27 142.43 106.63 141.89 106.34 144.16 C 97.32 145.79 88.24 146.38 79.07 145.90 L 78.80 144.98 C 84.12 144.92 89.46 145.19 94.77 144.90 C 95.09 143.44 90.02 144.17 88.96 143.68 C 90.27 141.36 93.55 143.70 93.00 140.96 C 94.37 135.98 85.67 139.52 90.84 135.07 C 91.92 134.13 93.00 133.18 94.04 132.19 L 95.70 132.14 C 101.10 137.37 102.74 131.12 103.67 126.64 C 104.45 123.61 103.40 119.09 100.68 117.27 C 97.46 115.88 96.47 118.82 94.83 120.90 C 93.93 123.17 93.82 125.76 93.30 128.15 C 91.21 126.06 88.60 124.54 87.05 122.14 C 89.71 119.97 90.00 123.25 92.89 122.91 C 93.47 118.22 89.66 117.82 86.00 117.85 C 87.24 116.88 91.39 117.32 88.57 115.42 C 85.95 113.55 88.08 113.00 89.06 110.89 C 91.14 115.38 93.54 112.99 93.84 109.52 C 91.28 109.32 90.27 109.54 88.88 107.04 C 90.53 104.88 92.76 104.14 95.11 103.04 C 94.13 101.96 93.10 100.92 92.01 99.94 C 90.62 101.79 89.45 106.22 86.33 104.72 C 84.28 103.40 83.69 101.36 82.94 99.19 C 83.60 97.95 83.84 96.70 84.01 95.33 C 86.32 97.62 83.23 100.90 88.56 99.79 C 88.46 94.19 93.37 95.19 93.07 90.02 C 93.24 87.27 92.90 84.81 91.18 82.58 C 88.82 81.94 86.20 81.84 83.77 81.65 C 85.44 80.36 86.77 79.56 88.88 79.20 C 89.49 76.69 86.35 75.38 85.95 72.73 L 87.00 71.96 Z" fill="#d0cdc8" />
<path d="M 118.25 71.77 C 119.88 79.57 118.60 88.03 119.00 96.00 C 118.61 103.98 119.86 112.43 118.27 120.25 L 117.71 118.32 C 118.52 102.84 117.51 87.26 118.25 71.77 Z" fill="#603519" />
<path d="M 51.91 73.25 C 51.13 83.68 54.80 93.49 54.67 103.74 C 56.22 104.28 57.85 104.65 59.44 105.08 C 57.32 108.45 55.35 111.89 53.86 115.59 C 53.17 117.16 52.53 118.77 51.88 120.36 C 49.43 108.62 52.46 95.61 50.30 83.77 C 50.12 82.95 49.95 82.13 49.77 81.31 L 50.06 80.34 C 51.30 78.83 50.39 73.29 51.91 73.25 Z" fill="#7c583f" />
<path d="M 85.95 72.73 C 86.35 75.38 89.49 76.69 88.88 79.20 C 86.77 79.56 85.44 80.36 83.77 81.65 C 83.25 82.01 82.74 82.40 82.26 82.80 L 81.01 83.96 C 79.27 85.87 79.66 90.95 80.80 93.15 C 81.63 94.11 82.95 94.64 84.01 95.33 C 83.84 96.70 83.60 97.95 82.94 99.19 C 82.04 100.25 81.10 101.34 80.34 102.50 C 82.96 103.57 84.12 104.20 85.00 107.03 C 83.85 109.82 81.71 109.70 79.17 110.42 C 80.37 111.70 81.67 112.88 83.01 114.01 C 84.71 111.78 86.22 106.24 89.06 110.89 C 88.08 113.00 85.95 113.55 88.57 115.42 C 91.39 117.32 87.24 116.88 86.00 117.85 C 84.35 119.91 83.34 122.01 84.28 124.67 C 86.35 126.95 88.96 127.66 89.86 130.89 C 86.78 133.31 88.17 127.69 84.25 130.27 C 82.78 134.18 88.19 135.01 90.84 135.07 C 85.67 139.52 94.37 135.98 93.00 140.96 C 93.55 143.70 90.27 141.36 88.96 143.68 C 90.02 144.17 95.09 143.44 94.77 144.90 C 89.46 145.19 84.12 144.92 78.80 144.98 C 84.74 141.93 78.33 137.16 77.05 133.15 C 78.61 133.69 80.12 134.08 81.79 133.91 C 82.17 128.91 82.17 123.11 81.79 118.11 C 73.94 116.39 79.26 125.08 77.53 129.11 C 77.16 128.35 76.79 127.59 76.42 126.83 C 75.61 123.76 75.04 119.54 72.73 117.21 C 69.60 116.70 67.62 116.44 66.79 120.05 C 66.23 119.66 65.67 119.27 65.11 118.87 C 63.68 115.84 61.37 115.16 58.20 115.07 C 57.85 119.45 58.07 123.85 57.73 128.24 C 57.21 125.58 56.68 123.17 55.35 120.77 C 57.88 120.04 57.22 115.07 53.86 115.59 C 55.35 111.89 57.32 108.45 59.44 105.08 C 63.57 98.91 68.54 93.61 72.19 87.12 C 72.89 86.52 73.59 85.90 74.29 85.28 C 78.80 81.63 81.71 76.55 85.95 72.73 Z" fill="#f3f0ee" />
<path d="M 83.77 81.65 C 86.20 81.84 88.82 81.94 91.18 82.58 C 87.55 82.01 84.14 86.72 82.26 82.80 C 82.74 82.40 83.25 82.01 83.77 81.65 Z" fill="#a09d97" />
<path d="M 82.26 82.80 C 84.14 86.72 87.55 82.01 91.18 82.58 C 92.90 84.81 93.24 87.27 93.07 90.02 C 93.37 95.19 88.46 94.19 88.56 99.79 C 83.23 100.90 86.32 97.62 84.01 95.33 C 82.95 94.64 81.63 94.11 80.80 93.15 C 80.94 90.09 80.96 87.02 81.01 83.96 L 82.26 82.80 Z" fill="#535351" />
<path d="M 50.30 83.77 C 52.46 95.61 49.43 108.62 51.88 120.36 C 51.80 120.89 49.81 124.66 50.16 122.09 C 49.94 109.39 49.76 96.45 50.30 83.77 Z" fill="#b7a8a0" />
<path d="M 81.01 83.96 C 80.96 87.02 80.94 90.09 80.80 93.15 C 79.66 90.95 79.27 85.87 81.01 83.96 Z" fill="#acaca6" />
<path d="M 82.13 88.06 C 89.20 88.67 80.34 96.49 82.13 88.06 Z" fill="#cacfbc" />
<path d="M 89.27 88.29 C 92.06 87.10 90.59 90.38 90.87 91.95 C 88.53 91.93 86.75 89.95 89.27 88.29 Z" fill="#cdccc6" />
<path d="M 99.99 89.76 C 102.55 93.09 104.58 96.79 107.05 100.18 C 107.38 100.75 107.70 101.32 108.03 101.89 C 107.43 107.62 111.96 110.43 111.22 115.90 C 111.12 118.63 111.02 121.34 110.71 124.05 C 109.22 121.42 110.18 116.39 106.04 117.02 L 105.18 116.91 C 100.85 116.24 103.96 114.44 102.46 111.23 C 101.75 105.72 104.39 100.32 98.24 97.45 C 102.49 97.01 98.54 92.16 99.99 89.76 Z" fill="#b3afa5" />
<path d="M 82.94 99.19 C 83.69 101.36 84.28 103.40 86.33 104.72 C 89.45 106.22 90.62 101.79 92.01 99.94 C 93.10 100.92 94.13 101.96 95.11 103.04 C 92.76 104.14 90.53 104.88 88.88 107.04 C 90.27 109.54 91.28 109.32 93.84 109.52 C 93.54 112.99 91.14 115.38 89.06 110.89 C 86.22 106.24 84.71 111.78 83.01 114.01 C 81.67 112.88 80.37 111.70 79.17 110.42 C 81.71 109.70 83.85 109.82 85.00 107.03 C 84.12 104.20 82.96 103.57 80.34 102.50 C 81.10 101.34 82.04 100.25 82.94 99.19 Z" fill="#676766" />
<path d="M 108.03 101.89 C 109.91 103.40 111.51 104.67 112.17 107.13 C 112.46 112.91 117.02 112.45 117.71 118.32 L 118.27 120.25 C 118.50 121.42 119.16 122.30 119.81 123.26 C 120.17 129.15 119.98 135.07 119.95 140.97 L 118.07 140.99 C 119.85 135.90 116.02 135.73 115.11 131.11 C 116.51 131.92 117.83 132.83 119.20 133.67 C 118.66 130.57 115.62 128.74 114.12 125.92 C 113.36 123.14 115.88 115.02 111.22 115.90 C 111.96 110.43 107.43 107.62 108.03 101.89 Z" fill="#9e958a" />
<path d="M 58.20 115.07 C 61.37 115.16 63.68 115.84 65.11 118.87 C 65.17 120.56 65.25 122.25 65.37 123.94 C 62.99 125.75 59.98 125.38 59.97 129.01 C 59.64 132.47 57.70 130.65 57.73 128.24 C 58.07 123.85 57.85 119.45 58.20 115.07 Z" fill="#7e7e7e" />
<path d="M 111.22 115.90 C 115.88 115.02 113.36 123.14 114.12 125.92 C 113.94 128.39 114.59 133.17 110.50 131.66 C 109.08 125.96 109.35 133.99 105.60 133.01 L 105.31 131.28 C 106.48 126.53 105.89 122.06 106.04 117.02 C 110.18 116.39 109.22 121.42 110.71 124.05 C 111.02 121.34 111.12 118.63 111.22 115.90 Z" fill="#3b3b3a" />
<path d="M 72.73 117.21 C 75.04 119.54 75.61 123.76 76.42 126.83 C 75.43 129.17 74.39 131.69 72.87 133.74 C 70.39 133.22 68.19 132.42 66.82 130.15 C 66.98 126.78 67.06 123.42 66.79 120.05 C 67.62 116.44 69.60 116.70 72.73 117.21 Z" fill="#888889" />
<path d="M 100.68 117.27 C 103.40 119.09 104.45 123.61 103.67 126.64 C 102.74 131.12 101.10 137.37 95.70 132.14 C 95.11 128.39 94.86 124.70 94.83 120.90 C 96.47 118.82 97.46 115.88 100.68 117.27 Z" fill="#4b4b4c" />
<path d="M 105.18 116.91 L 106.04 117.02 C 105.89 122.06 106.48 126.53 105.31 131.28 C 104.76 126.56 104.98 121.65 105.18 116.91 Z" fill="#717273" />
<path d="M 81.79 118.11 C 82.17 123.11 82.17 128.91 81.79 133.91 C 80.12 134.08 78.61 133.69 77.05 133.15 C 77.17 131.80 77.39 130.46 77.53 129.11 C 79.26 125.08 73.94 116.39 81.79 118.11 Z" fill="#8b8b8b" />
<path d="M 86.00 117.85 C 89.66 117.82 93.47 118.22 92.89 122.91 C 90.00 123.25 89.71 119.97 87.05 122.14 C 88.60 124.54 91.21 126.06 93.30 128.15 C 93.40 129.54 93.66 130.85 94.04 132.19 C 93.00 133.18 91.92 134.13 90.84 135.07 C 88.19 135.01 82.78 134.18 84.25 130.27 C 88.17 127.69 86.78 133.31 89.86 130.89 C 88.96 127.66 86.35 126.95 84.28 124.67 C 83.34 122.01 84.35 119.91 86.00 117.85 Z" fill="#616161" />
<path d="M 60.13 119.13 C 67.16 117.73 58.72 126.16 60.13 119.13 Z" fill="#d1d1d1" />
<path d="M 65.11 118.87 C 65.67 119.27 66.23 119.66 66.79 120.05 C 67.06 123.42 66.98 126.78 66.82 130.15 C 66.05 128.20 65.78 125.99 65.37 123.94 C 65.25 122.25 65.17 120.56 65.11 118.87 Z" fill="#bdbdbd" />
<path d="M 70.19 120.26 C 73.77 120.96 74.44 131.27 69.21 129.91 C 69.11 127.25 68.07 122.23 70.19 120.26 Z" fill="#e8e8e9" />
<path d="M 94.83 120.90 C 94.86 124.70 95.11 128.39 95.70 132.14 L 94.04 132.19 C 93.66 130.85 93.40 129.54 93.30 128.15 C 93.82 125.76 93.93 123.17 94.83 120.90 Z" fill="#a1a1a2" />
<path d="M 98.19 121.13 C 102.75 118.53 101.59 130.79 98.19 129.92 C 97.86 127.01 97.84 124.04 98.19 121.13 Z" fill="#c3c3c5" />
<path d="M 114.12 125.92 C 115.62 128.74 118.66 130.57 119.20 133.67 C 117.83 132.83 116.51 131.92 115.11 131.11 C 116.02 135.73 119.85 135.90 118.07 140.99 C 115.62 142.13 113.10 143.09 110.56 144.03 C 109.15 144.05 107.74 144.08 106.34 144.16 C 106.63 141.89 106.27 142.43 104.40 141.55 C 106.58 138.26 106.94 136.82 105.60 133.01 C 109.35 133.99 109.08 125.96 110.50 131.66 C 114.59 133.17 113.94 128.39 114.12 125.92 Z" fill="#aba7a8" />
<path d="M 50.23 138.18 C 52.11 138.74 53.61 139.55 55.15 140.76 C 54.14 140.61 53.13 140.49 52.11 140.39 C 51.79 145.64 52.22 150.90 51.76 156.15 C 50.13 150.28 51.75 144.17 50.23 138.18 Z" fill="#a5a5a5" />
<path d="M 52.11 140.39 C 53.13 140.49 54.14 140.61 55.15 140.76 C 56.43 141.47 57.75 142.12 59.06 142.76 C 58.88 145.61 56.51 149.62 61.00 150.00 C 65.79 150.11 63.12 156.85 64.74 160.11 C 65.98 165.24 65.89 170.22 68.51 174.93 C 67.62 175.10 66.72 175.26 65.83 175.39 C 63.33 174.75 61.14 173.52 58.99 172.14 C 57.73 167.48 55.91 163.75 52.94 159.95 C 53.39 158.33 53.63 156.88 51.76 156.15 C 52.22 150.90 51.79 145.64 52.11 140.39 Z" fill="#202127" />
<path d="M 118.07 140.99 L 119.95 140.97 C 120.00 145.72 119.95 150.47 120.22 155.22 L 120.01 156.01 C 118.42 157.12 118.62 158.41 119.18 160.07 C 117.39 164.29 117.11 170.50 112.27 172.31 C 112.48 168.91 113.90 165.69 113.97 162.32 C 109.98 159.78 110.06 155.36 109.95 151.10 C 112.05 149.23 119.58 148.58 116.08 144.48 C 113.79 145.95 112.86 144.96 110.56 144.03 C 113.10 143.09 115.62 142.13 118.07 140.99 Z" fill="#3d393d" />
<path d="M 59.06 142.76 C 61.07 143.12 63.06 143.53 65.05 144.00 C 64.87 146.67 64.42 149.18 65.12 151.82 C 65.12 154.59 64.93 157.35 64.74 160.11 C 63.12 156.85 65.79 150.11 61.00 150.00 C 56.51 149.62 58.88 145.61 59.06 142.76 Z" fill="#3f3538" />
<path d="M 65.05 144.00 C 69.61 145.06 74.14 145.16 78.80 144.98 L 79.07 145.90 C 77.50 145.94 75.92 145.98 74.35 146.10 C 75.24 148.36 76.98 150.27 76.10 152.78 C 74.95 154.88 75.07 157.00 74.86 159.30 C 72.89 158.09 67.27 162.30 70.55 158.26 C 65.32 157.81 66.49 155.98 65.12 151.82 C 64.42 149.18 64.87 146.67 65.05 144.00 Z" fill="#887976" />
<path d="M 106.34 144.16 C 107.74 144.08 109.15 144.05 110.56 144.03 C 112.86 144.96 113.79 145.95 116.08 144.48 C 119.58 148.58 112.05 149.23 109.95 151.10 C 107.77 153.07 106.80 152.36 104.00 152.16 C 96.05 153.08 88.28 153.85 80.29 153.22 C 77.96 155.42 81.02 157.54 77.10 159.18 C 77.00 156.97 76.66 154.91 76.10 152.78 C 76.98 150.27 75.24 148.36 74.35 146.10 C 75.92 145.98 77.50 145.94 79.07 145.90 C 88.24 146.38 97.32 145.79 106.34 144.16 Z" fill="#5f412b" />
<path d="M 109.95 151.10 C 110.06 155.36 109.98 159.78 113.97 162.32 C 113.90 165.69 112.48 168.91 112.27 172.31 C 108.84 174.20 104.80 175.25 101.05 176.34 C 98.86 175.64 96.99 175.29 95.02 176.75 L 94.23 177.18 C 88.42 176.90 82.60 177.04 76.79 176.93 C 84.26 176.15 80.27 169.06 78.32 164.89 C 77.49 162.95 77.05 161.31 77.10 159.18 C 81.02 157.54 77.96 155.42 80.29 153.22 C 88.28 153.85 96.05 153.08 104.00 152.16 C 106.80 152.36 107.77 153.07 109.95 151.10 Z" fill="#252427" />
<path d="M 65.12 151.82 C 66.49 155.98 65.32 157.81 70.55 158.26 C 67.27 162.30 72.89 158.09 74.86 159.30 C 75.07 157.00 74.95 154.88 76.10 152.78 C 76.66 154.91 77.00 156.97 77.10 159.18 C 77.05 161.31 77.49 162.95 78.32 164.89 C 79.65 168.72 70.91 171.22 78.18 170.61 C 77.03 173.24 72.65 172.57 70.40 172.06 C 73.40 167.88 66.66 163.56 64.74 160.11 C 64.93 157.35 65.12 154.59 65.12 151.82 Z" fill="#5e6068" />
<path d="M 51.76 156.15 C 53.63 156.88 53.39 158.33 52.94 159.95 C 51.64 158.82 51.59 157.77 51.76 156.15 Z" fill="#95989d" />
<path d="M 120.01 156.01 C 120.38 157.68 120.43 158.77 119.18 160.07 C 118.62 158.41 118.42 157.12 120.01 156.01 Z" fill="#aaabaf" />
<path d="M 102.90 157.44 C 103.85 162.05 103.07 166.09 102.56 170.64 C 99.01 171.71 95.09 172.39 91.39 172.24 C 87.56 170.41 85.28 167.30 81.85 164.97 C 80.83 163.93 78.52 163.07 81.11 162.12 C 87.65 160.60 93.23 157.72 99.96 158.98 C 101.03 158.70 101.91 157.99 102.90 157.44 Z" fill="#0e0e15" />
<path d="M 52.94 159.95 C 55.91 163.75 57.73 167.48 58.99 172.14 C 54.71 170.37 53.85 163.93 52.94 159.95 Z" fill="#71757b" />
<path d="M 64.74 160.11 C 66.66 163.56 73.40 167.88 70.40 172.06 C 72.65 172.57 77.03 173.24 78.18 170.61 C 70.91 171.22 79.65 168.72 78.32 164.89 C 80.27 169.06 84.26 176.15 76.79 176.93 C 75.88 176.90 74.96 176.87 74.05 176.84 C 72.41 175.35 70.86 175.63 68.92 176.30 C 67.89 176.01 66.85 175.71 65.83 175.39 C 66.72 175.26 67.62 175.10 68.51 174.93 C 65.89 170.22 65.98 165.24 64.74 160.11 Z" fill="#43464f" />
<path d="M 68.92 176.30 C 70.86 175.63 72.41 175.35 74.05 176.84 C 72.13 177.38 70.62 177.50 68.92 176.30 Z" fill="#929196" />
<path d="M 101.05 176.34 C 98.97 177.57 97.26 177.39 95.02 176.75 C 96.99 175.29 98.86 175.64 101.05 176.34 Z" fill="#8c8c8d" />
<path d="M 76.79 176.93 C 82.60 177.04 88.42 176.90 94.23 177.18 L 93.49 178.00 L 76.71 178.00 L 76.79 176.93 Z" fill="#a2a2a4" />
</svg>