<?xml version="1.0" encoding="UTF-8" standalone="no"?>
<!DOCTYPE svg PUBLIC "-//W3C//DTD SVG 1.1//EN" "http://www.w3.org/Graphics/SVG/1.1/DTD/svg11.dtd">
<svg xmlns="http://www.w3.org/2000/svg" version="1.1" viewBox="0 0 229 220" width="229.0pt" height="220.0pt">
<path d="M 0.00 0.00 L 229.00 0.00 L 229.00 220.00 L 0.00 220.00 L 0.00 0.00 Z" fill="#ffffff" />
<path d="M 150.96 6.98 C 156.49 8.84 161.89 10.85 166.55 14.45 C 172.77 19.20 178.23 25.13 182.17 31.92 C 188.28 42.38 190.75 55.00 189.66 67.02 C 188.57 79.47 183.17 90.90 174.26 99.65 C 177.11 110.32 177.14 121.52 170.05 130.57 C 176.77 126.99 183.78 123.95 190.49 120.37 C 194.74 117.90 195.54 111.43 198.71 107.79 C 200.81 105.47 203.49 103.34 206.50 102.38 C 209.42 101.23 213.12 102.89 214.76 105.42 C 217.12 109.90 217.57 115.11 218.10 120.05 C 221.97 123.57 225.31 127.26 228.28 131.58 C 227.69 134.97 227.14 137.98 223.96 139.91 C 219.07 142.80 212.26 142.63 206.91 141.27 C 204.21 140.64 201.89 141.11 199.44 142.30 C 185.63 148.80 171.86 155.37 158.02 161.80 C 158.02 163.34 158.02 164.88 158.01 166.41 C 167.68 170.91 177.36 175.41 187.03 179.90 C 189.94 181.35 192.40 181.38 195.51 180.56 C 200.93 179.02 207.31 179.67 211.83 183.17 C 214.65 185.36 215.26 189.24 213.46 192.28 C 211.31 195.96 207.34 198.68 204.12 201.43 C 203.57 205.75 203.58 210.78 201.80 214.76 C 200.57 217.53 198.09 219.57 194.97 219.56 C 191.63 219.48 188.52 216.97 186.19 214.78 C 182.66 211.46 181.99 206.61 178.67 203.31 C 177.32 201.95 175.49 201.08 173.80 200.18 C 165.96 196.21 158.16 192.17 150.41 188.02 C 146.95 191.92 143.38 195.47 138.60 197.73 C 133.42 200.13 127.75 201.82 122.04 202.22 C 111.24 202.84 100.97 202.60 90.92 198.17 C 86.05 195.87 82.36 192.26 78.95 188.17 C 70.76 192.61 62.52 196.95 54.26 201.26 C 52.25 202.28 50.61 203.43 49.43 205.41 C 46.53 210.01 44.37 214.43 39.93 217.93 C 36.59 220.24 31.73 220.48 29.03 217.05 C 25.87 213.34 26.81 206.90 25.77 202.24 C 23.08 199.59 20.19 197.09 17.67 194.28 C 14.92 191.26 14.73 186.48 17.33 183.32 C 18.97 180.96 22.45 180.42 25.09 179.95 C 31.31 178.89 35.53 182.82 41.54 180.47 C 52.00 176.46 61.59 171.30 71.34 166.09 C 71.32 164.78 71.32 163.47 71.31 162.16 C 57.28 155.27 43.26 148.51 29.09 141.91 C 25.86 140.39 22.15 141.50 18.79 141.94 C 13.67 142.68 8.19 142.19 3.85 139.15 C 1.41 137.27 0.68 134.03 1.83 131.19 C 3.47 126.84 8.05 123.36 11.37 120.24 C 11.67 116.16 11.66 111.31 13.51 107.60 C 14.98 104.76 17.54 102.50 20.93 102.80 C 26.08 103.36 30.69 107.65 32.81 112.23 C 34.44 115.27 35.41 118.53 38.64 120.25 C 45.61 124.29 53.09 127.50 60.18 131.27 C 52.76 122.46 52.88 111.62 55.13 100.89 C 50.42 95.78 46.88 90.02 44.37 83.54 C 40.45 73.39 38.58 62.00 40.02 51.17 C 42.49 35.28 52.34 20.32 66.28 12.20 C 78.66 5.18 93.87 2.29 107.93 1.35 C 122.42 0.03 137.17 2.59 150.96 6.98 Z" fill="#000000" />
<path d="M 108.99 6.76 C 123.75 5.61 138.88 8.42 152.76 13.38 C 163.40 16.89 172.26 25.68 177.77 35.23 C 184.16 46.59 185.97 60.60 183.14 73.28 C 181.49 80.63 177.88 87.17 173.14 92.97 C 172.45 88.26 171.97 83.63 172.86 78.90 C 173.43 75.34 174.91 72.30 175.86 68.86 C 177.00 64.72 177.27 60.29 177.07 56.02 C 176.93 52.84 175.35 50.55 173.73 47.96 C 172.48 49.29 171.26 50.65 170.05 52.01 C 172.39 56.29 171.80 60.65 171.08 65.28 C 170.30 69.70 168.13 73.59 167.43 78.08 C 165.92 87.47 168.19 96.76 169.98 105.93 C 171.02 110.79 170.74 115.73 169.36 120.49 C 168.36 123.88 166.61 126.82 163.27 128.35 C 156.99 131.29 150.49 132.37 144.95 136.97 C 139.94 140.56 138.16 145.85 137.72 151.78 C 132.55 153.03 127.35 153.98 122.00 153.97 C 111.68 153.99 102.07 154.79 91.98 151.98 C 91.55 148.84 91.45 145.97 89.92 143.13 C 86.81 136.97 79.99 133.01 73.51 131.33 C 68.99 129.89 63.54 128.24 61.49 123.49 C 59.06 117.98 58.56 111.56 59.86 105.70 C 61.62 96.92 63.84 87.12 62.30 78.20 C 61.61 73.45 59.25 69.53 58.54 64.78 C 58.03 60.33 57.40 56.22 59.79 52.18 C 58.53 50.86 57.29 49.52 56.04 48.19 C 51.81 53.51 52.48 59.28 53.13 65.63 C 53.98 71.13 56.78 75.49 57.13 80.94 C 57.61 85.47 57.07 89.77 56.58 94.26 C 51.90 88.04 48.67 80.92 46.86 73.36 C 44.80 64.93 44.11 55.74 46.40 47.29 C 50.03 33.44 59.76 20.89 72.89 14.91 C 84.02 9.76 96.81 7.48 108.99 6.76 Z" fill="#ffffff" />
<path d="M 99.27 82.74 C 102.86 84.34 104.40 88.29 104.60 91.99 C 104.97 96.26 102.10 100.44 99.94 103.93 C 97.29 107.77 94.52 111.92 90.90 114.91 C 86.50 118.33 80.45 116.76 76.39 113.58 C 71.86 110.27 70.17 103.77 68.10 98.71 C 66.01 92.97 69.47 86.75 75.24 85.10 C 80.71 83.78 86.44 83.40 92.01 82.62 C 94.55 82.39 96.88 81.54 99.27 82.74 Z" fill="#000000" />
<path d="M 137.97 82.66 C 143.26 83.39 148.64 83.82 153.87 84.94 C 159.24 86.16 163.21 91.50 162.14 97.04 C 161.36 100.30 159.78 103.40 158.54 106.51 C 156.60 111.51 152.10 115.70 146.73 116.63 C 143.30 117.40 139.80 116.17 137.38 113.67 C 133.77 109.87 130.65 105.53 127.95 101.04 C 126.16 97.93 124.55 94.98 124.99 91.26 C 125.53 87.68 127.10 83.91 130.76 82.57 C 132.92 81.58 135.66 82.46 137.97 82.66 Z" fill="#000000" />
<path d="M 20.06 107.99 C 23.55 108.97 26.07 110.98 27.69 114.24 C 29.83 118.53 31.47 122.50 35.87 124.99 C 46.47 130.81 57.59 135.84 68.48 141.12 C 70.35 146.11 71.96 151.08 72.20 156.46 C 58.51 149.85 44.85 143.20 31.06 136.79 C 26.58 134.61 20.73 136.30 16.03 136.77 C 12.56 137.14 9.47 136.05 6.40 134.58 C 8.08 129.75 11.81 127.48 15.28 124.11 C 17.47 122.21 16.80 119.58 17.07 116.96 C 17.23 113.63 17.52 110.43 20.06 107.99 Z" fill="#ffffff" />
<path d="M 209.12 107.09 C 212.58 111.86 211.86 116.74 212.76 122.16 C 216.01 126.10 220.12 129.15 222.93 133.52 C 220.71 135.66 219.13 136.47 216.03 136.67 C 211.05 137.44 206.95 134.75 202.02 135.71 C 198.03 136.49 194.20 138.81 190.51 140.48 C 179.32 145.71 168.20 151.09 156.96 156.22 C 157.59 150.89 158.95 145.95 160.95 140.98 C 171.51 135.91 182.02 130.70 192.51 125.50 C 197.29 123.02 199.09 118.74 201.20 114.12 C 202.74 110.64 205.74 108.58 209.12 107.09 Z" fill="#ffffff" />
<path d="M 113.07 109.98 C 113.06 118.61 113.00 127.24 113.06 135.87 C 110.74 138.29 108.40 141.41 104.97 142.18 C 101.24 139.49 101.46 134.10 101.62 130.02 C 101.86 121.75 106.49 114.71 113.07 109.98 Z" fill="#000000" />
<path d="M 116.36 109.97 C 120.95 113.67 124.80 117.88 126.62 123.63 C 128.39 130.08 129.07 136.83 124.78 142.48 C 121.17 141.25 118.86 138.71 116.38 135.96 C 116.51 127.30 116.33 118.63 116.36 109.97 Z" fill="#000000" />
<path d="M 72.54 136.29 C 73.36 136.80 74.18 137.33 74.98 137.86 C 79.31 147.41 81.96 157.49 82.99 167.92 C 88.46 174.27 95.89 177.61 104.10 178.72 C 112.90 179.80 122.72 180.16 131.26 177.41 C 136.08 175.94 141.35 173.52 144.72 169.64 C 146.37 167.81 146.41 165.13 146.82 162.80 C 147.82 154.73 150.21 146.80 153.39 139.34 C 154.03 137.76 155.48 137.22 156.78 136.19 C 154.98 141.86 152.65 146.90 151.94 152.93 C 151.51 156.45 152.42 159.47 152.58 162.99 C 152.77 170.93 151.08 178.69 145.79 184.83 C 140.00 192.42 131.29 195.74 122.06 196.78 C 111.66 197.36 101.88 197.33 92.29 192.73 C 87.55 190.09 83.65 185.72 80.84 181.12 C 76.74 174.41 76.29 165.61 77.28 158.00 C 78.16 151.73 75.77 145.32 73.65 139.51 C 73.27 138.44 72.90 137.37 72.54 136.29 Z" fill="#ffffff" />
<path d="M 78.52 139.03 C 81.07 140.92 83.86 142.82 85.12 145.87 C 86.08 148.35 86.31 150.91 87.91 153.15 C 88.02 158.46 87.94 163.78 87.92 169.10 C 87.11 168.31 86.30 167.51 85.48 166.71 C 84.65 157.08 81.92 148.02 78.52 139.03 Z" fill="#ffffff" />
<path d="M 150.15 139.76 C 148.18 145.88 145.90 151.64 144.86 158.05 C 144.00 162.25 144.40 166.12 141.56 169.64 C 141.21 163.93 141.36 158.19 141.21 152.47 C 141.86 152.15 142.51 151.83 143.15 151.50 C 143.61 149.36 143.91 146.88 144.99 144.95 C 146.21 142.91 148.34 141.27 150.15 139.76 Z" fill="#ffffff" />
<path d="M 90.18 153.72 C 91.47 153.91 92.75 154.19 94.03 154.44 C 94.00 157.22 94.00 160.01 94.02 162.79 C 92.71 162.08 91.40 161.37 90.09 160.66 C 90.09 158.35 90.03 156.03 90.18 153.72 Z" fill="#ffffff" />
<path d="M 135.24 154.72 C 136.53 154.17 137.84 153.65 139.17 153.18 C 139.16 155.59 139.40 158.10 139.03 160.48 C 137.81 161.38 136.47 162.14 135.17 162.93 C 135.13 160.21 134.99 157.44 135.24 154.72 Z" fill="#ffffff" />
<path d="M 96.22 155.05 C 97.78 155.29 99.34 155.55 100.90 155.79 C 100.87 158.87 100.83 161.94 100.77 165.01 C 99.22 164.54 97.68 164.06 96.13 163.59 C 96.16 160.74 96.19 157.89 96.22 155.05 Z" fill="#ffffff" />
<path d="M 128.39 155.82 C 129.88 155.40 131.43 155.13 132.95 154.82 C 133.00 157.75 133.00 160.69 133.01 163.62 C 131.45 164.07 129.90 164.52 128.34 164.98 C 128.34 161.94 128.11 158.85 128.39 155.82 Z" fill="#ffffff" />
<path d="M 103.02 156.03 C 104.32 156.07 105.62 156.12 106.92 156.17 C 106.92 159.42 106.91 162.66 106.88 165.91 C 105.57 165.75 104.27 165.59 102.97 165.42 C 103.00 162.29 103.01 159.16 103.02 156.03 Z" fill="#ffffff" />
<path d="M 109.04 156.24 C 110.63 156.25 112.21 156.25 113.80 156.26 C 113.79 159.51 113.78 162.76 113.78 166.01 C 112.20 166.00 110.62 165.99 109.04 165.98 C 109.03 162.73 109.04 159.49 109.04 156.24 Z" fill="#ffffff" />
<path d="M 122.32 156.08 C 123.60 156.05 124.87 156.02 126.15 155.99 C 126.17 159.07 126.21 162.14 126.25 165.22 C 124.97 165.41 123.69 165.60 122.41 165.79 C 122.37 162.55 122.34 159.32 122.32 156.08 Z" fill="#ffffff" />
<path d="M 116.00 156.21 C 117.44 156.20 118.87 156.19 120.31 156.18 C 120.33 159.41 120.36 162.64 120.37 165.86 C 118.91 165.91 117.46 165.96 116.00 166.01 C 116.00 162.74 116.00 159.48 116.00 156.21 Z" fill="#ffffff" />
<path d="M 90.05 163.06 C 91.36 163.71 92.68 164.36 94.00 165.00 C 93.99 167.74 93.99 170.47 93.97 173.20 C 92.64 172.39 91.32 171.57 90.00 170.76 C 90.03 168.19 90.05 165.63 90.05 163.06 Z" fill="#ffffff" />
<path d="M 139.32 162.83 C 139.34 165.51 139.36 168.19 139.38 170.88 C 137.98 171.65 136.58 172.44 135.19 173.22 C 135.17 170.56 135.11 167.90 135.19 165.24 C 136.55 164.40 137.94 163.62 139.32 162.83 Z" fill="#ffffff" />
<path d="M 96.15 165.82 C 97.70 166.25 99.24 166.69 100.79 167.12 C 100.76 169.88 100.73 172.65 100.72 175.42 C 99.17 174.97 97.64 174.49 96.11 173.97 C 96.13 171.25 96.14 168.54 96.15 165.82 Z" fill="#ffffff" />
<path d="M 133.00 165.84 C 133.00 168.57 133.00 171.29 133.00 174.01 C 131.47 174.53 129.93 175.03 128.39 175.53 C 128.38 172.70 128.35 169.88 128.31 167.06 C 129.87 166.66 131.44 166.25 133.00 165.84 Z" fill="#ffffff" />
<path d="M 102.90 167.37 C 104.24 167.64 105.58 167.90 106.93 168.15 C 106.88 170.90 106.88 173.65 106.89 176.41 C 105.54 176.21 104.18 176.01 102.82 175.82 C 102.85 173.01 102.87 170.19 102.90 167.37 Z" fill="#ffffff" />
<path d="M 109.02 168.12 C 110.61 168.13 112.20 168.14 113.78 168.15 C 113.79 171.06 113.78 173.97 113.78 176.88 C 112.19 176.81 110.60 176.74 109.02 176.67 C 109.02 173.82 109.02 170.97 109.02 168.12 Z" fill="#ffffff" />
<path d="M 116.00 168.08 C 117.47 168.05 118.94 168.03 120.41 168.00 C 120.43 170.95 120.44 173.90 120.44 176.85 C 118.96 176.88 117.48 176.92 116.00 176.96 C 116.00 174.00 116.00 171.04 116.00 168.08 Z" fill="#ffffff" />
<path d="M 122.38 167.79 C 123.68 167.61 124.98 167.42 126.28 167.24 C 126.32 170.10 126.37 172.96 126.44 175.82 C 125.11 176.12 123.78 176.43 122.45 176.73 C 122.43 173.75 122.41 170.77 122.38 167.79 Z" fill="#ffffff" />
<path d="M 71.81 171.99 C 72.72 176.18 73.97 179.89 75.90 183.71 C 67.52 187.97 59.31 192.55 50.94 196.83 C 42.97 200.06 42.75 211.65 33.82 214.80 C 31.12 210.40 32.43 204.28 30.50 199.45 C 27.86 195.88 23.67 193.42 21.13 189.76 C 20.92 188.26 20.65 187.27 22.14 186.38 C 25.63 184.73 29.08 185.15 32.68 186.11 C 36.71 187.20 40.38 186.85 44.21 185.32 C 53.70 181.53 62.88 176.94 71.81 171.99 Z" fill="#ffffff" />
<path d="M 157.49 172.12 C 166.86 176.61 176.30 180.95 185.74 185.30 C 189.60 187.09 193.50 186.76 197.50 185.69 C 201.60 184.56 206.04 185.30 209.27 188.13 C 207.69 192.63 201.79 195.34 199.12 199.01 C 197.74 204.36 198.73 209.50 195.77 214.51 C 193.87 213.69 192.08 212.76 190.56 211.33 C 188.02 209.22 187.04 205.60 185.21 202.81 C 183.36 199.90 180.97 197.62 177.83 196.15 C 169.68 192.04 161.68 187.65 153.51 183.58 C 155.38 179.85 156.61 176.20 157.49 172.12 Z" fill="#ffffff" />
</svg>