<?xml version="1.0" encoding="UTF-8" standalone="no"?>
<!DOCTYPE svg PUBLIC "-//W3C//DTD SVG 1.1//EN" "http://www.w3.org/Graphics/SVG/1.1/DTD/svg11.dtd">
<svg xmlns="http://www.w3.org/2000/svg" version="1.1" viewBox="0 0 225 225" width="225.0pt" height="225.0pt">
<path d="M 0.00 0.00 L 94.46 0.00 C 94.28 5.98 94.51 12.01 94.42 18.00 C 93.99 20.21 90.12 19.02 88.45 19.46 C 87.78 20.12 87.12 20.78 86.46 21.45 C 86.38 27.13 86.39 32.86 86.46 38.54 C 87.34 38.62 88.01 39.28 88.46 40.54 C 90.05 40.88 92.86 39.74 93.26 42.00 C 93.20 48.98 93.24 56.01 93.22 63.00 C 93.27 64.78 93.51 66.65 91.95 67.90 C 89.39 68.60 89.71 70.65 86.46 70.46 C 84.12 72.72 80.32 74.03 77.46 75.46 C 76.70 76.89 75.96 77.09 74.45 77.46 C 73.70 78.85 72.89 79.02 71.45 79.45 C 70.26 80.47 69.09 82.35 67.46 82.46 C 65.88 84.31 63.50 85.69 62.94 87.95 C 60.85 89.36 61.73 91.26 59.46 92.45 C 59.57 93.77 59.24 94.77 58.46 95.45 C 57.71 98.21 58.03 101.10 57.61 104.00 C 57.55 138.63 57.61 173.36 57.59 208.00 C 57.70 210.29 57.72 212.72 58.29 214.93 C 60.50 218.23 62.26 221.07 66.00 223.07 C 67.31 223.45 69.52 223.05 69.55 225.00 L 0.00 225.00 L 0.00 0.00 Z" fill="#ffffff" />
<path d="M 94.46 0.00 L 130.23 0.00 C 130.76 5.99 129.51 13.10 130.19 18.84 C 131.91 19.90 134.60 19.03 136.55 19.46 C 137.22 20.12 137.88 20.79 138.54 21.46 C 138.61 27.13 138.61 32.86 138.54 38.54 C 137.88 39.12 137.55 39.79 137.54 40.54 C 135.90 40.94 132.04 39.63 131.77 42.00 C 131.86 49.89 131.71 58.16 131.81 66.00 C 132.14 67.78 132.88 68.08 134.55 68.46 C 135.94 70.72 139.08 71.82 141.55 72.46 C 142.57 74.46 144.76 73.50 146.04 74.96 C 148.23 75.40 148.43 77.10 150.55 77.46 C 151.38 78.69 152.06 79.13 153.54 79.46 C 154.24 80.76 155.73 81.70 157.00 82.37 C 159.14 82.77 159.67 86.24 161.54 86.46 C 161.66 87.87 162.43 88.71 163.54 89.45 C 163.56 91.34 165.35 92.00 165.31 94.00 C 167.24 97.08 166.11 100.04 166.46 103.54 C 167.22 104.19 167.54 105.01 167.41 106.00 C 167.41 140.33 167.44 174.68 167.40 209.00 C 167.02 211.03 167.47 213.63 166.45 215.44 C 165.26 216.30 165.28 217.39 164.55 218.55 C 161.74 220.64 160.38 223.59 156.44 223.46 C 155.91 223.95 155.42 224.46 154.95 225.00 L 69.55 225.00 C 69.52 223.05 67.31 223.45 66.00 223.07 C 62.26 221.07 60.50 218.23 58.29 214.93 C 57.72 212.72 57.70 210.29 57.59 208.00 C 57.61 173.36 57.55 138.63 57.61 104.00 C 58.03 101.10 57.71 98.21 58.46 95.45 C 59.24 94.77 59.57 93.77 59.46 92.45 C 61.73 91.26 60.85 89.36 62.94 87.95 C 63.50 85.69 65.88 84.31 67.46 82.46 C 69.09 82.35 70.26 80.47 71.45 79.45 C 72.89 79.02 73.70 78.85 74.45 77.46 C 75.96 77.09 76.70 76.89 77.46 75.46 C 80.32 74.03 84.12 72.72 86.46 70.46 C 89.71 70.65 89.39 68.60 91.95 67.90 C 93.51 66.65 93.27 64.78 93.22 63.00 C 93.24 56.01 93.20 48.98 93.26 42.00 C 92.86 39.74 90.05 40.88 88.46 40.54 C 88.01 39.28 87.34 38.62 86.46 38.54 C 86.39 32.86 86.38 27.13 86.46 21.45 C 87.12 20.78 87.78 20.12 88.45 19.46 C 90.12 19.02 93.99 20.21 94.42 18.00 C 94.51 12.01 94.28 5.98 94.46 0.00 Z" fill="#030303" />
<path d="M 130.23 0.00 L 225.00 0.00 L 225.00 225.00 L 154.95 225.00 C 155.42 224.46 155.91 223.95 156.44 223.46 C 160.38 223.59 161.74 220.64 164.55 218.55 C 165.28 217.39 165.26 216.30 166.45 215.44 C 167.47 213.63 167.02 211.03 167.40 209.00 C 167.44 174.68 167.41 140.33 167.41 106.00 C 167.54 105.01 167.22 104.19 166.46 103.54 C 166.11 100.04 167.24 97.08 165.31 94.00 C 165.35 92.00 163.56 91.34 163.54 89.45 C 162.43 88.71 161.66 87.87 161.54 86.46 C 159.67 86.24 159.14 82.77 157.00 82.37 C 155.73 81.70 154.24 80.76 153.54 79.46 C 152.06 79.13 151.38 78.69 150.55 77.46 C 148.43 77.10 148.23 75.40 146.04 74.96 C 144.76 73.50 142.57 74.46 141.55 72.46 C 139.08 71.82 135.94 70.72 134.55 68.46 C 132.88 68.08 132.14 67.78 131.81 66.00 C 131.71 58.16 131.86 49.89 131.77 42.00 C 132.04 39.63 135.90 40.94 137.54 40.54 C 137.55 39.79 137.88 39.12 138.54 38.54 C 138.61 32.86 138.61 27.13 138.54 21.46 C 137.88 20.79 137.22 20.12 136.55 19.46 C 134.60 19.03 131.91 19.90 130.19 18.84 C 129.51 13.10 130.76 5.99 130.23 0.00 Z" fill="#ffffff" />
<path d="M 101.00 5.58 C 108.67 5.58 116.33 5.57 124.00 5.58 C 125.99 5.89 125.79 9.52 124.46 10.45 C 124.38 12.63 124.45 14.82 124.42 17.00 C 124.65 19.52 122.93 19.49 121.00 19.35 C 114.67 19.38 108.33 19.36 102.00 19.36 L 101.04 18.91 C 100.02 16.53 100.87 13.09 100.54 10.45 C 99.21 9.52 99.01 5.88 101.00 5.58 Z" fill="#ffffff" />
<path d="M 94.00 24.58 C 106.67 24.58 119.33 24.57 132.00 24.59 C 134.59 25.25 132.96 30.89 133.42 33.00 C 133.65 35.49 131.82 35.28 130.00 35.17 C 117.72 35.16 105.29 35.18 93.00 35.18 L 92.05 34.84 C 91.02 32.38 91.85 28.73 91.58 26.00 C 91.88 24.93 92.68 24.46 94.00 24.58 Z" fill="#ffffff" />
<path d="M 102.44 40.45 C 108.83 40.21 115.57 40.34 122.00 40.37 C 122.70 40.33 122.95 40.85 122.77 41.94 C 121.54 43.68 123.77 48.78 121.00 49.27 C 115.34 49.34 109.66 49.35 104.00 49.24 C 101.28 48.78 103.45 44.46 102.20 42.95 C 101.84 42.17 101.92 41.34 102.44 40.45 Z" fill="#ffffff" />
<path d="M 98.46 54.45 C 106.73 54.40 118.25 54.40 126.54 54.45 C 126.75 58.27 126.56 62.17 126.62 66.00 C 126.53 66.97 126.84 67.79 127.54 68.46 C 128.23 72.17 130.77 71.20 132.45 73.55 C 134.53 73.94 134.86 75.88 137.00 75.79 C 138.44 76.99 140.53 76.99 141.45 78.55 C 143.60 78.94 144.74 79.88 146.55 80.46 C 147.84 82.51 149.71 83.08 151.56 84.46 C 152.69 85.13 153.17 86.16 154.54 86.46 C 155.38 88.70 157.83 89.98 158.46 91.55 C 160.08 92.52 159.88 94.34 161.54 95.46 C 161.62 97.50 162.28 99.87 163.54 101.45 C 163.60 104.81 163.60 108.19 163.54 111.55 C 161.01 112.74 158.66 112.28 156.00 112.30 C 152.23 111.05 154.01 107.46 153.54 104.45 C 153.01 103.90 152.68 103.23 152.54 102.46 C 151.72 102.24 150.87 102.12 150.00 102.10 C 127.00 102.08 104.00 102.09 81.00 102.09 C 78.01 102.39 75.41 101.68 72.46 102.46 C 70.36 105.50 72.28 108.77 70.94 111.82 C 69.18 112.55 63.97 112.63 62.26 111.73 C 61.36 108.79 61.84 105.07 61.94 102.00 C 62.92 99.92 63.33 97.75 63.46 95.46 C 63.97 94.99 64.42 94.49 64.82 93.95 C 65.40 91.94 67.19 91.18 68.54 89.54 C 68.82 88.13 70.05 87.80 70.46 86.46 C 73.48 84.60 76.96 81.89 80.09 80.15 C 82.00 79.47 85.33 77.26 86.95 75.95 C 90.74 74.48 96.20 72.08 98.17 68.00 C 98.74 63.58 98.10 58.92 98.46 54.45 Z" fill="#ffffff" />
<path d="M 77.36 107.43 C 78.82 107.08 80.49 107.26 82.00 107.23 C 102.98 107.22 124.04 107.26 145.00 107.21 C 146.69 107.21 148.11 106.88 148.41 109.00 C 148.40 137.33 148.42 165.68 148.39 194.00 C 147.94 195.58 145.26 195.03 144.00 195.14 C 122.03 195.09 99.96 195.20 78.00 195.09 C 76.91 194.95 76.44 194.25 76.59 193.00 C 76.60 165.33 76.60 137.67 76.59 110.00 C 76.49 108.91 76.75 108.05 77.36 107.43 Z" fill="#ffffff" />
<path d="M 62.46 116.46 C 65.47 116.38 68.52 116.38 71.54 116.46 C 71.64 118.01 72.10 119.42 71.88 121.00 C 71.88 146.12 71.91 172.05 71.87 197.00 C 71.91 199.03 72.80 200.44 75.00 200.38 C 100.34 200.32 125.67 200.37 151.00 200.35 C 153.34 200.08 153.10 197.80 153.12 196.00 C 153.11 171.34 153.12 146.67 153.11 122.00 C 152.95 120.08 153.28 118.35 153.46 116.46 C 156.48 116.38 159.53 116.38 162.55 116.46 C 163.22 116.95 163.57 117.46 163.58 118.00 C 163.55 149.05 163.63 180.55 163.54 211.54 C 161.70 212.11 161.66 213.92 161.54 215.54 C 160.56 215.75 159.89 216.42 159.54 217.54 C 158.26 217.84 157.40 218.61 156.54 219.54 C 155.70 219.66 154.85 219.73 154.00 219.76 C 126.99 219.81 100.01 219.83 73.00 219.76 C 71.48 219.67 69.97 219.78 68.46 219.54 C 66.79 217.74 64.75 216.79 63.46 214.57 C 63.19 213.26 62.40 212.42 61.46 211.54 C 61.37 180.56 61.45 149.05 61.43 118.00 C 61.43 117.46 61.78 116.95 62.46 116.46 Z" fill="#ffffff" />
<path d="M 103.00 124.96 C 107.95 124.37 112.98 124.62 118.00 124.61 C 120.40 124.91 122.75 124.45 124.44 126.54 C 126.80 126.34 127.78 128.12 130.00 128.73 C 132.72 130.25 136.06 132.70 137.46 135.54 C 139.06 136.04 139.22 137.43 140.54 138.46 C 140.84 140.04 141.06 141.56 142.54 142.44 C 142.50 143.69 142.84 144.69 143.55 145.45 C 144.66 149.05 144.37 153.25 144.41 157.00 C 144.27 159.03 144.58 161.39 142.46 162.46 C 141.30 165.70 139.27 167.00 136.00 167.66 C 134.12 169.31 132.12 168.02 130.06 169.15 C 129.10 170.59 129.85 172.87 129.54 174.56 C 128.60 175.43 128.25 176.51 127.55 177.54 C 124.41 179.64 121.21 179.05 119.05 175.95 C 118.44 174.48 116.86 177.02 116.54 177.54 C 114.77 178.07 114.12 179.18 112.00 178.84 C 110.40 178.93 109.90 177.75 108.46 177.54 C 107.69 176.14 107.01 175.79 105.46 176.45 C 104.26 177.96 102.75 178.46 101.00 179.02 C 98.75 178.10 97.02 177.52 95.46 175.54 C 95.35 173.70 95.45 171.84 95.40 170.00 C 94.79 167.41 90.08 169.52 88.95 168.05 C 86.45 167.28 83.11 165.22 82.54 162.46 C 79.91 160.34 80.97 157.94 80.28 155.08 C 81.26 152.15 79.68 146.85 82.54 144.56 C 82.69 141.37 85.65 138.55 86.46 135.46 C 88.91 132.96 92.25 131.10 94.46 128.46 C 96.96 128.35 98.18 126.39 100.55 126.54 C 101.25 125.71 102.07 125.18 103.00 124.96 Z" fill="#030303" />
<path d="M 112.00 128.59 C 113.74 128.75 116.23 128.04 117.44 129.54 C 119.44 129.87 123.41 129.52 124.45 131.55 C 126.62 131.73 127.71 132.90 129.54 133.46 C 130.27 135.02 132.18 136.41 133.54 137.46 C 133.74 139.16 135.58 138.90 135.58 140.00 C 137.13 141.96 136.92 144.03 138.37 146.00 C 139.16 148.05 138.96 150.15 140.25 152.00 C 140.37 153.81 140.79 156.33 139.89 157.94 C 138.75 159.09 139.21 160.68 137.57 161.55 C 134.12 164.65 129.82 162.94 125.46 163.46 C 123.94 166.59 125.64 170.55 124.55 173.55 C 123.88 173.67 123.19 173.66 122.46 173.54 C 122.20 171.80 123.03 169.79 121.46 168.55 C 121.38 166.06 117.61 167.25 116.00 166.98 C 112.78 167.34 114.57 171.48 113.55 173.55 C 112.02 173.64 111.44 173.87 110.46 172.55 C 110.17 170.52 111.21 168.41 108.95 167.23 C 107.39 166.83 104.96 166.83 103.45 167.45 C 102.29 169.48 102.64 171.34 102.54 173.54 C 101.85 173.74 101.15 173.75 100.46 173.55 C 99.36 170.72 101.00 166.98 99.73 164.18 C 97.41 162.94 93.67 163.86 91.00 163.58 C 86.59 162.72 83.79 157.20 84.76 153.00 C 86.05 150.89 85.82 147.86 86.46 145.42 C 87.68 144.18 87.94 143.07 88.46 141.46 C 90.54 139.31 91.54 136.96 94.12 135.22 C 95.17 133.91 96.55 133.79 97.60 132.60 C 98.99 131.36 100.50 132.26 101.44 130.45 C 103.09 129.98 104.87 129.88 106.56 129.54 C 107.94 128.09 110.17 128.73 112.00 128.59 Z" fill="#ffffff" />
<path d="M 100.45 143.46 C 101.96 143.37 103.49 143.44 105.00 143.42 C 107.61 144.00 108.70 145.69 110.54 147.45 C 111.46 150.57 111.73 153.58 110.59 156.69 C 109.85 157.66 108.98 158.34 108.54 159.54 C 104.91 160.70 101.07 160.82 97.46 159.54 C 94.00 157.27 94.23 151.59 95.25 148.10 C 96.90 146.18 98.09 144.43 100.45 143.46 Z" fill="#030303" />
<path d="M 119.45 143.46 C 121.11 143.39 122.89 143.39 124.55 143.46 C 127.27 144.67 130.49 147.77 130.38 151.00 C 130.38 153.47 130.62 155.79 128.46 157.46 C 128.23 158.20 127.93 158.89 127.55 159.54 C 124.06 160.82 119.97 160.71 116.46 159.54 C 115.72 157.75 114.08 157.14 113.98 155.00 C 113.20 152.35 113.88 150.05 114.46 147.45 C 116.31 145.93 117.07 144.35 119.45 143.46 Z" fill="#030303" />
<path d="M 102.45 147.46 C 104.13 146.99 104.80 149.24 105.91 150.09 C 109.66 152.39 101.53 159.63 100.54 154.46 C 99.58 153.48 98.37 152.59 99.23 151.07 C 100.20 149.83 101.34 148.60 102.45 147.46 Z" fill="#ffffff" />
<path d="M 122.54 147.46 C 123.78 148.91 125.83 150.10 126.22 152.00 C 125.45 153.78 124.30 156.28 122.00 156.35 C 120.39 156.30 119.88 155.05 118.46 154.54 C 118.01 153.09 117.52 151.02 119.00 150.00 C 120.26 149.29 120.85 146.98 122.54 147.46 Z" fill="#ffffff" />
</svg>