<?xml version="1.0" encoding="UTF-8" standalone="no"?>
<!DOCTYPE svg PUBLIC "-//W3C//DTD SVG 1.1//EN" "http://www.w3.org/Graphics/SVG/1.1/DTD/svg11.dtd">
<svg xmlns="http://www.w3.org/2000/svg" version="1.1" viewBox="0 0 201 201" width="201.0pt" height="201.0pt">
<path d="M 0.00 0.00 L 1.06 0.00 C 1.02 2.60 1.01 5.21 1.06 7.81 C 1.01 10.77 0.98 13.73 1.02 16.69 C 1.01 23.04 0.89 29.40 1.13 35.75 C 1.00 39.82 0.94 43.89 1.03 47.97 C 1.04 49.65 1.04 51.32 1.05 53.00 C 1.01 54.97 1.01 56.95 1.04 58.92 C 1.02 66.69 0.88 74.47 1.14 82.23 C 0.83 92.80 1.07 103.40 1.01 113.98 C 1.01 115.99 1.00 118.01 1.02 120.03 C 0.98 124.75 0.98 129.48 1.08 134.20 C 0.90 147.46 1.04 160.72 1.00 173.98 C 1.00 175.68 1.00 177.38 1.01 179.08 C 0.97 183.76 0.99 188.44 1.05 193.11 L 1.02 194.86 C 0.97 196.91 0.95 198.95 0.92 201.00 L 0.00 201.00 L 0.00 0.00 Z" fill="#f2c9a8" />
<path d="M 1.06 0.00 L 16.56 0.00 C 14.04 2.14 11.04 3.34 8.30 5.12 C 9.15 7.93 11.09 11.01 11.00 13.96 C 10.07 17.44 8.27 20.02 9.15 23.83 C 11.40 24.13 13.69 24.10 15.94 23.82 C 15.91 21.42 14.62 19.49 13.97 17.08 C 16.14 13.90 22.28 11.16 25.90 13.06 C 28.88 15.85 33.58 19.47 31.07 24.02 C 30.57 28.27 23.15 27.51 22.07 30.07 C 24.56 35.77 25.96 42.89 20.40 47.28 C 21.19 49.59 21.69 52.71 24.90 51.98 C 30.44 50.01 26.81 39.88 33.13 39.14 C 40.74 35.66 47.68 45.55 42.96 52.04 C 41.56 52.79 40.20 53.59 38.85 54.41 C 30.90 55.97 40.01 61.78 36.38 68.21 C 35.95 60.63 34.03 59.39 26.84 58.31 C 18.88 57.72 15.06 53.54 13.13 46.19 C 13.04 44.89 16.10 44.84 17.06 44.21 C 21.03 43.17 23.37 33.80 17.66 33.60 C 15.32 33.23 13.06 32.55 10.74 32.15 C 10.16 34.08 9.54 35.99 8.77 37.87 C 5.08 41.56 4.07 38.00 1.13 35.75 C 0.89 29.40 1.01 23.04 1.02 16.69 C 4.74 17.00 4.82 19.85 6.96 14.86 C 10.05 10.34 4.59 8.46 1.06 7.81 C 1.01 5.21 1.02 2.60 1.06 0.00 Z" fill="#e6c66e" />
<path d="M 16.56 0.00 L 28.04 0.00 C 26.95 4.16 29.63 10.18 34.25 8.24 C 37.16 6.24 37.09 3.10 38.22 0.00 L 75.00 0.00 C 74.87 4.80 75.48 8.97 78.70 12.71 C 76.55 13.20 74.48 13.53 72.40 14.33 C 71.88 17.07 71.26 19.92 71.23 22.71 C 72.61 24.81 77.39 24.12 79.53 23.62 C 80.60 21.26 81.70 18.88 82.56 16.44 C 76.20 14.40 83.25 11.14 85.66 9.64 C 89.07 7.97 92.74 7.77 95.87 5.39 C 95.21 9.60 96.20 13.12 97.69 17.01 C 95.76 22.28 88.94 28.10 95.36 33.36 C 100.93 35.92 100.19 26.74 105.08 30.62 C 105.00 28.40 104.71 26.21 104.50 24.00 C 106.43 24.30 108.35 24.86 110.25 25.33 C 107.89 33.15 102.50 39.62 100.92 47.96 C 100.83 50.33 98.24 51.05 96.48 52.02 C 92.09 48.57 90.85 56.80 87.60 52.32 C 80.34 48.25 83.40 42.76 85.74 36.70 C 88.70 30.99 88.23 25.15 87.76 18.96 C 84.57 24.00 79.95 25.27 76.13 30.17 C 75.36 35.88 78.11 40.69 71.16 43.20 C 64.64 47.05 59.87 38.58 60.00 33.15 C 63.17 30.90 64.61 27.74 68.04 25.87 C 64.63 20.43 66.70 14.79 69.96 9.88 C 70.86 5.58 66.51 5.22 63.67 6.64 C 62.30 11.95 61.14 19.84 54.38 20.48 C 52.90 25.23 53.45 26.79 56.01 30.84 C 53.91 32.47 52.10 34.31 50.21 36.16 C 48.61 37.74 43.70 36.05 43.18 38.81 C 45.95 41.76 48.28 50.70 42.96 52.04 C 47.68 45.55 40.74 35.66 33.13 39.14 C 26.81 39.88 30.44 50.01 24.90 51.98 C 21.69 52.71 21.19 49.59 20.40 47.28 C 25.96 42.89 24.56 35.77 22.07 30.07 C 23.15 27.51 30.57 28.27 31.07 24.02 C 33.58 19.47 28.88 15.85 25.90 13.06 C 22.28 11.16 16.14 13.90 13.97 17.08 C 14.62 19.49 15.91 21.42 15.94 23.82 C 13.69 24.10 11.40 24.13 9.15 23.83 C 8.27 20.02 10.07 17.44 11.00 13.96 C 11.09 11.01 9.15 7.93 8.30 5.12 C 11.04 3.34 14.04 2.14 16.56 0.00 Z" fill="#ead279" />
<path d="M 28.04 0.00 L 38.22 0.00 C 37.09 3.10 37.16 6.24 34.25 8.24 C 29.63 10.18 26.95 4.16 28.04 0.00 Z" fill="#d8bf68" />
<path d="M 75.00 0.00 L 135.52 0.00 C 123.41 3.30 112.41 12.46 110.25 25.33 C 108.35 24.86 106.43 24.30 104.50 24.00 C 104.71 26.21 105.00 28.40 105.08 30.62 C 100.19 26.74 100.93 35.92 95.36 33.36 C 88.94 28.10 95.76 22.28 97.69 17.01 C 96.20 13.12 95.21 9.60 95.87 5.39 C 92.74 7.77 89.07 7.97 85.66 9.64 C 83.25 11.14 76.20 14.40 82.56 16.44 C 81.70 18.88 80.60 21.26 79.53 23.62 C 77.39 24.12 72.61 24.81 71.23 22.71 C 71.26 19.92 71.88 17.07 72.40 14.33 C 74.48 13.53 76.55 13.20 78.70 12.71 C 75.48 8.97 74.87 4.80 75.00 0.00 Z" fill="#e9d161" />
<path d="M 135.52 0.00 L 141.45 0.00 C 138.03 4.98 133.72 3.72 128.79 5.81 C 126.68 6.57 124.89 7.70 122.97 8.81 C 114.44 12.68 113.42 23.97 110.28 31.38 C 105.81 37.84 103.61 43.24 101.97 50.92 C 99.41 52.46 96.73 53.80 94.06 55.13 C 94.35 54.35 94.65 53.58 94.94 52.80 L 96.48 52.02 C 98.24 51.05 100.83 50.33 100.92 47.96 C 102.50 39.62 107.89 33.15 110.25 25.33 C 112.41 12.46 123.41 3.30 135.52 0.00 Z" fill="#baa04e" />
<path d="M 141.45 0.00 L 143.34 0.00 C 140.42 6.64 134.87 5.27 128.79 5.81 C 133.72 3.72 138.03 4.98 141.45 0.00 Z" fill="#887033" />
<path d="M 143.34 0.00 L 145.10 0.00 C 143.71 3.67 142.19 8.56 139.06 11.12 C 136.75 9.17 135.62 6.84 132.20 6.89 C 128.80 6.73 127.14 7.57 124.76 9.83 L 122.77 9.71 L 122.97 8.81 C 124.89 7.70 126.68 6.57 128.79 5.81 C 134.87 5.27 140.42 6.64 143.34 0.00 Z" fill="#58431e" />
<path d="M 145.10 0.00 L 148.35 0.00 C 146.47 4.42 147.87 10.00 144.34 13.30 C 142.00 17.44 140.22 19.56 136.41 22.42 C 132.27 25.52 135.29 30.82 130.25 33.27 C 126.53 35.60 124.58 26.82 126.63 24.61 C 131.73 19.53 133.58 13.97 132.20 6.89 C 135.62 6.84 136.75 9.17 139.06 11.12 C 142.19 8.56 143.71 3.67 145.10 0.00 Z" fill="#2f271b" />
<path d="M 148.35 0.00 L 181.50 0.00 C 178.31 4.36 174.46 2.35 169.99 3.96 C 165.54 5.30 162.66 8.21 159.44 11.32 C 153.19 12.74 156.18 18.07 152.58 23.08 C 153.10 29.99 151.30 36.88 152.14 43.89 C 153.28 47.26 157.20 50.34 160.76 50.56 C 162.69 49.48 163.91 47.99 166.33 48.18 C 164.48 53.69 154.94 52.84 151.86 49.14 C 148.57 46.22 150.11 41.88 146.96 39.05 C 145.35 37.47 145.80 34.29 145.59 32.17 C 142.60 34.30 139.74 33.95 136.28 34.25 C 136.02 36.12 135.96 38.02 135.72 39.90 C 133.14 39.88 130.71 39.09 128.12 39.09 C 127.70 42.32 128.13 42.63 130.56 44.48 C 134.90 47.56 131.39 52.62 134.33 56.58 C 135.11 58.46 132.03 61.40 133.33 63.56 C 137.36 65.41 142.12 67.01 146.61 66.72 C 148.14 61.98 150.70 59.11 155.80 58.46 C 159.69 59.34 161.40 63.88 164.24 66.54 C 168.81 66.16 171.33 62.63 175.67 61.79 L 176.04 62.88 C 171.25 65.01 167.75 68.75 163.80 71.71 C 159.60 71.86 156.17 73.58 152.21 74.53 C 148.34 71.01 140.20 70.36 137.01 75.07 C 133.75 67.93 130.02 69.81 124.21 72.48 C 128.71 75.36 127.76 76.78 128.30 81.70 C 131.17 83.94 134.69 83.66 136.68 87.32 C 143.18 88.34 138.76 94.71 135.07 95.88 C 129.65 93.45 123.40 86.03 117.88 91.97 C 121.01 95.48 123.67 99.38 128.77 99.49 C 131.72 100.43 136.92 99.78 135.77 104.29 C 130.28 102.33 120.81 97.07 115.89 101.96 C 110.88 101.80 111.10 94.94 113.62 91.96 C 109.91 90.07 104.85 83.78 103.55 79.27 C 100.77 80.21 100.78 84.43 98.25 86.14 L 98.12 85.24 C 97.97 84.15 97.81 83.07 97.64 81.98 C 96.89 79.04 101.51 76.28 103.25 74.32 C 106.85 76.46 105.67 79.19 106.33 82.73 C 109.05 85.18 112.04 81.70 109.90 79.17 C 106.48 73.80 106.26 66.53 110.48 61.54 C 115.83 53.76 112.98 45.65 116.13 37.12 C 117.82 32.06 116.85 27.48 116.42 22.38 C 119.39 20.25 120.40 17.01 123.33 14.88 C 122.00 12.64 123.85 11.80 124.76 9.83 C 127.14 7.57 128.80 6.73 132.20 6.89 C 133.58 13.97 131.73 19.53 126.63 24.61 C 124.58 26.82 126.53 35.60 130.25 33.27 C 135.29 30.82 132.27 25.52 136.41 22.42 C 140.22 19.56 142.00 17.44 144.34 13.30 C 147.87 10.00 146.47 4.42 148.35 0.00 Z" fill="#1e180e" />
<path d="M 181.50 0.00 L 182.47 0.00 C 181.12 2.45 179.30 7.71 175.64 6.41 C 166.22 5.38 159.83 14.28 159.67 22.84 C 157.80 28.33 157.30 34.08 155.55 39.61 C 153.54 44.07 157.71 47.86 161.65 47.59 C 168.56 42.76 173.44 27.67 183.85 26.94 C 185.19 28.37 185.81 30.00 186.31 31.87 L 185.99 33.01 C 185.14 31.59 184.55 29.91 183.17 28.99 C 176.01 34.43 171.69 41.23 166.33 48.18 C 163.91 47.99 162.69 49.48 160.76 50.56 C 157.20 50.34 153.28 47.26 152.14 43.89 C 151.30 36.88 153.10 29.99 152.58 23.08 C 156.18 18.07 153.19 12.74 159.44 11.32 C 162.66 8.21 165.54 5.30 169.99 3.96 C 174.46 2.35 178.31 4.36 181.50 0.00 Z" fill="#2d2921" />
<path d="M 182.47 0.00 L 184.39 0.00 C 183.29 2.33 182.20 4.66 181.04 6.97 C 176.29 12.31 168.97 9.73 165.39 15.33 C 164.57 20.36 163.68 24.89 164.95 29.94 C 164.06 32.73 162.46 32.70 164.18 35.85 C 166.46 31.82 167.11 32.33 171.47 31.49 C 173.68 27.66 177.04 25.67 180.88 23.76 C 181.88 24.81 182.90 25.84 183.85 26.94 C 173.44 27.67 168.56 42.76 161.65 47.59 C 157.71 47.86 153.54 44.07 155.55 39.61 C 157.30 34.08 157.80 28.33 159.67 22.84 C 159.83 14.28 166.22 5.38 175.64 6.41 C 179.30 7.71 181.12 2.45 182.47 0.00 Z" fill="#424036" />
<path d="M 184.39 0.00 L 187.39 0.00 C 185.99 9.22 178.04 13.03 182.73 22.33 C 188.78 30.34 192.26 39.48 188.36 49.37 C 187.26 57.06 181.57 62.35 180.84 69.96 C 179.99 74.96 176.27 78.97 175.57 84.17 C 173.48 80.00 174.10 75.71 175.52 71.43 C 178.09 67.68 180.94 64.50 182.04 59.94 C 187.49 51.82 190.35 41.18 186.31 31.87 C 185.81 30.00 185.19 28.37 183.85 26.94 C 182.90 25.84 181.88 24.81 180.88 23.76 C 179.23 20.78 175.95 16.49 178.12 13.12 C 179.00 11.03 180.12 9.05 181.04 6.97 C 182.20 4.66 183.29 2.33 184.39 0.00 Z" fill="#8c674b" />
<path d="M 187.39 0.00 L 190.23 0.00 C 188.92 8.04 182.07 14.08 184.34 21.68 C 187.95 27.10 192.68 34.26 192.88 40.95 C 191.35 47.91 190.93 56.66 186.01 62.01 C 183.26 64.90 183.89 70.10 183.50 73.89 C 184.41 78.42 179.61 80.28 178.03 84.11 C 178.26 87.61 179.20 90.68 178.31 94.22 C 178.11 95.49 177.94 96.78 177.81 98.07 C 176.14 93.55 177.87 88.73 175.57 84.17 C 176.27 78.97 179.99 74.96 180.84 69.96 C 181.57 62.35 187.26 57.06 188.36 49.37 C 192.26 39.48 188.78 30.34 182.73 22.33 C 178.04 13.03 185.99 9.22 187.39 0.00 Z" fill="#c4906b" />
<path d="M 190.23 0.00 L 200.08 0.00 C 200.03 2.62 199.99 5.23 199.93 7.85 C 194.83 6.83 197.76 16.05 197.04 19.01 C 198.42 25.51 189.51 27.35 193.35 32.59 C 196.97 38.37 194.08 44.08 193.21 50.03 C 193.37 55.47 189.73 59.28 189.17 64.65 C 182.74 71.41 191.77 79.24 187.00 86.01 C 184.08 90.67 180.30 87.98 178.31 94.22 C 179.20 90.68 178.26 87.61 178.03 84.11 C 179.61 80.28 184.41 78.42 183.50 73.89 C 183.89 70.10 183.26 64.90 186.01 62.01 C 190.93 56.66 191.35 47.91 192.88 40.95 C 192.68 34.26 187.95 27.10 184.34 21.68 C 182.07 14.08 188.92 8.04 190.23 0.00 Z" fill="#e8b58c" />
<path d="M 200.08 0.00 L 201.00 0.00 L 201.00 201.00 L 190.96 201.00 C 188.11 198.32 186.23 195.09 184.13 191.85 C 178.13 186.04 168.99 190.98 164.88 184.11 C 161.90 181.79 157.17 179.12 155.03 175.87 C 154.81 172.69 156.26 169.29 157.47 166.40 C 159.04 164.92 162.22 166.52 163.09 164.05 C 162.18 162.98 161.14 162.03 160.22 160.97 C 162.52 156.59 165.13 151.87 166.05 146.97 C 166.61 145.91 167.18 144.86 167.77 143.81 C 170.27 142.21 171.52 140.77 174.68 141.78 C 171.35 137.81 175.18 133.58 176.34 129.43 C 179.26 130.57 184.06 131.70 185.99 134.08 C 183.74 139.64 181.63 147.96 184.39 153.61 C 187.58 154.76 191.30 155.78 194.70 155.75 C 198.65 151.67 195.51 144.88 198.34 140.33 C 199.77 137.71 200.16 135.87 199.99 132.86 C 200.00 109.43 200.01 85.38 200.00 61.97 C 200.30 58.05 195.17 55.88 197.97 52.09 C 199.06 49.10 198.62 54.57 199.85 54.99 C 200.17 39.30 199.98 23.55 199.93 7.85 C 199.99 5.23 200.03 2.62 200.08 0.00 Z" fill="#f2dcc4" />
<path d="M 69.96 9.88 C 66.70 14.79 64.63 20.43 68.04 25.87 C 64.61 27.74 63.17 30.90 60.00 33.15 C 59.87 38.58 64.64 47.05 71.16 43.20 C 78.11 40.69 75.36 35.88 76.13 30.17 C 79.95 25.27 84.57 24.00 87.76 18.96 C 88.23 25.15 88.70 30.99 85.74 36.70 C 83.40 42.76 80.34 48.25 87.60 52.32 C 90.85 56.80 92.09 48.57 96.48 52.02 L 94.94 52.80 C 92.42 53.77 91.45 54.90 90.10 57.16 C 89.44 57.79 88.77 58.41 88.09 59.02 C 80.59 60.43 79.19 70.80 74.11 76.06 C 72.60 77.42 71.22 78.90 69.88 80.42 C 67.53 75.97 70.66 76.26 73.13 73.60 C 73.98 70.41 75.20 67.43 76.48 64.40 C 71.25 63.54 77.40 58.06 72.11 58.02 C 67.50 60.83 66.30 64.30 60.25 65.28 C 59.46 69.44 60.78 74.25 59.30 78.19 C 59.81 71.77 58.02 68.12 51.98 65.96 C 46.33 66.00 43.54 70.99 39.36 71.94 C 40.04 67.03 38.97 62.46 37.27 57.88 C 36.17 55.16 41.14 56.91 38.85 54.41 C 40.20 53.59 41.56 52.79 42.96 52.04 C 48.28 50.70 45.95 41.76 43.18 38.81 C 43.70 36.05 48.61 37.74 50.21 36.16 C 52.10 34.31 53.91 32.47 56.01 30.84 C 53.45 26.79 52.90 25.23 54.38 20.48 C 61.14 19.84 62.30 11.95 63.67 6.64 C 66.51 5.22 70.86 5.58 69.96 9.88 Z" fill="#efd68c" />
<path d="M 181.04 6.97 C 180.12 9.05 179.00 11.03 178.12 13.12 C 175.95 16.49 179.23 20.78 180.88 23.76 C 177.04 25.67 173.68 27.66 171.47 31.49 C 167.11 32.33 166.46 31.82 164.18 35.85 C 162.46 32.70 164.06 32.73 164.95 29.94 C 163.68 24.89 164.57 20.36 165.39 15.33 C 168.97 9.73 176.29 12.31 181.04 6.97 Z" fill="#555247" />
<path d="M 1.06 7.81 C 4.59 8.46 10.05 10.34 6.96 14.86 C 4.82 19.85 4.74 17.00 1.02 16.69 C 0.98 13.73 1.01 10.77 1.06 7.81 Z" fill="#d0ad4e" />
<path d="M 199.93 7.85 C 199.98 23.55 200.17 39.30 199.85 54.99 C 198.62 54.57 199.06 49.10 197.97 52.09 C 195.17 55.88 200.30 58.05 200.00 61.97 C 200.01 85.38 200.00 109.43 199.99 132.86 C 196.97 132.86 194.96 134.09 192.44 135.50 C 191.22 132.50 188.74 130.50 187.30 127.69 C 185.60 122.61 191.21 118.47 189.52 113.62 C 188.39 110.51 188.28 102.74 183.46 103.97 C 183.58 105.26 183.77 106.54 183.90 107.82 C 182.59 106.59 181.35 105.32 180.00 104.13 C 179.74 106.80 180.57 108.67 181.60 111.02 C 180.68 113.97 180.08 117.05 179.01 119.94 C 178.51 113.15 180.09 105.33 178.09 98.88 L 177.81 98.07 C 177.94 96.78 178.11 95.49 178.31 94.22 C 180.30 87.98 184.08 90.67 187.00 86.01 C 191.77 79.24 182.74 71.41 189.17 64.65 C 189.73 59.28 193.37 55.47 193.21 50.03 C 194.08 44.08 196.97 38.37 193.35 32.59 C 189.51 27.35 198.42 25.51 197.04 19.01 C 197.76 16.05 194.83 6.83 199.93 7.85 Z" fill="#eac198" />
<path d="M 122.97 8.81 L 122.77 9.71 C 119.19 13.96 113.40 20.41 115.57 26.37 C 116.02 28.45 116.25 30.19 115.26 32.16 C 111.95 33.64 109.02 36.07 107.74 39.47 C 109.33 41.69 106.23 40.67 105.82 42.89 C 104.38 45.22 104.53 49.69 101.97 50.92 C 103.61 43.24 105.81 37.84 110.28 31.38 C 113.42 23.97 114.44 12.68 122.97 8.81 Z" fill="#766237" />
<path d="M 122.77 9.71 L 124.76 9.83 C 123.85 11.80 122.00 12.64 123.33 14.88 C 120.40 17.01 119.39 20.25 116.42 22.38 C 116.85 27.48 117.82 32.06 116.13 37.12 C 112.98 45.65 115.83 53.76 110.48 61.54 C 106.26 66.53 106.48 73.80 109.90 79.17 C 112.04 81.70 109.05 85.18 106.33 82.73 C 105.67 79.19 106.85 76.46 103.25 74.32 C 101.51 76.28 96.89 79.04 97.64 81.98 C 96.44 82.00 95.23 82.06 94.03 82.16 C 92.77 82.08 93.14 84.67 92.74 85.55 C 91.20 84.93 89.69 84.25 88.12 83.72 C 84.27 82.54 89.21 88.68 83.71 88.97 C 83.76 84.93 79.36 84.21 82.14 80.17 C 83.94 77.55 81.96 77.10 80.39 75.29 C 77.13 82.70 74.49 89.76 75.98 98.01 C 78.14 104.28 78.03 110.66 80.29 116.73 C 79.99 120.85 79.93 124.99 79.90 129.12 C 75.91 125.04 75.09 119.71 72.01 114.71 C 73.28 109.21 72.89 103.58 73.86 98.01 C 71.31 85.43 79.36 72.31 86.81 62.85 C 91.46 61.02 94.42 57.31 98.95 55.44 C 101.14 56.62 103.29 61.33 105.66 57.66 C 109.45 49.15 110.73 40.47 115.26 32.16 C 116.25 30.19 116.02 28.45 115.57 26.37 C 113.40 20.41 119.19 13.96 122.77 9.71 Z" fill="#39210e" />
<path d="M 22.32 16.31 C 26.54 14.44 30.12 18.47 28.40 22.37 C 27.26 25.22 22.82 27.66 20.74 24.25 C 18.26 21.39 18.55 17.71 22.32 16.31 Z" fill="#d4b557" />
<path d="M 43.33 24.33 C 46.35 23.45 49.87 23.64 50.98 27.10 C 51.22 30.80 47.34 36.13 43.49 32.61 C 38.66 30.43 39.27 26.95 43.33 24.33 Z" fill="#dac061" />
<path d="M 183.17 28.99 C 184.55 29.91 185.14 31.59 185.99 33.01 C 187.94 40.92 186.72 52.54 180.30 58.19 C 178.02 59.02 176.64 59.36 175.67 61.79 C 171.33 62.63 168.81 66.16 164.24 66.54 C 161.40 63.88 159.69 59.34 155.80 58.46 C 150.70 59.11 148.14 61.98 146.61 66.72 C 142.12 67.01 137.36 65.41 133.33 63.56 C 132.03 61.40 135.11 58.46 134.33 56.58 C 131.39 52.62 134.90 47.56 130.56 44.48 C 128.13 42.63 127.70 42.32 128.12 39.09 C 130.71 39.09 133.14 39.88 135.72 39.90 C 135.96 38.02 136.02 36.12 136.28 34.25 C 139.74 33.95 142.60 34.30 145.59 32.17 C 145.80 34.29 145.35 37.47 146.96 39.05 C 150.11 41.88 148.57 46.22 151.86 49.14 C 154.94 52.84 164.48 53.69 166.33 48.18 C 171.69 41.23 176.01 34.43 183.17 28.99 Z" fill="#130804" />
<path d="M 10.74 32.15 C 13.06 32.55 15.32 33.23 17.66 33.60 C 23.37 33.80 21.03 43.17 17.06 44.21 C 12.53 43.04 10.80 42.24 8.77 37.87 C 9.54 35.99 10.16 34.08 10.74 32.15 Z" fill="#d6aa47" />
<path d="M 115.26 32.16 C 110.73 40.47 109.45 49.15 105.66 57.66 C 103.29 61.33 101.14 56.62 98.95 55.44 C 94.42 57.31 91.46 61.02 86.81 62.85 C 79.36 72.31 71.31 85.43 73.86 98.01 C 72.89 103.58 73.28 109.21 72.01 114.71 L 71.14 115.03 C 70.68 112.63 69.75 110.41 68.87 108.13 C 68.59 88.92 75.38 73.11 88.09 59.02 C 88.77 58.41 89.44 57.79 90.10 57.16 C 91.43 56.50 92.75 55.83 94.06 55.13 C 96.73 53.80 99.41 52.46 101.97 50.92 C 104.53 49.69 104.38 45.22 105.82 42.89 C 106.23 40.67 109.33 41.69 107.74 39.47 C 109.02 36.07 111.95 33.64 115.26 32.16 Z" fill="#694024" />
<path d="M 186.31 31.87 C 190.35 41.18 187.49 51.82 182.04 59.94 C 175.41 65.61 170.24 73.65 168.48 82.24 C 168.58 86.52 173.26 86.13 175.76 88.29 C 176.28 93.21 176.10 98.31 175.70 103.24 C 174.06 99.71 176.95 91.31 170.90 92.15 C 165.58 90.27 165.16 86.20 165.13 81.14 C 167.20 74.02 171.33 68.44 176.04 62.88 C 178.11 61.59 179.16 60.33 180.30 58.19 C 186.72 52.54 187.94 40.92 185.99 33.01 L 186.31 31.87 Z" fill="#493723" />
<path d="M 1.13 35.75 C 4.07 38.00 5.08 41.56 8.77 37.87 C 10.80 42.24 12.53 43.04 17.06 44.21 C 16.10 44.84 13.04 44.89 13.13 46.19 C 15.06 53.54 18.88 57.72 26.84 58.31 C 34.03 59.39 35.95 60.63 36.38 68.21 C 35.49 70.70 33.07 72.66 31.56 74.85 C 30.33 74.48 29.09 74.17 27.84 73.87 C 23.91 71.87 19.70 70.99 19.04 65.93 C 17.51 61.39 13.40 62.64 9.91 63.89 C 12.52 60.52 15.03 55.18 11.30 51.69 C 8.77 49.84 5.38 47.54 2.29 49.40 C 1.85 48.94 1.43 48.46 1.03 47.97 C 0.94 43.89 1.00 39.82 1.13 35.75 Z" fill="#e1ae70" />
<path d="M 36.35 42.31 C 39.87 40.64 42.58 44.70 41.63 47.61 C 39.47 52.61 36.40 51.06 32.27 49.68 C 31.53 45.17 31.43 43.33 36.35 42.31 Z" fill="#d8b453" />
<path d="M 1.03 47.97 C 1.43 48.46 1.85 48.94 2.29 49.40 C 5.38 47.54 8.77 49.84 11.30 51.69 C 15.03 55.18 12.52 60.52 9.91 63.89 C 7.34 64.41 4.81 64.26 2.21 64.28 C -0.14 72.29 7.96 75.64 1.14 82.23 C 0.88 74.47 1.02 66.69 1.04 58.92 C 5.18 62.02 8.08 63.21 10.96 57.90 C 12.26 51.56 5.28 51.28 1.05 53.00 C 1.04 51.32 1.04 49.65 1.03 47.97 Z" fill="#cd8f62" />
<path d="M 59.34 48.32 C 64.62 45.74 66.75 54.13 65.78 57.72 C 62.76 59.78 60.23 62.44 57.11 58.92 C 52.39 57.06 55.13 48.50 59.34 48.32 Z" fill="#e0bf71" />
<path d="M 10.96 57.90 C 8.08 63.21 5.18 62.02 1.04 58.92 C 1.01 56.95 1.01 54.97 1.05 53.00 C 5.28 51.28 12.26 51.56 10.96 57.90 Z" fill="#b87643" />
<path d="M 94.94 52.80 C 94.65 53.58 94.35 54.35 94.06 55.13 C 92.75 55.83 91.43 56.50 90.10 57.16 C 91.45 54.90 92.42 53.77 94.94 52.80 Z" fill="#d2b26c" />
<path d="M 38.85 54.41 C 41.14 56.91 36.17 55.16 37.27 57.88 C 38.97 62.46 40.04 67.03 39.36 71.94 C 43.54 70.99 46.33 66.00 51.98 65.96 C 58.02 68.12 59.81 71.77 59.30 78.19 C 56.97 80.68 55.46 83.40 51.64 83.30 C 46.28 77.94 41.83 80.33 35.82 78.01 C 34.08 77.15 32.42 76.80 31.56 74.85 C 33.07 72.66 35.49 70.70 36.38 68.21 C 40.01 61.78 30.90 55.97 38.85 54.41 Z" fill="#eec185" />
<path d="M 72.11 58.02 C 77.40 58.06 71.25 63.54 76.48 64.40 C 75.20 67.43 73.98 70.41 73.13 73.60 C 70.66 76.26 67.53 75.97 69.88 80.42 C 69.08 84.73 68.99 91.54 65.68 94.69 C 61.99 96.23 59.01 96.23 56.42 99.72 C 54.29 94.50 52.53 88.86 51.64 83.30 C 55.46 83.40 56.97 80.68 59.30 78.19 C 60.78 74.25 59.46 69.44 60.25 65.28 C 66.30 64.30 67.50 60.83 72.11 58.02 Z" fill="#f7d2a5" />
<path d="M 180.30 58.19 C 179.16 60.33 178.11 61.59 176.04 62.88 L 175.67 61.79 C 176.64 59.36 178.02 59.02 180.30 58.19 Z" fill="#271b14" />
<path d="M 88.09 59.02 C 75.38 73.11 68.59 88.92 68.87 108.13 C 68.31 106.77 67.81 105.31 67.05 104.04 C 64.15 103.09 65.60 102.52 66.08 100.12 C 69.61 92.26 70.24 83.77 74.11 76.06 C 79.19 70.80 80.59 60.43 88.09 59.02 Z" fill="#b88159" />
<path d="M 182.04 59.94 C 180.94 64.50 178.09 67.68 175.52 71.43 C 174.10 75.71 173.48 80.00 175.57 84.17 C 177.87 88.73 176.14 93.55 177.81 98.07 L 178.09 98.88 C 177.64 104.51 178.81 110.69 177.26 116.11 C 177.10 113.32 177.28 110.98 175.37 108.74 C 175.21 106.93 175.62 105.06 175.70 103.24 C 176.10 98.31 176.28 93.21 175.76 88.29 C 173.26 86.13 168.58 86.52 168.48 82.24 C 170.24 73.65 175.41 65.61 182.04 59.94 Z" fill="#67533a" />
<path d="M 25.27 61.23 C 28.35 60.66 30.74 60.50 32.62 63.38 C 35.94 66.33 32.83 70.54 29.00 70.08 C 24.44 70.82 21.47 64.00 25.27 61.23 Z" fill="#ce904d" />
<path d="M 19.04 65.93 C 19.70 70.99 23.91 71.87 27.84 73.87 C 27.87 78.78 29.05 83.14 27.28 88.11 C 27.42 83.94 25.68 75.90 20.00 76.91 C 16.13 76.03 13.18 81.54 10.98 84.08 C 11.60 87.52 14.96 90.64 18.13 91.93 C 21.32 92.81 24.51 89.42 27.28 88.11 C 24.38 96.25 15.05 93.28 10.15 88.87 C 6.91 86.67 7.32 89.01 6.73 91.53 C 5.64 92.46 6.35 88.22 5.09 88.05 C 5.30 90.16 3.70 95.69 7.20 95.29 C 11.71 95.18 16.01 96.46 18.65 100.34 C 23.36 106.05 13.23 114.06 23.04 115.92 C 26.27 114.95 25.76 110.88 27.35 108.35 C 32.48 105.15 42.36 106.86 43.00 114.00 C 44.49 120.67 37.72 124.07 32.23 125.17 C 34.27 127.22 35.23 129.79 36.92 132.01 C 38.77 131.59 37.11 127.55 39.63 128.22 C 39.66 133.06 43.38 136.52 48.23 135.73 C 50.63 136.41 51.87 138.41 54.82 138.07 C 53.79 140.92 52.31 139.66 50.19 139.02 C 44.92 138.64 41.54 141.99 39.39 146.51 C 37.83 147.63 34.06 145.95 32.19 145.67 C 33.20 142.15 34.52 138.94 34.46 135.18 C 32.48 131.02 29.80 127.43 24.92 126.72 C 21.29 128.02 17.72 128.35 14.36 130.45 C 9.86 127.42 11.16 121.68 6.56 119.38 C 4.81 117.43 2.84 115.84 1.01 113.98 C 1.07 103.40 0.83 92.80 1.14 82.23 C 7.96 75.64 -0.14 72.29 2.21 64.28 C 4.81 64.26 7.34 64.41 9.91 63.89 C 13.40 62.64 17.51 61.39 19.04 65.93 Z" fill="#e49e84" />
<path d="M 98.18 65.32 C 95.75 66.04 93.46 67.06 91.02 67.77 C 91.26 65.02 89.97 62.94 93.62 62.55 C 95.44 61.67 104.84 64.90 98.18 65.32 Z" fill="#6a4e23" />
<path d="M 176.04 62.88 C 171.33 68.44 167.20 74.02 165.13 81.14 C 165.16 86.20 165.58 90.27 170.90 92.15 C 176.95 91.31 174.06 99.71 175.70 103.24 C 175.62 105.06 175.21 106.93 175.37 108.74 C 175.40 110.79 176.29 113.27 175.39 115.15 C 174.69 112.23 174.37 110.07 171.74 108.27 C 170.15 102.05 162.88 102.91 164.45 95.94 C 159.49 96.50 158.51 103.74 152.84 104.94 C 148.70 107.39 150.86 101.92 151.63 100.15 C 148.50 98.58 145.87 98.19 146.18 102.68 C 147.75 109.99 137.27 109.82 135.77 104.29 C 136.92 99.78 131.72 100.43 128.77 99.49 C 123.67 99.38 121.01 95.48 117.88 91.97 C 123.40 86.03 129.65 93.45 135.07 95.88 C 138.76 94.71 143.18 88.34 136.68 87.32 C 134.69 83.66 131.17 83.94 128.30 81.70 C 127.76 76.78 128.71 75.36 124.21 72.48 C 130.02 69.81 133.75 67.93 137.01 75.07 C 140.20 70.36 148.34 71.01 152.21 74.53 C 156.17 73.58 159.60 71.86 163.80 71.71 C 167.75 68.75 171.25 65.01 176.04 62.88 Z" fill="#2b2316" />
<path d="M 48.48 70.51 C 51.51 69.43 56.85 69.06 56.07 74.00 C 56.77 77.72 52.09 80.24 49.34 77.68 C 47.56 75.57 44.68 72.22 48.48 70.51 Z" fill="#ddac68" />
<path d="M 27.84 73.87 C 29.09 74.17 30.33 74.48 31.56 74.85 C 32.42 76.80 34.08 77.15 35.82 78.01 C 33.78 85.15 45.38 82.99 48.14 86.87 C 51.88 91.01 52.77 97.51 48.68 101.72 C 45.86 103.07 43.30 102.05 41.06 104.89 C 43.22 108.73 45.74 111.95 44.59 116.65 C 43.77 121.03 45.16 124.34 48.84 126.83 C 48.17 122.93 51.04 112.46 56.61 116.07 C 61.13 113.34 61.24 120.45 61.22 123.15 C 60.91 124.17 60.60 125.20 60.30 126.23 C 60.12 123.63 60.06 121.04 59.94 118.44 C 57.01 120.57 53.84 119.06 53.09 123.11 C 51.97 127.64 55.27 128.45 56.78 131.96 C 56.33 134.05 55.61 136.08 54.82 138.07 C 51.87 138.41 50.63 136.41 48.23 135.73 C 43.38 136.52 39.66 133.06 39.63 128.22 C 37.11 127.55 38.77 131.59 36.92 132.01 C 35.23 129.79 34.27 127.22 32.23 125.17 C 37.72 124.07 44.49 120.67 43.00 114.00 C 42.36 106.86 32.48 105.15 27.35 108.35 C 25.76 110.88 26.27 114.95 23.04 115.92 C 13.23 114.06 23.36 106.05 18.65 100.34 C 16.01 96.46 11.71 95.18 7.20 95.29 C 3.70 95.69 5.30 90.16 5.09 88.05 C 6.35 88.22 5.64 92.46 6.73 91.53 C 7.32 89.01 6.91 86.67 10.15 88.87 C 15.05 93.28 24.38 96.25 27.28 88.11 C 29.05 83.14 27.87 78.78 27.84 73.87 Z" fill="#efa891" />
<path d="M 80.39 75.29 C 81.96 77.10 83.94 77.55 82.14 80.17 C 79.36 84.21 83.76 84.93 83.71 88.97 C 89.21 88.68 84.27 82.54 88.12 83.72 C 87.61 88.76 95.89 88.63 98.25 86.14 C 100.78 84.43 100.77 80.21 103.55 79.27 C 104.85 83.78 109.91 90.07 113.62 91.96 C 111.10 94.94 110.88 101.80 115.89 101.96 C 120.81 97.07 130.28 102.33 135.77 104.29 C 137.27 109.82 147.75 109.99 146.18 102.68 C 148.25 104.01 149.45 107.58 151.94 107.77 C 155.02 106.80 156.65 105.06 159.76 107.30 C 159.32 111.69 158.55 115.78 159.28 120.24 C 158.03 122.27 156.65 122.79 154.52 123.61 C 152.87 126.17 152.49 129.48 151.16 132.13 C 144.96 135.66 141.25 139.57 133.82 140.86 C 128.29 143.30 122.27 147.14 116.03 145.00 C 110.78 140.50 104.07 141.22 98.48 136.65 C 94.20 135.67 96.01 128.96 99.90 130.01 C 103.19 130.57 103.64 137.56 106.70 132.69 C 106.84 130.05 103.41 127.37 103.33 123.87 C 100.79 120.92 97.22 120.05 93.76 122.07 C 87.52 123.55 90.52 131.09 84.07 127.99 C 81.76 125.12 84.38 120.12 80.29 116.73 C 78.03 110.66 78.14 104.28 75.98 98.01 C 74.49 89.76 77.13 82.70 80.39 75.29 Z" fill="#110502" />
<path d="M 93.28 75.24 C 96.68 74.35 100.21 75.15 96.67 78.68 C 93.56 81.91 90.49 77.26 93.28 75.24 Z" fill="#6f3632" />
<path d="M 74.11 76.06 C 70.24 83.77 69.61 92.26 66.08 100.12 C 65.60 102.52 64.15 103.09 67.05 104.04 C 65.98 107.67 68.55 111.89 64.53 113.85 C 64.62 116.69 64.23 118.38 62.97 120.96 C 62.38 121.69 61.80 122.42 61.22 123.15 C 61.24 120.45 61.13 113.34 56.61 116.07 C 51.04 112.46 48.17 122.93 48.84 126.83 C 45.16 124.34 43.77 121.03 44.59 116.65 C 45.74 111.95 43.22 108.73 41.06 104.89 C 43.30 102.05 45.86 103.07 48.68 101.72 C 52.77 97.51 51.88 91.01 48.14 86.87 C 45.38 82.99 33.78 85.15 35.82 78.01 C 41.83 80.33 46.28 77.94 51.64 83.30 C 52.53 88.86 54.29 94.50 56.42 99.72 C 59.01 96.23 61.99 96.23 65.68 94.69 C 68.99 91.54 69.08 84.73 69.88 80.42 C 71.22 78.90 72.60 77.42 74.11 76.06 Z" fill="#f3b79d" />
<path d="M 20.00 76.91 C 25.68 75.90 27.42 83.94 27.28 88.11 C 24.51 89.42 21.32 92.81 18.13 91.93 C 14.96 90.64 11.60 87.52 10.98 84.08 C 13.18 81.54 16.13 76.03 20.00 76.91 Z" fill="#e48c6e" />
<path d="M 17.33 81.31 C 23.12 78.58 27.51 87.70 20.88 88.92 C 16.33 91.07 12.20 82.29 17.33 81.31 Z" fill="#ce6f4d" />
<path d="M 94.03 82.16 C 94.05 87.02 93.88 86.03 98.12 85.24 L 98.25 86.14 C 95.89 88.63 87.61 88.76 88.12 83.72 C 89.69 84.25 91.20 84.93 92.74 85.55 C 93.14 84.67 92.77 82.08 94.03 82.16 Z" fill="#454644" />
<path d="M 94.03 82.16 C 95.23 82.06 96.44 82.00 97.64 81.98 C 97.81 83.07 97.97 84.15 98.12 85.24 C 93.88 86.03 94.05 87.02 94.03 82.16 Z" fill="#8d8985" />
<path d="M 40.35 88.32 C 45.62 86.84 49.57 92.15 48.20 97.12 C 47.90 101.21 42.45 100.38 39.95 99.04 C 35.30 96.89 36.17 90.53 40.35 88.32 Z" fill="#e38b67" />
<path d="M 145.27 92.22 C 149.32 91.04 152.76 93.02 150.26 97.28 C 147.00 98.06 140.04 96.87 145.27 92.22 Z" fill="#444235" />
<path d="M 164.45 95.94 C 162.88 102.91 170.15 102.05 171.74 108.27 C 174.37 110.07 174.69 112.23 175.39 115.15 C 173.79 118.55 171.83 121.30 168.08 122.47 C 163.58 119.95 169.94 115.69 170.60 111.99 C 165.38 113.06 167.90 113.05 165.02 109.81 C 162.26 112.79 162.15 117.17 159.28 120.24 C 158.55 115.78 159.32 111.69 159.76 107.30 C 156.65 105.06 155.02 106.80 151.94 107.77 C 149.45 107.58 148.25 104.01 146.18 102.68 C 145.87 98.19 148.50 98.58 151.63 100.15 C 150.86 101.92 148.70 107.39 152.84 104.94 C 158.51 103.74 159.49 96.50 164.45 95.94 Z" fill="#1e1004" />
<path d="M 6.30 98.31 C 13.46 95.58 20.73 103.12 16.65 109.65 C 15.25 113.47 7.53 115.94 5.37 111.61 C 1.97 107.36 0.24 101.15 6.30 98.31 Z" fill="#dc8369" />
<path d="M 178.09 98.88 C 180.09 105.33 178.51 113.15 179.01 119.94 C 175.94 128.35 171.89 135.93 167.77 143.81 C 167.18 144.86 166.61 145.91 166.05 146.97 C 164.01 149.37 161.90 151.72 159.89 154.15 C 158.69 150.61 162.27 146.79 163.70 143.68 C 169.14 136.21 176.68 126.46 177.02 116.91 L 177.26 116.11 C 178.81 110.69 177.64 104.51 178.09 98.88 Z" fill="#ab8e71" />
<path d="M 140.34 100.30 C 145.01 98.06 145.52 107.78 141.08 106.99 C 138.63 106.19 136.13 100.88 140.34 100.30 Z" fill="#5a5449" />
<path d="M 6.47 102.47 C 9.30 101.00 12.40 102.39 14.58 104.43 C 16.24 107.66 13.82 111.63 10.03 111.04 C 5.63 110.78 1.38 105.44 6.47 102.47 Z" fill="#c46245" />
<path d="M 67.05 104.04 C 67.81 105.31 68.31 106.77 68.87 108.13 C 69.75 110.41 70.68 112.63 71.14 115.03 C 70.06 121.15 73.83 124.53 76.29 129.69 C 78.42 133.85 81.37 137.10 84.77 140.24 C 88.32 143.10 86.58 148.50 85.20 152.05 C 84.62 154.14 84.01 156.21 83.17 158.21 C 82.07 156.51 85.60 149.70 82.01 151.67 C 82.52 146.54 81.21 142.31 77.33 138.84 C 76.07 137.62 74.64 136.62 72.99 135.99 C 70.91 136.95 70.93 141.19 70.77 143.13 C 69.94 137.01 68.67 139.61 65.90 136.20 C 71.99 139.16 69.63 130.02 69.82 127.00 C 68.35 129.69 68.19 132.37 64.91 133.47 C 63.39 132.77 61.97 133.39 62.10 131.22 C 64.02 130.36 64.77 130.32 64.90 127.98 C 65.01 124.23 67.68 121.91 66.89 118.08 C 64.47 117.80 64.28 122.51 63.16 124.15 C 63.10 123.09 63.03 122.03 62.97 120.96 C 64.23 118.38 64.62 116.69 64.53 113.85 C 68.55 111.89 65.98 107.67 67.05 104.04 Z" fill="#c3afab" />
<path d="M 180.00 104.13 C 181.35 105.32 182.59 106.59 183.90 107.82 C 183.77 106.54 183.58 105.26 183.46 103.97 C 188.28 102.74 188.39 110.51 189.52 113.62 C 191.21 118.47 185.60 122.61 187.30 127.69 C 188.74 130.50 191.22 132.50 192.44 135.50 C 194.96 134.09 196.97 132.86 199.99 132.86 C 200.16 135.87 199.77 137.71 198.34 140.33 C 195.51 144.88 198.65 151.67 194.70 155.75 C 191.30 155.78 187.58 154.76 184.39 153.61 C 181.63 147.96 183.74 139.64 185.99 134.08 C 184.06 131.70 179.26 130.57 176.34 129.43 C 175.18 133.58 171.35 137.81 174.68 141.78 C 171.52 140.77 170.27 142.21 167.77 143.81 C 171.89 135.93 175.94 128.35 179.01 119.94 C 180.08 117.05 180.68 113.97 181.60 111.02 C 180.57 108.67 179.74 106.80 180.00 104.13 Z" fill="#efcea9" />
<path d="M 33.31 109.31 C 37.64 109.32 41.61 114.07 39.67 118.64 C 36.12 120.94 32.57 122.35 29.32 118.67 C 26.29 114.97 29.63 110.70 33.31 109.31 Z" fill="#d0795a" />
<path d="M 175.37 108.74 C 177.28 110.98 177.10 113.32 177.26 116.11 L 177.02 116.91 C 172.17 129.44 160.95 139.23 157.21 152.18 C 157.01 154.73 154.34 152.66 152.77 152.71 C 153.54 148.22 158.32 148.49 158.01 143.00 C 157.64 135.37 166.99 132.03 163.57 125.54 C 161.72 121.53 165.87 122.95 168.08 122.47 C 171.83 121.30 173.79 118.55 175.39 115.15 C 176.29 113.27 175.40 110.79 175.37 108.74 Z" fill="#4a361d" />
<path d="M 165.02 109.81 C 167.90 113.05 165.38 113.06 170.60 111.99 C 169.94 115.69 163.58 119.95 168.08 122.47 C 165.87 122.95 161.72 121.53 163.57 125.54 C 166.99 132.03 157.64 135.37 158.01 143.00 C 158.32 148.49 153.54 148.22 152.77 152.71 L 152.19 154.14 C 150.64 154.11 149.09 154.07 147.55 153.95 C 148.31 152.35 148.13 151.84 147.44 150.25 C 144.01 152.07 141.27 150.92 137.64 150.51 C 127.31 154.00 114.14 150.05 105.09 145.30 C 101.26 144.29 99.08 143.27 95.13 145.13 C 90.56 141.60 86.34 137.76 81.94 134.04 C 81.42 132.31 80.78 130.70 79.90 129.12 C 79.93 124.99 79.99 120.85 80.29 116.73 C 84.38 120.12 81.76 125.12 84.07 127.99 C 90.52 131.09 87.52 123.55 93.76 122.07 C 94.20 126.69 104.22 132.16 103.33 123.87 C 103.41 127.37 106.84 130.05 106.70 132.69 C 103.64 137.56 103.19 130.57 99.90 130.01 C 96.01 128.96 94.20 135.67 98.48 136.65 C 104.07 141.22 110.78 140.50 116.03 145.00 C 122.27 147.14 128.29 143.30 133.82 140.86 C 129.13 147.26 136.21 144.94 139.88 145.06 C 140.97 145.06 142.06 145.04 143.15 145.01 C 146.37 145.14 146.95 141.09 144.87 139.40 C 141.15 139.96 137.65 141.08 133.82 140.86 C 141.25 139.57 144.96 135.66 151.16 132.13 C 152.49 129.48 152.87 126.17 154.52 123.61 C 156.65 122.79 158.03 122.27 159.28 120.24 C 162.15 117.17 162.26 112.79 165.02 109.81 Z" fill="#292014" />
<path d="M 1.01 113.98 C 2.84 115.84 4.81 117.43 6.56 119.38 C 11.16 121.68 9.86 127.42 14.36 130.45 C 17.72 128.35 21.29 128.02 24.92 126.72 C 29.80 127.43 32.48 131.02 34.46 135.18 C 34.52 138.94 33.20 142.15 32.19 145.67 C 34.06 145.95 37.83 147.63 39.39 146.51 C 41.54 141.99 44.92 138.64 50.19 139.02 C 52.31 139.66 53.79 140.92 54.82 138.07 C 55.61 136.08 56.33 134.05 56.78 131.96 C 55.27 128.45 51.97 127.64 53.09 123.11 C 53.84 119.06 57.01 120.57 59.94 118.44 C 60.06 121.04 60.12 123.63 60.30 126.23 C 58.02 134.89 55.44 143.49 53.17 152.17 L 52.97 149.93 C 53.30 147.89 53.99 145.71 53.84 143.65 C 50.96 142.71 48.43 141.48 45.75 143.73 C 42.70 145.70 44.24 149.66 45.96 151.97 C 50.64 156.13 50.79 159.98 45.98 164.01 C 41.87 161.70 37.45 160.47 32.75 160.27 C 31.97 164.91 28.60 167.93 28.72 172.90 C 26.41 165.63 24.99 173.46 22.04 168.94 C 24.28 164.36 25.82 156.36 21.39 152.63 C 18.42 148.84 13.69 148.14 10.84 144.01 C 8.18 143.46 8.35 148.27 7.56 149.93 C 5.90 148.20 6.53 136.71 4.56 143.78 C 3.56 141.62 2.53 139.40 1.98 137.08 C 5.02 133.21 10.51 132.17 7.10 126.07 C 5.46 123.20 3.79 121.68 1.02 120.03 C 1.00 118.01 1.01 115.99 1.01 113.98 Z" fill="#c6937d" />
<path d="M 71.14 115.03 L 72.01 114.71 C 72.86 121.82 76.96 128.98 81.94 134.04 C 84.21 139.26 89.94 143.27 94.69 146.13 L 95.93 147.01 C 106.76 156.89 126.74 159.22 140.92 157.96 C 143.24 157.97 145.56 158.00 147.87 158.09 C 144.88 161.37 141.83 162.16 138.09 164.17 C 135.86 165.01 133.61 164.95 131.29 165.33 C 128.99 168.02 127.62 171.74 126.20 174.96 C 134.71 176.72 130.63 167.18 138.33 166.39 C 143.96 164.78 133.71 174.71 139.00 173.00 C 142.63 173.49 142.47 171.34 143.91 168.82 C 145.35 168.61 146.79 168.41 148.23 168.22 C 145.79 175.08 142.34 181.61 138.76 187.94 C 136.39 191.95 136.11 196.84 133.91 201.00 L 129.83 201.00 C 131.20 199.20 137.62 190.73 131.81 191.57 C 130.25 186.93 126.52 183.71 125.17 178.86 C 124.35 174.02 118.30 177.09 114.84 175.35 C 119.84 174.73 126.68 172.91 124.75 166.30 C 119.05 162.77 112.13 161.49 107.02 167.06 C 107.19 162.85 105.88 163.90 102.80 164.80 C 101.35 164.22 95.29 161.00 98.13 159.21 C 100.61 160.20 102.29 161.96 104.96 161.97 C 103.86 158.56 92.26 153.61 92.86 159.75 L 92.10 160.01 C 90.10 156.50 91.92 156.55 93.90 153.99 C 89.75 154.50 89.76 157.69 87.09 160.11 C 87.86 156.92 90.46 153.07 87.88 150.10 C 86.94 150.68 86.06 151.35 85.20 152.05 C 86.58 148.50 88.32 143.10 84.77 140.24 C 81.37 137.10 78.42 133.85 76.29 129.69 C 73.83 124.53 70.06 121.15 71.14 115.03 Z" fill="#a39b8e" />
<path d="M 72.01 114.71 C 75.09 119.71 75.91 125.04 79.90 129.12 C 80.78 130.70 81.42 132.31 81.94 134.04 C 76.96 128.98 72.86 121.82 72.01 114.71 Z" fill="#624a41" />
<path d="M 177.02 116.91 C 176.68 126.46 169.14 136.21 163.70 143.68 C 162.27 146.79 158.69 150.61 159.89 154.15 C 158.97 156.09 157.99 157.99 156.94 159.87 C 152.94 163.17 154.20 168.05 151.64 172.65 C 148.23 179.01 144.85 185.75 140.52 191.51 C 138.81 193.63 138.99 188.73 138.76 187.94 C 142.34 181.61 145.79 175.08 148.23 168.22 C 150.25 163.74 152.84 159.17 153.85 154.34 L 152.19 154.14 L 152.77 152.71 C 154.34 152.66 157.01 154.73 157.21 152.18 C 160.95 139.23 172.17 129.44 177.02 116.91 Z" fill="#706146" />
<path d="M 66.89 118.08 C 67.68 121.91 65.01 124.23 64.90 127.98 C 64.77 130.32 64.02 130.36 62.10 131.22 C 61.74 128.69 62.29 126.49 63.16 124.15 C 64.28 122.51 64.47 117.80 66.89 118.08 Z" fill="#826967" />
<path d="M 1.02 120.03 C 3.79 121.68 5.46 123.20 7.10 126.07 C 5.84 130.03 5.77 133.13 1.08 134.20 C 0.98 129.48 0.98 124.75 1.02 120.03 Z" fill="#a0644e" />
<path d="M 62.97 120.96 C 63.03 122.03 63.10 123.09 63.16 124.15 C 62.29 126.49 61.74 128.69 62.10 131.22 C 61.97 133.39 63.39 132.77 64.91 133.47 C 65.22 134.39 65.55 135.30 65.90 136.20 C 68.67 139.61 69.94 137.01 70.77 143.13 C 71.11 144.19 71.49 145.23 71.91 146.27 C 72.59 148.08 73.18 149.78 74.65 151.12 C 77.10 153.15 78.65 155.30 81.35 152.19 L 82.01 151.67 C 85.60 149.70 82.07 156.51 83.17 158.21 C 82.78 160.59 85.57 162.08 87.09 160.11 C 89.76 157.69 89.75 154.50 93.90 153.99 C 91.92 156.55 90.10 156.50 92.10 160.01 C 93.93 162.76 87.79 162.01 90.81 164.64 C 93.06 166.64 95.45 168.51 97.96 170.17 C 99.71 173.00 107.52 169.79 103.67 173.47 C 106.72 176.43 113.92 184.35 111.94 189.95 C 109.52 194.28 109.56 196.15 110.63 201.00 L 98.34 201.00 C 97.30 196.95 87.37 198.15 87.52 193.17 C 92.49 192.31 97.01 193.99 101.85 193.85 C 99.67 187.06 94.76 192.90 89.98 191.96 L 89.65 190.00 C 90.31 188.94 91.00 187.93 91.78 186.95 C 93.61 186.60 97.40 186.87 97.02 184.07 C 93.44 178.35 86.41 174.60 80.00 173.06 C 76.59 172.12 78.41 176.48 78.68 178.25 C 76.05 182.97 78.43 184.11 81.08 187.88 C 79.66 187.99 78.23 188.11 76.81 188.23 C 74.13 187.35 72.29 185.65 69.99 184.16 C 70.22 186.06 70.63 187.92 71.30 189.70 C 75.99 189.04 80.40 190.16 84.03 193.26 C 86.12 196.29 89.74 197.72 91.33 201.00 L 80.77 201.00 C 79.45 199.07 78.51 198.41 76.21 197.92 C 75.44 197.34 74.67 196.77 73.89 196.19 C 72.21 193.40 70.60 191.78 67.80 190.10 C 67.27 189.37 66.74 188.64 66.21 187.90 C 65.24 185.65 63.93 184.35 62.01 182.90 C 61.40 181.91 60.78 180.92 60.13 179.95 C 58.58 175.92 56.53 172.11 54.94 168.08 C 54.69 162.53 52.17 157.88 53.17 152.17 C 55.44 143.49 58.02 134.89 60.30 126.23 C 60.60 125.20 60.91 124.17 61.22 123.15 C 61.80 122.42 62.38 121.69 62.97 120.96 Z" fill="#e4d8cf" />
<path d="M 103.33 123.87 C 104.22 132.16 94.20 126.69 93.76 122.07 C 97.22 120.05 100.79 120.92 103.33 123.87 Z" fill="#5a595c" />
<path d="M 7.10 126.07 C 10.51 132.17 5.02 133.21 1.98 137.08 C 2.53 139.40 3.56 141.62 4.56 143.78 C 6.53 136.71 5.90 148.20 7.56 149.93 C 8.35 148.27 8.18 143.46 10.84 144.01 C 13.69 148.14 18.42 148.84 21.39 152.63 C 25.82 156.36 24.28 164.36 22.04 168.94 C 24.99 173.46 26.41 165.63 28.72 172.90 C 28.60 167.93 31.97 164.91 32.75 160.27 C 37.45 160.47 41.87 161.70 45.98 164.01 C 50.79 159.98 50.64 156.13 45.96 151.97 C 50.68 153.88 49.92 153.91 52.97 149.93 L 53.17 152.17 C 52.17 157.88 54.69 162.53 54.94 168.08 C 54.28 166.67 53.66 165.23 53.09 163.77 C 52.67 161.85 52.21 159.93 51.65 158.04 C 50.11 160.43 49.64 163.74 47.72 165.78 C 43.00 167.41 39.32 160.67 34.78 165.77 C 30.20 169.73 31.63 173.86 36.29 176.74 C 40.36 179.71 47.04 175.27 47.59 182.01 C 46.99 188.83 50.29 194.65 50.16 201.00 L 49.12 201.00 C 48.17 194.10 45.83 187.31 44.68 180.36 C 40.50 180.98 36.37 180.98 32.17 181.18 C 30.84 184.27 38.18 182.46 39.87 183.13 C 39.19 185.11 34.11 182.68 35.12 185.89 C 37.73 189.71 41.74 196.48 38.97 201.00 L 37.96 201.00 C 38.36 195.53 37.56 188.86 30.87 188.14 C 24.43 185.65 19.12 195.80 23.90 199.89 L 24.90 201.00 L 0.92 201.00 C 0.95 198.95 0.97 196.91 1.02 194.86 C 6.14 193.33 9.67 195.25 12.38 189.38 C 13.89 185.89 12.18 179.31 8.60 177.39 C 6.20 175.14 2.97 176.95 1.00 173.98 C 1.04 160.72 0.90 147.46 1.08 134.20 C 5.77 133.13 5.84 130.03 7.10 126.07 Z" fill="#b28877" />
<path d="M 69.82 127.00 C 69.63 130.02 71.99 139.16 65.90 136.20 C 65.55 135.30 65.22 134.39 64.91 133.47 C 68.19 132.37 68.35 129.69 69.82 127.00 Z" fill="#7b6863" />
<path d="M 20.30 130.26 C 23.52 129.49 27.40 130.08 30.26 131.75 C 32.73 134.61 32.73 140.38 30.26 143.24 C 26.90 145.54 22.38 144.96 19.20 142.78 C 15.49 138.67 16.62 133.89 20.30 130.26 Z" fill="#b87b5f" />
<path d="M 24.35 133.35 C 27.60 133.64 32.16 137.89 29.24 141.26 C 25.81 144.23 21.83 143.02 19.27 139.68 C 18.21 135.55 20.40 133.68 24.35 133.35 Z" fill="#9b5f42" />
<path d="M 81.94 134.04 C 86.34 137.76 90.56 141.60 95.13 145.13 L 94.69 146.13 C 89.94 143.27 84.21 139.26 81.94 134.04 Z" fill="#6b5d55" />
<path d="M 72.99 135.99 C 74.64 136.62 76.07 137.62 77.33 138.84 C 76.25 139.49 75.14 140.10 74.09 140.80 C 73.47 142.06 73.21 143.40 72.91 144.76 L 71.91 146.27 C 71.49 145.23 71.11 144.19 70.77 143.13 C 70.93 141.19 70.91 136.95 72.99 135.99 Z" fill="#6f5f5b" />
<path d="M 77.33 138.84 C 81.21 142.31 82.52 146.54 82.01 151.67 L 81.35 152.19 C 80.92 149.92 81.56 146.55 79.49 145.10 C 79.04 146.48 78.66 147.87 78.14 149.23 C 77.94 145.10 78.83 142.25 74.09 140.80 C 75.14 140.10 76.25 139.49 77.33 138.84 Z" fill="#948882" />
<path d="M 144.87 139.40 C 146.95 141.09 146.37 145.14 143.15 145.01 C 146.78 138.71 136.72 140.10 139.88 145.06 C 136.21 144.94 129.13 147.26 133.82 140.86 C 137.65 141.08 141.15 139.96 144.87 139.40 Z" fill="#5c5951" />
<path d="M 74.09 140.80 C 78.83 142.25 77.94 145.10 78.14 149.23 C 74.54 149.10 74.41 147.48 72.91 144.76 C 73.21 143.40 73.47 142.06 74.09 140.80 Z" fill="#d6c9c3" />
<path d="M 143.15 145.01 C 142.06 145.04 140.97 145.06 139.88 145.06 C 136.72 140.10 146.78 138.71 143.15 145.01 Z" fill="#aeaba5" />
<path d="M 53.84 143.65 C 53.99 145.71 53.30 147.89 52.97 149.93 C 49.92 153.91 50.68 153.88 45.96 151.97 C 44.24 149.66 42.70 145.70 45.75 143.73 C 48.43 141.48 50.96 142.71 53.84 143.65 Z" fill="#a46e56" />
<path d="M 105.09 145.30 C 114.14 150.05 127.31 154.00 137.64 150.51 C 141.27 150.92 144.01 152.07 147.44 150.25 C 148.13 151.84 148.31 152.35 147.55 153.95 C 149.09 154.07 150.64 154.11 152.19 154.14 C 148.57 155.47 144.91 156.41 141.11 157.07 C 123.92 158.06 111.10 154.58 95.93 147.01 L 94.69 146.13 L 95.13 145.13 C 99.08 143.27 101.26 144.29 105.09 145.30 Z" fill="#443f33" />
<path d="M 72.91 144.76 C 74.41 147.48 74.54 149.10 78.14 149.23 C 77.00 149.90 75.81 150.50 74.65 151.12 C 73.18 149.78 72.59 148.08 71.91 146.27 L 72.91 144.76 Z" fill="#a29690" />
<path d="M 79.49 145.10 C 81.56 146.55 80.92 149.92 81.35 152.19 C 78.65 155.30 77.10 153.15 74.65 151.12 C 75.81 150.50 77.00 149.90 78.14 149.23 C 78.66 147.87 79.04 146.48 79.49 145.10 Z" fill="#615750" />
<path d="M 95.93 147.01 C 111.10 154.58 123.92 158.06 141.11 157.07 L 140.92 157.96 C 126.74 159.22 106.76 156.89 95.93 147.01 Z" fill="#726c60" />
<path d="M 166.05 146.97 C 165.13 151.87 162.52 156.59 160.22 160.97 C 161.14 162.03 162.18 162.98 163.09 164.05 C 162.22 166.52 159.04 164.92 157.47 166.40 C 156.26 169.29 154.81 172.69 155.03 175.87 C 157.17 179.12 161.90 181.79 164.88 184.11 C 168.99 190.98 178.13 186.04 184.13 191.85 C 186.23 195.09 188.11 198.32 190.96 201.00 L 184.21 201.00 C 183.12 195.66 180.43 193.23 175.11 192.27 C 173.13 194.47 172.98 198.21 172.05 201.00 L 142.69 201.00 C 142.41 196.98 145.15 190.65 150.00 192.96 C 155.69 194.67 160.14 196.35 163.01 189.97 C 160.71 182.29 154.84 183.14 151.74 176.56 C 153.52 170.85 156.53 166.01 156.94 159.87 C 157.99 157.99 158.97 156.09 159.89 154.15 C 161.90 151.72 164.01 149.37 166.05 146.97 Z" fill="#d5c29d" />
<path d="M 87.88 150.10 C 90.46 153.07 87.86 156.92 87.09 160.11 C 85.57 162.08 82.78 160.59 83.17 158.21 C 84.01 156.21 84.62 154.14 85.20 152.05 C 86.06 151.35 86.94 150.68 87.88 150.10 Z" fill="#574e47" />
<path d="M 12.14 152.18 C 20.33 149.16 26.60 162.33 20.23 167.22 C 15.95 170.79 8.29 170.68 6.33 164.63 C 2.64 160.04 7.10 153.35 12.14 152.18 Z" fill="#a3745d" />
<path d="M 152.19 154.14 L 153.85 154.34 C 152.84 159.17 150.25 163.74 148.23 168.22 C 146.79 168.41 145.35 168.61 143.91 168.82 C 144.53 167.25 145.22 165.69 145.73 164.09 C 144.01 162.19 140.29 164.03 138.09 164.17 C 141.83 162.16 144.88 161.37 147.87 158.09 C 145.56 158.00 143.24 157.97 140.92 157.96 L 141.11 157.07 C 144.91 156.41 148.57 155.47 152.19 154.14 Z" fill="#938d78" />
<path d="M 10.33 156.32 C 14.99 155.24 21.61 156.80 20.95 162.89 C 19.78 168.81 10.98 167.94 8.29 163.70 C 7.96 161.27 6.87 156.78 10.33 156.32 Z" fill="#84543c" />
<path d="M 104.96 161.97 C 102.29 161.96 100.61 160.20 98.13 159.21 C 95.29 161.00 101.35 164.22 102.80 164.80 C 105.87 170.02 102.20 170.06 97.96 170.17 C 95.45 168.51 93.06 166.64 90.81 164.64 C 94.15 163.34 96.73 170.26 99.91 166.85 C 98.10 164.11 95.37 161.84 92.86 159.75 C 92.26 153.61 103.86 158.56 104.96 161.97 Z" fill="#635b53" />
<path d="M 51.65 158.04 C 52.21 159.93 52.67 161.85 53.09 163.77 C 50.03 162.06 49.60 167.18 47.74 168.75 C 44.31 174.13 37.54 163.40 35.30 170.34 C 34.74 178.17 40.68 175.21 45.69 176.33 C 51.32 177.86 47.72 187.20 49.62 191.38 C 50.68 194.57 51.91 197.59 52.09 201.00 L 50.16 201.00 C 50.29 194.65 46.99 188.83 47.59 182.01 C 47.04 175.27 40.36 179.71 36.29 176.74 C 31.63 173.86 30.20 169.73 34.78 165.77 C 39.32 160.67 43.00 167.41 47.72 165.78 C 49.64 163.74 50.11 160.43 51.65 158.04 Z" fill="#936e5a" />
<path d="M 92.10 160.01 L 92.86 159.75 C 95.37 161.84 98.10 164.11 99.91 166.85 C 96.73 170.26 94.15 163.34 90.81 164.64 C 87.79 162.01 93.93 162.76 92.10 160.01 Z" fill="#ada59c" />
<path d="M 156.94 159.87 C 156.53 166.01 153.52 170.85 151.74 176.56 C 147.69 186.37 158.66 181.72 156.77 189.69 C 154.23 194.00 148.34 186.33 145.73 188.74 C 142.79 192.11 141.07 196.84 139.53 201.00 L 133.91 201.00 C 136.11 196.84 136.39 191.95 138.76 187.94 C 138.99 188.73 138.81 193.63 140.52 191.51 C 144.85 185.75 148.23 179.01 151.64 172.65 C 154.20 168.05 152.94 163.17 156.94 159.87 Z" fill="#998b63" />
<path d="M 53.09 163.77 C 53.66 165.23 54.28 166.67 54.94 168.08 C 56.53 172.11 58.58 175.92 60.13 179.95 C 57.46 177.95 56.51 174.90 54.37 172.13 C 53.40 177.26 51.14 182.00 50.26 187.12 C 50.36 191.75 53.49 196.57 54.92 201.00 L 52.09 201.00 C 51.91 197.59 50.68 194.57 49.62 191.38 C 47.72 187.20 51.32 177.86 45.69 176.33 C 40.68 175.21 34.74 178.17 35.30 170.34 C 37.54 163.40 44.31 174.13 47.74 168.75 C 49.60 167.18 50.03 162.06 53.09 163.77 Z" fill="#6e523f" />
<path d="M 124.75 166.30 C 126.68 172.91 119.84 174.73 114.84 175.35 C 110.93 173.41 106.21 172.57 107.02 167.06 C 112.13 161.49 119.05 162.77 124.75 166.30 Z" fill="#554d43" />
<path d="M 145.73 164.09 C 145.22 165.69 144.53 167.25 143.91 168.82 C 142.47 171.34 142.63 173.49 139.00 173.00 C 133.71 174.71 143.96 164.78 138.33 166.39 C 130.63 167.18 134.71 176.72 126.20 174.96 C 127.62 171.74 128.99 168.02 131.29 165.33 C 133.61 164.95 135.86 165.01 138.09 164.17 C 140.29 164.03 144.01 162.19 145.73 164.09 Z" fill="#534d3b" />
<path d="M 107.02 167.06 C 106.21 172.57 110.93 173.41 114.84 175.35 C 118.30 177.09 124.35 174.02 125.17 178.86 C 126.52 183.71 130.25 186.93 131.81 191.57 C 137.62 190.73 131.20 199.20 129.83 201.00 L 110.63 201.00 C 109.56 196.15 109.52 194.28 111.94 189.95 C 113.92 184.35 106.72 176.43 103.67 173.47 C 107.52 169.79 99.71 173.00 97.96 170.17 C 102.20 170.06 105.87 170.02 102.80 164.80 C 105.88 163.90 107.19 162.85 107.02 167.06 Z" fill="#bfb7ab" />
<path d="M 183.33 165.30 C 187.37 163.44 189.07 168.70 190.65 171.35 C 192.60 175.26 184.88 182.19 181.68 177.31 C 177.22 173.81 178.03 167.47 183.33 165.30 Z" fill="#e5caab" />
<path d="M 114.31 166.29 C 116.21 165.73 119.56 165.47 120.01 168.08 C 120.05 172.04 115.57 173.96 112.75 171.26 C 110.92 169.46 112.67 167.38 114.31 166.29 Z" fill="#a59d93" />
<path d="M 54.37 172.13 C 56.51 174.90 57.46 177.95 60.13 179.95 C 60.78 180.92 61.40 181.91 62.01 182.90 C 62.64 185.70 63.88 186.51 66.21 187.90 C 66.74 188.64 67.27 189.37 67.80 190.10 C 69.34 193.36 70.63 194.66 73.89 196.19 C 74.67 196.77 75.44 197.34 76.21 197.92 C 76.66 199.08 77.14 200.13 78.06 201.00 L 54.92 201.00 C 53.49 196.57 50.36 191.75 50.26 187.12 C 51.14 182.00 53.40 177.26 54.37 172.13 Z" fill="#46392c" />
<path d="M 80.00 173.06 C 86.41 174.60 93.44 178.35 97.02 184.07 C 97.40 186.87 93.61 186.60 91.78 186.95 L 92.05 186.22 C 94.28 182.18 90.45 180.83 87.06 180.92 L 86.33 180.09 C 85.22 178.74 81.20 174.25 79.74 177.05 L 78.68 178.25 C 78.41 176.48 76.59 172.12 80.00 173.06 Z" fill="#5e554a" />
<path d="M 1.00 173.98 C 2.97 176.95 6.20 175.14 8.60 177.39 C 12.18 179.31 13.89 185.89 12.38 189.38 C 9.67 195.25 6.14 193.33 1.02 194.86 L 1.05 193.11 C 5.19 192.70 9.88 193.01 10.93 187.92 C 10.46 181.82 6.40 180.05 1.01 179.08 C 1.00 177.38 1.00 175.68 1.00 173.98 Z" fill="#986e59" />
<path d="M 69.08 174.09 C 73.08 173.04 73.02 178.36 73.90 180.96 C 72.01 179.23 69.08 176.87 69.08 174.09 Z" fill="#8c837a" />
<path d="M 86.33 180.09 C 82.60 181.71 80.17 181.72 79.74 177.05 C 81.20 174.25 85.22 178.74 86.33 180.09 Z" fill="#d6cec4" />
<path d="M 79.74 177.05 C 80.17 181.72 82.60 181.71 86.33 180.09 L 87.06 180.92 C 88.00 184.36 87.98 185.87 92.05 186.22 L 91.78 186.95 C 91.00 187.93 90.31 188.94 89.65 190.00 C 86.48 190.19 83.92 189.08 81.08 187.88 C 78.43 184.11 76.05 182.97 78.68 178.25 L 79.74 177.05 Z" fill="#7c7567" />
<path d="M 151.74 176.56 C 154.84 183.14 160.71 182.29 163.01 189.97 C 160.14 196.35 155.69 194.67 150.00 192.96 C 145.15 190.65 142.41 196.98 142.69 201.00 L 139.53 201.00 C 141.07 196.84 142.79 192.11 145.73 188.74 C 148.34 186.33 154.23 194.00 156.77 189.69 C 158.66 181.72 147.69 186.37 151.74 176.56 Z" fill="#bfb07d" />
<path d="M 1.01 179.08 C 6.40 180.05 10.46 181.82 10.93 187.92 C 9.88 193.01 5.19 192.70 1.05 193.11 C 0.99 188.44 0.97 183.76 1.01 179.08 Z" fill="#764f37" />
<path d="M 44.68 180.36 C 45.83 187.31 48.17 194.10 49.12 201.00 L 38.97 201.00 C 41.74 196.48 37.73 189.71 35.12 185.89 C 34.11 182.68 39.19 185.11 39.87 183.13 C 38.18 182.46 30.84 184.27 32.17 181.18 C 36.37 180.98 40.50 180.98 44.68 180.36 Z" fill="#be9f93" />
<path d="M 87.06 180.92 C 90.45 180.83 94.28 182.18 92.05 186.22 C 87.98 185.87 88.00 184.36 87.06 180.92 Z" fill="#d8d0c3" />
<path d="M 79.96 182.11 C 81.57 182.92 83.00 183.99 84.50 184.98 C 83.40 177.29 88.04 186.93 87.94 188.91 C 85.37 188.93 80.29 184.69 79.96 182.11 Z" fill="#c8c0b2" />
<path d="M 62.01 182.90 C 63.93 184.35 65.24 185.65 66.21 187.90 C 63.88 186.51 62.64 185.70 62.01 182.90 Z" fill="#8c837a" />
<path d="M 69.99 184.16 C 72.29 185.65 74.13 187.35 76.81 188.23 C 78.55 189.68 89.20 190.33 84.03 193.26 C 80.40 190.16 75.99 189.04 71.30 189.70 C 70.63 187.92 70.22 186.06 69.99 184.16 Z" fill="#9c9488" />
<path d="M 30.87 188.14 C 37.56 188.86 38.36 195.53 37.96 201.00 L 36.03 201.00 C 39.65 196.08 30.91 188.17 26.33 192.33 C 23.20 194.14 24.16 196.82 23.90 199.89 C 19.12 195.80 24.43 185.65 30.87 188.14 Z" fill="#947361" />
<path d="M 76.81 188.23 C 78.23 188.11 79.66 187.99 81.08 187.88 C 83.92 189.08 86.48 190.19 89.65 190.00 L 89.98 191.96 C 88.86 192.31 86.98 191.32 87.52 193.17 C 87.37 198.15 97.30 196.95 98.34 201.00 L 91.33 201.00 C 89.74 197.72 86.12 196.29 84.03 193.26 C 89.20 190.33 78.55 189.68 76.81 188.23 Z" fill="#c2bbac" />
<path d="M 67.80 190.10 C 70.60 191.78 72.21 193.40 73.89 196.19 C 70.63 194.66 69.34 193.36 67.80 190.10 Z" fill="#978f83" />
<path d="M 101.85 193.85 C 97.01 193.99 92.49 192.31 87.52 193.17 C 86.98 191.32 88.86 192.31 89.98 191.96 C 94.76 192.90 99.67 187.06 101.85 193.85 Z" fill="#898176" />
<path d="M 36.03 201.00 L 24.90 201.00 L 23.90 199.89 C 24.16 196.82 23.20 194.14 26.33 192.33 C 30.91 188.17 39.65 196.08 36.03 201.00 Z" fill="#7a5a46" />
<path d="M 175.11 192.27 C 180.43 193.23 183.12 195.66 184.21 201.00 L 172.05 201.00 C 172.98 198.21 173.13 194.47 175.11 192.27 Z" fill="#b8a478" />
<path d="M 76.21 197.92 C 78.51 198.41 79.45 199.07 80.77 201.00 L 78.06 201.00 C 77.14 200.13 76.66 199.08 76.21 197.92 Z" fill="#8f867c" />
</svg>