<?xml version="1.0" encoding="UTF-8" standalone="no"?>
<!DOCTYPE svg PUBLIC "-//W3C//DTD SVG 1.1//EN" "http://www.w3.org/Graphics/SVG/1.1/DTD/svg11.dtd">
<svg xmlns="http://www.w3.org/2000/svg" version="1.1" viewBox="0 0 158 158" width="158.0pt" height="158.0pt">
<path d="M 0.00 0.00 L 71.42 0.00 C 72.83 4.94 69.41 2.72 66.88 1.36 C 66.30 2.60 66.19 3.89 66.00 5.23 C 57.88 1.91 52.43 6.02 45.02 7.98 C 36.93 6.17 32.38 10.86 25.16 13.22 C 21.45 16.98 16.75 15.49 13.24 19.24 C 8.47 22.24 4.67 26.37 0.00 29.36 L 0.00 0.00 Z" fill="#2e4d06" />
<path d="M 71.42 0.00 L 73.70 0.00 C 74.43 0.97 75.17 1.93 75.93 2.87 C 70.32 6.52 73.84 7.92 67.95 10.88 C 68.49 6.74 71.69 6.30 66.00 5.23 C 66.19 3.89 66.30 2.60 66.88 1.36 C 69.41 2.72 72.83 4.94 71.42 0.00 Z" fill="#608038" />
<path d="M 73.70 0.00 L 88.79 0.00 C 89.56 5.39 91.13 5.40 95.63 7.39 C 95.56 10.26 95.56 13.01 96.10 15.85 C 97.97 11.83 100.51 12.19 102.89 15.46 C 106.12 15.49 109.53 14.56 112.82 14.60 C 116.25 15.14 116.96 19.21 120.52 16.80 C 124.02 19.00 126.29 20.11 130.58 20.51 C 135.72 24.99 143.88 26.18 149.00 30.97 C 151.80 33.25 154.88 34.46 158.00 36.17 L 158.00 47.16 C 146.42 40.12 137.10 31.30 124.00 27.01 C 114.50 24.15 105.41 18.50 95.48 20.87 C 95.93 17.21 93.75 16.73 91.06 15.13 C 90.13 19.34 90.45 24.66 90.01 29.12 C 89.96 31.83 90.13 34.51 90.23 37.22 C 90.03 38.21 89.84 39.21 89.64 40.20 C 88.53 36.17 89.74 29.50 86.35 26.66 C 83.61 21.73 76.63 26.66 72.83 27.84 C 71.59 29.63 72.53 31.40 70.15 29.42 C 69.20 34.71 68.56 39.84 69.33 45.22 C 69.10 47.59 68.82 49.93 68.23 52.24 L 67.81 50.27 C 67.91 47.24 68.03 44.22 67.90 41.18 C 67.88 39.19 67.86 37.20 67.77 35.22 C 67.99 31.03 68.33 26.36 67.39 22.24 C 65.04 20.19 60.50 23.25 57.84 23.71 C 43.57 22.98 29.19 33.13 17.77 40.75 C 10.88 43.68 5.84 51.33 0.00 56.01 L 0.00 41.82 C 5.01 39.77 8.16 37.89 11.64 33.67 C 18.94 29.06 26.28 21.98 35.17 21.12 C 38.49 18.02 42.45 18.88 46.17 16.25 C 51.02 15.89 54.46 16.40 58.83 13.78 C 63.24 11.12 64.85 17.32 66.83 12.22 C 70.22 16.31 72.04 12.90 76.77 13.86 C 80.49 7.34 87.66 14.04 92.94 13.80 C 92.84 8.63 86.67 10.08 83.27 9.70 C 81.83 7.47 82.75 5.54 82.78 3.09 C 81.30 3.16 76.70 6.85 79.13 3.21 C 81.02 0.69 77.00 2.89 75.93 2.87 C 75.17 1.93 74.43 0.97 73.70 0.00 Z" fill="#446a10" />
<path d="M 88.79 0.00 L 95.93 0.00 C 96.00 1.23 96.12 2.45 96.28 3.66 C 102.38 5.15 108.52 4.67 114.64 5.43 C 120.93 8.15 127.13 7.28 132.81 11.30 C 138.59 12.61 140.76 17.55 146.90 16.36 C 150.65 18.25 154.14 20.68 158.00 22.44 L 158.00 36.17 C 154.88 34.46 151.80 33.25 149.00 30.97 C 143.88 26.18 135.72 24.99 130.58 20.51 C 126.29 20.11 124.02 19.00 120.52 16.80 C 116.96 19.21 116.25 15.14 112.82 14.60 C 109.53 14.56 106.12 15.49 102.89 15.46 C 100.51 12.19 97.97 11.83 96.10 15.85 C 95.56 13.01 95.56 10.26 95.63 7.39 C 91.13 5.40 89.56 5.39 88.79 0.00 Z" fill="#395c0b" />
<path d="M 95.93 0.00 L 158.00 0.00 L 158.00 22.44 C 154.14 20.68 150.65 18.25 146.90 16.36 C 140.76 17.55 138.59 12.61 132.81 11.30 C 127.13 7.28 120.93 8.15 114.64 5.43 C 108.52 4.67 102.38 5.15 96.28 3.66 C 96.12 2.45 96.00 1.23 95.93 0.00 Z" fill="#2f4e07" />
<path d="M 79.13 3.21 C 76.70 6.85 81.30 3.16 82.78 3.09 C 82.75 5.54 81.83 7.47 83.27 9.70 C 86.67 10.08 92.84 8.63 92.94 13.80 C 87.66 14.04 80.49 7.34 76.77 13.86 C 72.04 12.90 70.22 16.31 66.83 12.22 C 64.85 17.32 63.24 11.12 58.83 13.78 C 54.46 16.40 51.02 15.89 46.17 16.25 C 42.45 18.88 38.49 18.02 35.17 21.12 C 26.28 21.98 18.94 29.06 11.64 33.67 C 8.16 37.89 5.01 39.77 0.00 41.82 L 0.00 29.36 C 4.67 26.37 8.47 22.24 13.24 19.24 C 16.75 15.49 21.45 16.98 25.16 13.22 C 32.38 10.86 36.93 6.17 45.02 7.98 C 52.43 6.02 57.88 1.91 66.00 5.23 C 71.69 6.30 68.49 6.74 67.95 10.88 C 73.84 7.92 70.32 6.52 75.93 2.87 C 77.00 2.89 81.02 0.69 79.13 3.21 Z" fill="#395a0b" />
<path d="M 91.06 15.13 C 93.75 16.73 95.93 17.21 95.48 20.87 C 105.41 18.50 114.50 24.15 124.00 27.01 C 137.10 31.30 146.42 40.12 158.00 47.16 L 158.00 57.42 C 153.14 53.41 147.98 49.97 143.55 45.47 C 138.50 40.88 132.14 39.46 126.95 35.10 C 117.59 30.94 108.22 27.74 97.84 27.32 C 94.45 27.42 91.17 24.65 90.01 29.12 C 90.45 24.66 90.13 19.34 91.06 15.13 Z" fill="#4d7710" />
<path d="M 67.39 22.24 C 68.33 26.36 67.99 31.03 67.77 35.22 C 67.39 33.36 67.11 31.48 66.71 29.62 C 62.51 29.98 59.29 28.75 55.72 31.57 C 49.70 32.41 44.40 34.92 38.62 36.60 C 32.31 38.53 29.06 43.65 23.11 46.18 C 15.19 53.99 6.50 60.12 0.00 69.27 L 0.00 56.01 C 5.84 51.33 10.88 43.68 17.77 40.75 C 29.19 33.13 43.57 22.98 57.84 23.71 C 60.50 23.25 65.04 20.19 67.39 22.24 Z" fill="#4f7b11" />
<path d="M 86.35 26.66 C 89.74 29.50 88.53 36.17 89.64 40.20 C 89.88 41.87 90.13 43.54 90.33 45.21 C 89.90 48.55 89.92 51.89 90.23 55.25 C 90.31 56.86 90.58 58.45 90.88 60.04 C 88.19 58.06 89.19 55.13 88.82 52.18 C 89.54 46.00 88.70 40.17 84.73 35.21 C 80.86 35.66 77.04 36.00 73.15 36.19 C 69.21 37.91 70.22 41.67 69.33 45.22 C 68.56 39.84 69.20 34.71 70.15 29.42 C 72.53 31.40 71.59 29.63 72.83 27.84 C 76.63 26.66 83.61 21.73 86.35 26.66 Z" fill="#558113" />
<path d="M 97.84 27.32 C 108.22 27.74 117.59 30.94 126.95 35.10 C 132.14 39.46 138.50 40.88 143.55 45.47 C 147.98 49.97 153.14 53.41 158.00 57.42 L 158.00 68.38 C 155.14 62.50 149.89 59.96 145.74 55.31 C 142.65 51.20 136.56 49.47 132.74 46.25 C 121.21 37.68 106.62 33.23 92.54 33.19 C 90.17 31.07 91.04 35.91 90.23 37.22 C 90.13 34.51 89.96 31.83 90.01 29.12 C 91.17 24.65 94.45 27.42 97.84 27.32 Z" fill="#578513" />
<path d="M 66.71 29.62 C 67.11 31.48 67.39 33.36 67.77 35.22 C 67.86 37.20 67.88 39.19 67.90 41.18 C 67.48 39.88 67.07 38.56 66.57 37.28 C 58.89 37.04 53.60 38.10 46.69 41.55 C 33.37 45.32 24.43 54.36 14.64 63.65 C 8.80 69.57 3.52 75.53 0.00 83.18 L 0.00 69.27 C 6.50 60.12 15.19 53.99 23.11 46.18 C 29.06 43.65 32.31 38.53 38.62 36.60 C 44.40 34.92 49.70 32.41 55.72 31.57 C 59.29 28.75 62.51 29.98 66.71 29.62 Z" fill="#5b8c14" />
<path d="M 92.54 33.19 C 106.62 33.23 121.21 37.68 132.74 46.25 C 136.56 49.47 142.65 51.20 145.74 55.31 C 149.89 59.96 155.14 62.50 158.00 68.38 L 158.00 78.24 C 148.59 67.66 140.72 57.12 128.01 49.99 C 117.22 41.66 104.31 40.81 91.61 38.73 C 90.48 38.44 91.03 43.91 90.33 45.21 C 90.13 43.54 89.88 41.87 89.64 40.20 C 89.84 39.21 90.03 38.21 90.23 37.22 C 91.04 35.91 90.17 31.07 92.54 33.19 Z" fill="#639417" />
<path d="M 84.73 35.21 C 88.70 40.17 89.54 46.00 88.82 52.18 C 88.13 50.06 87.55 47.63 86.27 45.78 C 81.67 43.92 77.42 45.11 73.05 47.03 C 69.50 50.45 69.56 54.43 69.69 58.99 C 67.12 57.31 68.26 54.83 68.23 52.24 C 68.82 49.93 69.10 47.59 69.33 45.22 C 70.22 41.67 69.21 37.91 73.15 36.19 C 77.04 36.00 80.86 35.66 84.73 35.21 Z" fill="#669619" />
<path d="M 66.57 37.28 C 67.07 38.56 67.48 39.88 67.90 41.18 C 68.03 44.22 67.91 47.24 67.81 50.27 C 67.32 48.34 67.07 46.38 66.72 44.43 C 54.98 47.01 44.60 46.27 35.04 55.04 C 28.70 61.43 19.58 65.56 15.19 73.20 C 9.67 78.82 5.71 85.67 0.00 91.21 L 0.00 83.18 C 3.52 75.53 8.80 69.57 14.64 63.65 C 24.43 54.36 33.37 45.32 46.69 41.55 C 53.60 38.10 58.89 37.04 66.57 37.28 Z" fill="#699c19" />
<path d="M 91.61 38.73 C 104.31 40.81 117.22 41.66 128.01 49.99 C 140.72 57.12 148.59 67.66 158.00 78.24 L 158.00 88.35 C 151.03 78.48 142.50 69.56 133.73 61.27 C 131.12 58.99 127.68 58.15 125.40 55.62 C 121.58 51.16 116.24 52.20 111.52 48.60 C 106.80 47.25 101.69 47.97 96.86 46.33 C 94.43 46.52 90.53 47.95 90.99 51.07 C 90.77 52.47 90.51 53.86 90.23 55.25 C 89.92 51.89 89.90 48.55 90.33 45.21 C 91.03 43.91 90.48 38.44 91.61 38.73 Z" fill="#70a31a" />
<path d="M 66.72 44.43 C 67.07 46.38 67.32 48.34 67.81 50.27 L 68.23 52.24 C 68.26 54.83 67.12 57.31 69.69 58.99 C 69.56 54.43 69.50 50.45 73.05 47.03 C 77.42 45.11 81.67 43.92 86.27 45.78 C 87.55 47.63 88.13 50.06 88.82 52.18 C 89.19 55.13 88.19 58.06 90.88 60.04 C 91.52 60.68 92.15 61.33 92.78 61.98 C 93.80 63.69 94.80 65.41 95.80 67.13 C 96.28 68.72 96.72 70.32 97.13 71.93 C 95.18 70.69 93.28 69.96 92.46 67.60 C 90.92 63.01 86.11 62.50 85.51 57.33 C 79.51 57.49 71.65 53.98 70.37 62.02 C 65.46 64.24 64.56 73.14 59.49 73.13 C 60.06 72.09 60.61 71.03 61.15 69.98 C 62.31 67.66 63.50 65.40 64.78 63.15 C 66.79 59.86 67.27 56.33 67.03 52.54 C 61.01 54.55 54.46 55.64 48.16 56.30 C 28.98 64.35 18.81 79.78 5.77 94.70 C 4.46 97.99 1.98 100.24 0.00 103.10 L 0.00 91.21 C 5.71 85.67 9.67 78.82 15.19 73.20 C 19.58 65.56 28.70 61.43 35.04 55.04 C 44.60 46.27 54.98 47.01 66.72 44.43 Z" fill="#79ac1d" />
<path d="M 96.86 46.33 C 101.69 47.97 106.80 47.25 111.52 48.60 C 116.24 52.20 121.58 51.16 125.40 55.62 C 127.68 58.15 131.12 58.99 133.73 61.27 C 142.50 69.56 151.03 78.48 158.00 88.35 L 158.00 97.37 C 153.27 90.84 147.95 82.98 141.91 78.07 C 136.22 70.14 127.83 61.70 118.46 58.48 C 111.13 54.21 102.97 51.57 94.35 52.28 C 92.96 52.51 92.16 51.65 90.99 51.07 C 90.53 47.95 94.43 46.52 96.86 46.33 Z" fill="#7db11e" />
<path d="M 90.99 51.07 C 92.16 51.65 92.96 52.51 94.35 52.28 C 102.97 51.57 111.13 54.21 118.46 58.48 C 127.83 61.70 136.22 70.14 141.91 78.07 C 147.95 82.98 153.27 90.84 158.00 97.37 L 158.00 107.47 C 153.71 106.85 156.90 104.68 154.84 102.18 C 150.57 96.17 145.76 90.55 141.44 84.58 C 138.82 80.01 134.17 77.92 132.07 72.94 C 128.00 71.38 125.21 68.07 121.00 66.98 C 116.62 65.88 115.48 61.08 110.67 60.35 C 105.49 59.71 100.48 60.36 95.39 58.66 C 93.51 57.60 93.51 60.89 92.78 61.98 C 92.15 61.33 91.52 60.68 90.88 60.04 C 90.58 58.45 90.31 56.86 90.23 55.25 C 90.51 53.86 90.77 52.47 90.99 51.07 Z" fill="#8bc022" />
<path d="M 67.03 52.54 C 67.27 56.33 66.79 59.86 64.78 63.15 C 61.20 62.30 58.94 59.34 55.65 62.66 C 52.98 65.40 51.54 64.14 48.16 64.14 C 35.47 70.54 26.15 80.37 16.68 90.69 C 10.38 96.48 9.33 104.31 0.00 105.96 L 0.00 103.10 C 1.98 100.24 4.46 97.99 5.77 94.70 C 18.81 79.78 28.98 64.35 48.16 56.30 C 54.46 55.64 61.01 54.55 67.03 52.54 Z" fill="#89c023" />
<path d="M 85.51 57.33 C 86.11 62.50 90.92 63.01 92.46 67.60 C 93.28 69.96 95.18 70.69 97.13 71.93 C 97.64 72.27 98.15 72.62 98.65 72.97 C 100.00 75.96 101.78 78.70 101.95 81.99 C 96.78 75.77 88.91 70.44 84.12 64.11 C 84.05 65.65 84.01 67.20 83.93 68.74 C 79.86 65.27 77.92 60.00 71.95 64.00 C 68.65 70.86 62.24 76.69 58.78 83.88 C 55.05 88.29 52.33 93.29 48.74 97.80 C 47.31 99.90 45.98 102.08 44.64 104.25 C 45.71 96.30 52.39 87.90 55.37 80.17 C 56.79 77.81 57.84 75.35 59.49 73.13 C 64.56 73.14 65.46 64.24 70.37 62.02 C 71.65 53.98 79.51 57.49 85.51 57.33 Z" fill="#9bca22" />
<path d="M 95.39 58.66 C 100.48 60.36 105.49 59.71 110.67 60.35 C 115.48 61.08 116.62 65.88 121.00 66.98 C 125.21 68.07 128.00 71.38 132.07 72.94 C 134.17 77.92 138.82 80.01 141.44 84.58 C 145.76 90.55 150.57 96.17 154.84 102.18 C 156.90 104.68 153.71 106.85 158.00 107.47 L 158.00 110.11 C 156.71 110.09 155.41 110.08 154.12 110.08 C 153.06 110.05 152.01 110.03 150.96 110.00 C 148.15 107.37 149.11 103.55 146.26 100.82 C 141.27 92.60 136.49 88.30 129.71 81.95 C 123.77 73.28 112.32 66.28 101.59 67.26 C 96.45 68.13 98.96 60.81 95.80 67.13 C 94.80 65.41 93.80 63.69 92.78 61.98 C 93.51 60.89 93.51 57.60 95.39 58.66 Z" fill="#9ad027" />
<path d="M 64.78 63.15 C 63.50 65.40 62.31 67.66 61.15 69.98 C 62.66 64.18 54.89 70.04 54.41 71.65 C 54.22 76.88 51.19 69.26 48.15 72.08 C 38.71 80.28 28.06 86.03 19.88 95.91 C 17.21 99.04 13.22 99.91 10.46 103.15 C 11.38 106.50 10.37 109.79 14.77 110.29 L 14.45 111.11 C 12.28 110.93 10.13 110.66 7.98 110.35 C 5.31 109.96 2.69 109.93 0.00 109.83 L 0.00 105.96 C 9.33 104.31 10.38 96.48 16.68 90.69 C 26.15 80.37 35.47 70.54 48.16 64.14 C 51.54 64.14 52.98 65.40 55.65 62.66 C 58.94 59.34 61.20 62.30 64.78 63.15 Z" fill="#9bd228" />
<path d="M 83.93 68.74 C 84.01 67.20 84.05 65.65 84.12 64.11 C 88.91 70.44 96.78 75.77 101.95 81.99 C 101.78 78.70 100.00 75.96 98.65 72.97 C 100.36 73.24 100.55 73.08 101.88 71.99 C 104.54 70.95 107.59 77.28 110.10 74.17 C 113.87 71.31 113.85 75.10 113.35 77.89 C 117.03 76.70 117.07 74.68 117.73 79.57 C 123.32 78.70 128.35 81.85 129.04 87.51 C 127.96 89.70 128.68 91.59 128.85 93.86 C 125.80 92.01 124.97 92.10 125.37 88.22 C 121.70 88.55 118.08 88.23 114.42 87.89 C 116.96 83.99 115.55 85.63 112.20 85.74 C 114.52 82.55 111.60 80.97 110.08 78.18 C 107.36 79.78 106.06 79.97 102.94 79.56 C 106.44 90.26 113.39 100.38 118.38 110.56 C 125.02 109.74 131.60 109.95 138.27 110.12 C 136.26 111.93 135.19 113.36 134.25 115.91 C 133.59 109.70 133.44 113.08 131.59 116.24 C 127.76 116.32 128.51 116.04 127.57 119.79 C 125.37 119.39 122.45 116.23 121.67 120.03 C 117.54 114.95 115.78 109.08 112.28 103.71 C 108.51 97.94 103.58 93.71 100.98 87.06 C 99.40 84.66 98.22 82.18 95.02 81.94 C 91.02 81.90 94.08 76.77 91.02 75.99 C 89.25 76.62 88.09 77.94 86.64 79.05 C 81.06 76.89 76.70 80.38 70.86 79.34 C 65.06 79.77 63.54 81.50 58.78 83.88 C 62.24 76.69 68.65 70.86 71.95 64.00 C 77.92 60.00 79.86 65.27 83.93 68.74 Z" fill="#bbe634" />
<path d="M 101.59 67.26 C 112.32 66.28 123.77 73.28 129.71 81.95 C 136.49 88.30 141.27 92.60 146.26 100.82 C 149.11 103.55 148.15 107.37 150.96 110.00 C 148.35 109.98 145.74 110.01 143.13 110.04 C 142.12 110.02 141.11 109.99 140.10 109.97 C 137.12 102.04 133.11 94.92 129.04 87.51 C 128.35 81.85 123.32 78.70 117.73 79.57 C 117.07 74.68 117.03 76.70 113.35 77.89 C 113.85 75.10 113.87 71.31 110.10 74.17 C 107.59 77.28 104.54 70.95 101.88 71.99 C 100.55 73.08 100.36 73.24 98.65 72.97 C 98.15 72.62 97.64 72.27 97.13 71.93 C 96.72 70.32 96.28 68.72 95.80 67.13 C 98.96 60.81 96.45 68.13 101.59 67.26 Z" fill="#ace12d" />
<path d="M 61.15 69.98 C 60.61 71.03 60.06 72.09 59.49 73.13 C 57.84 75.35 56.79 77.81 55.37 80.17 C 52.07 80.13 45.85 76.43 49.94 82.41 C 42.90 81.74 36.52 92.40 30.49 95.33 C 27.88 97.66 22.73 97.91 24.50 102.00 C 19.76 97.60 22.67 103.67 19.18 101.96 C 13.73 98.50 14.20 107.29 14.77 110.29 C 10.37 109.79 11.38 106.50 10.46 103.15 C 13.22 99.91 17.21 99.04 19.88 95.91 C 28.06 86.03 38.71 80.28 48.15 72.08 C 51.19 69.26 54.22 76.88 54.41 71.65 C 54.89 70.04 62.66 64.18 61.15 69.98 Z" fill="#aee52e" />
<path d="M 91.02 75.99 C 94.08 76.77 91.02 81.90 95.02 81.94 C 98.22 82.18 99.40 84.66 100.98 87.06 C 92.69 87.75 87.68 81.05 79.95 84.96 C 73.84 83.64 69.31 80.99 63.34 85.30 C 59.70 86.55 62.78 92.14 58.84 92.74 C 55.09 93.58 55.50 94.66 55.71 97.93 C 55.12 98.31 54.53 98.68 53.94 99.06 C 51.34 99.74 50.85 99.35 48.74 97.80 C 52.33 93.29 55.05 88.29 58.78 83.88 C 63.54 81.50 65.06 79.77 70.86 79.34 C 76.70 80.38 81.06 76.89 86.64 79.05 C 88.09 77.94 89.25 76.62 91.02 75.99 Z" fill="#cef737" />
<path d="M 110.08 78.18 C 111.60 80.97 114.52 82.55 112.20 85.74 C 115.55 85.63 116.96 83.99 114.42 87.89 C 118.08 88.23 121.70 88.55 125.37 88.22 C 124.97 92.10 125.80 92.01 128.85 93.86 C 128.68 91.59 127.96 89.70 129.04 87.51 C 133.11 94.92 137.12 102.04 140.10 109.97 L 138.27 110.12 C 131.60 109.95 125.02 109.74 118.38 110.56 C 113.39 100.38 106.44 90.26 102.94 79.56 C 106.06 79.97 107.36 79.78 110.08 78.18 Z" fill="#d1fb40" />
<path d="M 55.37 80.17 C 52.39 87.90 45.71 96.30 44.64 104.25 C 44.46 105.14 44.26 106.03 44.05 106.92 C 41.65 110.28 39.75 113.94 37.31 117.26 C 36.82 116.47 36.34 115.69 35.85 114.90 C 33.84 108.55 45.01 109.02 38.76 105.78 C 34.68 105.79 37.66 103.06 34.81 101.22 C 32.37 98.45 29.93 101.61 29.33 104.14 C 27.23 106.35 21.44 105.70 20.07 108.83 C 17.40 108.01 19.13 103.85 19.18 101.96 C 22.67 103.67 19.76 97.60 24.50 102.00 C 22.73 97.91 27.88 97.66 30.49 95.33 C 36.52 92.40 42.90 81.74 49.94 82.41 C 45.85 76.43 52.07 80.13 55.37 80.17 Z" fill="#c5f636" />
<path d="M 79.95 84.96 C 87.68 81.05 92.69 87.75 100.98 87.06 C 103.58 93.71 108.51 97.94 112.28 103.71 C 110.21 102.96 108.35 102.13 106.11 102.07 C 105.94 107.73 110.36 109.81 108.18 116.28 C 106.51 111.92 105.79 107.30 104.15 102.92 C 103.74 101.31 104.27 98.13 101.90 98.05 C 95.61 98.58 89.32 99.70 83.01 100.08 C 73.79 99.93 65.01 100.47 55.71 97.93 C 55.50 94.66 55.09 93.58 58.84 92.74 C 62.78 92.14 59.70 86.55 63.34 85.30 C 69.31 80.99 73.84 83.64 79.95 84.96 Z" fill="#e6fb45" />
<path d="M 48.74 97.80 C 50.85 99.35 51.34 99.74 53.94 99.06 C 53.03 104.79 51.31 110.34 50.24 116.05 C 48.88 119.55 47.76 123.09 47.44 126.86 C 50.25 128.37 52.93 127.90 56.00 128.02 C 72.75 131.50 91.48 130.48 108.25 127.24 C 110.51 126.91 110.73 125.35 109.10 123.94 C 109.39 122.31 109.50 121.00 107.86 120.10 C 107.96 118.82 108.07 117.55 108.18 116.28 C 110.36 109.81 105.94 107.73 106.11 102.07 C 108.35 102.13 110.21 102.96 112.28 103.71 C 115.78 109.08 117.54 114.95 121.67 120.03 C 124.60 125.19 126.78 129.76 126.03 135.92 C 125.30 136.34 124.56 136.75 123.81 137.14 C 97.87 145.78 67.70 144.00 41.00 140.27 C 41.53 144.61 48.37 145.60 51.78 146.26 C 55.25 147.09 58.55 148.37 61.92 149.53 C 56.56 152.24 48.48 151.49 43.14 148.86 C 38.07 147.23 34.71 144.28 29.12 145.82 C 23.72 145.33 27.65 141.96 30.37 141.16 C 35.50 135.49 34.23 127.06 40.39 121.39 C 42.77 117.52 43.54 111.46 44.05 106.92 C 44.26 106.03 44.46 105.14 44.64 104.25 C 45.98 102.08 47.31 99.90 48.74 97.80 Z" fill="#f3fc3b" />
<path d="M 55.71 97.93 C 65.01 100.47 73.79 99.93 83.01 100.08 L 83.00 101.02 C 79.44 101.04 75.78 100.79 72.24 101.21 C 71.94 103.72 71.92 106.26 71.70 108.78 C 70.90 111.99 71.31 115.51 70.01 118.52 C 63.72 117.71 57.44 116.92 51.15 116.16 L 50.24 116.05 C 51.31 110.34 53.03 104.79 53.94 99.06 C 54.53 98.68 55.12 98.31 55.71 97.93 Z" fill="#404506" />
<path d="M 101.90 98.05 C 104.27 98.13 103.74 101.31 104.15 102.92 C 103.37 101.68 102.60 100.38 101.67 99.25 C 95.46 99.57 89.40 101.30 83.00 101.02 L 83.01 100.08 C 89.32 99.70 95.61 98.58 101.90 98.05 Z" fill="#828f08" />
<path d="M 101.67 99.25 C 102.60 100.38 103.37 101.68 104.15 102.92 C 103.91 107.43 105.45 111.33 106.22 115.70 C 99.92 115.74 94.89 117.88 88.74 116.55 C 92.56 113.56 85.51 113.48 83.84 113.01 C 84.54 112.02 85.23 111.02 85.92 110.03 C 87.21 111.40 89.80 111.49 89.75 109.16 C 88.76 107.09 86.97 109.21 85.92 110.03 C 85.80 106.44 87.29 102.53 82.00 102.93 C 77.71 102.51 77.88 105.47 77.44 108.67 C 77.98 111.33 72.84 107.48 74.38 110.53 C 77.56 111.30 80.60 112.65 83.84 113.01 C 85.24 114.05 86.53 115.16 87.75 116.41 C 91.35 120.47 101.66 116.22 106.73 117.10 C 107.11 118.10 107.49 119.10 107.86 120.10 C 107.61 121.72 107.57 122.97 109.10 123.94 C 108.59 125.03 108.31 126.13 108.25 127.24 C 93.99 127.56 80.12 130.53 65.63 128.44 C 62.41 127.87 59.24 127.99 56.00 128.02 C 54.15 127.04 50.40 127.21 49.28 125.67 C 49.02 122.66 50.65 119.20 51.15 116.16 C 57.44 116.92 63.72 117.71 70.01 118.52 C 75.50 119.34 81.20 119.08 86.74 118.87 C 84.80 116.79 75.94 118.78 72.23 117.80 C 71.91 114.80 71.90 111.78 71.70 108.78 C 71.92 106.26 71.94 103.72 72.24 101.21 C 75.78 100.79 79.44 101.04 83.00 101.02 C 89.40 101.30 95.46 99.57 101.67 99.25 Z" fill="#e9f05c" />
<path d="M 34.81 101.22 C 37.66 103.06 34.68 105.79 38.76 105.78 C 45.01 109.02 33.84 108.55 35.85 114.90 C 34.28 118.36 31.84 114.53 31.46 112.49 C 25.31 112.23 21.49 108.47 14.77 110.29 C 14.20 107.29 13.73 98.50 19.18 101.96 C 19.13 103.85 17.40 108.01 20.07 108.83 C 21.44 105.70 27.23 106.35 29.33 104.14 C 29.93 101.61 32.37 98.45 34.81 101.22 Z" fill="#cff75c" />
<path d="M 61.44 104.62 C 62.43 107.94 66.96 101.05 68.04 104.02 C 69.78 106.23 66.40 107.52 65.39 109.27 C 65.90 110.80 69.11 112.91 67.22 114.23 C 65.79 116.33 64.08 113.02 62.70 112.26 C 61.30 109.69 57.04 115.99 55.96 113.00 C 54.04 110.59 57.71 109.70 58.91 107.98 C 58.16 105.93 54.29 104.14 58.00 103.00 C 60.37 101.48 60.02 103.06 61.44 104.62 Z" fill="#e0ec64" />
<path d="M 97.54 102.28 C 98.22 107.09 100.90 109.31 103.85 112.75 C 100.19 114.01 96.88 114.33 93.04 113.83 C 93.63 111.67 94.72 109.76 95.44 107.67 C 96.09 105.30 93.22 100.85 97.54 102.28 Z" fill="#464806" />
<path d="M 82.00 102.93 C 87.29 102.53 85.80 106.44 85.92 110.03 C 85.23 111.02 84.54 112.02 83.84 113.01 C 80.60 112.65 77.56 111.30 74.38 110.53 C 72.84 107.48 77.98 111.33 77.44 108.67 C 77.88 105.47 77.71 102.51 82.00 102.93 Z" fill="#444b0e" />
<path d="M 104.15 102.92 C 105.79 107.30 106.51 111.92 108.18 116.28 C 108.07 117.55 107.96 118.82 107.86 120.10 C 107.49 119.10 107.11 118.10 106.73 117.10 L 106.22 115.70 C 105.45 111.33 103.91 107.43 104.15 102.92 Z" fill="#919608" />
<path d="M 44.05 106.92 C 43.54 111.46 42.77 117.52 40.39 121.39 C 34.23 127.06 35.50 135.49 30.37 141.16 C 27.65 141.96 23.72 145.33 29.12 145.82 C 34.71 144.28 38.07 147.23 43.14 148.86 C 41.31 148.93 39.49 149.06 37.67 149.19 C 36.35 149.19 35.03 149.19 33.72 149.21 C 25.04 147.53 16.73 144.66 8.01 143.02 C 7.41 141.80 7.24 140.54 7.02 139.22 C 9.95 134.84 13.56 132.91 18.25 130.80 C 21.61 131.07 24.87 131.30 28.15 130.33 C 29.01 131.48 29.71 132.74 30.55 133.91 C 31.35 131.01 32.32 128.15 33.12 125.25 C 34.14 122.37 35.78 119.88 37.31 117.26 C 39.75 113.94 41.65 110.28 44.05 106.92 Z" fill="#e5fa47" />
<path d="M 79.25 107.26 C 84.49 106.55 77.21 113.44 79.25 107.26 Z" fill="#dfe89b" />
<path d="M 83.22 107.03 C 89.31 107.92 79.10 111.45 83.22 107.03 Z" fill="#dfea9c" />
<path d="M 89.75 109.16 C 89.80 111.49 87.21 111.40 85.92 110.03 C 86.97 109.21 88.76 107.09 89.75 109.16 Z" fill="#6e700f" />
<path d="M 71.70 108.78 C 71.90 111.78 71.91 114.80 72.23 117.80 C 75.94 118.78 84.80 116.79 86.74 118.87 C 81.20 119.08 75.50 119.34 70.01 118.52 C 71.31 115.51 70.90 111.99 71.70 108.78 Z" fill="#b2bb34" />
<path d="M 0.00 109.83 C 2.69 109.93 5.31 109.96 7.98 110.35 C 8.10 113.30 7.79 115.99 6.23 118.56 C 3.41 120.11 1.58 121.13 0.00 124.09 L 0.00 109.83 Z" fill="#76a126" />
<path d="M 7.98 110.35 C 10.13 110.66 12.28 110.93 14.45 111.11 C 14.90 112.58 15.50 113.98 16.08 115.40 C 14.66 115.16 13.26 114.74 11.85 114.42 C 12.94 117.98 16.23 119.78 16.68 123.79 C 18.53 126.10 22.80 132.81 24.14 126.25 C 25.54 127.54 26.92 128.88 28.15 130.33 C 24.87 131.30 21.61 131.07 18.25 130.80 C 14.86 129.53 12.71 130.77 16.72 127.66 C 13.93 123.30 12.99 124.78 12.62 129.26 C 12.67 131.70 8.39 132.74 7.77 129.66 C 6.19 125.98 3.28 126.74 0.00 125.90 L 0.00 124.09 C 1.58 121.13 3.41 120.11 6.23 118.56 C 7.79 115.99 8.10 113.30 7.98 110.35 Z" fill="#92b940" />
<path d="M 14.77 110.29 C 21.49 108.47 25.31 112.23 31.46 112.49 C 31.84 114.53 34.28 118.36 35.85 114.90 C 36.34 115.69 36.82 116.47 37.31 117.26 C 35.78 119.88 34.14 122.37 33.12 125.25 C 33.15 118.38 27.41 119.20 22.67 120.97 C 22.82 116.61 20.29 114.75 16.08 115.40 C 15.50 113.98 14.90 112.58 14.45 111.11 L 14.77 110.29 Z" fill="#abd245" />
<path d="M 81.17 110.17 C 86.22 109.21 80.21 115.21 81.17 110.17 Z" fill="#9da96d" />
<path d="M 138.27 110.12 L 140.10 109.97 C 141.11 109.99 142.12 110.02 143.13 110.04 C 143.74 114.30 140.08 119.47 138.12 123.15 C 135.98 126.00 129.64 124.68 133.23 129.64 C 133.65 131.57 127.80 125.00 127.12 128.09 C 126.70 130.12 127.69 134.64 126.03 135.92 C 126.78 129.76 124.60 125.19 121.67 120.03 C 122.45 116.23 125.37 119.39 127.57 119.79 C 128.51 116.04 127.76 116.32 131.59 116.24 C 133.44 113.08 133.59 109.70 134.25 115.91 C 135.19 113.36 136.26 111.93 138.27 110.12 Z" fill="#9ecc2a" />
<path d="M 143.13 110.04 C 145.74 110.01 148.35 109.98 150.96 110.00 C 152.01 110.03 153.06 110.05 154.12 110.08 C 148.70 116.21 148.91 122.92 145.26 129.60 C 143.44 131.18 137.53 134.31 144.08 133.59 C 142.51 135.70 141.99 137.91 138.94 137.74 C 140.87 139.77 143.65 139.40 140.02 141.77 C 135.41 141.79 132.28 142.49 128.09 144.31 C 126.99 141.47 125.81 139.43 123.81 137.14 C 124.56 136.75 125.30 136.34 126.03 135.92 C 127.69 134.64 126.70 130.12 127.12 128.09 C 127.80 125.00 133.65 131.57 133.23 129.64 C 129.64 124.68 135.98 126.00 138.12 123.15 C 140.08 119.47 143.74 114.30 143.13 110.04 Z" fill="#86b61c" />
<path d="M 154.12 110.08 C 155.41 110.08 156.71 110.09 158.00 110.11 L 158.00 131.86 C 155.46 134.93 153.64 139.44 150.00 141.12 C 147.93 144.20 148.05 144.15 144.28 143.78 C 142.90 142.68 141.75 142.14 140.02 141.77 C 143.65 139.40 140.87 139.77 138.94 137.74 C 141.99 137.91 142.51 135.70 144.08 133.59 C 137.53 134.31 143.44 131.18 145.26 129.60 C 148.91 122.92 148.70 116.21 154.12 110.08 Z" fill="#6fa119" />
<path d="M 83.84 113.01 C 85.51 113.48 92.56 113.56 88.74 116.55 L 87.75 116.41 C 86.53 115.16 85.24 114.05 83.84 113.01 Z" fill="#636b0c" />
<path d="M 11.85 114.42 C 13.26 114.74 14.66 115.16 16.08 115.40 C 20.29 114.75 22.82 116.61 22.67 120.97 C 27.41 119.20 33.15 118.38 33.12 125.25 C 32.32 128.15 31.35 131.01 30.55 133.91 C 29.71 132.74 29.01 131.48 28.15 130.33 C 26.92 128.88 25.54 127.54 24.14 126.25 C 22.80 132.81 18.53 126.10 16.68 123.79 C 16.23 119.78 12.94 117.98 11.85 114.42 Z" fill="#b7db65" />
<path d="M 77.32 114.10 C 79.11 113.75 78.93 114.94 77.98 115.93 C 74.99 118.70 73.66 115.02 77.32 114.10 Z" fill="#515601" />
<path d="M 50.24 116.05 L 51.15 116.16 C 50.65 119.20 49.02 122.66 49.28 125.67 C 50.40 127.21 54.15 127.04 56.00 128.02 C 52.93 127.90 50.25 128.37 47.44 126.86 C 47.76 123.09 48.88 119.55 50.24 116.05 Z" fill="#90940b" />
<path d="M 87.75 116.41 L 88.74 116.55 C 94.89 117.88 99.92 115.74 106.22 115.70 L 106.73 117.10 C 101.66 116.22 91.35 120.47 87.75 116.41 Z" fill="#c5d128" />
<path d="M 65.94 120.51 C 59.59 121.02 63.90 124.33 60.11 127.05 C 60.05 124.80 60.41 122.61 60.66 120.37 C 52.35 120.02 63.86 117.52 65.94 120.51 Z" fill="#666609" />
<path d="M 97.89 121.69 C 96.30 121.55 94.73 121.27 93.13 121.17 C 91.34 129.31 99.36 120.80 97.80 126.81 C 94.60 127.54 91.21 126.78 90.96 123.00 C 90.28 118.99 99.39 116.64 97.89 121.69 Z" fill="#7b800e" />
<path d="M 68.33 120.28 C 70.83 119.05 74.12 121.21 74.00 123.92 C 73.00 127.07 69.31 127.93 66.66 126.33 C 65.14 124.08 66.12 121.60 68.33 120.28 Z" fill="#5e620d" />
<path d="M 75.18 119.92 C 77.11 120.00 77.90 121.34 79.31 122.41 C 80.95 121.92 81.69 119.91 83.77 119.89 C 82.84 121.60 81.77 123.23 80.80 124.92 C 79.00 125.82 77.20 126.65 75.24 127.16 C 79.17 123.33 77.61 123.95 75.18 119.92 Z" fill="#59580b" />
<path d="M 86.45 119.99 C 90.17 119.17 88.85 124.66 89.55 127.01 C 85.83 127.83 87.15 122.34 86.45 119.99 Z" fill="#5e6108" />
<path d="M 107.86 120.10 C 109.50 121.00 109.39 122.31 109.10 123.94 C 107.57 122.97 107.61 121.72 107.86 120.10 Z" fill="#838700" />
<path d="M 69.36 121.31 C 71.58 120.07 73.27 124.65 70.68 125.75 C 67.43 126.96 66.01 122.59 69.36 121.31 Z" fill="#e8ef68" />
<path d="M 109.10 123.94 C 110.73 125.35 110.51 126.91 108.25 127.24 C 108.31 126.13 108.59 125.03 109.10 123.94 Z" fill="#7e7d02" />
<path d="M 16.72 127.66 C 12.71 130.77 14.86 129.53 18.25 130.80 C 13.56 132.91 9.95 134.84 7.02 139.22 C 4.89 135.18 5.38 130.78 0.00 130.77 L 0.00 125.90 C 3.28 126.74 6.19 125.98 7.77 129.66 C 8.39 132.74 12.67 131.70 12.62 129.26 C 12.99 124.78 13.93 123.30 16.72 127.66 Z" fill="#769e1f" />
<path d="M 80.80 124.92 C 87.00 124.92 81.77 130.20 80.80 124.92 Z" fill="#5e5d11" />
<path d="M 108.25 127.24 C 91.48 130.48 72.75 131.50 56.00 128.02 C 59.24 127.99 62.41 127.87 65.63 128.44 C 80.12 130.53 93.99 127.56 108.25 127.24 Z" fill="#8a8d04" />
<path d="M 0.00 130.77 C 5.38 130.78 4.89 135.18 7.02 139.22 C 7.24 140.54 7.41 141.80 8.01 143.02 C 14.22 151.71 21.43 146.99 29.78 151.25 C 31.42 153.00 32.04 155.81 32.94 158.00 L 0.00 158.00 L 0.00 130.77 Z" fill="#4e760f" />
<path d="M 133.16 131.62 C 135.70 132.20 138.50 131.40 140.04 133.81 C 136.37 134.23 132.78 134.20 129.34 132.68 C 128.04 129.86 131.72 131.82 133.16 131.62 Z" fill="#c4ef48" />
<path d="M 158.00 131.86 L 158.00 158.00 L 124.71 158.00 C 126.86 155.33 128.47 149.81 132.69 150.50 C 137.47 148.75 142.08 150.26 144.28 143.78 C 148.05 144.15 147.93 144.20 150.00 141.12 C 153.64 139.44 155.46 134.93 158.00 131.86 Z" fill="#5a8714" />
<path d="M 123.81 137.14 C 125.81 139.43 126.99 141.47 128.09 144.31 C 126.91 144.77 125.67 144.97 124.41 145.10 C 125.08 143.57 126.43 140.55 123.90 140.12 C 117.59 140.46 111.25 143.37 105.30 145.43 C 103.13 146.91 102.27 145.22 100.01 145.05 C 83.81 144.75 67.92 144.91 51.78 146.26 C 48.37 145.60 41.53 144.61 41.00 140.27 C 67.70 144.00 97.87 145.78 123.81 137.14 Z" fill="#c0db21" />
<path d="M 123.90 140.12 C 126.43 140.55 125.08 143.57 124.41 145.10 C 125.67 144.97 126.91 144.77 128.09 144.31 C 132.28 142.49 135.41 141.79 140.02 141.77 C 141.75 142.14 142.90 142.68 144.28 143.78 C 138.51 145.50 132.67 146.69 127.11 149.04 C 122.50 148.94 118.78 151.01 114.43 151.82 C 113.64 153.90 113.00 156.01 111.98 158.00 L 45.23 158.00 C 44.53 152.55 41.11 152.29 37.67 149.19 C 39.49 149.06 41.31 148.93 43.14 148.86 C 48.48 151.49 56.56 152.24 61.92 149.53 C 58.55 148.37 55.25 147.09 51.78 146.26 C 67.92 144.91 83.81 144.75 100.01 145.05 C 102.27 145.22 103.13 146.91 105.30 145.43 C 111.25 143.37 117.59 140.46 123.90 140.12 Z" fill="#ccef2f" />
<path d="M 8.01 143.02 C 16.73 144.66 25.04 147.53 33.72 149.21 C 35.07 152.32 37.14 155.18 39.00 158.00 L 32.94 158.00 C 32.04 155.81 31.42 153.00 29.78 151.25 C 21.43 146.99 14.22 151.71 8.01 143.02 Z" fill="#7ca011" />
<path d="M 144.28 143.78 C 142.08 150.26 137.47 148.75 132.69 150.50 C 128.47 149.81 126.86 155.33 124.71 158.00 L 119.79 158.00 C 122.07 154.51 123.08 150.99 127.11 149.04 C 132.67 146.69 138.51 145.50 144.28 143.78 Z" fill="#7ba213" />
<path d="M 33.72 149.21 C 35.03 149.19 36.35 149.19 37.67 149.19 C 41.11 152.29 44.53 152.55 45.23 158.00 L 39.00 158.00 C 37.14 155.18 35.07 152.32 33.72 149.21 Z" fill="#a6cd21" />
<path d="M 127.11 149.04 C 123.08 150.99 122.07 154.51 119.79 158.00 L 111.98 158.00 C 113.00 156.01 113.64 153.90 114.43 151.82 C 118.78 151.01 122.50 148.94 127.11 149.04 Z" fill="#accd24" />
</svg>