<?xml version="1.0" encoding="UTF-8" standalone="no"?>
<!DOCTYPE svg PUBLIC "-//W3C//DTD SVG 1.1//EN" "http://www.w3.org/Graphics/SVG/1.1/DTD/svg11.dtd">
<svg xmlns="http://www.w3.org/2000/svg" version="1.1" viewBox="0 0 191 191" width="191.0pt" height="191.0pt">
<path d="M 0.00 0.00 L 191.00 0.00 L 191.00 191.00 L 143.70 191.00 C 143.68 166.31 143.39 141.66 143.38 116.98 C 143.45 113.29 144.28 109.70 144.19 106.00 C 144.34 102.21 143.45 98.51 143.62 94.75 C 144.29 90.49 144.27 86.17 143.71 81.90 C 142.70 75.43 143.26 68.57 143.01 62.00 C 142.75 55.71 142.94 49.37 142.50 43.09 C 142.44 41.56 141.40 40.28 140.02 39.70 C 130.48 36.77 120.43 35.44 110.74 32.96 C 112.05 31.65 114.93 30.70 114.34 28.49 C 113.32 27.01 111.71 26.22 110.10 25.53 L 109.34 25.22 C 110.99 21.76 114.01 17.53 113.63 13.57 C 112.75 12.76 111.73 12.13 110.66 11.61 C 109.55 11.42 108.45 11.28 107.33 11.19 C 97.60 10.23 87.44 9.97 77.82 11.91 C 76.19 12.25 74.63 12.78 73.04 13.30 C 73.95 17.62 75.54 21.54 77.58 25.43 C 75.73 26.48 73.63 27.30 72.38 29.01 C 72.42 30.97 74.22 32.07 75.43 33.37 C 73.98 33.69 72.53 34.03 71.09 34.37 C 67.17 35.22 63.29 36.25 59.41 37.25 C 55.66 38.07 51.76 38.78 48.18 40.18 C 46.61 40.97 44.80 41.97 44.84 43.98 C 44.06 57.23 45.20 70.74 43.57 83.93 C 43.12 91.34 44.53 98.58 44.28 106.00 C 44.83 134.33 44.78 162.67 45.18 191.00 L 0.00 191.00 L 0.00 0.00 Z" fill="#ffffff" />
<path d="M 107.33 11.19 C 102.35 11.39 97.37 11.45 92.38 11.54 C 90.37 12.07 86.92 12.60 86.45 15.09 C 86.47 17.63 87.53 20.30 88.21 22.72 C 87.00 22.93 85.79 23.16 84.58 23.40 C 81.37 21.82 80.02 19.20 78.46 16.16 C 78.99 14.62 79.50 13.08 80.01 11.53 L 77.82 11.91 C 87.44 9.97 97.60 10.23 107.33 11.19 Z" fill="#a5570d" />
<path d="M 107.33 11.19 C 108.45 11.28 109.55 11.42 110.66 11.61 C 112.07 15.86 110.99 20.78 106.82 22.88 C 101.92 23.59 96.71 22.20 91.73 22.33 C 92.65 18.54 92.89 15.42 92.38 11.54 C 97.37 11.45 102.35 11.39 107.33 11.19 Z" fill="#eba52e" />
<path d="M 77.82 11.91 L 80.01 11.53 C 79.50 13.08 78.99 14.62 78.46 16.16 C 80.02 19.20 81.37 21.82 84.58 23.40 L 85.27 23.45 C 82.56 23.67 79.96 24.06 77.58 25.43 C 75.54 21.54 73.95 17.62 73.04 13.30 C 74.63 12.78 76.19 12.25 77.82 11.91 Z" fill="#5e3720" />
<path d="M 92.38 11.54 C 92.89 15.42 92.65 18.54 91.73 22.33 C 90.56 22.43 89.38 22.56 88.21 22.72 C 87.53 20.30 86.47 17.63 86.45 15.09 C 86.92 12.60 90.37 12.07 92.38 11.54 Z" fill="#d07c08" />
<path d="M 110.66 11.61 C 111.73 12.13 112.75 12.76 113.63 13.57 C 114.01 17.53 110.99 21.76 109.34 25.22 C 101.59 23.60 93.17 23.67 85.27 23.45 L 84.58 23.40 C 85.79 23.16 87.00 22.93 88.21 22.72 C 89.38 22.56 90.56 22.43 91.73 22.33 C 96.71 22.20 101.92 23.59 106.82 22.88 C 110.99 20.78 112.07 15.86 110.66 11.61 Z" fill="#c39343" />
<path d="M 85.27 23.45 C 93.17 23.67 101.59 23.60 109.34 25.22 L 110.10 25.53 C 103.23 26.31 97.60 24.42 91.30 27.88 C 97.68 28.65 103.61 27.90 109.68 30.49 C 108.07 31.58 106.41 32.60 104.76 33.62 C 105.10 34.06 105.45 34.50 105.80 34.93 C 104.58 35.03 103.36 35.13 102.14 35.23 C 103.05 35.77 103.97 36.32 104.88 36.86 C 102.33 37.42 100.03 38.17 97.41 37.46 C 94.13 36.63 90.96 36.40 87.59 36.41 C 84.21 36.44 81.64 34.60 78.41 34.22 C 75.98 34.12 73.52 34.28 71.09 34.37 C 72.53 34.03 73.98 33.69 75.43 33.37 C 74.22 32.07 72.42 30.97 72.38 29.01 C 73.63 27.30 75.73 26.48 77.58 25.43 C 79.96 24.06 82.56 23.67 85.27 23.45 Z" fill="#0f0e10" />
<path d="M 110.10 25.53 C 111.71 26.22 113.32 27.01 114.34 28.49 C 114.93 30.70 112.05 31.65 110.74 32.96 C 120.43 35.44 130.48 36.77 140.02 39.70 C 131.04 41.47 121.47 40.25 112.36 40.35 C 104.34 39.69 96.45 40.34 88.45 41.02 C 87.82 41.43 87.20 41.85 86.58 42.29 C 83.67 40.94 80.79 39.55 78.05 37.88 C 77.89 38.42 77.74 38.95 77.58 39.48 C 75.39 38.43 73.55 37.57 71.04 37.99 C 66.82 38.49 63.56 38.23 59.41 37.25 C 63.29 36.25 67.17 35.22 71.09 34.37 C 73.52 34.28 75.98 34.12 78.41 34.22 C 81.64 34.60 84.21 36.44 87.59 36.41 C 90.96 36.40 94.13 36.63 97.41 37.46 C 100.03 38.17 102.33 37.42 104.88 36.86 C 103.97 36.32 103.05 35.77 102.14 35.23 C 103.36 35.13 104.58 35.03 105.80 34.93 C 105.45 34.50 105.10 34.06 104.76 33.62 C 106.41 32.60 108.07 31.58 109.68 30.49 C 103.61 27.90 97.68 28.65 91.30 27.88 C 97.60 24.42 103.23 26.31 110.10 25.53 Z" fill="#1a191c" />
<path d="M 77.58 39.48 C 77.74 38.95 77.89 38.42 78.05 37.88 C 80.79 39.55 83.67 40.94 86.58 42.29 C 89.71 45.27 91.66 49.34 90.76 53.71 C 90.03 56.61 88.45 59.40 87.12 62.06 C 87.84 62.52 88.57 62.97 89.30 63.42 C 89.58 62.17 89.88 60.92 90.18 59.68 C 90.78 62.12 90.95 64.08 90.69 66.58 C 92.07 66.78 93.46 66.97 94.85 67.17 C 94.39 68.16 93.93 69.15 93.47 70.14 L 92.12 68.38 C 90.43 68.63 88.74 68.88 87.07 69.23 C 86.66 69.91 86.26 70.60 85.87 71.30 C 87.40 72.62 88.96 73.89 90.55 75.13 C 91.46 73.75 92.37 72.40 93.11 70.92 C 93.74 72.27 94.31 73.72 95.16 74.94 C 96.16 76.15 98.17 76.59 99.58 77.06 C 98.57 80.45 97.24 83.65 95.40 86.67 C 95.12 87.71 94.84 88.74 94.56 89.78 C 93.85 89.23 93.32 88.62 92.96 87.97 C 92.46 84.49 92.73 80.93 92.32 77.43 C 91.10 77.47 89.88 77.52 88.66 77.59 C 88.64 79.25 88.59 80.91 88.51 82.57 C 85.50 80.33 83.75 76.94 79.45 78.42 C 73.18 80.22 73.82 90.52 79.58 92.47 C 81.25 93.14 82.76 92.56 84.41 92.14 C 85.41 93.45 86.40 94.75 87.40 96.06 C 88.17 95.57 88.94 95.07 89.71 94.58 C 91.02 95.94 92.34 97.30 93.66 98.66 C 93.62 97.40 93.58 96.14 93.54 94.89 C 94.16 96.45 94.77 98.02 95.38 99.59 C 87.39 99.22 79.71 100.05 73.51 105.62 C 68.40 109.85 67.88 115.81 67.35 122.00 C 67.12 128.71 72.16 134.57 76.15 139.50 C 76.47 141.55 76.77 143.60 77.19 145.63 C 75.47 141.81 71.17 141.78 67.65 140.81 C 67.02 138.42 66.69 135.67 65.47 133.51 C 64.12 131.49 60.07 130.32 58.90 133.10 C 57.23 136.31 59.52 138.99 61.10 141.64 C 58.18 143.54 54.73 145.02 54.92 149.11 C 55.02 151.22 57.24 151.77 58.99 151.88 C 60.40 151.67 61.73 150.58 62.89 149.80 C 62.44 150.96 62.02 152.13 61.61 153.31 C 62.86 154.09 64.11 154.87 65.35 155.66 C 63.03 155.02 60.28 154.52 58.61 156.72 C 57.47 157.65 58.46 159.87 59.23 160.77 C 60.97 163.12 63.41 163.42 66.12 163.74 C 65.10 166.64 63.93 169.41 65.31 172.44 C 66.03 173.27 66.80 174.11 67.61 174.84 C 68.80 174.38 69.99 173.91 71.17 173.44 C 73.92 176.28 74.17 177.36 74.21 181.34 C 73.34 179.59 72.51 177.82 71.68 176.05 C 70.68 176.87 69.67 177.68 68.67 178.50 C 69.82 180.50 70.96 182.50 71.90 184.62 C 68.55 184.82 65.34 184.72 62.00 184.36 L 62.00 184.75 C 61.71 186.29 61.82 187.69 62.31 188.94 C 62.95 188.44 63.29 187.66 63.32 186.60 C 63.73 187.36 64.14 188.12 64.54 188.89 C 65.58 188.84 66.62 188.79 67.65 188.73 L 68.11 189.01 C 69.06 189.67 70.02 190.34 70.97 191.00 L 45.18 191.00 C 44.78 162.67 44.83 134.33 44.28 106.00 C 44.53 98.58 43.12 91.34 43.57 83.93 C 45.20 70.74 44.06 57.23 44.84 43.98 C 44.80 41.97 46.61 40.97 48.18 40.18 C 51.76 38.78 55.66 38.07 59.41 37.25 C 63.56 38.23 66.82 38.49 71.04 37.99 C 73.55 37.57 75.39 38.43 77.58 39.48 Z" fill="#0c0d0f" />
<path d="M 58.82 39.69 C 57.79 40.41 56.76 41.12 55.72 41.84 C 63.12 46.05 72.31 46.11 80.36 48.91 C 81.66 49.40 82.61 50.86 83.49 51.89 C 81.01 51.11 78.96 51.31 76.46 51.80 C 76.94 54.01 77.55 55.60 78.86 57.44 C 80.03 57.15 81.21 56.85 82.38 56.53 C 81.06 57.65 79.73 58.57 78.03 59.02 C 73.21 60.39 68.12 61.43 63.08 61.31 C 59.57 61.22 56.22 61.46 52.76 62.05 C 51.24 59.02 49.18 55.67 48.73 52.28 C 48.71 48.99 50.15 45.59 52.07 42.96 C 53.47 40.96 56.65 40.46 58.82 39.69 Z" fill="#232226" />
<path d="M 88.45 41.02 C 96.45 40.34 104.34 39.69 112.36 40.35 C 109.58 40.69 106.81 41.20 104.05 41.66 C 107.91 41.73 112.08 41.41 115.85 42.35 C 117.37 43.11 118.68 44.37 119.99 45.45 C 118.69 45.84 117.40 46.24 116.10 46.63 C 117.17 46.80 118.23 46.96 119.30 47.13 C 119.15 47.71 118.99 48.28 118.84 48.86 C 121.85 55.10 119.52 60.53 120.40 67.06 C 120.67 69.48 121.83 71.33 122.93 73.44 C 121.32 76.29 120.39 77.11 117.34 78.24 C 117.06 78.68 116.78 79.13 116.50 79.58 C 113.83 78.58 110.73 78.31 108.64 80.59 C 106.96 82.77 106.51 85.89 105.43 88.42 C 104.92 84.61 104.18 80.92 103.29 77.19 C 102.06 77.15 100.82 77.13 99.58 77.06 C 98.17 76.59 96.16 76.15 95.16 74.94 C 94.31 73.72 93.74 72.27 93.11 70.92 L 93.47 70.14 C 93.93 69.15 94.39 68.16 94.85 67.17 C 93.46 66.97 92.07 66.78 90.69 66.58 C 90.95 64.08 90.78 62.12 90.18 59.68 C 89.88 60.92 89.58 62.17 89.30 63.42 C 88.57 62.97 87.84 62.52 87.12 62.06 C 88.45 59.40 90.03 56.61 90.76 53.71 C 91.66 49.34 89.71 45.27 86.58 42.29 C 87.20 41.85 87.82 41.43 88.45 41.02 Z" fill="#1f2025" />
<path d="M 112.36 40.35 C 121.47 40.25 131.04 41.47 140.02 39.70 C 141.40 40.28 142.44 41.56 142.50 43.09 C 142.94 49.37 142.75 55.71 143.01 62.00 C 143.26 68.57 142.70 75.43 143.71 81.90 C 143.09 86.22 143.16 90.42 143.62 94.75 C 143.45 98.51 144.34 102.21 144.19 106.00 C 144.28 109.70 143.45 113.29 143.38 116.98 C 143.39 141.66 143.68 166.31 143.70 191.00 L 131.64 191.00 C 130.07 190.43 128.51 189.83 126.93 189.30 C 126.98 187.80 127.02 186.30 127.05 184.80 C 125.33 184.82 123.60 184.86 121.87 184.84 C 121.66 182.52 121.74 180.38 122.15 178.09 C 122.93 178.38 123.71 178.66 124.48 178.94 C 124.48 179.91 124.47 180.87 124.47 181.84 C 125.52 180.75 126.57 179.65 127.62 178.56 C 125.89 178.07 124.16 177.59 122.43 177.09 C 123.24 175.75 124.05 174.43 124.64 172.98 C 124.80 170.66 123.37 168.29 122.29 166.30 C 125.59 164.90 128.49 163.60 129.60 159.87 C 129.34 156.10 125.82 156.09 122.97 156.88 C 122.24 155.70 121.51 154.52 120.78 153.34 C 122.87 152.91 124.94 152.40 127.02 151.91 C 125.63 150.82 124.02 149.74 122.91 148.35 C 122.65 147.10 122.69 145.77 122.62 144.50 C 124.77 145.92 127.25 149.04 129.96 149.01 C 133.52 148.56 133.92 144.24 132.00 141.90 C 130.99 140.51 128.62 140.21 127.09 139.65 C 128.92 136.53 130.14 132.58 127.55 129.50 C 125.00 127.81 122.74 130.74 120.74 131.98 C 119.37 132.70 119.31 134.64 121.08 134.72 L 120.92 136.04 C 119.77 137.51 118.81 138.81 118.93 140.78 C 116.28 141.98 113.62 143.16 110.98 144.36 C 111.01 145.82 111.04 147.28 111.08 148.74 C 111.61 148.64 112.13 148.54 112.66 148.44 C 111.94 148.60 111.22 148.74 110.49 148.86 C 110.56 145.73 110.65 141.98 112.15 139.16 C 115.25 134.79 118.88 131.63 119.96 126.03 C 120.43 122.21 119.92 118.19 119.26 114.40 C 120.78 113.17 122.21 112.02 123.00 110.18 C 124.19 107.39 126.37 105.59 128.19 103.26 C 127.96 101.52 127.12 99.78 126.47 98.16 C 126.59 97.33 126.72 96.50 126.84 95.67 C 129.45 97.63 129.84 98.06 132.98 97.17 C 132.11 96.41 131.23 95.64 130.35 94.88 C 131.01 91.88 133.27 88.25 132.63 85.20 C 131.40 82.07 128.72 82.60 125.99 82.04 C 124.50 81.75 123.95 80.91 122.37 80.72 L 121.93 80.66 C 120.62 80.51 119.30 80.38 117.99 80.18 L 116.50 79.58 C 116.78 79.13 117.06 78.68 117.34 78.24 C 120.39 77.11 121.32 76.29 122.93 73.44 C 121.83 71.33 120.67 69.48 120.40 67.06 C 119.52 60.53 121.85 55.10 118.84 48.86 C 118.99 48.28 119.15 47.71 119.30 47.13 C 118.23 46.96 117.17 46.80 116.10 46.63 C 117.40 46.24 118.69 45.84 119.99 45.45 C 118.68 44.37 117.37 43.11 115.85 42.35 C 112.08 41.41 107.91 41.73 104.05 41.66 C 106.81 41.20 109.58 40.69 112.36 40.35 Z" fill="#2d2e34" />
<path d="M 61.72 44.78 C 60.48 45.68 59.24 46.56 57.97 47.40 C 56.55 48.37 54.79 49.41 53.85 50.88 C 53.14 52.64 52.95 54.67 52.60 56.52 C 51.04 53.48 51.54 50.45 53.98 48.03 C 56.16 45.80 58.82 45.44 61.72 44.78 Z" fill="#3d3e41" />
<path d="M 57.97 47.40 C 59.92 47.97 62.65 48.41 64.08 49.96 C 65.47 52.68 65.07 56.46 65.26 59.46 C 62.29 59.54 59.32 59.62 56.35 59.72 C 55.09 58.67 53.82 57.62 52.60 56.52 C 52.95 54.67 53.14 52.64 53.85 50.88 C 54.79 49.41 56.55 48.37 57.97 47.40 Z" fill="#090911" />
<path d="M 83.49 51.89 C 83.45 53.67 83.87 55.23 82.38 56.53 C 81.21 56.85 80.03 57.15 78.86 57.44 C 77.55 55.60 76.94 54.01 76.46 51.80 C 78.96 51.31 81.01 51.11 83.49 51.89 Z" fill="#a3a3a3" />
<path d="M 59.50 52.43 C 60.51 53.71 61.46 55.01 62.41 56.32 C 60.93 56.53 59.45 56.73 57.96 56.93 C 57.96 55.60 57.98 54.28 58.02 52.96 C 58.51 52.77 59.00 52.60 59.50 52.43 Z" fill="#24242d" />
<path d="M 87.07 69.23 C 88.74 68.88 90.43 68.63 92.12 68.38 L 93.47 70.14 L 93.11 70.92 C 92.37 72.40 91.46 73.75 90.55 75.13 C 88.96 73.89 87.40 72.62 85.87 71.30 C 86.26 70.60 86.66 69.91 87.07 69.23 Z" fill="#f7f8fa" />
<path d="M 70.98 75.02 C 74.18 76.30 74.67 79.57 73.55 82.53 C 72.54 85.39 69.65 86.52 67.25 87.97 C 67.94 90.38 68.62 92.80 69.28 95.22 C 68.03 95.56 66.77 95.89 65.51 96.21 C 63.83 90.47 62.18 84.73 60.46 79.00 C 61.75 78.38 63.04 77.77 64.34 77.16 C 65.16 80.24 65.86 83.42 67.00 86.41 C 71.01 84.61 71.94 78.26 67.85 76.17 C 64.18 75.18 59.06 77.33 57.59 80.95 C 56.69 83.37 58.72 85.54 59.70 87.62 C 56.56 87.03 55.76 86.78 54.02 84.01 C 55.85 76.80 64.10 72.70 70.98 75.02 Z" fill="#ececed" />
<path d="M 92.32 77.43 C 92.73 80.93 92.46 84.49 92.96 87.97 C 93.32 88.62 93.85 89.23 94.56 89.78 C 94.84 88.74 95.12 87.71 95.40 86.67 C 97.24 83.65 98.57 80.45 99.58 77.06 C 100.82 77.13 102.06 77.15 103.29 77.19 C 104.18 80.92 104.92 84.61 105.43 88.42 C 106.51 85.89 106.96 82.77 108.64 80.59 C 110.73 78.31 113.83 78.58 116.50 79.58 L 117.99 80.18 C 118.48 82.05 120.02 84.51 119.04 86.42 C 117.83 89.32 116.76 93.04 112.97 93.10 C 109.85 93.20 108.35 91.05 106.48 88.98 C 104.72 90.03 102.80 91.46 100.77 91.85 C 99.17 91.81 97.56 91.14 96.00 90.76 L 94.45 91.62 C 92.23 91.85 90.72 91.63 89.53 89.56 C 88.98 87.43 89.05 85.09 88.87 82.90 C 88.30 83.22 87.72 83.55 87.15 83.87 C 87.01 85.86 86.86 87.84 86.45 89.80 C 85.80 90.60 85.12 91.38 84.41 92.14 C 82.76 92.56 81.25 93.14 79.58 92.47 C 73.82 90.52 73.18 80.22 79.45 78.42 C 83.75 76.94 85.50 80.33 88.51 82.57 C 88.59 80.91 88.64 79.25 88.66 77.59 C 89.88 77.52 91.10 77.47 92.32 77.43 Z" fill="#f6f5f7" />
<path d="M 83.27 79.59 C 83.09 82.58 82.74 82.93 85.18 84.89 C 84.86 86.23 84.76 87.84 84.01 89.02 C 83.10 89.63 82.13 90.17 81.12 90.64 C 78.88 87.03 78.30 85.02 79.69 80.86 C 80.87 80.41 82.06 79.98 83.27 79.59 Z" fill="#19191b" />
<path d="M 100.02 80.16 L 100.21 80.89 C 100.74 82.96 101.26 85.04 101.80 87.11 C 101.50 87.79 101.21 88.46 100.91 89.14 C 99.87 89.16 98.83 89.17 97.78 89.19 C 98.64 86.20 99.31 83.18 100.02 80.16 Z" fill="#4b4b4c" />
<path d="M 121.93 80.66 C 120.45 85.11 119.85 89.70 118.86 94.26 C 119.96 94.51 121.06 94.75 122.17 94.99 C 123.04 91.72 123.94 88.47 124.78 85.19 C 126.19 84.78 128.88 83.65 128.99 86.08 C 128.54 89.33 127.13 92.36 126.84 95.67 C 126.72 96.50 126.59 97.33 126.47 98.16 C 127.12 99.78 127.96 101.52 128.19 103.26 C 126.37 105.59 124.19 107.39 123.00 110.18 C 122.21 112.02 120.78 113.17 119.26 114.40 C 118.04 110.04 115.61 106.62 111.68 104.30 C 106.75 101.04 101.21 99.87 95.38 99.59 C 94.77 98.02 94.16 96.45 93.54 94.89 C 93.58 96.14 93.62 97.40 93.66 98.66 C 92.34 97.30 91.02 95.94 89.71 94.58 C 88.94 95.07 88.17 95.57 87.40 96.06 C 86.40 94.75 85.41 93.45 84.41 92.14 C 85.12 91.38 85.80 90.60 86.45 89.80 C 89.01 91.67 91.64 92.97 94.60 94.07 L 94.45 91.62 L 96.00 90.76 C 97.56 91.14 99.17 91.81 100.77 91.85 C 102.80 91.46 104.72 90.03 106.48 88.98 C 108.35 91.05 109.85 93.20 112.97 93.10 C 116.76 93.04 117.83 89.32 119.04 86.42 C 120.02 84.51 118.48 82.05 117.99 80.18 C 119.30 80.38 120.62 80.51 121.93 80.66 Z" fill="#25252a" />
<path d="M 122.37 80.72 C 123.95 80.91 124.50 81.75 125.99 82.04 C 128.72 82.60 131.40 82.07 132.63 85.20 C 133.27 88.25 131.01 91.88 130.35 94.88 C 131.23 95.64 132.11 96.41 132.98 97.17 C 129.84 98.06 129.45 97.63 126.84 95.67 C 127.13 92.36 128.54 89.33 128.99 86.08 C 128.88 83.65 126.19 84.78 124.78 85.19 C 123.94 88.47 123.04 91.72 122.17 94.99 C 121.06 94.75 119.96 94.51 118.86 94.26 C 119.85 89.70 120.45 85.11 121.93 80.66 L 122.37 80.72 Z" fill="#f8f8fa" />
<path d="M 113.07 80.97 C 114.24 80.92 115.41 80.95 116.59 81.05 C 116.08 82.03 115.60 83.02 115.15 84.03 C 115.70 84.74 116.28 85.42 116.88 86.08 C 115.90 88.29 114.75 89.90 113.05 91.61 C 112.17 90.51 110.91 89.41 110.45 88.06 C 110.35 85.43 110.79 82.61 113.07 80.97 Z" fill="#252526" />
<path d="M 143.71 81.90 C 144.27 86.17 144.29 90.49 143.62 94.75 C 143.16 90.42 143.09 86.22 143.71 81.90 Z" fill="#1c1e23" />
<path d="M 88.87 82.90 C 89.05 85.09 88.98 87.43 89.53 89.56 C 90.72 91.63 92.23 91.85 94.45 91.62 L 94.60 94.07 C 91.64 92.97 89.01 91.67 86.45 89.80 C 86.86 87.84 87.01 85.86 87.15 83.87 C 87.72 83.55 88.30 83.22 88.87 82.90 Z" fill="#0c0c0e" />
<path d="M 95.38 99.59 C 101.21 99.87 106.75 101.04 111.68 104.30 C 115.61 106.62 118.04 110.04 119.26 114.40 C 119.92 118.19 120.43 122.21 119.96 126.03 C 118.88 131.63 115.25 134.79 112.15 139.16 C 110.65 141.98 110.56 145.73 110.49 148.86 C 107.75 152.98 103.72 154.67 99.55 156.95 C 96.95 158.49 93.33 158.16 90.48 157.58 C 87.00 156.22 83.91 153.79 80.65 151.97 C 78.10 150.26 77.96 147.89 77.19 145.13 C 77.21 146.31 77.22 147.48 77.22 148.65 C 73.47 147.38 69.65 146.42 65.78 145.59 C 64.82 147.00 63.85 148.40 62.89 149.80 C 61.73 150.58 60.40 151.67 58.99 151.88 C 57.24 151.77 55.02 151.22 54.92 149.11 C 54.73 145.02 58.18 143.54 61.10 141.64 C 59.52 138.99 57.23 136.31 58.90 133.10 C 60.07 130.32 64.12 131.49 65.47 133.51 C 66.69 135.67 67.02 138.42 67.65 140.81 C 71.17 141.78 75.47 141.81 77.19 145.63 C 76.77 143.60 76.47 141.55 76.15 139.50 C 72.16 134.57 67.12 128.71 67.35 122.00 C 67.88 115.81 68.40 109.85 73.51 105.62 C 79.71 100.05 87.39 99.22 95.38 99.59 Z" fill="#f3f3f4" />
<path d="M 141.77 98.97 C 143.55 103.55 143.17 108.08 142.44 112.83 C 141.29 108.23 141.22 103.66 141.77 98.97 Z" fill="#474951" />
<path d="M 79.52 116.60 C 83.30 116.25 87.03 117.96 88.55 121.57 C 90.26 125.45 89.12 130.42 84.87 132.01 C 80.42 134.08 74.48 131.13 73.66 126.24 C 72.87 122.35 75.05 116.93 79.52 116.60 Z" fill="#1b1c1e" />
<path d="M 103.49 117.44 C 107.61 115.72 112.06 116.95 113.48 121.44 C 115.50 126.28 112.70 131.38 107.84 132.79 C 104.25 133.33 99.82 132.11 98.66 128.24 C 96.68 124.01 99.49 119.17 103.49 117.44 Z" fill="#252429" />
<path d="M 127.55 129.50 C 130.14 132.58 128.92 136.53 127.09 139.65 C 128.62 140.21 130.99 140.51 132.00 141.90 C 133.92 144.24 133.52 148.56 129.96 149.01 C 127.25 149.04 124.77 145.92 122.62 144.50 C 119.43 146.35 116.26 147.60 112.66 148.44 C 112.13 148.54 111.61 148.64 111.08 148.74 C 111.04 147.28 111.01 145.82 110.98 144.36 C 113.62 143.16 116.28 141.98 118.93 140.78 C 119.64 140.49 120.32 140.14 120.97 139.74 C 121.16 138.54 121.14 137.31 120.92 136.04 L 121.08 134.72 C 121.30 133.66 121.19 132.75 120.74 131.98 C 122.74 130.74 125.00 127.81 127.55 129.50 Z" fill="#f8f8f9" />
<path d="M 120.74 131.98 C 121.19 132.75 121.30 133.66 121.08 134.72 C 119.31 134.64 119.37 132.70 120.74 131.98 Z" fill="#0a0a0c" />
<path d="M 93.54 134.88 C 94.61 136.25 95.60 137.68 96.56 139.13 C 94.49 139.22 92.42 139.25 90.35 139.22 C 91.36 137.73 92.39 136.26 93.54 134.88 Z" fill="#454546" />
<path d="M 120.92 136.04 C 121.14 137.31 121.16 138.54 120.97 139.74 C 120.32 140.14 119.64 140.49 118.93 140.78 C 118.81 138.81 119.77 137.51 120.92 136.04 Z" fill="#242425" />
<path d="M 83.80 144.33 C 88.47 143.74 93.27 144.07 98.00 143.94 C 100.71 144.02 103.66 143.61 106.04 145.09 C 106.28 146.43 105.86 147.35 104.80 147.85 C 102.29 149.58 99.13 150.00 96.23 150.62 L 96.23 149.08 C 97.72 148.97 99.20 148.86 100.69 148.74 C 99.12 146.47 97.60 147.42 95.28 147.38 L 95.41 150.54 C 90.42 150.91 86.19 149.79 81.96 147.15 C 82.30 146.42 82.64 145.69 82.98 144.95 C 86.86 145.65 91.06 147.24 94.80 145.48 C 91.09 145.05 87.45 145.23 83.80 144.33 Z" fill="#7e7e7e" />
<path d="M 94.86 145.65 C 96.61 144.78 98.27 144.67 100.02 145.54 C 98.35 146.41 96.48 146.90 94.86 145.65 Z" fill="#f9f9f9" />
<path d="M 101.17 145.16 C 102.55 144.63 103.48 144.98 103.95 146.21 C 102.63 146.76 101.71 146.41 101.17 145.16 Z" fill="#fafafa" />
<path d="M 122.62 144.50 C 122.69 145.77 122.65 147.10 122.91 148.35 C 124.02 149.74 125.63 150.82 127.02 151.91 C 124.94 152.40 122.87 152.91 120.78 153.34 C 121.51 154.52 122.24 155.70 122.97 156.88 C 121.26 158.43 119.71 160.13 118.19 161.87 C 112.68 160.67 107.71 158.41 102.70 155.91 C 101.65 156.25 100.60 156.59 99.55 156.95 C 103.72 154.67 107.75 152.98 110.49 148.86 C 111.22 148.74 111.94 148.60 112.66 148.44 C 116.26 147.60 119.43 146.35 122.62 144.50 Z" fill="#26252a" />
<path d="M 65.78 145.59 C 69.65 146.42 73.47 147.38 77.22 148.65 C 77.22 147.48 77.21 146.31 77.19 145.13 C 77.96 147.89 78.10 150.26 80.65 151.97 L 82.16 153.22 C 77.94 154.81 73.77 156.36 69.97 158.84 C 68.44 157.76 66.93 156.66 65.35 155.66 C 64.11 154.87 62.86 154.09 61.61 153.31 C 62.02 152.13 62.44 150.96 62.89 149.80 C 63.85 148.40 64.82 147.00 65.78 145.59 Z" fill="#16151a" />
<path d="M 85.52 147.22 L 86.24 146.83 L 86.97 147.26 L 87.00 148.08 L 86.28 148.47 L 85.54 148.04 L 85.52 147.22 Z" fill="#fafafa" />
<path d="M 101.19 147.02 L 101.92 146.62 L 102.65 147.03 L 102.64 147.84 L 101.90 148.23 L 101.18 147.83 L 101.19 147.02 Z" fill="#f6f6f6" />
<path d="M 88.53 147.94 C 90.47 147.36 92.21 147.60 93.84 148.83 C 91.95 149.36 90.07 149.28 88.53 147.94 Z" fill="#f9f9f9" />
<path d="M 80.65 151.97 C 83.91 153.79 87.00 156.22 90.48 157.58 C 93.33 158.16 96.95 158.49 99.55 156.95 C 99.36 157.49 99.17 158.04 98.98 158.59 C 104.15 161.66 109.79 165.29 115.70 166.57 C 116.06 169.12 116.12 172.29 117.52 174.50 C 118.49 176.08 120.78 176.53 122.43 177.09 C 124.16 177.59 125.89 178.07 127.62 178.56 C 126.57 179.65 125.52 180.75 124.47 181.84 C 124.47 180.87 124.48 179.91 124.48 178.94 C 123.71 178.66 122.93 178.38 122.15 178.09 C 121.74 180.38 121.66 182.52 121.87 184.84 C 120.58 184.84 119.29 184.83 118.00 184.83 C 117.82 186.31 117.64 187.80 117.45 189.28 C 118.60 189.17 119.75 189.04 120.90 188.90 C 122.91 189.04 124.93 189.11 126.93 189.30 C 128.51 189.83 130.07 190.43 131.64 191.00 L 70.97 191.00 C 70.02 190.34 69.06 189.67 68.11 189.01 C 69.48 189.09 70.84 189.16 72.21 189.22 C 71.82 188.56 71.43 187.90 71.04 187.24 C 71.34 186.37 71.63 185.50 71.90 184.62 C 70.96 182.50 69.82 180.50 68.67 178.50 C 69.67 177.68 70.68 176.87 71.68 176.05 C 72.51 177.82 73.34 179.59 74.21 181.34 C 74.17 177.36 73.92 176.28 71.17 173.44 C 73.17 170.08 72.75 167.05 72.31 163.31 C 76.92 160.60 81.57 158.18 86.48 156.06 C 85.04 155.12 83.56 154.22 82.16 153.22 L 80.65 151.97 Z" fill="#1b1c1f" />
<path d="M 82.16 153.22 C 83.56 154.22 85.04 155.12 86.48 156.06 C 81.57 158.18 76.92 160.60 72.31 163.31 C 72.75 167.05 73.17 170.08 71.17 173.44 C 69.99 173.91 68.80 174.38 67.61 174.84 C 66.80 174.11 66.03 173.27 65.31 172.44 C 63.93 169.41 65.10 166.64 66.12 163.74 C 63.41 163.42 60.97 163.12 59.23 160.77 C 58.46 159.87 57.47 157.65 58.61 156.72 C 60.28 154.52 63.03 155.02 65.35 155.66 C 66.93 156.66 68.44 157.76 69.97 158.84 C 73.77 156.36 77.94 154.81 82.16 153.22 Z" fill="#edeef0" />
<path d="M 102.70 155.91 C 107.71 158.41 112.68 160.67 118.19 161.87 C 119.71 160.13 121.26 158.43 122.97 156.88 C 125.82 156.09 129.34 156.10 129.60 159.87 C 128.49 163.60 125.59 164.90 122.29 166.30 C 123.37 168.29 124.80 170.66 124.64 172.98 C 124.05 174.43 123.24 175.75 122.43 177.09 C 120.78 176.53 118.49 176.08 117.52 174.50 C 116.12 172.29 116.06 169.12 115.70 166.57 C 109.79 165.29 104.15 161.66 98.98 158.59 C 99.17 158.04 99.36 157.49 99.55 156.95 C 100.60 156.59 101.65 156.25 102.70 155.91 Z" fill="#f7f7fa" />
<path d="M 62.00 184.36 C 65.34 184.72 68.55 184.82 71.90 184.62 C 71.63 185.50 71.34 186.37 71.04 187.24 C 71.43 187.90 71.82 188.56 72.21 189.22 C 70.84 189.16 69.48 189.09 68.11 189.01 L 67.65 188.73 C 66.62 188.79 65.58 188.84 64.54 188.89 C 64.14 188.12 63.73 187.36 63.32 186.60 C 62.98 185.93 62.54 185.31 62.00 184.75 L 62.00 184.36 Z" fill="#bdbdbf" />
<path d="M 121.87 184.84 C 123.60 184.86 125.33 184.82 127.05 184.80 C 127.02 186.30 126.98 187.80 126.93 189.30 C 124.93 189.11 122.91 189.04 120.90 188.90 C 119.75 189.04 118.60 189.17 117.45 189.28 C 117.64 187.80 117.82 186.31 118.00 184.83 C 119.29 184.83 120.58 184.84 121.87 184.84 Z" fill="#dcdcde" />
<path d="M 62.00 184.75 C 62.54 185.31 62.98 185.93 63.32 186.60 C 63.29 187.66 62.95 188.44 62.31 188.94 C 61.82 187.69 61.71 186.29 62.00 184.75 Z" fill="#e8e8ea" />
<path d="M 73.24 185.10 C 74.93 185.13 76.62 185.14 78.32 185.14 C 78.26 186.41 78.20 187.69 78.15 188.97 C 76.44 188.95 74.72 188.81 73.01 188.70 C 73.09 187.50 73.16 186.30 73.24 185.10 Z" fill="#d3d3d5" />
<path d="M 78.68 185.00 C 79.50 184.98 80.31 184.96 81.13 184.94 C 81.16 186.41 81.21 187.88 81.28 189.35 L 78.56 189.23 C 78.61 187.82 78.65 186.41 78.68 185.00 Z" fill="#c8c8ca" />
<path d="M 82.90 185.00 C 84.88 185.00 86.87 185.03 88.85 185.02 C 88.23 186.53 87.66 188.06 87.13 189.61 C 85.75 189.43 84.39 189.28 83.03 189.05 C 82.97 187.70 82.93 186.35 82.90 185.00 Z" fill="#bdbdbf" />
<path d="M 89.89 185.00 L 91.00 185.00 C 91.00 186.07 91.00 187.15 91.00 188.22 L 92.00 188.17 C 92.00 187.15 92.00 186.14 92.00 185.12 C 93.43 185.15 94.86 185.16 96.29 185.18 C 96.23 186.84 96.14 188.49 96.05 190.15 C 95.47 189.44 94.88 188.73 94.30 188.03 L 94.17 189.77 C 92.78 189.63 91.44 189.21 90.07 189.06 C 89.97 187.71 89.91 186.35 89.89 185.00 Z" fill="#ceced0" />
<path d="M 96.74 184.77 L 98.53 185.61 L 98.59 184.75 C 99.52 185.09 100.44 185.42 101.36 185.76 L 99.42 186.38 L 99.48 187.79 C 100.57 187.61 101.65 187.47 102.74 187.33 C 102.60 186.58 102.45 185.84 102.44 185.07 L 104.66 184.77 C 104.72 186.28 104.77 187.79 104.83 189.30 C 103.00 189.39 101.22 189.47 99.41 189.63 L 98.57 188.58 C 98.00 189.05 97.43 189.51 96.87 189.98 C 96.81 188.24 96.77 186.51 96.74 184.77 Z" fill="#c8c8ca" />
<path d="M 105.66 185.07 C 106.26 185.19 106.82 185.50 107.33 186.02 C 107.37 186.85 107.34 187.70 107.22 188.55 C 106.60 188.52 105.99 188.44 105.37 188.30 C 105.37 187.37 105.05 185.84 105.66 185.07 Z" fill="#e4e4e7" />
<path d="M 112.00 184.99 C 113.43 184.97 114.85 184.96 116.28 184.94 C 116.61 186.45 116.97 187.95 117.34 189.45 C 115.56 189.42 113.78 189.41 111.99 189.42 C 112.00 187.94 112.00 186.46 112.00 184.99 Z" fill="#cbcbcd" />
<path d="M 84.11 186.25 L 84.90 186.24 L 85.29 186.99 L 84.90 187.75 L 84.12 187.75 L 83.73 187.00 L 84.11 186.25 Z" fill="#313133" />
<path d="M 108.90 185.37 C 109.51 186.12 109.94 186.93 110.19 187.80 C 110.14 188.62 109.61 188.86 108.60 188.49 C 108.21 187.39 108.31 186.34 108.90 185.37 Z" fill="#f0f0f1" />
<path d="M 119.17 186.26 L 119.97 186.29 L 120.35 187.05 L 119.93 187.78 L 119.13 187.75 L 118.76 186.99 L 119.17 186.26 Z" fill="#49494b" />
<path d="M 122.12 186.23 L 122.90 186.21 L 123.27 186.98 L 122.90 187.76 L 122.12 187.77 L 121.75 187.00 L 122.12 186.23 Z" fill="#070709" />
<path d="M 125.05 186.28 L 125.85 186.25 L 126.26 186.97 L 125.88 187.72 L 125.07 187.75 L 124.66 187.03 L 125.05 186.28 Z" fill="#5a5a5c" />
</svg>