<?xml version="1.0" encoding="UTF-8" standalone="no"?>
<!DOCTYPE svg PUBLIC "-//W3C//DTD SVG 1.1//EN" "http://www.w3.org/Graphics/SVG/1.1/DTD/svg11.dtd">
<svg xmlns="http://www.w3.org/2000/svg" version="1.1" viewBox="0 0 193 194" width="193.0pt" height="194.0pt">
<path d="M 0.00 0.00 L 15.58 0.00 C 17.38 3.21 22.15 3.69 20.87 7.85 C 19.20 7.85 17.56 7.65 15.89 7.55 C 16.33 10.90 20.61 10.97 20.05 14.99 C 20.74 17.87 16.36 24.85 20.46 25.61 C 24.52 27.14 17.73 27.73 16.43 27.82 C 15.50 25.35 16.72 23.69 13.25 24.11 C 12.98 29.98 13.64 31.29 8.43 34.61 C 5.57 27.70 5.51 36.44 6.38 38.71 C 8.26 41.65 7.97 44.56 8.23 47.88 C 10.85 48.48 10.45 41.71 11.41 40.02 C 12.99 44.91 17.08 48.70 11.21 52.23 C 6.98 56.04 6.31 50.13 2.08 50.08 C 2.33 53.69 6.30 57.32 7.67 60.89 C 4.39 64.92 2.86 62.20 0.00 59.73 L 0.00 0.00 Z" fill="#ceb89c" />
<path d="M 15.58 0.00 L 42.26 0.00 C 39.86 6.45 37.61 13.00 35.40 19.52 C 33.44 22.42 32.70 25.68 28.72 25.96 C 26.23 27.03 28.43 28.96 28.48 30.87 C 25.61 37.95 25.26 48.16 19.88 54.01 C 17.78 58.92 15.98 64.91 12.36 68.92 C 11.25 66.70 10.78 63.67 9.06 61.87 C 4.41 67.28 11.12 71.56 10.10 78.02 C 10.47 82.20 6.73 84.03 6.18 88.15 C 5.52 93.34 2.69 97.72 2.12 102.85 C 4.92 105.06 9.86 108.96 13.09 105.21 C 16.59 103.05 7.29 105.04 8.29 103.08 C 10.73 103.15 15.15 101.91 16.25 104.81 C 16.99 107.21 19.37 104.66 20.59 103.89 C 19.91 98.27 16.97 94.80 23.44 91.45 C 23.13 85.63 29.56 86.30 33.57 86.91 C 30.34 91.85 34.29 89.69 36.67 87.77 C 36.41 85.20 35.89 82.71 36.08 80.09 C 37.76 80.34 40.42 83.64 39.90 80.02 C 39.02 75.15 44.02 70.98 48.58 72.20 C 48.83 74.81 48.97 77.44 48.82 80.06 C 47.60 78.78 48.44 74.34 46.26 77.29 C 42.91 80.04 44.89 83.44 47.90 85.35 C 44.59 88.52 42.65 92.44 40.12 96.17 C 37.61 99.88 39.17 103.53 34.30 105.62 C 33.60 103.14 33.67 100.80 31.42 99.14 C 28.86 104.36 29.31 108.24 23.37 111.31 C 18.17 113.06 24.08 121.17 18.00 120.03 C 12.56 121.51 16.22 111.53 12.04 112.03 C 7.77 113.47 12.59 119.49 6.86 120.88 C 5.80 127.29 5.79 127.95 0.00 131.32 L 0.00 59.73 C 2.86 62.20 4.39 64.92 7.67 60.89 C 6.30 57.32 2.33 53.69 2.08 50.08 C 6.31 50.13 6.98 56.04 11.21 52.23 C 17.08 48.70 12.99 44.91 11.41 40.02 C 10.45 41.71 10.85 48.48 8.23 47.88 C 7.97 44.56 8.26 41.65 6.38 38.71 C 5.51 36.44 5.57 27.70 8.43 34.61 C 13.64 31.29 12.98 29.98 13.25 24.11 C 16.72 23.69 15.50 25.35 16.43 27.82 C 17.73 27.73 24.52 27.14 20.46 25.61 C 16.36 24.85 20.74 17.87 20.05 14.99 C 20.61 10.97 16.33 10.90 15.89 7.55 C 17.56 7.65 19.20 7.85 20.87 7.85 C 22.15 3.69 17.38 3.21 15.58 0.00 Z" fill="#c5ac90" />
<path d="M 42.26 0.00 L 92.58 0.00 C 98.05 3.23 92.39 4.56 96.04 6.82 C 94.41 6.95 92.79 7.13 91.16 7.36 C 85.63 5.85 76.98 0.02 74.00 8.26 C 72.55 10.85 69.15 12.43 68.09 15.10 C 68.38 18.08 69.03 21.00 69.14 24.01 C 66.65 25.15 64.24 26.45 61.89 27.85 C 56.13 30.09 63.39 33.05 59.27 33.76 C 58.86 36.05 59.05 38.46 58.86 40.78 C 56.86 40.84 59.32 34.31 56.65 34.40 C 54.27 33.48 62.73 22.51 57.08 26.51 C 55.52 24.78 54.31 22.71 52.85 20.92 C 49.68 21.14 48.30 26.38 46.00 28.23 C 43.25 25.71 44.29 22.91 39.39 24.24 C 38.60 29.45 33.98 37.98 39.76 41.26 C 40.07 43.41 40.00 45.61 40.25 47.77 C 42.73 48.05 45.30 47.95 47.80 48.23 C 48.17 51.04 48.14 53.93 47.82 56.75 C 40.91 56.74 36.54 52.95 31.07 49.45 C 28.53 50.11 27.78 53.87 26.31 55.83 C 28.65 56.55 33.28 54.64 31.73 58.70 C 29.06 62.86 25.08 55.08 21.75 57.50 C 19.12 59.06 20.37 55.51 19.88 54.01 C 25.26 48.16 25.61 37.95 28.48 30.87 C 28.43 28.96 26.23 27.03 28.72 25.96 C 32.70 25.68 33.44 22.42 35.40 19.52 C 37.61 13.00 39.86 6.45 42.26 0.00 Z" fill="#d9c3a8" />
<path d="M 92.58 0.00 L 142.15 0.00 C 137.59 3.44 146.09 6.57 143.62 10.44 C 141.35 13.64 148.29 9.88 146.65 8.15 C 145.95 5.98 147.23 1.78 148.32 6.44 C 151.01 5.41 150.52 5.18 152.51 7.47 C 155.16 7.58 156.91 0.33 156.35 6.73 C 159.84 6.41 160.25 5.07 158.39 8.87 C 162.14 11.13 160.97 8.40 163.76 6.95 C 163.58 8.81 163.27 10.66 162.90 12.49 C 159.30 10.28 155.94 12.45 157.04 16.90 C 161.39 11.49 161.88 16.70 166.68 14.23 C 165.74 21.17 168.94 11.60 171.76 15.11 C 173.73 17.09 172.70 12.16 173.20 11.19 C 174.21 11.81 175.18 12.48 176.16 13.15 C 173.61 17.22 170.77 21.46 169.02 25.95 C 171.10 24.72 172.18 22.82 173.39 20.82 C 174.97 22.66 174.40 27.95 177.36 27.42 C 180.52 26.92 180.71 31.76 180.89 33.94 C 178.52 33.85 178.81 32.85 178.19 31.03 C 176.24 32.29 169.02 37.66 172.59 39.82 C 170.36 39.63 168.63 40.21 166.54 40.85 C 166.54 38.36 165.44 37.00 164.19 34.98 C 165.34 32.85 167.13 31.63 166.94 29.00 C 162.45 33.74 158.96 40.30 155.91 46.07 C 152.28 47.52 153.65 46.21 152.50 43.38 C 148.72 41.88 146.66 43.70 147.59 38.32 C 141.70 37.45 143.03 38.51 144.78 33.58 C 140.73 31.71 133.93 32.41 133.31 26.77 C 133.54 23.38 136.73 22.71 139.73 23.78 C 138.71 19.86 138.31 16.18 133.39 18.40 C 131.45 13.59 132.44 18.69 131.62 20.69 C 130.53 22.15 128.43 22.89 126.96 23.97 L 125.85 23.19 C 122.89 18.83 123.87 18.37 118.70 20.82 L 117.86 20.86 C 117.75 17.25 121.44 15.50 120.76 12.74 C 119.03 12.39 116.14 9.67 117.58 13.35 C 118.92 16.29 114.76 12.68 113.61 13.67 C 111.02 14.30 113.87 17.18 111.35 18.29 C 111.00 16.20 111.12 13.77 110.20 11.85 C 107.65 10.00 104.63 8.66 101.60 7.82 C 99.79 7.24 97.93 7.01 96.04 6.82 C 92.39 4.56 98.05 3.23 92.58 0.00 Z" fill="#e8d8c7" />
<path d="M 142.15 0.00 L 184.42 0.00 C 182.27 3.09 181.74 6.94 177.82 7.99 C 177.27 9.80 177.33 11.54 176.16 13.15 C 175.18 12.48 174.21 11.81 173.20 11.19 C 172.70 12.16 173.73 17.09 171.76 15.11 C 168.94 11.60 165.74 21.17 166.68 14.23 C 161.88 16.70 161.39 11.49 157.04 16.90 C 155.94 12.45 159.30 10.28 162.90 12.49 C 163.27 10.66 163.58 8.81 163.76 6.95 C 160.97 8.40 162.14 11.13 158.39 8.87 C 160.25 5.07 159.84 6.41 156.35 6.73 C 156.91 0.33 155.16 7.58 152.51 7.47 C 150.52 5.18 151.01 5.41 148.32 6.44 C 147.23 1.78 145.95 5.98 146.65 8.15 C 148.29 9.88 141.35 13.64 143.62 10.44 C 146.09 6.57 137.59 3.44 142.15 0.00 Z" fill="#dbcab4" />
<path d="M 184.42 0.00 L 193.00 0.00 L 193.00 20.98 C 189.43 18.54 189.73 24.55 186.15 22.07 C 183.02 21.27 185.01 18.11 181.43 17.79 C 183.05 20.77 184.30 23.31 182.73 26.64 C 179.56 28.27 183.22 22.38 180.86 21.16 C 179.28 19.33 173.40 15.69 179.90 16.68 C 177.44 10.01 175.13 18.35 173.39 20.82 C 172.18 22.82 171.10 24.72 169.02 25.95 C 170.77 21.46 173.61 17.22 176.16 13.15 C 177.33 11.54 177.27 9.80 177.82 7.99 C 181.74 6.94 182.27 3.09 184.42 0.00 Z" fill="#cebca0" />
<path d="M 91.16 7.36 C 88.80 8.72 86.63 8.24 84.04 8.18 C 87.10 10.90 91.49 10.21 91.99 14.43 C 93.70 16.37 95.32 16.66 91.61 16.29 C 91.69 19.24 91.87 21.64 89.17 23.55 C 91.89 17.74 85.30 20.56 81.97 20.16 C 83.06 20.97 84.67 21.12 85.96 21.51 C 82.96 23.23 79.98 22.87 76.60 23.83 C 76.46 22.47 76.84 21.36 77.30 20.10 C 79.83 18.92 82.17 17.52 83.98 15.35 C 77.03 16.59 80.07 13.73 79.94 9.08 C 78.59 4.89 76.76 9.70 74.00 8.26 C 76.98 0.02 85.63 5.85 91.16 7.36 Z" fill="#7d5943" />
<path d="M 79.94 9.08 C 80.07 13.73 77.03 16.59 83.98 15.35 C 82.17 17.52 79.83 18.92 77.30 20.10 C 73.70 11.51 75.44 26.76 69.14 24.01 C 69.03 21.00 68.38 18.08 68.09 15.10 C 69.15 12.43 72.55 10.85 74.00 8.26 C 76.76 9.70 78.59 4.89 79.94 9.08 Z" fill="#9f7558" />
<path d="M 91.16 7.36 C 92.79 7.13 94.41 6.95 96.04 6.82 C 97.93 7.01 99.79 7.24 101.60 7.82 C 99.92 10.53 96.93 9.32 100.29 12.23 C 98.40 17.03 103.15 23.30 95.80 23.76 C 93.59 23.70 91.38 23.63 89.17 23.55 C 91.87 21.64 91.69 19.24 91.61 16.29 C 95.32 16.66 93.70 16.37 91.99 14.43 C 91.49 10.21 87.10 10.90 84.04 8.18 C 86.63 8.24 88.80 8.72 91.16 7.36 Z" fill="#583f32" />
<path d="M 101.60 7.82 C 104.63 8.66 107.65 10.00 110.20 11.85 C 110.55 13.71 108.52 21.86 111.83 21.02 C 113.83 21.10 115.87 21.00 117.86 20.86 L 118.70 20.82 C 121.19 22.63 122.78 23.05 125.85 23.19 L 126.96 23.97 C 127.33 24.60 127.69 25.23 128.04 25.87 C 123.55 28.57 120.95 21.97 121.13 28.61 C 114.34 23.15 121.42 37.45 115.36 36.86 C 114.81 34.13 114.51 31.07 113.56 28.44 C 108.03 24.31 102.35 24.90 95.80 23.76 C 103.15 23.30 98.40 17.03 100.29 12.23 C 96.93 9.32 99.92 10.53 101.60 7.82 Z" fill="#3d2f28" />
<path d="M 120.76 12.74 C 121.44 15.50 117.75 17.25 117.86 20.86 C 115.87 21.00 113.83 21.10 111.83 21.02 C 111.62 20.11 111.46 19.20 111.35 18.29 C 113.87 17.18 111.02 14.30 113.61 13.67 C 114.76 12.68 118.92 16.29 117.58 13.35 C 116.14 9.67 119.03 12.39 120.76 12.74 Z" fill="#d0bfae" />
<path d="M 110.20 11.85 C 111.12 13.77 111.00 16.20 111.35 18.29 C 111.46 19.20 111.62 20.11 111.83 21.02 C 108.52 21.86 110.55 13.71 110.20 11.85 Z" fill="#8a7b6e" />
<path d="M 179.90 16.68 C 173.40 15.69 179.28 19.33 180.86 21.16 C 183.22 22.38 179.56 28.27 182.73 26.64 C 184.30 23.31 183.05 20.77 181.43 17.79 C 185.01 18.11 183.02 21.27 186.15 22.07 C 189.73 24.55 189.43 18.54 193.00 20.98 L 193.00 40.79 C 190.82 41.61 187.66 41.14 188.01 44.34 C 190.52 44.47 190.78 44.22 191.88 46.64 C 188.67 45.13 184.19 50.62 185.44 44.95 C 181.31 45.52 178.18 47.10 175.07 49.86 C 175.27 48.30 175.56 46.75 175.82 45.20 C 173.91 47.54 171.67 46.71 169.39 48.41 C 167.35 49.12 169.02 52.34 168.81 53.97 C 164.90 52.03 168.12 49.46 165.54 47.10 C 164.38 52.04 160.21 54.45 167.94 55.47 C 164.43 58.96 157.04 54.61 151.97 56.78 C 153.74 55.53 155.74 55.12 157.78 54.52 C 157.14 51.66 155.91 49.18 155.91 46.07 C 158.96 40.30 162.45 33.74 166.94 29.00 C 167.13 31.63 165.34 32.85 164.19 34.98 C 165.44 37.00 166.54 38.36 166.54 40.85 C 168.63 40.21 170.36 39.63 172.59 39.82 C 169.02 37.66 176.24 32.29 178.19 31.03 C 178.81 32.85 178.52 33.85 180.89 33.94 C 180.71 31.76 180.52 26.92 177.36 27.42 C 174.40 27.95 174.97 22.66 173.39 20.82 C 175.13 18.35 177.44 10.01 179.90 16.68 Z" fill="#decab1" />
<path d="M 133.39 18.40 C 138.31 16.18 138.71 19.86 139.73 23.78 C 136.73 22.71 133.54 23.38 133.31 26.77 C 133.93 32.41 140.73 31.71 144.78 33.58 C 143.03 38.51 141.70 37.45 147.59 38.32 C 146.66 43.70 148.72 41.88 152.50 43.38 C 153.65 46.21 152.28 47.52 155.91 46.07 C 155.91 49.18 157.14 51.66 157.78 54.52 C 155.74 55.12 153.74 55.53 151.97 56.78 C 157.04 54.61 164.43 58.96 167.94 55.47 C 160.21 54.45 164.38 52.04 165.54 47.10 C 168.12 49.46 164.90 52.03 168.81 53.97 C 169.02 52.34 167.35 49.12 169.39 48.41 C 171.67 46.71 173.91 47.54 175.82 45.20 C 175.56 46.75 175.27 48.30 175.07 49.86 C 178.18 47.10 181.31 45.52 185.44 44.95 C 184.19 50.62 188.67 45.13 191.88 46.64 C 190.78 44.22 190.52 44.47 188.01 44.34 C 187.66 41.14 190.82 41.61 193.00 40.79 L 193.00 66.03 C 186.03 68.46 186.46 64.00 180.17 62.94 C 183.12 58.12 181.50 53.88 184.12 49.18 C 178.50 52.28 181.92 53.64 180.35 58.36 C 175.24 58.70 176.51 58.86 174.19 63.16 C 172.72 61.02 171.97 59.51 169.23 58.90 C 170.34 60.91 171.58 62.82 172.63 64.86 C 170.72 64.67 169.20 64.39 167.38 65.18 C 165.18 60.88 161.29 65.19 159.08 65.18 C 159.24 67.63 157.66 69.15 156.23 66.91 C 155.69 62.86 151.51 64.25 150.46 60.31 C 149.19 61.30 148.35 64.28 146.49 63.05 C 147.69 60.68 149.14 58.62 150.06 56.13 C 146.98 57.59 145.82 58.94 144.48 62.08 C 143.71 58.23 145.88 56.09 147.74 53.09 C 146.67 51.82 144.66 54.23 143.10 53.94 C 142.81 50.71 145.28 49.41 143.78 46.02 C 142.52 47.03 142.16 48.42 141.43 49.80 C 139.04 48.14 140.70 45.69 140.68 43.28 C 138.27 40.83 138.72 37.64 135.04 41.07 C 133.13 38.89 128.19 38.12 128.14 35.02 C 129.55 33.11 129.35 31.18 128.92 28.97 C 128.84 27.83 128.54 26.80 128.04 25.87 C 127.69 25.23 127.33 24.60 126.96 23.97 C 128.43 22.89 130.53 22.15 131.62 20.69 C 132.44 18.69 131.45 13.59 133.39 18.40 Z" fill="#d2bca7" />
<path d="M 77.30 20.10 C 76.84 21.36 76.46 22.47 76.60 23.83 C 72.33 25.90 77.59 30.29 75.50 33.95 C 76.40 33.97 77.30 33.98 78.20 33.96 L 79.86 33.96 L 80.68 34.08 C 79.25 37.80 89.13 36.48 84.09 41.12 C 81.40 41.25 78.73 41.27 76.04 41.29 C 77.62 43.97 79.94 43.28 82.30 44.67 C 81.15 44.77 80.00 44.87 78.85 44.97 C 77.93 45.32 75.65 44.31 76.90 46.00 C 74.12 48.34 75.67 50.07 76.04 53.12 C 72.50 51.15 75.81 46.09 71.17 47.09 C 69.38 47.93 68.71 51.64 67.21 53.26 C 67.08 50.75 66.93 48.25 66.79 45.74 C 67.34 42.18 64.38 41.77 62.33 39.62 C 61.64 35.81 62.11 31.73 61.89 27.85 C 64.24 26.45 66.65 25.15 69.14 24.01 C 75.44 26.76 73.70 11.51 77.30 20.10 Z" fill="#51332a" />
<path d="M 125.85 23.19 C 122.78 23.05 121.19 22.63 118.70 20.82 C 123.87 18.37 122.89 18.83 125.85 23.19 Z" fill="#b0a295" />
<path d="M 81.97 20.16 C 85.30 20.56 91.89 17.74 89.17 23.55 C 87.49 23.72 85.82 23.93 84.16 24.22 C 85.00 26.54 85.93 27.49 88.07 28.68 C 83.31 28.45 86.44 36.08 81.57 34.20 C 80.83 30.54 83.71 28.56 81.20 25.89 L 80.08 24.55 C 78.93 24.25 77.77 24.01 76.60 23.83 C 79.98 22.87 82.96 23.23 85.96 21.51 C 84.67 21.12 83.06 20.97 81.97 20.16 Z" fill="#553a34" />
<path d="M 52.85 20.92 C 54.31 22.71 55.52 24.78 57.08 26.51 C 62.73 22.51 54.27 33.48 56.65 34.40 C 59.32 34.31 56.86 40.84 58.86 40.78 C 59.05 38.46 58.86 36.05 59.27 33.76 C 63.39 33.05 56.13 30.09 61.89 27.85 C 62.11 31.73 61.64 35.81 62.33 39.62 C 64.38 41.77 67.34 42.18 66.79 45.74 C 64.41 54.07 68.11 65.92 63.96 73.96 C 59.38 78.58 52.83 80.98 47.90 85.35 C 44.89 83.44 42.91 80.04 46.26 77.29 C 48.44 74.34 47.60 78.78 48.82 80.06 C 48.97 77.44 48.83 74.81 48.58 72.20 C 44.02 70.98 39.02 75.15 39.90 80.02 C 40.42 83.64 37.76 80.34 36.08 80.09 C 35.89 82.71 36.41 85.20 36.67 87.77 C 34.29 89.69 30.34 91.85 33.57 86.91 C 29.56 86.30 23.13 85.63 23.44 91.45 C 16.97 94.80 19.91 98.27 20.59 103.89 C 19.37 104.66 16.99 107.21 16.25 104.81 C 15.15 101.91 10.73 103.15 8.29 103.08 C 7.29 105.04 16.59 103.05 13.09 105.21 C 9.86 108.96 4.92 105.06 2.12 102.85 C 2.69 97.72 5.52 93.34 6.18 88.15 C 6.73 84.03 10.47 82.20 10.10 78.02 C 11.12 71.56 4.41 67.28 9.06 61.87 C 10.78 63.67 11.25 66.70 12.36 68.92 C 15.98 64.91 17.78 58.92 19.88 54.01 C 20.37 55.51 19.12 59.06 21.75 57.50 C 25.08 55.08 29.06 62.86 31.73 58.70 C 33.28 54.64 28.65 56.55 26.31 55.83 C 27.78 53.87 28.53 50.11 31.07 49.45 C 36.54 52.95 40.91 56.74 47.82 56.75 C 48.14 53.93 48.17 51.04 47.80 48.23 C 45.30 47.95 42.73 48.05 40.25 47.77 C 40.00 45.61 40.07 43.41 39.76 41.26 C 33.98 37.98 38.60 29.45 39.39 24.24 C 44.29 22.91 43.25 25.71 46.00 28.23 C 48.30 26.38 49.68 21.14 52.85 20.92 Z" fill="#d0b89b" />
<path d="M 89.17 23.55 C 91.38 23.63 93.59 23.70 95.80 23.76 C 102.35 24.90 108.03 24.31 113.56 28.44 C 114.51 31.07 114.81 34.13 115.36 36.86 C 121.42 37.45 114.34 23.15 121.13 28.61 C 120.95 21.97 123.55 28.57 128.04 25.87 C 128.54 26.80 128.84 27.83 128.92 28.97 C 127.41 30.85 127.56 32.82 128.14 35.02 C 128.19 38.12 133.13 38.89 135.04 41.07 C 134.92 41.97 134.80 42.86 134.69 43.75 C 133.91 46.53 133.98 49.28 134.14 52.13 C 133.47 52.79 132.76 53.40 131.99 53.96 C 126.60 54.23 129.87 65.35 129.01 69.00 C 129.35 73.80 127.58 82.55 131.70 85.94 C 135.70 88.85 138.51 91.69 141.01 95.98 C 144.67 106.62 142.66 116.37 142.91 127.37 L 142.26 128.11 C 140.68 130.07 140.82 132.12 138.00 132.92 C 137.99 128.88 140.87 126.32 140.00 121.98 C 140.58 118.88 137.29 126.14 138.01 123.01 C 137.67 119.02 141.44 121.18 140.22 116.97 C 138.31 110.24 136.50 107.22 140.18 100.40 C 135.94 104.33 137.49 96.08 135.77 94.12 C 132.35 92.69 133.50 84.43 130.77 90.88 C 128.37 87.50 126.52 84.37 122.01 83.77 C 112.81 82.74 104.65 80.62 97.94 74.04 C 95.12 69.33 99.92 65.13 96.73 60.29 C 92.96 54.71 92.56 54.15 93.59 47.34 C 85.97 49.06 90.40 42.96 90.70 39.00 C 89.33 36.77 87.57 35.56 87.35 32.67 C 86.30 30.57 92.02 29.21 88.07 28.68 C 85.93 27.49 85.00 26.54 84.16 24.22 C 85.82 23.93 87.49 23.72 89.17 23.55 Z" fill="#2a1a17" />
<path d="M 76.60 23.83 C 77.77 24.01 78.93 24.25 80.08 24.55 C 76.70 27.05 78.60 30.36 78.20 33.96 C 77.30 33.98 76.40 33.97 75.50 33.95 C 77.59 30.29 72.33 25.90 76.60 23.83 Z" fill="#897573" />
<path d="M 80.08 24.55 L 81.20 25.89 C 80.59 28.57 80.07 31.22 79.86 33.96 L 78.20 33.96 C 78.60 30.36 76.70 27.05 80.08 24.55 Z" fill="#e1cfce" />
<path d="M 81.20 25.89 C 83.71 28.56 80.83 30.54 81.57 34.20 L 80.68 34.08 L 79.86 33.96 C 80.07 31.22 80.59 28.57 81.20 25.89 Z" fill="#947577" />
<path d="M 88.07 28.68 C 92.02 29.21 86.30 30.57 87.35 32.67 C 87.57 35.56 89.33 36.77 90.70 39.00 C 90.40 42.96 85.97 49.06 93.59 47.34 C 92.56 54.15 92.96 54.71 96.73 60.29 C 99.92 65.13 95.12 69.33 97.94 74.04 C 104.65 80.62 112.81 82.74 122.01 83.77 C 121.23 89.32 126.68 88.77 129.64 93.38 C 131.56 95.07 129.63 94.87 128.46 96.07 C 121.40 96.80 112.35 94.27 105.98 97.58 C 104.27 98.60 101.71 98.41 102.11 101.06 C 102.06 101.96 102.02 102.87 101.99 103.77 L 101.37 103.96 C 99.47 102.75 97.68 102.18 95.50 101.75 C 99.78 95.95 90.99 97.27 87.80 96.21 C 88.24 91.81 94.44 94.91 96.91 95.65 C 100.91 90.43 99.47 85.97 93.68 83.30 C 91.22 80.53 85.58 76.68 88.25 72.75 C 87.15 64.50 89.50 57.35 82.68 50.69 C 82.77 49.43 82.86 48.16 82.94 46.90 L 83.14 45.05 C 83.46 43.74 83.77 42.43 84.09 41.12 C 89.13 36.48 79.25 37.80 80.68 34.08 L 81.57 34.20 C 86.44 36.08 83.31 28.45 88.07 28.68 Z" fill="#462217" />
<path d="M 128.92 28.97 C 129.35 31.18 129.55 33.11 128.14 35.02 C 127.56 32.82 127.41 30.85 128.92 28.97 Z" fill="#85766b" />
<path d="M 111.09 37.09 C 112.16 37.99 113.10 39.00 114.16 39.92 C 115.79 39.41 117.91 37.16 119.55 38.36 C 123.32 44.20 125.27 49.33 123.42 56.37 C 122.11 61.61 124.78 66.31 123.69 71.65 C 122.74 75.81 128.83 74.91 128.05 78.97 C 128.17 80.58 125.99 82.06 124.91 83.05 C 120.89 80.76 116.32 79.89 112.40 77.59 C 108.48 69.10 113.71 61.68 111.57 52.37 C 110.48 47.99 108.56 41.15 111.09 37.09 Z" fill="#1f1514" />
<path d="M 140.68 43.28 C 140.70 45.69 139.04 48.14 141.43 49.80 C 142.16 48.42 142.52 47.03 143.78 46.02 C 145.28 49.41 142.81 50.71 143.10 53.94 C 144.66 54.23 146.67 51.82 147.74 53.09 C 145.88 56.09 143.71 58.23 144.48 62.08 C 143.46 64.36 141.99 66.41 140.03 67.99 C 140.35 65.26 141.65 62.84 141.98 60.12 C 140.72 60.64 139.51 61.28 138.25 61.83 C 138.36 58.91 138.98 57.87 136.33 56.01 C 136.30 58.93 138.17 60.82 134.35 61.78 C 133.54 59.33 134.63 57.91 131.33 57.95 C 132.87 62.43 133.86 62.60 130.08 66.14 C 130.27 61.63 128.82 57.68 131.99 53.96 C 132.76 53.40 133.47 52.79 134.14 52.13 C 135.74 49.98 134.74 46.26 134.69 43.75 C 134.80 42.86 134.92 41.97 135.04 41.07 C 138.72 37.64 138.27 40.83 140.68 43.28 Z" fill="#bea997" />
<path d="M 76.04 41.29 C 78.73 41.27 81.40 41.25 84.09 41.12 C 83.77 42.43 83.46 43.74 83.14 45.05 L 82.30 44.67 C 79.94 43.28 77.62 43.97 76.04 41.29 Z" fill="#836052" />
<path d="M 134.69 43.75 C 134.74 46.26 135.74 49.98 134.14 52.13 C 133.98 49.28 133.91 46.53 134.69 43.75 Z" fill="#635a4e" />
<path d="M 78.85 44.97 C 79.19 50.60 79.03 48.87 82.94 46.90 C 82.86 48.16 82.77 49.43 82.68 50.69 C 82.56 51.43 82.44 52.17 82.33 52.90 C 82.09 54.60 81.90 56.31 81.66 58.01 C 78.90 54.31 79.07 49.89 76.90 46.00 C 75.65 44.31 77.93 45.32 78.85 44.97 Z" fill="#967469" />
<path d="M 78.85 44.97 C 80.00 44.87 81.15 44.77 82.30 44.67 L 83.14 45.05 L 82.94 46.90 C 79.03 48.87 79.19 50.60 78.85 44.97 Z" fill="#e3c3b6" />
<path d="M 66.79 45.74 C 66.93 48.25 67.08 50.75 67.21 53.26 C 67.29 60.75 66.09 69.85 67.42 76.32 C 62.63 80.06 57.06 84.49 53.04 88.97 C 56.41 89.07 60.11 81.94 62.13 88.58 C 67.87 84.92 75.65 88.65 81.72 90.27 C 82.57 95.74 78.18 95.02 74.18 94.92 C 75.94 91.21 70.23 91.34 68.01 91.62 C 66.18 91.67 59.39 89.78 62.11 93.75 C 63.57 95.67 60.97 94.85 59.83 95.41 C 54.67 95.88 46.90 92.22 42.76 95.74 C 39.21 103.05 41.89 113.22 40.84 121.26 C 39.22 119.43 38.88 118.70 39.11 116.19 C 39.58 109.79 39.82 102.76 40.12 96.17 C 42.65 92.44 44.59 88.52 47.90 85.35 C 52.83 80.98 59.38 78.58 63.96 73.96 C 68.11 65.92 64.41 54.07 66.79 45.74 Z" fill="#774f37" />
<path d="M 76.90 46.00 C 79.07 49.89 78.90 54.31 81.66 58.01 C 81.90 56.31 82.09 54.60 82.33 52.90 C 86.27 56.47 81.41 57.96 83.14 62.96 C 84.05 65.91 85.27 70.39 81.26 71.53 C 80.97 69.62 83.44 66.02 79.86 67.79 C 76.38 68.70 78.17 71.55 81.26 71.53 C 79.11 72.71 76.78 72.95 74.37 73.02 C 76.48 69.54 75.25 68.10 73.99 64.63 C 75.00 61.13 77.06 56.88 76.04 53.12 C 75.67 50.07 74.12 48.34 76.90 46.00 Z" fill="#7f5245" />
<path d="M 71.17 47.09 C 75.81 46.09 72.50 51.15 76.04 53.12 C 77.06 56.88 75.00 61.13 73.99 64.63 C 75.25 68.10 76.48 69.54 74.37 73.02 C 76.78 72.95 79.11 72.71 81.26 71.53 C 85.27 70.39 84.05 65.91 83.14 62.96 C 81.41 57.96 86.27 56.47 82.33 52.90 C 82.44 52.17 82.56 51.43 82.68 50.69 C 89.50 57.35 87.15 64.50 88.25 72.75 C 85.58 76.68 91.22 80.53 93.68 83.30 C 99.47 85.97 100.91 90.43 96.91 95.65 C 94.44 94.91 88.24 91.81 87.80 96.21 C 86.32 96.56 84.84 96.82 83.33 96.97 C 78.51 95.26 74.15 96.34 69.01 95.87 C 69.66 95.14 70.74 94.76 72.24 94.72 L 74.18 94.92 C 78.18 95.02 82.57 95.74 81.72 90.27 C 75.65 88.65 67.87 84.92 62.13 88.58 C 60.11 81.94 56.41 89.07 53.04 88.97 C 57.06 84.49 62.63 80.06 67.42 76.32 C 66.09 69.85 67.29 60.75 67.21 53.26 C 68.71 51.64 69.38 47.93 71.17 47.09 Z" fill="#623222" />
<path d="M 184.12 49.18 C 181.50 53.88 183.12 58.12 180.17 62.94 C 186.46 64.00 186.03 68.46 193.00 66.03 L 193.00 83.11 C 186.54 78.78 185.03 81.66 180.11 85.24 C 180.37 88.98 181.79 87.21 184.07 86.35 C 183.36 88.47 182.43 90.50 181.04 92.27 C 178.53 88.76 179.26 84.02 174.21 83.52 C 175.04 77.93 175.77 81.31 178.92 82.89 C 181.39 80.53 183.84 75.08 186.89 79.90 C 190.09 75.57 185.75 75.71 182.65 75.02 C 184.73 78.88 174.60 80.29 175.30 77.82 C 179.01 76.94 178.10 72.80 177.50 70.04 C 174.78 74.87 173.16 78.82 167.01 78.97 C 162.95 85.23 155.69 81.97 152.95 89.11 C 151.50 82.46 145.72 86.15 141.36 81.63 C 138.32 80.00 142.69 77.54 143.39 75.51 C 145.41 73.02 138.66 75.01 140.53 72.40 C 142.45 69.25 144.47 66.14 146.49 63.05 C 148.35 64.28 149.19 61.30 150.46 60.31 C 151.51 64.25 155.69 62.86 156.23 66.91 C 157.66 69.15 159.24 67.63 159.08 65.18 C 161.29 65.19 165.18 60.88 167.38 65.18 C 169.20 64.39 170.72 64.67 172.63 64.86 C 171.58 62.82 170.34 60.91 169.23 58.90 C 171.97 59.51 172.72 61.02 174.19 63.16 C 176.51 58.86 175.24 58.70 180.35 58.36 C 181.92 53.64 178.50 52.28 184.12 49.18 Z" fill="#caad91" />
<path d="M 131.99 53.96 C 128.82 57.68 130.27 61.63 130.08 66.14 C 130.02 67.09 129.96 68.04 129.90 69.00 L 129.01 69.00 C 129.87 65.35 126.60 54.23 131.99 53.96 Z" fill="#5e4c43" />
<path d="M 136.33 56.01 C 138.98 57.87 138.36 58.91 138.25 61.83 C 139.51 61.28 140.72 60.64 141.98 60.12 C 141.65 62.84 140.35 65.26 140.03 67.99 C 141.99 66.41 143.46 64.36 144.48 62.08 C 145.82 58.94 146.98 57.59 150.06 56.13 C 149.14 58.62 147.69 60.68 146.49 63.05 C 144.47 66.14 142.45 69.25 140.53 72.40 C 138.66 75.01 145.41 73.02 143.39 75.51 C 142.69 77.54 138.32 80.00 141.36 81.63 C 145.72 86.15 151.50 82.46 152.95 89.11 C 155.69 81.97 162.95 85.23 167.01 78.97 C 173.16 78.82 174.78 74.87 177.50 70.04 C 178.10 72.80 179.01 76.94 175.30 77.82 C 174.60 80.29 184.73 78.88 182.65 75.02 C 185.75 75.71 190.09 75.57 186.89 79.90 C 183.84 75.08 181.39 80.53 178.92 82.89 C 175.77 81.31 175.04 77.93 174.21 83.52 C 179.26 84.02 178.53 88.76 181.04 92.27 C 182.43 90.50 183.36 88.47 184.07 86.35 C 181.79 87.21 180.37 88.98 180.11 85.24 C 185.03 81.66 186.54 78.78 193.00 83.11 L 193.00 110.21 C 191.82 107.32 188.18 110.80 185.23 108.74 C 188.14 103.58 182.63 103.60 184.69 98.01 C 182.87 100.90 181.44 102.34 178.30 103.77 C 179.24 100.20 177.01 98.41 175.56 95.43 C 174.31 96.41 173.13 97.51 172.11 98.74 C 174.73 100.35 176.64 100.01 175.88 103.85 C 172.37 103.99 169.16 101.11 167.36 105.47 C 164.82 106.30 161.82 106.26 159.15 106.44 C 156.92 105.18 159.87 103.59 160.01 101.92 C 160.86 98.75 156.99 95.85 154.92 93.94 C 150.41 95.95 148.15 98.59 143.58 94.40 C 141.17 91.43 142.75 95.72 142.46 97.13 L 141.01 95.98 C 138.51 91.69 135.70 88.85 131.70 85.94 C 133.35 81.36 137.22 78.49 138.85 73.92 C 134.58 74.64 136.01 80.84 131.11 79.94 C 134.58 75.39 128.67 74.66 129.90 69.00 C 129.96 68.04 130.02 67.09 130.08 66.14 C 133.86 62.60 132.87 62.43 131.33 57.95 C 134.63 57.91 133.54 59.33 134.35 61.78 C 138.17 60.82 136.30 58.93 136.33 56.01 Z" fill="#bb9d80" />
<path d="M 81.26 71.53 C 78.17 71.55 76.38 68.70 79.86 67.79 C 83.44 66.02 80.97 69.62 81.26 71.53 Z" fill="#dcb2a2" />
<path d="M 129.01 69.00 L 129.90 69.00 C 128.67 74.66 134.58 75.39 131.11 79.94 C 136.01 80.84 134.58 74.64 138.85 73.92 C 137.22 78.49 133.35 81.36 131.70 85.94 C 127.58 82.55 129.35 73.80 129.01 69.00 Z" fill="#998370" />
<path d="M 122.01 83.77 C 126.52 84.37 128.37 87.50 130.77 90.88 C 136.74 101.47 131.88 110.15 133.01 123.01 C 131.34 133.03 132.40 142.91 131.79 152.96 C 130.07 161.21 131.80 169.40 130.56 177.63 C 129.57 182.94 130.18 188.47 129.90 194.00 L 117.77 194.00 C 119.11 189.77 118.90 190.03 115.96 187.01 C 117.86 185.71 122.36 183.90 121.97 181.07 C 121.79 178.63 118.69 180.04 117.09 179.70 C 117.03 177.42 117.52 177.48 119.40 176.58 C 118.14 173.95 118.38 173.62 119.62 171.05 C 118.53 170.82 113.68 173.00 115.44 170.51 C 117.51 170.25 124.52 166.51 118.11 167.48 C 118.41 164.58 119.68 162.63 117.44 160.14 C 119.95 159.48 121.77 160.92 119.86 157.61 C 117.85 158.18 116.21 158.37 114.11 158.25 C 113.15 156.08 112.96 154.18 113.06 151.82 C 114.02 153.76 114.00 157.19 116.88 157.07 C 118.46 155.57 119.95 153.82 120.98 151.90 C 120.01 147.54 116.39 144.48 112.74 142.23 C 116.52 141.06 119.31 139.63 121.68 136.36 C 120.90 136.12 120.12 135.87 119.35 135.63 C 124.14 127.56 124.99 117.32 125.16 108.12 C 125.48 106.09 126.82 104.47 127.88 102.79 C 126.58 101.90 124.03 101.48 123.25 100.16 C 125.72 98.70 129.91 100.11 128.46 96.07 C 129.63 94.87 131.56 95.07 129.64 93.38 C 126.68 88.77 121.23 89.32 122.01 83.77 Z" fill="#433128" />
<path d="M 135.77 94.12 C 137.49 96.08 135.94 104.33 140.18 100.40 C 136.50 107.22 138.31 110.24 140.22 116.97 C 141.44 121.18 137.67 119.02 138.01 123.01 C 137.29 126.14 140.58 118.88 140.00 121.98 C 140.87 126.32 137.99 128.88 138.00 132.92 C 140.82 132.12 140.68 130.07 142.26 128.11 C 141.77 132.65 142.20 137.22 141.74 141.77 C 140.11 149.24 141.42 157.36 141.00 165.00 C 138.88 170.71 140.34 178.16 140.27 184.23 C 139.99 187.48 139.96 190.74 139.87 194.00 L 129.90 194.00 C 130.18 188.47 129.57 182.94 130.56 177.63 C 131.80 169.40 130.07 161.21 131.79 152.96 C 132.40 142.91 131.34 133.03 133.01 123.01 C 131.88 110.15 136.74 101.47 130.77 90.88 C 133.50 84.43 132.35 92.69 135.77 94.12 Z" fill="#1d1410" />
<path d="M 68.01 91.62 C 70.23 91.34 75.94 91.21 74.18 94.92 L 72.24 94.72 C 66.77 89.71 66.63 98.17 59.83 95.41 C 60.97 94.85 63.57 95.67 62.11 93.75 C 59.39 89.78 66.18 91.67 68.01 91.62 Z" fill="#a98371" />
<path d="M 72.24 94.72 C 70.74 94.76 69.66 95.14 69.01 95.87 C 74.15 96.34 78.51 95.26 83.33 96.97 C 83.59 98.58 84.47 100.73 81.96 100.75 C 70.75 99.09 59.66 98.60 48.36 97.66 C 45.86 97.43 44.74 98.33 43.82 100.61 C 48.72 97.77 52.82 99.55 57.98 99.93 C 66.53 101.44 75.29 100.13 83.58 102.43 C 84.07 104.27 86.93 108.75 84.47 109.89 C 83.29 105.91 84.01 103.98 79.39 106.42 C 78.07 103.91 78.45 103.42 77.78 106.65 C 73.11 100.41 73.96 108.86 74.21 112.08 C 75.21 110.96 75.88 109.67 76.61 108.39 C 77.83 113.32 86.27 109.40 88.78 113.64 C 84.44 116.32 83.44 114.82 79.18 113.23 C 78.99 115.13 78.93 117.05 78.80 118.96 C 77.93 117.18 77.14 115.38 76.04 113.72 C 74.46 115.77 74.68 119.61 71.29 118.90 C 71.02 116.94 70.93 114.96 70.70 112.98 C 68.19 114.63 69.04 117.32 69.15 119.88 C 72.83 119.96 75.81 119.19 79.34 120.63 C 82.03 122.45 79.52 115.92 81.29 118.72 C 83.32 123.07 85.15 120.77 89.07 121.15 C 86.35 122.81 82.43 122.75 79.35 123.30 C 79.84 126.79 80.37 128.53 77.48 130.99 C 75.64 131.37 73.89 131.78 71.99 131.60 C 76.95 127.71 73.61 122.25 68.01 122.96 C 62.24 124.05 63.13 131.54 69.10 132.28 C 63.72 134.56 59.64 134.66 53.89 133.51 C 57.48 132.88 56.08 132.32 56.38 129.48 C 60.97 128.63 62.12 127.24 60.37 122.65 C 58.10 121.88 55.66 121.54 53.29 121.22 C 53.64 123.82 54.12 126.35 53.91 129.00 C 53.14 126.02 47.58 129.71 50.38 126.39 C 53.26 124.19 43.61 122.67 48.64 121.20 C 52.30 119.62 46.63 119.75 45.79 120.71 C 44.09 125.01 44.89 128.40 45.02 132.63 C 47.90 129.41 54.47 133.75 49.90 135.38 C 48.68 135.44 48.91 137.85 49.35 138.56 C 52.69 140.63 56.40 142.18 60.02 143.69 C 56.66 143.71 61.34 149.26 59.18 151.99 C 58.56 153.41 57.90 154.80 57.23 156.20 C 55.34 152.73 55.14 144.31 53.00 142.24 C 51.36 143.53 51.04 151.08 49.71 153.90 C 48.66 158.10 48.05 155.91 44.91 155.35 C 44.95 159.42 47.39 158.41 50.22 159.78 C 50.93 162.60 52.63 164.51 49.19 166.23 C 45.74 168.48 50.59 170.67 52.78 168.75 C 54.94 170.72 57.61 171.37 60.07 172.81 C 54.50 173.63 50.32 170.30 45.07 169.09 C 44.19 171.94 48.52 173.77 50.70 172.78 C 50.95 177.05 56.89 172.20 55.71 175.71 C 50.30 177.55 49.34 175.41 44.97 173.10 C 44.89 179.19 56.51 178.97 60.01 181.92 L 58.93 183.47 C 56.23 182.83 53.60 181.95 50.90 181.34 C 51.00 183.59 52.33 184.49 53.73 186.00 C 50.35 187.76 46.78 182.20 48.30 188.55 C 52.95 188.71 53.60 193.99 56.90 191.13 C 56.64 192.09 56.36 193.05 56.06 194.00 L 43.90 194.00 C 43.01 186.42 46.58 173.53 41.21 167.67 C 40.99 164.82 40.96 161.98 40.99 159.13 C 44.36 161.09 43.04 155.81 43.19 154.00 C 42.95 137.50 43.17 120.76 42.87 104.25 L 42.12 104.22 C 41.35 115.09 43.04 126.52 41.26 137.23 C 40.95 133.12 41.03 129.02 40.98 124.90 C 40.96 123.69 40.91 122.48 40.84 121.26 C 41.89 113.22 39.21 103.05 42.76 95.74 C 46.90 92.22 54.67 95.88 59.83 95.41 C 66.63 98.17 66.77 89.71 72.24 94.72 Z" fill="#dfc0a9" />
<path d="M 143.58 94.40 C 148.15 98.59 150.41 95.95 154.92 93.94 C 156.99 95.85 160.86 98.75 160.01 101.92 C 159.87 103.59 156.92 105.18 159.15 106.44 C 161.82 106.26 164.82 106.30 167.36 105.47 C 169.16 101.11 172.37 103.99 175.88 103.85 C 176.64 100.01 174.73 100.35 172.11 98.74 C 173.13 97.51 174.31 96.41 175.56 95.43 C 177.01 98.41 179.24 100.20 178.30 103.77 C 181.44 102.34 182.87 100.90 184.69 98.01 C 182.63 103.60 188.14 103.58 185.23 108.74 C 188.18 110.80 191.82 107.32 193.00 110.21 L 193.00 141.73 C 189.50 146.81 183.77 140.56 181.24 147.26 C 178.25 149.03 177.25 151.74 175.47 154.52 C 173.42 155.50 170.36 155.00 168.12 154.80 C 166.55 152.04 173.99 144.84 176.19 148.66 C 175.63 141.42 169.67 147.47 167.04 149.65 C 165.78 147.98 168.86 144.74 167.37 142.47 C 166.06 140.39 165.10 138.50 164.47 136.10 C 163.01 137.89 160.57 144.23 158.13 143.81 C 158.49 139.37 162.13 134.49 166.00 132.25 C 160.02 129.93 163.32 130.39 164.95 126.11 C 160.99 125.20 160.96 127.82 158.88 130.23 C 157.87 127.56 155.02 124.48 160.05 125.43 C 160.04 122.06 158.06 121.85 156.20 119.76 C 155.97 116.14 155.77 112.59 155.25 108.99 C 155.07 106.91 157.97 104.62 156.40 102.75 C 153.03 102.66 151.26 102.94 148.90 100.07 C 147.05 97.41 145.75 101.14 144.29 102.21 C 143.81 100.46 143.19 98.79 142.46 97.13 C 142.75 95.72 141.17 91.43 143.58 94.40 Z" fill="#b3936d" />
<path d="M 40.12 96.17 C 39.82 102.76 39.58 109.79 39.11 116.19 C 37.02 121.26 36.40 116.17 34.12 114.39 C 32.08 115.95 30.93 113.33 29.22 115.20 C 23.68 119.32 32.08 123.58 27.45 129.13 C 30.96 135.39 25.49 137.36 26.51 143.63 C 27.92 148.28 22.05 148.32 25.39 152.87 C 21.83 155.33 20.74 157.73 20.02 161.94 C 20.58 163.82 24.00 165.05 23.98 166.89 C 22.85 168.07 21.06 169.37 19.45 169.77 C 19.47 163.77 11.55 165.17 7.44 164.72 C 5.39 168.34 1.73 168.05 0.00 172.10 L 0.00 131.32 C 5.79 127.95 5.80 127.29 6.86 120.88 C 12.59 119.49 7.77 113.47 12.04 112.03 C 16.22 111.53 12.56 121.51 18.00 120.03 C 24.08 121.17 18.17 113.06 23.37 111.31 C 29.31 108.24 28.86 104.36 31.42 99.14 C 33.67 100.80 33.60 103.14 34.30 105.62 C 39.17 103.53 37.61 99.88 40.12 96.17 Z" fill="#bba282" />
<path d="M 87.80 96.21 C 90.99 97.27 99.78 95.95 95.50 101.75 C 97.68 102.18 99.47 102.75 101.37 103.96 C 97.46 105.41 95.35 104.29 93.76 108.86 C 92.34 107.16 90.81 107.04 92.57 104.79 C 88.47 104.67 87.80 109.50 90.25 111.70 C 94.02 110.26 95.15 110.86 98.95 111.96 C 100.35 110.73 101.27 108.91 102.40 107.42 C 104.29 108.53 106.06 109.88 107.77 111.25 C 105.25 115.19 101.46 112.77 98.23 115.28 C 97.84 117.07 97.92 119.00 98.16 120.81 C 101.79 121.15 105.44 120.87 109.07 121.28 C 105.64 123.01 99.40 124.17 101.57 129.53 C 103.47 132.40 101.69 133.60 100.41 136.13 C 99.69 132.22 94.63 134.15 94.09 137.09 C 93.84 139.29 93.64 142.16 95.07 144.01 C 95.96 144.65 96.90 145.20 97.81 145.80 C 94.50 146.46 91.19 147.01 87.84 147.44 C 87.70 146.40 87.98 145.87 88.49 144.99 C 89.57 145.48 90.67 145.80 91.80 145.96 C 92.18 141.37 92.13 136.66 91.83 132.07 C 88.87 133.12 88.84 135.40 87.59 137.89 C 85.95 136.18 85.07 133.48 82.90 132.53 C 81.24 131.29 79.22 133.12 77.62 133.73 L 76.29 134.30 C 76.65 133.19 77.05 132.08 77.48 130.99 C 80.37 128.53 79.84 126.79 79.35 123.30 C 82.43 122.75 86.35 122.81 89.07 121.15 C 85.15 120.77 83.32 123.07 81.29 118.72 C 79.52 115.92 82.03 122.45 79.34 120.63 C 75.81 119.19 72.83 119.96 69.15 119.88 C 69.04 117.32 68.19 114.63 70.70 112.98 C 70.93 114.96 71.02 116.94 71.29 118.90 C 74.68 119.61 74.46 115.77 76.04 113.72 C 77.14 115.38 77.93 117.18 78.80 118.96 C 78.93 117.05 78.99 115.13 79.18 113.23 C 83.44 114.82 84.44 116.32 88.78 113.64 C 86.27 109.40 77.83 113.32 76.61 108.39 C 75.88 109.67 75.21 110.96 74.21 112.08 C 73.96 108.86 73.11 100.41 77.78 106.65 C 78.45 103.42 78.07 103.91 79.39 106.42 C 84.01 103.98 83.29 105.91 84.47 109.89 C 86.93 108.75 84.07 104.27 83.58 102.43 C 75.29 100.13 66.53 101.44 57.98 99.93 C 52.82 99.55 48.72 97.77 43.82 100.61 C 44.74 98.33 45.86 97.43 48.36 97.66 C 59.66 98.60 70.75 99.09 81.96 100.75 C 84.47 100.73 83.59 98.58 83.33 96.97 C 84.84 96.82 86.32 96.56 87.80 96.21 Z" fill="#b38f81" />
<path d="M 128.46 96.07 C 129.91 100.11 125.72 98.70 123.25 100.16 C 124.03 101.48 126.58 101.90 127.88 102.79 C 126.82 104.47 125.48 106.09 125.16 108.12 C 124.99 117.32 124.14 127.56 119.35 135.63 C 120.12 135.87 120.90 136.12 121.68 136.36 C 119.31 139.63 116.52 141.06 112.74 142.23 C 116.43 137.20 107.69 143.79 109.01 138.99 C 108.16 135.21 113.10 134.11 113.96 137.92 C 113.88 133.00 112.40 124.76 114.78 120.68 C 111.67 120.97 112.32 113.20 115.55 113.12 C 116.40 110.31 116.78 107.15 116.89 104.20 C 111.47 103.41 108.75 103.88 104.23 106.81 C 104.28 103.76 106.27 102.42 101.99 103.77 C 102.02 102.87 102.06 101.96 102.11 101.06 C 105.47 100.52 110.80 102.45 105.98 97.58 C 112.35 94.27 121.40 96.80 128.46 96.07 Z" fill="#5b4438" />
<path d="M 141.01 95.98 L 142.46 97.13 C 143.19 98.79 143.81 100.46 144.29 102.21 C 144.14 104.10 144.05 106.00 144.05 107.89 C 145.50 106.30 148.53 103.65 148.60 107.66 C 149.51 113.72 143.12 113.79 143.96 119.90 C 145.97 117.49 149.26 111.58 152.82 112.10 C 153.70 116.78 151.83 120.86 152.03 125.45 C 158.29 123.96 151.18 130.52 153.85 133.17 C 157.49 137.60 153.15 140.91 154.08 145.96 C 155.60 150.76 156.58 157.37 154.33 161.92 C 154.94 165.55 155.42 169.60 157.12 172.90 C 159.33 168.37 167.55 168.29 168.89 173.08 C 167.09 177.99 162.88 181.29 161.52 186.52 C 157.42 184.96 157.47 185.66 154.79 189.02 C 149.43 189.02 153.64 181.64 153.77 178.83 C 152.99 170.56 153.12 162.80 152.98 154.45 C 150.97 156.09 148.46 155.48 149.21 152.44 C 155.22 152.71 152.64 145.65 152.79 141.74 C 149.33 141.99 145.73 137.42 142.96 139.51 C 141.18 135.78 146.83 128.62 142.91 127.37 C 142.66 116.37 144.67 106.62 141.01 95.98 Z" fill="#977a5b" />
<path d="M 105.98 97.58 C 110.80 102.45 105.47 100.52 102.11 101.06 C 101.71 98.41 104.27 98.60 105.98 97.58 Z" fill="#967c71" />
<path d="M 148.90 100.07 C 151.26 102.94 153.03 102.66 156.40 102.75 C 157.97 104.62 155.07 106.91 155.25 108.99 C 155.77 112.59 155.97 116.14 156.20 119.76 C 158.06 121.85 160.04 122.06 160.05 125.43 C 155.02 124.48 157.87 127.56 158.88 130.23 C 160.96 127.82 160.99 125.20 164.95 126.11 C 163.32 130.39 160.02 129.93 166.00 132.25 C 162.13 134.49 158.49 139.37 158.13 143.81 C 160.57 144.23 163.01 137.89 164.47 136.10 C 165.10 138.50 166.06 140.39 167.37 142.47 C 168.86 144.74 165.78 147.98 167.04 149.65 C 169.67 147.47 175.63 141.42 176.19 148.66 C 173.99 144.84 166.55 152.04 168.12 154.80 C 170.36 155.00 173.42 155.50 175.47 154.52 C 177.25 151.74 178.25 149.03 181.24 147.26 C 183.77 140.56 189.50 146.81 193.00 141.73 L 193.00 144.72 C 188.55 149.37 184.74 154.63 180.44 159.43 C 178.14 161.95 178.37 165.63 175.12 167.15 C 172.13 168.31 173.75 171.19 173.03 173.74 C 171.00 172.50 170.08 168.86 168.89 173.08 C 167.55 168.29 159.33 168.37 157.12 172.90 C 155.42 169.60 154.94 165.55 154.33 161.92 C 156.58 157.37 155.60 150.76 154.08 145.96 C 153.15 140.91 157.49 137.60 153.85 133.17 C 151.18 130.52 158.29 123.96 152.03 125.45 C 151.83 120.86 153.70 116.78 152.82 112.10 C 149.26 111.58 145.97 117.49 143.96 119.90 C 143.12 113.79 149.51 113.72 148.60 107.66 C 148.53 103.65 145.50 106.30 144.05 107.89 C 144.05 106.00 144.14 104.10 144.29 102.21 C 145.75 101.14 147.05 97.41 148.90 100.07 Z" fill="#a58764" />
<path d="M 104.23 106.81 C 108.75 103.88 111.47 103.41 116.89 104.20 C 116.78 107.15 116.40 110.31 115.55 113.12 C 112.32 113.20 111.67 120.97 114.78 120.68 C 112.40 124.76 113.88 133.00 113.96 137.92 C 113.10 134.11 108.16 135.21 109.01 138.99 C 107.69 143.79 116.43 137.20 112.74 142.23 C 110.58 142.01 105.17 143.58 108.05 146.43 C 103.93 147.56 99.86 148.83 95.68 149.70 C 92.82 150.12 90.00 150.71 87.17 151.28 C 85.33 150.95 83.51 150.53 81.69 150.07 C 83.20 149.28 84.71 148.50 86.24 147.74 C 86.77 147.64 87.31 147.54 87.84 147.44 C 91.19 147.01 94.50 146.46 97.81 145.80 C 96.90 145.20 95.96 144.65 95.07 144.01 C 96.01 143.71 100.53 144.74 97.84 143.03 C 98.14 142.31 98.45 141.59 98.75 140.87 C 100.68 143.88 99.83 137.10 100.41 136.13 C 101.69 133.60 103.47 132.40 101.57 129.53 C 99.40 124.17 105.64 123.01 109.07 121.28 C 105.44 120.87 101.79 121.15 98.16 120.81 C 97.92 119.00 97.84 117.07 98.23 115.28 C 101.46 112.77 105.25 115.19 107.77 111.25 C 106.06 109.88 104.29 108.53 102.40 107.42 C 101.27 108.91 100.35 110.73 98.95 111.96 C 95.15 110.86 94.02 110.26 90.25 111.70 C 87.80 109.50 88.47 104.67 92.57 104.79 C 90.81 107.04 92.34 107.16 93.76 108.86 C 95.35 104.29 97.46 105.41 101.37 103.96 L 101.99 103.77 C 106.27 102.42 104.28 103.76 104.23 106.81 Z" fill="#8d6658" />
<path d="M 42.12 104.22 L 42.87 104.25 C 43.17 120.76 42.95 137.50 43.19 154.00 C 43.04 155.81 44.36 161.09 40.99 159.13 C 41.11 151.84 40.72 144.50 41.26 137.23 C 43.04 126.52 41.35 115.09 42.12 104.22 Z" fill="#c6aa91" />
<path d="M 63.05 113.09 C 67.40 111.42 64.11 117.00 64.29 119.21 C 62.17 119.63 56.84 119.74 58.08 116.13 C 59.93 116.96 61.57 117.95 63.65 118.13 C 63.40 117.18 60.70 112.58 63.05 113.09 Z" fill="#b5947a" />
<path d="M 34.12 114.39 C 36.40 116.17 37.02 121.26 39.11 116.19 C 38.88 118.70 39.22 119.43 40.84 121.26 C 40.91 122.48 40.96 123.69 40.98 124.90 C 39.27 124.64 38.64 123.29 39.20 125.93 C 39.86 145.10 39.68 164.79 39.14 184.00 C 36.71 181.43 36.73 182.44 33.91 183.68 C 35.80 179.10 36.57 178.43 33.30 174.15 C 32.82 176.36 32.38 178.57 31.84 180.77 C 30.27 178.94 29.07 175.23 26.07 176.12 C 26.53 178.92 29.48 181.08 29.92 183.87 C 27.18 184.93 25.83 180.73 24.23 179.11 C 24.04 180.74 23.89 182.38 23.69 184.01 C 22.85 181.98 22.22 179.73 21.07 177.87 C 15.44 180.75 14.87 187.18 8.51 187.57 C 5.41 191.67 5.68 192.43 0.00 191.99 L 0.00 172.10 C 1.73 168.05 5.39 168.34 7.44 164.72 C 11.55 165.17 19.47 163.77 19.45 169.77 C 21.06 169.37 22.85 168.07 23.98 166.89 C 24.00 165.05 20.58 163.82 20.02 161.94 C 20.74 157.73 21.83 155.33 25.39 152.87 C 22.05 148.32 27.92 148.28 26.51 143.63 C 25.49 137.36 30.96 135.39 27.45 129.13 C 32.08 123.58 23.68 119.32 29.22 115.20 C 30.93 113.33 32.08 115.95 34.12 114.39 Z" fill="#aa9273" />
<path d="M 94.91 114.99 C 92.50 116.13 93.00 116.92 92.47 119.13 C 95.90 121.74 94.74 120.97 91.16 120.81 C 91.21 116.68 89.32 114.45 94.91 114.99 Z" fill="#815b4f" />
<path d="M 48.64 121.20 C 43.61 122.67 53.26 124.19 50.38 126.39 C 47.58 129.71 53.14 126.02 53.91 129.00 C 53.95 130.42 53.35 132.17 53.89 133.51 C 59.64 134.66 63.72 134.56 69.10 132.28 C 70.06 132.04 71.02 131.81 71.99 131.60 C 73.89 131.78 75.64 131.37 77.48 130.99 C 77.05 132.08 76.65 133.19 76.29 134.30 C 75.42 137.18 74.28 139.96 73.42 142.83 C 73.90 144.45 75.87 142.15 76.88 142.01 C 78.11 143.54 78.43 144.93 80.67 145.10 C 79.99 141.16 78.65 137.59 77.62 133.73 C 79.22 133.12 81.24 131.29 82.90 132.53 C 82.87 137.04 83.18 141.46 82.52 145.95 C 87.68 146.99 84.50 143.32 84.98 140.18 C 89.08 144.65 86.71 141.50 89.90 138.96 C 90.12 141.37 89.62 142.91 88.49 144.99 C 87.98 145.87 87.70 146.40 87.84 147.44 C 87.31 147.54 86.77 147.64 86.24 147.74 C 73.46 144.97 61.21 142.36 49.90 135.38 C 54.47 133.75 47.90 129.41 45.02 132.63 C 44.89 128.40 44.09 125.01 45.79 120.71 C 46.63 119.75 52.30 119.62 48.64 121.20 Z" fill="#d8a991" />
<path d="M 53.29 121.22 C 55.66 121.54 58.10 121.88 60.37 122.65 C 62.12 127.24 60.97 128.63 56.38 129.48 C 56.08 132.32 57.48 132.88 53.89 133.51 C 53.35 132.17 53.95 130.42 53.91 129.00 C 54.12 126.35 53.64 123.82 53.29 121.22 Z" fill="#b58469" />
<path d="M 56.13 123.12 C 59.99 121.87 59.71 126.27 57.71 127.67 C 54.91 129.18 56.35 124.58 56.13 123.12 Z" fill="#f4bba4" />
<path d="M 68.01 122.96 C 73.61 122.25 76.95 127.71 71.99 131.60 C 71.02 131.81 70.06 132.04 69.10 132.28 C 63.13 131.54 62.24 124.05 68.01 122.96 Z" fill="#a9846e" />
<path d="M 40.98 124.90 C 41.03 129.02 40.95 133.12 41.26 137.23 C 40.72 144.50 41.11 151.84 40.99 159.13 C 40.96 161.98 40.99 164.82 41.21 167.67 C 40.93 172.66 40.82 177.79 41.26 182.77 C 41.03 186.51 40.97 190.26 40.86 194.00 L 38.72 194.00 C 39.57 190.47 40.22 187.59 39.14 184.00 C 39.68 164.79 39.86 145.10 39.20 125.93 C 38.64 123.29 39.27 124.64 40.98 124.90 Z" fill="#553b25" />
<path d="M 67.32 124.24 C 70.24 123.02 73.91 127.58 70.78 129.79 C 67.70 133.25 64.30 127.03 67.32 124.24 Z" fill="#e0b7a0" />
<path d="M 92.64 125.22 C 94.04 126.03 98.53 126.91 96.33 129.21 C 95.40 130.96 87.20 122.32 92.64 125.22 Z" fill="#81594b" />
<path d="M 142.26 128.11 L 142.91 127.37 C 146.83 128.62 141.18 135.78 142.96 139.51 C 145.73 137.42 149.33 141.99 152.79 141.74 C 152.64 145.65 155.22 152.71 149.21 152.44 C 148.46 155.48 150.97 156.09 152.98 154.45 C 153.12 162.80 152.99 170.56 153.77 178.83 C 153.64 181.64 149.43 189.02 154.79 189.02 C 157.47 185.66 157.42 184.96 161.52 186.52 C 162.88 181.29 167.09 177.99 168.89 173.08 C 170.08 168.86 171.00 172.50 173.03 173.74 C 173.75 171.19 172.13 168.31 175.12 167.15 C 178.37 165.63 178.14 161.95 180.44 159.43 C 184.74 154.63 188.55 149.37 193.00 144.72 L 193.00 194.00 L 139.87 194.00 C 139.96 190.74 139.99 187.48 140.27 184.23 C 141.79 178.09 140.65 171.31 141.00 165.00 C 143.16 158.01 141.64 149.14 141.74 141.77 C 142.20 137.22 141.77 132.65 142.26 128.11 Z" fill="#8b6f51" />
<path d="M 91.83 132.07 C 92.13 136.66 92.18 141.37 91.80 145.96 C 90.67 145.80 89.57 145.48 88.49 144.99 C 89.62 142.91 90.12 141.37 89.90 138.96 C 86.71 141.50 89.08 144.65 84.98 140.18 C 84.50 143.32 87.68 146.99 82.52 145.95 C 83.18 141.46 82.87 137.04 82.90 132.53 C 85.07 133.48 85.95 136.18 87.59 137.89 C 88.84 135.40 88.87 133.12 91.83 132.07 Z" fill="#9d6452" />
<path d="M 76.29 134.30 L 77.62 133.73 C 78.65 137.59 79.99 141.16 80.67 145.10 C 78.43 144.93 78.11 143.54 76.88 142.01 C 75.87 142.15 73.90 144.45 73.42 142.83 C 74.28 139.96 75.42 137.18 76.29 134.30 Z" fill="#ac745f" />
<path d="M 100.41 136.13 C 99.83 137.10 100.68 143.88 98.75 140.87 C 98.68 138.66 99.89 136.05 97.18 135.09 C 94.98 137.94 93.61 141.29 97.84 143.03 C 100.53 144.74 96.01 143.71 95.07 144.01 C 93.64 142.16 93.84 139.29 94.09 137.09 C 94.63 134.15 99.69 132.22 100.41 136.13 Z" fill="#704539" />
<path d="M 49.90 135.38 C 61.21 142.36 73.46 144.97 86.24 147.74 C 84.71 148.50 83.20 149.28 81.69 150.07 C 76.81 149.04 72.00 147.69 67.12 146.62 C 64.79 145.55 62.42 144.60 60.02 143.69 C 56.40 142.18 52.69 140.63 49.35 138.56 C 48.91 137.85 48.68 135.44 49.90 135.38 Z" fill="#ba785d" />
<path d="M 70.84 135.17 C 71.98 137.75 69.83 146.91 69.35 139.01 C 69.68 137.41 68.08 134.43 70.84 135.17 Z" fill="#a5765f" />
<path d="M 97.18 135.09 C 99.89 136.05 98.68 138.66 98.75 140.87 C 98.45 141.59 98.14 142.31 97.84 143.03 C 93.61 141.29 94.98 137.94 97.18 135.09 Z" fill="#af877a" />
<path d="M 53.00 142.24 C 55.14 144.31 55.34 152.73 57.23 156.20 C 58.89 160.04 53.45 156.73 54.40 154.34 C 51.13 150.14 50.33 158.83 49.71 153.90 C 51.04 151.08 51.36 143.53 53.00 142.24 Z" fill="#af7c5a" />
<path d="M 112.74 142.23 C 116.39 144.48 120.01 147.54 120.98 151.90 C 119.95 153.82 118.46 155.57 116.88 157.07 C 114.00 157.19 114.02 153.76 113.06 151.82 C 112.24 149.01 116.15 143.40 110.87 145.79 C 109.93 146.01 108.99 146.22 108.05 146.43 C 105.17 143.58 110.58 142.01 112.74 142.23 Z" fill="#624033" />
<path d="M 141.74 141.77 C 141.64 149.14 143.16 158.01 141.00 165.00 C 141.42 157.36 140.11 149.24 141.74 141.77 Z" fill="#534131" />
<path d="M 60.02 143.69 C 61.47 146.96 62.77 150.10 64.87 153.03 C 65.46 150.11 62.65 146.58 67.12 146.62 C 65.75 150.72 66.05 154.79 65.77 159.02 C 63.90 157.38 62.30 148.70 59.18 151.99 C 61.34 149.26 56.66 143.71 60.02 143.69 Z" fill="#b27a63" />
<path d="M 60.02 143.69 C 62.42 144.60 64.79 145.55 67.12 146.62 C 62.65 146.58 65.46 150.11 64.87 153.03 C 62.77 150.10 61.47 146.96 60.02 143.69 Z" fill="#edaf92" />
<path d="M 113.06 151.82 C 112.96 154.18 113.15 156.08 114.11 158.25 C 113.48 161.36 112.37 164.42 111.81 167.54 C 115.65 171.21 114.49 173.70 110.37 176.21 C 113.86 179.13 112.49 178.22 110.01 181.11 C 115.85 183.91 112.94 182.92 110.59 187.17 C 111.75 189.93 111.58 191.11 110.83 194.00 L 107.05 194.00 C 107.69 191.73 106.74 190.20 106.14 188.09 C 107.03 186.44 108.45 185.05 108.96 183.30 C 107.01 183.05 105.05 182.97 103.11 182.72 C 102.47 179.44 109.27 181.20 108.88 178.27 C 107.80 177.73 102.40 178.62 103.24 176.74 C 105.09 175.97 109.10 175.74 108.98 173.14 C 106.92 173.54 104.97 174.18 102.93 174.65 C 102.81 170.68 107.01 172.88 108.80 169.54 C 103.12 168.55 107.89 162.49 108.55 159.26 C 109.93 154.97 107.38 148.92 110.87 145.79 C 116.15 143.40 112.24 149.01 113.06 151.82 Z" fill="#745b4f" />
<path d="M 108.05 146.43 C 108.99 146.22 109.93 146.01 110.87 145.79 C 107.38 148.92 109.93 154.97 108.55 159.26 C 107.89 162.49 103.12 168.55 108.80 169.54 C 107.01 172.88 102.81 170.68 102.93 174.65 C 104.97 174.18 106.92 173.54 108.98 173.14 C 109.10 175.74 105.09 175.97 103.24 176.74 C 102.40 178.62 107.80 177.73 108.88 178.27 C 109.27 181.20 102.47 179.44 103.11 182.72 C 105.05 182.97 107.01 183.05 108.96 183.30 C 108.45 185.05 107.03 186.44 106.14 188.09 C 106.74 190.20 107.69 191.73 107.05 194.00 L 93.44 194.00 C 95.67 191.88 98.35 193.23 100.88 191.60 C 97.71 192.04 96.23 183.91 99.97 187.57 C 103.47 181.09 94.89 185.92 92.04 182.84 C 93.57 179.80 95.03 180.68 97.89 180.78 C 95.71 176.21 89.31 181.58 90.00 176.54 C 92.42 177.15 100.86 176.38 94.14 174.15 C 96.71 168.78 95.50 171.06 91.01 168.83 C 91.97 166.76 96.09 167.79 96.78 165.84 C 97.09 163.54 100.49 160.75 96.27 160.85 C 96.99 157.99 96.97 155.10 97.26 152.18 C 100.01 151.38 98.26 154.65 98.57 156.19 C 102.17 153.91 100.59 151.47 97.15 150.36 L 95.68 149.70 C 99.86 148.83 103.93 147.56 108.05 146.43 Z" fill="#95796f" />
<path d="M 67.12 146.62 C 72.00 147.69 76.81 149.04 81.69 150.07 C 83.51 150.53 85.33 150.95 87.17 151.28 L 86.85 152.81 C 82.71 150.68 78.38 153.41 82.85 157.15 C 86.76 159.78 82.95 160.48 80.87 158.32 C 80.65 162.64 83.91 160.73 86.40 159.82 C 88.58 163.14 81.21 162.25 79.26 162.48 C 75.69 161.66 76.55 165.56 79.19 166.06 C 80.38 166.51 80.95 173.35 81.91 167.99 C 81.73 163.67 83.96 166.19 86.78 166.12 C 84.11 167.27 84.30 170.09 82.33 171.33 C 80.52 171.29 74.94 173.11 76.56 169.64 C 78.16 166.26 71.88 164.99 70.82 168.15 C 69.38 168.50 63.78 167.29 65.94 169.83 C 66.38 172.99 69.83 171.13 72.02 171.50 C 71.67 174.14 66.54 171.99 64.99 174.58 C 68.26 174.63 68.16 173.74 67.91 177.35 C 63.69 176.88 65.20 179.25 64.27 182.13 C 62.73 182.59 61.48 182.23 60.63 183.91 C 60.06 183.77 59.50 183.62 58.93 183.47 L 60.01 181.92 C 56.51 178.97 44.89 179.19 44.97 173.10 C 49.34 175.41 50.30 177.55 55.71 175.71 C 56.89 172.20 50.95 177.05 50.70 172.78 C 48.52 173.77 44.19 171.94 45.07 169.09 C 50.32 170.30 54.50 173.63 60.07 172.81 C 57.61 171.37 54.94 170.72 52.78 168.75 C 50.59 170.67 45.74 168.48 49.19 166.23 C 52.63 164.51 50.93 162.60 50.22 159.78 C 47.39 158.41 44.95 159.42 44.91 155.35 C 48.05 155.91 48.66 158.10 49.71 153.90 C 50.33 158.83 51.13 150.14 54.40 154.34 C 53.45 156.73 58.89 160.04 57.23 156.20 C 57.90 154.80 58.56 153.41 59.18 151.99 C 62.30 148.70 63.90 157.38 65.77 159.02 C 66.05 154.79 65.75 150.72 67.12 146.62 Z" fill="#d3ab97" />
<path d="M 52.20 148.41 C 54.07 147.53 55.05 151.74 53.01 152.00 C 51.54 151.74 51.41 149.38 52.20 148.41 Z" fill="#efbd99" />
<path d="M 68.04 148.37 C 69.94 148.97 75.88 149.16 75.92 151.59 C 71.39 149.87 72.67 157.54 73.41 160.06 C 67.86 161.61 72.44 153.55 70.81 150.42 C 68.56 150.11 67.78 151.42 68.04 148.37 Z" fill="#ad7c6a" />
<path d="M 103.54 148.80 C 107.01 150.32 104.33 156.74 105.43 159.95 C 101.80 161.11 104.68 155.91 103.96 153.99 C 103.92 152.25 103.68 150.54 103.54 148.80 Z" fill="#624035" />
<path d="M 95.68 149.70 L 97.15 150.36 C 94.12 149.73 94.25 161.15 96.27 160.85 C 100.49 160.75 97.09 163.54 96.78 165.84 C 96.09 167.79 91.97 166.76 91.01 168.83 C 95.50 171.06 96.71 168.78 94.14 174.15 C 100.86 176.38 92.42 177.15 90.00 176.54 C 89.31 181.58 95.71 176.21 97.89 180.78 C 95.03 180.68 93.57 179.80 92.04 182.84 C 94.89 185.92 103.47 181.09 99.97 187.57 C 96.23 183.91 97.71 192.04 100.88 191.60 C 98.35 193.23 95.67 191.88 93.44 194.00 L 91.90 194.00 C 94.64 189.94 88.61 192.56 87.41 194.00 L 77.59 194.00 C 78.08 193.49 78.58 192.98 79.08 192.46 C 82.54 191.95 87.00 190.72 89.74 188.66 C 90.54 185.65 88.91 186.58 86.92 186.02 C 83.12 182.47 76.09 184.57 71.21 182.68 C 70.86 178.49 74.75 181.13 76.85 181.55 C 83.49 179.42 72.29 177.43 70.26 177.59 C 68.30 173.62 74.99 176.82 76.98 175.90 C 75.74 173.05 72.73 173.39 73.53 169.66 C 74.11 167.57 72.12 168.54 70.82 168.15 C 71.88 164.99 78.16 166.26 76.56 169.64 C 74.94 173.11 80.52 171.29 82.33 171.33 C 84.30 170.09 84.11 167.27 86.78 166.12 C 83.96 166.19 81.73 163.67 81.91 167.99 C 80.95 173.35 80.38 166.51 79.19 166.06 C 76.55 165.56 75.69 161.66 79.26 162.48 C 81.21 162.25 88.58 163.14 86.40 159.82 C 86.12 156.66 83.49 156.39 82.22 154.09 C 83.32 153.05 86.93 154.43 86.85 152.81 L 87.17 151.28 C 90.00 150.71 92.82 150.12 95.68 149.70 Z" fill="#b39388" />
<path d="M 77.59 151.20 C 81.08 149.82 78.49 154.16 79.13 156.00 C 79.19 157.34 79.37 158.67 79.48 160.01 C 75.31 161.22 77.38 153.56 77.59 151.20 Z" fill="#a16e66" />
<path d="M 97.15 150.36 C 100.59 151.47 102.17 153.91 98.57 156.19 C 98.26 154.65 100.01 151.38 97.26 152.18 C 96.97 155.10 96.99 157.99 96.27 160.85 C 94.25 161.15 94.12 149.73 97.15 150.36 Z" fill="#7e5248" />
<path d="M 86.85 152.81 C 86.93 154.43 83.32 153.05 82.22 154.09 C 83.49 156.39 86.12 156.66 86.40 159.82 C 83.91 160.73 80.65 162.64 80.87 158.32 C 82.95 160.48 86.76 159.78 82.85 157.15 C 78.38 153.41 82.71 150.68 86.85 152.81 Z" fill="#956154" />
<path d="M 92.02 152.02 C 94.44 151.48 90.34 153.51 90.05 153.96 C 95.06 157.60 90.00 156.92 88.29 160.97 C 89.40 158.12 87.34 150.67 92.02 152.02 Z" fill="#8a5649" />
<path d="M 119.86 157.61 C 121.77 160.92 119.95 159.48 117.44 160.14 C 119.68 162.63 118.41 164.58 118.11 167.48 C 124.52 166.51 117.51 170.25 115.44 170.51 C 113.68 173.00 118.53 170.82 119.62 171.05 C 118.38 173.62 118.14 173.95 119.40 176.58 C 117.52 177.48 117.03 177.42 117.09 179.70 C 118.69 180.04 121.79 178.63 121.97 181.07 C 122.36 183.90 117.86 185.71 115.96 187.01 C 118.90 190.03 119.11 189.77 117.77 194.00 L 110.83 194.00 C 111.58 191.11 111.75 189.93 110.59 187.17 C 112.94 182.92 115.85 183.91 110.01 181.11 C 112.49 178.22 113.86 179.13 110.37 176.21 C 114.49 173.70 115.65 171.21 111.81 167.54 C 112.37 164.42 113.48 161.36 114.11 158.25 C 116.21 158.37 117.85 158.18 119.86 157.61 Z" fill="#584339" />
<path d="M 141.00 165.00 C 140.65 171.31 141.79 178.09 140.27 184.23 C 140.34 178.16 138.88 170.71 141.00 165.00 Z" fill="#533e2d" />
<path d="M 70.82 168.15 C 72.12 168.54 74.11 167.57 73.53 169.66 C 72.73 173.39 75.74 173.05 76.98 175.90 C 74.99 176.82 68.30 173.62 70.26 177.59 C 72.29 177.43 83.49 179.42 76.85 181.55 C 74.75 181.13 70.86 178.49 71.21 182.68 C 76.09 184.57 83.12 182.47 86.92 186.02 C 82.74 185.73 79.04 183.79 75.23 186.31 C 74.08 190.19 76.55 190.54 79.08 192.46 C 78.58 192.98 78.08 193.49 77.59 194.00 L 63.60 194.00 C 62.57 189.12 62.59 187.66 68.08 188.43 C 67.02 184.06 64.07 185.28 60.63 183.91 C 61.48 182.23 62.73 182.59 64.27 182.13 C 65.20 179.25 63.69 176.88 67.91 177.35 C 68.16 173.74 68.26 174.63 64.99 174.58 C 66.54 171.99 71.67 174.14 72.02 171.50 C 69.83 171.13 66.38 172.99 65.94 169.83 C 63.78 167.29 69.38 168.50 70.82 168.15 Z" fill="#d4b8ab" />
<path d="M 41.21 167.67 C 46.58 173.53 43.01 186.42 43.90 194.00 L 41.88 194.00 C 42.04 190.17 42.36 186.51 41.26 182.77 C 40.82 177.79 40.93 172.66 41.21 167.67 Z" fill="#c3a28b" />
<path d="M 33.30 174.15 C 36.57 178.43 35.80 179.10 33.91 183.68 C 36.73 182.44 36.71 181.43 39.14 184.00 C 40.22 187.59 39.57 190.47 38.72 194.00 L 0.00 194.00 L 0.00 191.99 C 5.68 192.43 5.41 191.67 8.51 187.57 C 14.87 187.18 15.44 180.75 21.07 177.87 C 22.22 179.73 22.85 181.98 23.69 184.01 C 23.89 182.38 24.04 180.74 24.23 179.11 C 25.83 180.73 27.18 184.93 29.92 183.87 C 29.48 181.08 26.53 178.92 26.07 176.12 C 29.07 175.23 30.27 178.94 31.84 180.77 C 32.38 178.57 32.82 176.36 33.30 174.15 Z" fill="#9b8568" />
<path d="M 45.10 179.11 C 47.31 179.41 49.96 180.15 49.97 182.85 C 47.79 181.91 44.38 182.43 45.10 179.11 Z" fill="#bf9078" />
<path d="M 50.90 181.34 C 53.60 181.95 56.23 182.83 58.93 183.47 C 59.50 183.62 60.06 183.77 60.63 183.91 C 64.07 185.28 67.02 184.06 68.08 188.43 C 62.59 187.66 62.57 189.12 63.60 194.00 L 56.06 194.00 C 56.36 193.05 56.64 192.09 56.90 191.13 C 53.60 193.99 52.95 188.71 48.30 188.55 C 46.78 182.20 50.35 187.76 53.73 186.00 C 52.33 184.49 51.00 183.59 50.90 181.34 Z" fill="#c49981" />
<path d="M 41.26 182.77 C 42.36 186.51 42.04 190.17 41.88 194.00 L 40.86 194.00 C 40.97 190.26 41.03 186.51 41.26 182.77 Z" fill="#876c53" />
<path d="M 86.92 186.02 C 88.91 186.58 90.54 185.65 89.74 188.66 C 87.00 190.72 82.54 191.95 79.08 192.46 C 76.55 190.54 74.08 190.19 75.23 186.31 C 79.04 183.79 82.74 185.73 86.92 186.02 Z" fill="#986c5f" />
<path d="M 77.08 187.18 C 78.82 187.31 86.23 185.61 83.27 189.28 C 81.53 192.31 76.10 190.82 77.08 187.18 Z" fill="#d6a79a" />
<path d="M 91.90 194.00 L 87.41 194.00 C 88.61 192.56 94.64 189.94 91.90 194.00 Z" fill="#7d4b3d" />
</svg>