<?xml version="1.0" encoding="UTF-8" standalone="no"?>
<!DOCTYPE svg PUBLIC "-//W3C//DTD SVG 1.1//EN" "http://www.w3.org/Graphics/SVG/1.1/DTD/svg11.dtd">
<svg xmlns="http://www.w3.org/2000/svg" version="1.1" viewBox="0 0 202 203" width="202.0pt" height="203.0pt">
<path d="M 0.00 0.00 L 202.00 0.00 L 202.00 203.00 L 145.81 203.00 C 146.19 200.15 147.07 198.36 145.06 195.93 C 145.82 194.39 146.64 192.81 147.24 191.20 C 148.76 184.38 148.07 176.18 147.46 169.18 C 140.27 169.66 131.59 172.46 124.66 170.21 L 124.91 168.22 L 126.08 167.23 C 128.14 167.07 130.20 166.93 132.27 166.82 C 135.72 166.21 145.90 167.89 144.73 162.33 C 145.78 162.09 146.83 161.85 147.89 161.63 C 146.41 160.54 143.58 161.58 144.08 159.06 C 144.49 157.35 147.61 156.30 148.94 155.12 C 145.57 155.66 142.35 156.22 138.93 155.71 L 138.83 154.66 C 141.10 153.85 144.64 154.48 145.10 151.45 C 141.95 150.48 137.09 154.93 135.93 151.02 C 136.96 148.44 143.74 151.31 142.86 147.11 C 138.32 142.97 146.76 145.82 148.90 145.49 C 149.12 143.05 149.09 140.57 148.92 138.12 C 146.96 139.03 149.20 143.11 146.03 143.12 C 144.16 143.39 138.37 145.56 139.16 141.92 C 141.93 142.12 140.76 138.93 140.88 137.17 C 138.87 136.97 136.78 137.03 134.77 137.08 C 134.94 135.38 135.12 133.67 135.30 131.98 C 133.11 131.26 130.40 133.03 128.17 133.43 C 127.35 128.58 128.68 122.53 127.04 118.30 C 123.44 122.35 125.03 114.25 125.70 112.59 C 127.37 110.38 125.30 110.45 123.92 109.05 C 131.24 108.66 143.63 110.05 149.89 107.10 C 141.24 106.49 132.26 107.83 123.71 106.38 C 125.50 105.07 127.33 103.81 129.24 102.68 C 131.28 102.74 132.86 101.80 134.67 101.03 C 133.91 102.65 133.03 104.05 133.06 105.91 C 135.56 105.28 136.53 103.46 138.84 105.56 C 139.12 103.66 139.35 101.76 139.77 99.88 C 141.24 97.80 142.07 96.59 141.95 93.91 C 142.38 88.19 153.13 94.43 148.26 89.19 C 150.38 83.24 148.06 73.78 143.08 69.66 C 140.86 65.00 134.90 61.76 130.28 59.89 C 126.88 58.37 123.48 56.96 119.93 55.80 C 122.23 53.02 122.10 50.25 122.31 46.82 C 124.94 47.11 127.44 46.97 130.04 46.51 L 131.89 46.51 C 137.09 47.85 142.41 46.85 147.75 47.76 C 154.35 47.59 160.34 49.78 166.81 48.81 C 166.62 42.89 167.88 37.11 167.81 31.32 C 153.45 29.03 138.23 26.92 123.80 29.35 C 122.94 28.88 122.19 28.17 121.57 27.23 C 121.84 22.46 122.56 21.74 126.06 18.87 C 124.99 16.67 121.04 16.68 118.94 15.96 C 117.15 11.64 121.30 7.17 118.08 3.99 C 117.30 2.69 114.39 3.18 113.03 2.84 C 107.43 1.70 101.40 1.51 95.78 2.64 C 92.50 2.99 89.39 3.07 86.27 4.30 C 85.72 8.10 86.05 12.05 85.99 15.89 C 84.93 15.95 83.87 16.03 82.81 16.12 C 77.28 17.70 78.83 19.48 82.70 22.01 L 82.90 22.94 C 82.91 27.02 82.63 30.40 84.89 34.00 C 86.19 36.15 82.19 31.80 82.98 34.07 C 83.33 35.99 81.87 39.75 84.81 39.73 C 82.91 44.36 80.99 51.98 85.89 55.39 L 86.24 56.09 C 85.56 56.46 84.86 56.80 84.16 57.12 C 77.56 56.77 69.98 59.65 66.03 65.09 C 59.85 69.28 57.16 75.72 55.69 82.79 C 54.10 112.20 55.43 143.39 55.02 173.08 C 55.32 179.33 54.18 186.13 55.74 192.20 L 56.16 193.75 C 56.38 194.76 56.57 195.78 56.75 196.80 C 53.38 197.65 56.25 201.05 56.84 203.00 L 0.00 203.00 L 0.00 0.00 Z" fill="#fefefe" />
<path d="M 113.03 2.84 C 117.97 8.32 116.20 9.34 114.37 15.35 C 112.89 14.82 111.60 14.78 110.82 13.22 C 109.94 11.71 105.87 14.11 106.00 11.64 C 111.82 12.67 109.26 6.77 108.66 3.45 C 105.46 3.10 102.20 3.12 98.99 2.94 C 97.92 2.84 96.85 2.74 95.78 2.64 C 101.40 1.51 107.43 1.70 113.03 2.84 Z" fill="#dccd8f" />
<path d="M 95.78 2.64 C 96.85 2.74 97.92 2.84 98.99 2.94 C 101.61 4.95 100.96 6.84 99.12 9.06 C 94.76 12.24 95.32 10.03 95.43 6.05 C 93.40 5.85 86.42 5.74 88.63 9.44 C 89.46 11.35 88.01 13.93 87.87 15.91 L 85.99 15.89 C 86.05 12.05 85.72 8.10 86.27 4.30 C 89.39 3.07 92.50 2.99 95.78 2.64 Z" fill="#8f896b" />
<path d="M 98.99 2.94 C 102.20 3.12 105.46 3.10 108.66 3.45 C 109.26 6.77 111.82 12.67 106.00 11.64 C 105.87 14.11 109.94 11.71 110.82 13.22 C 111.60 14.78 112.89 14.82 114.37 15.35 L 115.07 15.92 C 111.27 15.92 107.62 14.89 103.80 15.10 C 102.86 15.08 101.91 15.07 100.97 15.06 C 100.29 13.08 99.71 11.07 99.12 9.06 C 100.96 6.84 101.61 4.95 98.99 2.94 Z" fill="#afa264" />
<path d="M 113.03 2.84 C 114.39 3.18 117.30 2.69 118.08 3.99 C 121.30 7.17 117.15 11.64 118.94 15.96 C 117.65 15.96 116.36 15.95 115.07 15.92 L 114.37 15.35 C 116.20 9.34 117.97 8.32 113.03 2.84 Z" fill="#ebe4be" />
<path d="M 95.43 6.05 C 95.32 10.03 94.76 12.24 99.12 9.06 C 99.71 11.07 100.29 13.08 100.97 15.06 C 96.61 15.83 92.30 16.13 87.87 15.91 C 88.01 13.93 89.46 11.35 88.63 9.44 C 86.42 5.74 93.40 5.85 95.43 6.05 Z" fill="#757150" />
<path d="M 100.97 15.06 C 101.91 15.07 102.86 15.08 103.80 15.10 C 107.86 16.93 111.38 18.07 115.88 18.19 C 109.47 21.03 118.31 19.51 120.07 21.79 C 115.08 23.37 107.42 16.92 107.87 25.91 C 106.21 25.96 104.56 25.99 102.90 26.02 C 101.32 26.00 99.73 25.96 98.15 25.91 C 97.91 24.08 97.66 22.28 97.01 20.54 C 94.05 22.39 91.44 20.43 88.29 21.23 C 86.03 23.25 86.31 26.68 90.15 26.25 C 89.41 26.57 88.68 26.90 87.94 27.23 C 85.25 26.99 86.26 23.87 85.81 21.96 C 87.28 19.49 89.58 18.95 84.97 19.05 C 82.81 18.76 83.36 17.83 82.81 16.12 C 83.87 16.03 84.93 15.95 85.99 15.89 L 87.87 15.91 C 92.30 16.13 96.61 15.83 100.97 15.06 Z" fill="#24281b" />
<path d="M 103.80 15.10 C 107.62 14.89 111.27 15.92 115.07 15.92 C 116.36 15.95 117.65 15.96 118.94 15.96 C 121.04 16.68 124.99 16.67 126.06 18.87 C 122.56 21.74 121.84 22.46 121.57 27.23 C 117.00 26.35 112.53 25.79 107.87 25.91 C 107.42 16.92 115.08 23.37 120.07 21.79 C 118.31 19.51 109.47 21.03 115.88 18.19 C 111.38 18.07 107.86 16.93 103.80 15.10 Z" fill="#666f67" />
<path d="M 82.81 16.12 C 83.36 17.83 82.81 18.76 84.97 19.05 C 84.16 20.00 83.40 20.98 82.70 22.01 C 78.83 19.48 77.28 17.70 82.81 16.12 Z" fill="#a6a7ac" />
<path d="M 84.97 19.05 C 89.58 18.95 87.28 19.49 85.81 21.96 C 84.84 22.28 83.87 22.61 82.90 22.94 L 82.70 22.01 C 83.40 20.98 84.16 20.00 84.97 19.05 Z" fill="#676c6b" />
<path d="M 97.01 20.54 C 97.66 22.28 97.91 24.08 98.15 25.91 C 97.06 25.93 95.98 25.96 94.89 25.99 C 93.31 26.04 91.73 26.13 90.15 26.25 C 86.31 26.68 86.03 23.25 88.29 21.23 C 91.44 20.43 94.05 22.39 97.01 20.54 Z" fill="#050906" />
<path d="M 85.81 21.96 C 86.26 23.87 85.25 26.99 87.94 27.23 C 86.85 28.16 86.27 28.43 86.32 30.02 C 86.20 31.62 86.10 33.24 86.08 34.85 C 86.11 36.28 86.19 37.71 86.32 39.13 C 86.27 40.36 86.12 41.57 85.97 42.78 C 85.86 43.54 85.81 44.31 85.83 45.09 C 84.60 48.74 88.70 53.15 85.89 55.39 C 80.99 51.98 82.91 44.36 84.81 39.73 C 81.87 39.75 83.33 35.99 82.98 34.07 C 82.19 31.80 86.19 36.15 84.89 34.00 C 82.63 30.40 82.91 27.02 82.90 22.94 C 83.87 22.61 84.84 22.28 85.81 21.96 Z" fill="#b5bcb6" />
<path d="M 90.15 26.25 C 91.73 26.13 93.31 26.04 94.89 25.99 C 92.78 29.03 98.47 27.79 100.17 28.68 L 97.86 28.88 C 93.98 29.26 90.24 30.13 86.32 30.02 C 86.27 28.43 86.85 28.16 87.94 27.23 C 88.68 26.90 89.41 26.57 90.15 26.25 Z" fill="#70736f" />
<path d="M 94.89 25.99 C 95.98 25.96 97.06 25.93 98.15 25.91 C 99.73 25.96 101.32 26.00 102.90 26.02 C 100.66 29.77 106.70 26.60 106.79 28.96 C 104.57 29.08 102.37 28.93 100.17 28.68 C 98.47 27.79 92.78 29.03 94.89 25.99 Z" fill="#a6a29d" />
<path d="M 102.90 26.02 C 104.56 25.99 106.21 25.96 107.87 25.91 C 112.53 25.79 117.00 26.35 121.57 27.23 C 122.19 28.17 122.94 28.88 123.80 29.35 C 129.26 31.46 133.61 28.14 139.17 29.66 C 145.24 30.78 156.74 28.88 161.04 33.86 C 155.30 34.31 149.95 32.26 144.15 33.16 C 143.64 35.69 146.22 34.65 147.84 35.24 C 145.85 36.81 144.11 36.06 146.45 38.65 C 143.54 40.19 143.76 39.32 145.66 41.98 C 144.45 42.60 141.64 42.27 144.02 44.00 C 148.43 45.07 154.14 45.63 158.08 43.01 C 160.78 42.28 162.89 45.44 158.84 44.24 C 155.89 43.34 158.57 45.31 158.92 46.50 C 155.13 46.96 151.47 46.74 147.75 47.76 C 142.41 46.85 137.09 47.85 131.89 46.51 C 140.74 44.60 123.84 44.00 130.04 46.51 C 127.44 46.97 124.94 47.11 122.31 46.82 C 118.53 45.81 114.59 45.29 110.69 45.18 C 109.56 45.08 108.44 44.98 107.31 44.88 C 106.17 44.35 105.04 43.80 103.91 43.25 C 104.63 42.91 105.33 42.56 106.03 42.19 C 102.60 41.93 99.17 42.03 95.73 41.85 C 98.09 35.50 104.06 41.39 107.35 37.89 C 105.65 35.25 108.89 36.11 110.02 34.11 C 105.36 34.47 101.80 38.29 97.24 37.97 C 98.88 34.87 96.98 32.15 97.86 28.88 L 100.17 28.68 C 102.37 28.93 104.57 29.08 106.79 28.96 C 106.70 26.60 100.66 29.77 102.90 26.02 Z" fill="#dfe0df" />
<path d="M 167.81 31.32 C 167.88 37.11 166.62 42.89 166.81 48.81 C 160.34 49.78 154.35 47.59 147.75 47.76 C 151.47 46.74 155.13 46.96 158.92 46.50 C 158.57 45.31 155.89 43.34 158.84 44.24 C 162.89 45.44 160.78 42.28 158.08 43.01 C 154.14 45.63 148.43 45.07 144.02 44.00 C 141.64 42.27 144.45 42.60 145.66 41.98 C 143.76 39.32 143.54 40.19 146.45 38.65 C 144.11 36.06 145.85 36.81 147.84 35.24 C 146.22 34.65 143.64 35.69 144.15 33.16 C 149.95 32.26 155.30 34.31 161.04 33.86 C 156.74 28.88 145.24 30.78 139.17 29.66 C 133.61 28.14 129.26 31.46 123.80 29.35 C 138.23 26.92 153.45 29.03 167.81 31.32 Z" fill="#a6abaf" />
<path d="M 97.86 28.88 C 96.98 32.15 98.88 34.87 97.24 37.97 C 101.80 38.29 105.36 34.47 110.02 34.11 C 108.89 36.11 105.65 35.25 107.35 37.89 C 104.06 41.39 98.09 35.50 95.73 41.85 C 92.24 41.78 89.20 41.00 85.97 42.78 C 86.12 41.57 86.27 40.36 86.32 39.13 C 89.69 39.39 91.84 31.41 86.08 34.85 C 86.10 33.24 86.20 31.62 86.32 30.02 C 90.24 30.13 93.98 29.26 97.86 28.88 Z" fill="#909c93" />
<path d="M 129.16 32.15 C 133.53 31.55 138.33 32.66 142.68 33.37 C 144.44 36.63 135.59 32.29 137.21 35.75 C 138.88 36.49 145.04 34.87 143.84 37.87 C 140.84 38.29 138.05 37.68 135.10 37.26 C 134.03 40.70 143.08 37.71 141.76 40.81 C 139.55 40.46 128.44 42.38 129.15 38.41 C 132.33 38.11 135.27 36.83 136.08 33.55 C 134.32 33.30 127.83 35.50 129.16 32.15 Z" fill="#848c92" />
<path d="M 86.32 39.13 C 86.19 37.71 86.11 36.28 86.08 34.85 C 91.84 31.41 89.69 39.39 86.32 39.13 Z" fill="#28322b" />
<path d="M 95.73 41.85 C 99.17 42.03 102.60 41.93 106.03 42.19 C 105.33 42.56 104.63 42.91 103.91 43.25 C 100.93 43.00 99.02 42.45 96.72 44.75 C 93.39 45.03 90.08 45.05 86.75 45.12 L 85.83 45.09 C 85.81 44.31 85.86 43.54 85.97 42.78 C 89.20 41.00 92.24 41.78 95.73 41.85 Z" fill="#7c7b74" />
<path d="M 136.16 42.14 C 137.82 42.33 142.97 40.78 141.84 43.86 C 140.18 43.68 135.03 45.21 136.16 42.14 Z" fill="#798382" />
<path d="M 103.91 43.25 C 105.04 43.80 106.17 44.35 107.31 44.88 C 104.15 44.90 101.07 44.85 98.03 45.86 L 96.72 44.75 C 99.02 42.45 100.93 43.00 103.91 43.25 Z" fill="#a9a1a1" />
<path d="M 85.83 45.09 L 86.75 45.12 C 86.13 50.26 98.16 50.50 98.20 46.86 C 99.11 50.19 108.33 49.06 107.31 44.88 C 108.44 44.98 109.56 45.08 110.69 45.18 C 117.88 49.52 103.17 47.69 104.10 51.74 C 110.03 51.60 116.45 54.80 121.20 50.34 C 121.03 51.41 117.78 55.61 119.93 55.80 C 123.48 56.96 126.88 58.37 130.28 59.89 C 130.23 60.73 130.16 61.57 130.08 62.41 C 124.27 61.19 119.78 57.13 113.94 59.28 C 113.32 59.37 112.71 59.46 112.09 59.54 C 109.40 59.14 106.69 58.98 103.98 58.71 C 105.34 55.88 109.90 58.02 110.78 56.19 C 104.68 55.36 98.08 55.46 92.26 53.40 C 90.29 53.85 88.60 54.78 86.87 55.78 L 86.24 56.09 L 85.89 55.39 C 88.70 53.15 84.60 48.74 85.83 45.09 Z" fill="#666f44" />
<path d="M 86.75 45.12 C 90.08 45.05 93.39 45.03 96.72 44.75 L 98.03 45.86 L 98.20 46.86 C 98.16 50.50 86.13 50.26 86.75 45.12 Z" fill="#11140a" />
<path d="M 107.31 44.88 C 108.33 49.06 99.11 50.19 98.20 46.86 L 98.03 45.86 C 101.07 44.85 104.15 44.90 107.31 44.88 Z" fill="#191f16" />
<path d="M 110.69 45.18 C 114.59 45.29 118.53 45.81 122.31 46.82 C 122.10 50.25 122.23 53.02 119.93 55.80 C 117.78 55.61 121.03 51.41 121.20 50.34 C 116.45 54.80 110.03 51.60 104.10 51.74 C 103.17 47.69 117.88 49.52 110.69 45.18 Z" fill="#889878" />
<path d="M 131.89 46.51 L 130.04 46.51 C 123.84 44.00 140.74 44.60 131.89 46.51 Z" fill="#9a9596" />
<path d="M 92.26 53.40 C 98.08 55.46 104.68 55.36 110.78 56.19 C 109.90 58.02 105.34 55.88 103.98 58.71 C 106.69 58.98 109.40 59.14 112.09 59.54 C 105.26 60.61 98.65 59.90 91.86 59.15 C 90.02 58.28 88.45 57.05 86.87 55.78 C 88.60 54.78 90.29 53.85 92.26 53.40 Z" fill="#3f4320" />
<path d="M 86.24 56.09 L 86.87 55.78 C 88.45 57.05 90.02 58.28 91.86 59.15 C 92.90 60.30 95.29 60.70 92.14 61.10 C 86.92 60.51 80.66 60.37 75.86 62.70 C 73.93 64.36 72.39 66.42 70.37 68.02 C 69.60 67.29 68.81 66.59 67.98 65.94 C 62.31 70.06 57.20 76.60 58.00 84.01 C 57.80 85.97 58.49 87.75 56.78 89.13 C 56.34 87.02 56.00 84.91 55.69 82.79 C 57.16 75.72 59.85 69.28 66.03 65.09 C 71.86 61.49 77.83 59.55 84.16 57.12 C 84.86 56.80 85.56 56.46 86.24 56.09 Z" fill="#a0a998" />
<path d="M 84.16 57.12 C 77.83 59.55 71.86 61.49 66.03 65.09 C 69.98 59.65 77.56 56.77 84.16 57.12 Z" fill="#cbd0c8" />
<path d="M 130.08 62.41 C 133.24 64.12 136.33 65.92 138.49 68.89 C 137.54 73.25 128.47 66.16 124.95 68.93 C 122.35 70.79 125.31 72.10 127.01 72.92 C 123.97 72.96 121.08 73.14 118.05 72.81 C 118.03 70.55 120.67 70.07 121.81 68.27 C 117.13 66.55 117.08 62.56 113.94 59.28 C 119.78 57.13 124.27 61.19 130.08 62.41 Z" fill="#a6b097" />
<path d="M 91.86 59.15 C 98.65 59.90 105.26 60.61 112.09 59.54 C 112.71 59.46 113.32 59.37 113.94 59.28 C 117.08 62.56 117.13 66.55 121.81 68.27 C 120.67 70.07 118.03 70.55 118.05 72.81 C 121.08 73.14 123.97 72.96 127.01 72.92 C 128.42 79.26 138.52 73.22 142.08 79.01 C 141.99 84.52 142.06 83.02 138.34 80.83 C 128.56 83.98 119.92 74.50 109.82 74.31 L 109.11 73.76 C 111.60 66.50 107.27 58.92 99.08 62.06 C 97.29 62.06 86.39 64.25 92.14 61.10 C 95.29 60.70 92.90 60.30 91.86 59.15 Z" fill="#939769" />
<path d="M 92.14 61.10 C 86.39 64.25 97.29 62.06 99.08 62.06 C 107.27 58.92 111.60 66.50 109.11 73.76 C 102.79 69.28 99.65 63.34 90.90 66.08 C 86.30 64.04 80.89 63.78 75.86 62.70 C 80.66 60.37 86.92 60.51 92.14 61.10 Z" fill="#7b7d55" />
<path d="M 130.28 59.89 C 134.90 61.76 140.86 65.00 143.08 69.66 C 142.32 70.48 141.57 71.30 140.84 72.14 C 140.08 71.04 139.32 69.94 138.49 68.89 C 136.33 65.92 133.24 64.12 130.08 62.41 C 130.16 61.57 130.23 60.73 130.28 59.89 Z" fill="#878e7f" />
<path d="M 75.86 62.70 C 80.89 63.78 86.30 64.04 90.90 66.08 C 92.80 68.43 95.31 68.74 97.98 69.70 C 89.19 70.03 83.58 72.42 76.35 77.38 C 73.70 79.76 70.54 77.72 68.32 79.25 C 69.01 81.86 67.99 86.09 70.05 88.03 L 68.84 88.91 C 66.52 88.98 64.20 88.98 61.88 88.96 C 61.63 80.21 63.53 73.74 70.37 68.02 C 72.39 66.42 73.93 64.36 75.86 62.70 Z" fill="#484b21" />
<path d="M 109.11 73.76 L 109.82 74.31 L 110.44 75.05 C 108.45 75.49 106.44 75.53 104.41 75.45 C 104.22 74.04 104.89 72.82 103.23 72.15 C 95.06 77.46 86.03 80.09 77.71 85.00 C 79.37 86.52 81.95 86.91 84.03 87.79 C 79.33 88.24 74.78 87.89 70.05 88.03 C 67.99 86.09 69.01 81.86 68.32 79.25 C 70.54 77.72 73.70 79.76 76.35 77.38 C 83.58 72.42 89.19 70.03 97.98 69.70 C 95.31 68.74 92.80 68.43 90.90 66.08 C 99.65 63.34 102.79 69.28 109.11 73.76 Z" fill="#595827" />
<path d="M 67.98 65.94 C 68.81 66.59 69.60 67.29 70.37 68.02 C 63.53 73.74 61.63 80.21 61.88 88.96 L 61.87 89.80 C 61.85 90.28 61.89 90.75 62.00 91.20 C 62.94 95.40 64.55 97.64 58.83 98.26 C 58.13 96.05 62.30 91.89 57.96 92.05 C 55.66 92.18 57.44 90.53 56.78 89.13 C 58.49 87.75 57.80 85.97 58.00 84.01 C 57.20 76.60 62.31 70.06 67.98 65.94 Z" fill="#bcc8ba" />
<path d="M 138.49 68.89 C 139.32 69.94 140.08 71.04 140.84 72.14 L 141.42 74.09 C 136.59 73.85 131.80 73.59 127.01 72.92 C 125.31 72.10 122.35 70.79 124.95 68.93 C 128.47 66.16 137.54 73.25 138.49 68.89 Z" fill="#cad4bd" />
<path d="M 143.08 69.66 C 145.86 75.74 148.30 80.65 147.71 87.59 C 146.09 88.05 144.44 88.40 142.80 88.80 C 138.93 89.07 135.12 88.39 131.24 88.67 C 126.12 87.43 120.48 88.19 115.20 87.95 C 115.95 82.79 113.82 78.75 110.44 75.05 L 109.82 74.31 C 119.92 74.50 128.56 83.98 138.34 80.83 C 142.06 83.02 141.99 84.52 142.08 79.01 C 142.04 77.34 141.94 75.69 141.42 74.09 L 140.84 72.14 C 141.57 71.30 142.32 70.48 143.08 69.66 Z" fill="#818243" />
<path d="M 143.08 69.66 C 148.06 73.78 150.38 83.24 148.26 89.19 C 146.44 89.04 144.62 88.90 142.80 88.80 C 144.44 88.40 146.09 88.05 147.71 87.59 C 148.30 80.65 145.86 75.74 143.08 69.66 Z" fill="#a0a48d" />
<path d="M 103.23 72.15 C 104.89 72.82 104.22 74.04 104.41 75.45 C 106.44 75.53 108.45 75.49 110.44 75.05 C 113.82 78.75 115.95 82.79 115.20 87.95 C 114.05 88.21 112.91 88.48 111.77 88.76 L 109.95 89.06 C 103.14 88.72 95.31 87.16 88.80 89.33 C 82.19 88.65 75.48 89.19 68.84 88.91 L 70.05 88.03 C 74.78 87.89 79.33 88.24 84.03 87.79 C 81.95 86.91 79.37 86.52 77.71 85.00 C 86.03 80.09 95.06 77.46 103.23 72.15 Z" fill="#6b652d" />
<path d="M 127.01 72.92 C 131.80 73.59 136.59 73.85 141.42 74.09 C 141.94 75.69 142.04 77.34 142.08 79.01 C 138.52 73.22 128.42 79.26 127.01 72.92 Z" fill="#a7ae8d" />
<path d="M 55.69 82.79 C 56.00 84.91 56.34 87.02 56.78 89.13 C 57.44 90.53 55.66 92.18 57.96 92.05 C 62.30 91.89 58.13 96.05 58.83 98.26 C 59.21 101.18 58.23 103.18 61.82 103.78 C 61.85 107.05 59.26 107.20 58.71 109.21 C 58.18 114.60 61.17 118.82 59.51 124.40 C 60.02 129.11 57.07 137.64 58.89 140.96 C 61.38 143.73 62.02 136.01 61.96 140.97 C 62.77 145.58 59.08 143.44 56.12 144.15 C 60.87 145.61 55.64 149.33 60.50 150.40 C 58.44 153.79 59.37 153.35 61.76 155.90 C 60.82 156.25 55.65 155.39 56.28 156.83 C 58.59 157.57 62.50 155.69 59.18 159.07 C 59.39 159.80 59.64 160.52 59.91 161.23 C 54.46 163.45 59.50 162.59 62.09 163.76 C 60.68 164.09 57.25 164.11 60.02 165.99 C 61.04 166.91 62.07 167.79 62.95 168.86 C 61.20 170.86 55.54 168.78 56.04 171.94 L 55.90 172.84 L 55.02 173.08 C 55.43 143.39 54.10 112.20 55.69 82.79 Z" fill="#ced8d5" />
<path d="M 109.95 89.06 L 110.02 89.99 C 103.03 89.69 95.66 90.74 88.80 89.33 C 95.31 87.16 103.14 88.72 109.95 89.06 Z" fill="#c9bca0" />
<path d="M 115.20 87.95 C 120.48 88.19 126.12 87.43 131.24 88.67 C 124.79 89.26 118.24 89.06 111.77 88.76 C 112.91 88.48 114.05 88.21 115.20 87.95 Z" fill="#c4bd99" />
<path d="M 142.80 88.80 C 144.62 88.90 146.44 89.04 148.26 89.19 C 153.13 94.43 142.38 88.19 141.95 93.91 C 141.03 94.40 137.73 99.17 138.60 95.63 C 139.60 90.33 133.33 101.81 137.22 99.11 C 138.93 98.37 138.62 98.52 139.77 99.88 C 139.35 101.76 139.12 103.66 138.84 105.56 C 136.53 103.46 135.56 105.28 133.06 105.91 C 133.03 104.05 133.91 102.65 134.67 101.03 C 132.86 101.80 131.28 102.74 129.24 102.68 C 127.31 102.37 125.74 103.11 123.93 103.63 C 123.79 99.89 129.53 101.24 131.12 97.19 C 132.69 95.55 132.06 93.74 130.90 92.10 C 128.18 94.26 124.97 94.12 129.34 97.21 C 126.55 101.09 122.43 98.77 120.04 102.83 C 116.59 103.58 113.70 104.96 110.38 102.89 C 111.53 101.26 113.16 101.09 114.91 100.45 C 112.97 99.30 110.96 99.00 108.74 98.82 C 110.15 94.82 106.67 93.05 103.91 91.03 C 106.61 90.98 109.31 91.01 112.01 90.97 C 120.58 90.93 129.19 91.19 137.76 90.88 L 137.77 90.12 C 129.19 89.81 120.56 90.07 111.97 90.03 L 110.02 89.99 L 109.95 89.06 L 111.77 88.76 C 118.24 89.06 124.79 89.26 131.24 88.67 C 135.12 88.39 138.93 89.07 142.80 88.80 Z" fill="#ecebe7" />
<path d="M 61.88 88.96 C 64.20 88.98 66.52 88.98 68.84 88.91 C 75.48 89.19 82.19 88.65 88.80 89.33 C 95.66 90.74 103.03 89.69 110.02 89.99 L 111.97 90.03 L 112.01 90.97 C 109.31 91.01 106.61 90.98 103.91 91.03 C 103.00 91.04 102.10 91.10 101.21 91.20 C 101.17 95.70 100.13 103.31 101.78 107.17 C 107.86 109.15 99.84 109.10 106.69 110.89 C 109.22 112.94 110.24 114.85 111.33 117.87 C 104.20 114.42 107.90 123.03 106.95 127.01 C 105.17 124.69 106.97 121.41 104.35 119.26 C 103.02 117.65 102.49 116.73 100.15 117.11 C 99.14 121.09 103.36 123.83 101.94 127.23 C 98.56 126.09 99.39 126.03 98.19 129.23 C 96.48 129.25 94.85 128.99 93.16 128.74 C 92.12 128.49 91.07 128.25 90.03 128.00 C 92.32 126.15 92.00 124.73 91.99 121.99 C 94.91 124.59 95.15 119.21 92.37 118.76 C 90.06 116.84 89.76 116.82 86.94 117.86 C 86.62 111.24 90.55 111.02 95.26 108.42 C 96.77 107.82 99.96 108.14 99.86 105.90 C 100.17 101.31 100.15 95.79 99.80 91.20 C 95.97 90.78 92.04 91.03 88.19 91.04 C 86.53 90.97 84.87 90.87 83.22 90.73 C 76.35 89.10 68.91 90.55 61.87 89.80 L 61.88 88.96 Z" fill="#90968f" />
<path d="M 61.87 89.80 C 68.91 90.55 76.35 89.10 83.22 90.73 C 81.22 90.84 79.21 90.96 77.21 91.02 C 72.13 90.99 67.07 90.89 62.00 91.20 C 61.89 90.75 61.85 90.28 61.87 89.80 Z" fill="#66604e" />
<path d="M 111.97 90.03 C 120.56 90.07 129.19 89.81 137.77 90.12 L 137.76 90.88 C 129.19 91.19 120.58 90.93 112.01 90.97 L 111.97 90.03 Z" fill="#c1b1aa" />
<path d="M 62.00 91.20 C 67.07 90.89 72.13 90.99 77.21 91.02 C 78.05 92.35 76.25 98.13 78.55 94.49 C 79.45 91.95 81.63 96.43 82.77 97.02 C 80.14 96.71 82.52 98.69 82.63 100.00 C 82.49 101.44 80.07 103.31 82.90 103.00 C 81.34 103.84 80.88 104.03 79.18 103.41 C 80.00 101.32 79.28 98.20 77.24 97.09 C 75.35 101.27 75.66 100.84 79.18 103.41 C 76.37 104.50 76.26 105.66 73.92 103.00 C 73.52 101.57 75.06 96.98 72.34 98.30 C 72.22 101.02 68.88 105.12 73.92 103.00 C 73.99 104.27 74.11 105.53 74.25 106.78 C 79.81 106.93 85.22 107.62 90.74 108.23 C 88.30 110.18 79.72 108.17 75.76 109.23 C 73.12 114.50 75.46 119.22 70.40 122.46 C 69.64 126.35 75.99 130.56 69.82 133.81 C 66.12 136.64 69.08 132.12 69.76 130.67 C 62.43 129.98 64.19 118.99 64.00 113.97 C 63.85 112.14 63.67 108.51 60.98 109.17 L 58.71 109.21 C 59.26 107.20 61.85 107.05 61.82 103.78 C 58.23 103.18 59.21 101.18 58.83 98.26 C 64.55 97.64 62.94 95.40 62.00 91.20 Z" fill="#879890" />
<path d="M 77.21 91.02 C 79.21 90.96 81.22 90.84 83.22 90.73 C 84.87 90.87 86.53 90.97 88.19 91.04 C 88.09 94.35 88.36 97.22 86.51 100.18 C 85.76 97.00 85.59 97.45 82.77 97.02 C 81.63 96.43 79.45 91.95 78.55 94.49 C 76.25 98.13 78.05 92.35 77.21 91.02 Z" fill="#acb1a7" />
<path d="M 88.19 91.04 C 92.04 91.03 95.97 90.78 99.80 91.20 C 100.15 95.79 100.17 101.31 99.86 105.90 C 99.96 108.14 96.77 107.82 95.26 108.42 C 91.37 106.64 85.76 108.54 85.68 102.87 C 85.95 101.97 86.23 101.07 86.51 100.18 C 88.36 97.22 88.09 94.35 88.19 91.04 Z" fill="#c0cbc2" />
<path d="M 101.21 91.20 C 102.10 91.10 103.00 91.04 103.91 91.03 C 106.67 93.05 110.15 94.82 108.74 98.82 C 108.60 99.92 107.22 103.66 108.83 103.96 C 112.15 105.55 117.43 105.92 120.04 102.83 C 124.09 103.32 118.37 107.55 123.71 106.38 C 132.26 107.83 141.24 106.49 149.89 107.10 C 143.63 110.05 131.24 108.66 123.92 109.05 C 119.85 109.81 108.52 107.05 106.69 110.89 C 99.84 109.10 107.86 109.15 101.78 107.17 C 100.13 103.31 101.17 95.70 101.21 91.20 Z" fill="#d3dad4" />
<path d="M 130.90 92.10 C 132.06 93.74 132.69 95.55 131.12 97.19 L 129.34 97.21 C 124.97 94.12 128.18 94.26 130.90 92.10 Z" fill="#bfbfbf" />
<path d="M 138.60 95.63 C 137.73 99.17 141.03 94.40 141.95 93.91 C 142.07 96.59 141.24 97.80 139.77 99.88 C 138.62 98.52 138.93 98.37 137.22 99.11 C 133.33 101.81 139.60 90.33 138.60 95.63 Z" fill="#b3b7b8" />
<path d="M 134.33 95.45 C 135.91 95.20 135.46 101.16 133.41 99.74 C 132.67 98.60 133.66 96.47 134.33 95.45 Z" fill="#a6a9ab" />
<path d="M 68.97 99.64 C 69.40 101.88 70.79 103.61 67.40 103.89 C 67.05 102.00 66.81 91.91 68.97 99.64 Z" fill="#495b55" />
<path d="M 77.24 97.09 C 79.28 98.20 80.00 101.32 79.18 103.41 C 75.66 100.84 75.35 101.27 77.24 97.09 Z" fill="#2f3b37" />
<path d="M 82.77 97.02 C 85.59 97.45 85.76 97.00 86.51 100.18 C 86.23 101.07 85.95 101.97 85.68 102.87 C 84.75 102.88 83.82 102.91 82.90 103.00 C 80.07 103.31 82.49 101.44 82.63 100.00 C 82.52 98.69 80.14 96.71 82.77 97.02 Z" fill="#55635c" />
<path d="M 129.34 97.21 L 131.12 97.19 C 129.53 101.24 123.79 99.89 123.93 103.63 C 125.74 103.11 127.31 102.37 129.24 102.68 C 127.33 103.81 125.50 105.07 123.71 106.38 C 118.37 107.55 124.09 103.32 120.04 102.83 C 122.43 98.77 126.55 101.09 129.34 97.21 Z" fill="#898d8b" />
<path d="M 72.34 98.30 C 75.06 96.98 73.52 101.57 73.92 103.00 C 68.88 105.12 72.22 101.02 72.34 98.30 Z" fill="#4b5955" />
<path d="M 108.74 98.82 C 110.96 99.00 112.97 99.30 114.91 100.45 C 113.16 101.09 111.53 101.26 110.38 102.89 C 109.86 103.25 109.35 103.60 108.83 103.96 C 107.22 103.66 108.60 99.92 108.74 98.82 Z" fill="#9c9f9b" />
<path d="M 85.68 102.87 C 85.76 108.54 91.37 106.64 95.26 108.42 C 90.55 111.02 86.62 111.24 86.94 117.86 C 87.43 120.81 85.27 128.24 90.03 128.00 C 91.07 128.25 92.12 128.49 93.16 128.74 C 92.56 130.09 91.99 131.30 92.08 132.82 C 96.85 133.52 101.47 132.18 106.20 133.06 C 105.89 136.32 104.99 136.05 102.27 136.91 C 98.39 137.31 95.26 136.22 91.62 135.71 C 88.27 135.85 89.96 137.50 89.67 139.87 C 88.53 141.63 87.39 143.40 86.01 144.99 C 78.09 145.14 70.15 144.77 62.25 145.13 C 64.16 147.21 73.08 145.23 76.74 146.20 C 77.04 148.91 76.87 151.52 77.90 154.11 C 78.10 155.09 78.24 156.08 78.34 157.07 C 75.13 157.45 64.63 155.93 63.22 157.87 C 68.80 157.93 74.81 158.64 80.25 157.25 C 87.22 157.21 94.09 158.37 101.09 157.96 C 103.05 158.40 110.54 157.07 110.75 158.88 C 106.06 159.22 101.52 158.64 96.83 159.45 C 91.57 160.47 94.38 162.52 97.90 161.80 C 98.49 162.76 98.91 162.56 99.17 161.20 C 100.97 162.43 102.98 162.80 103.09 159.95 C 104.33 160.36 105.71 159.51 105.41 161.36 C 104.65 164.09 109.25 162.05 109.88 163.86 C 106.04 164.75 101.50 161.93 101.58 167.64 C 100.86 171.44 103.46 166.79 103.46 165.63 C 107.61 165.01 112.09 163.25 113.54 168.54 C 115.69 168.58 117.88 168.08 119.98 167.68 C 118.55 166.77 115.74 167.44 116.13 165.15 C 117.72 165.36 125.20 163.68 121.99 166.93 C 120.19 168.77 123.96 167.80 124.91 168.22 L 124.66 170.21 C 119.02 169.43 113.66 170.53 108.07 170.78 C 106.61 171.10 106.62 168.93 106.20 168.02 C 103.88 172.78 97.01 172.02 94.40 168.00 C 95.87 173.22 89.83 170.23 86.82 170.89 C 95.28 168.32 80.07 167.77 85.97 170.88 C 84.56 171.12 83.16 171.43 81.77 171.76 C 80.17 172.05 66.78 171.71 74.91 173.11 L 75.04 174.00 C 72.43 174.05 69.82 173.98 67.22 173.68 C 64.13 172.85 61.03 172.93 57.86 173.00 C 57.25 172.65 56.65 172.30 56.04 171.94 C 55.54 168.78 61.20 170.86 62.95 168.86 C 62.07 167.79 61.04 166.91 60.02 165.99 C 64.25 165.84 73.47 169.13 76.02 165.19 C 71.17 164.72 66.74 165.69 62.09 163.76 C 59.50 162.59 54.46 163.45 59.91 161.23 C 65.33 159.14 69.22 163.00 74.87 161.85 C 74.92 160.95 74.93 160.05 74.88 159.15 C 69.63 159.30 64.42 159.03 59.18 159.07 C 62.50 155.69 58.59 157.57 56.28 156.83 C 55.65 155.39 60.82 156.25 61.76 155.90 C 59.37 153.35 58.44 153.79 60.50 150.40 C 55.64 149.33 60.87 145.61 56.12 144.15 C 59.08 143.44 62.77 145.58 61.96 140.97 C 62.02 136.01 61.38 143.73 58.89 140.96 C 62.77 131.57 62.86 118.98 60.98 109.17 C 63.67 108.51 63.85 112.14 64.00 113.97 C 64.19 118.99 62.43 129.98 69.76 130.67 C 69.08 132.12 66.12 136.64 69.82 133.81 C 75.99 130.56 69.64 126.35 70.40 122.46 C 75.46 119.22 73.12 114.50 75.76 109.23 C 79.72 108.17 88.30 110.18 90.74 108.23 C 85.22 107.62 79.81 106.93 74.25 106.78 C 74.11 105.53 73.99 104.27 73.92 103.00 C 76.26 105.66 76.37 104.50 79.18 103.41 C 80.88 104.03 81.34 103.84 82.90 103.00 C 83.82 102.91 84.75 102.88 85.68 102.87 Z" fill="#9daba4" />
<path d="M 110.38 102.89 C 113.70 104.96 116.59 103.58 120.04 102.83 C 117.43 105.92 112.15 105.55 108.83 103.96 C 109.35 103.60 109.86 103.25 110.38 102.89 Z" fill="#606761" />
<path d="M 58.71 109.21 L 60.98 109.17 C 62.86 118.98 62.77 131.57 58.89 140.96 C 57.07 137.64 60.02 129.11 59.51 124.40 C 61.17 118.82 58.18 114.60 58.71 109.21 Z" fill="#b5c6c0" />
<path d="M 123.92 109.05 C 125.30 110.45 127.37 110.38 125.70 112.59 C 125.03 114.25 123.44 122.35 127.04 118.30 C 128.68 122.53 127.35 128.58 128.17 133.43 C 130.40 133.03 133.11 131.26 135.30 131.98 C 135.12 133.67 134.94 135.38 134.77 137.08 C 133.23 138.74 132.73 139.41 133.11 141.79 C 135.13 141.93 137.14 141.83 139.16 141.92 C 138.37 145.56 144.16 143.39 146.03 143.12 C 149.20 143.11 146.96 139.03 148.92 138.12 C 149.09 140.57 149.12 143.05 148.90 145.49 C 146.76 145.82 138.32 142.97 142.86 147.11 C 135.24 145.88 135.63 148.69 132.89 154.42 C 134.90 154.30 136.84 154.22 138.83 154.66 L 138.93 155.71 C 137.34 156.18 135.77 156.72 134.19 157.21 C 130.53 157.03 126.85 157.13 123.21 156.79 C 122.82 153.37 122.82 149.62 123.21 146.20 C 125.95 145.33 134.86 147.09 135.78 145.13 C 124.87 144.74 113.91 145.21 103.00 144.95 C 101.38 144.98 100.72 144.36 99.70 143.23 L 100.88 141.95 C 102.46 145.36 107.07 142.65 108.01 139.96 C 108.97 141.29 109.27 142.67 111.02 143.16 C 115.54 143.08 116.18 142.64 116.01 138.04 C 116.04 133.91 115.83 135.18 112.53 135.68 L 111.69 135.85 L 109.91 136.18 C 107.81 136.57 105.86 137.46 103.82 138.20 L 103.11 138.07 L 102.27 136.91 C 104.99 136.05 105.89 136.32 106.20 133.06 L 107.14 133.16 C 108.16 133.34 109.15 133.46 110.18 133.33 C 113.42 133.01 116.66 133.02 119.91 132.84 C 119.21 131.19 118.44 130.09 117.00 129.00 L 117.28 128.37 C 119.26 125.16 118.27 120.82 118.87 117.14 C 111.23 115.46 114.97 121.13 113.68 125.90 C 113.14 127.04 112.57 128.16 112.00 129.29 C 110.99 129.03 110.00 128.72 109.04 128.35 C 110.31 127.05 110.90 125.80 111.43 124.07 C 112.56 121.62 112.63 120.28 111.33 117.87 C 110.24 114.85 109.22 112.94 106.69 110.89 C 108.52 107.05 119.85 109.81 123.92 109.05 Z" fill="#e9edea" />
<path d="M 81.32 117.24 C 85.87 116.07 85.94 121.06 83.04 123.25 C 82.31 124.14 81.78 125.14 81.25 126.16 C 81.64 123.81 79.49 118.83 81.32 117.24 Z" fill="#35382c" />
<path d="M 92.37 118.76 C 92.08 119.85 91.95 120.92 91.99 121.99 C 92.00 124.73 92.32 126.15 90.03 128.00 C 85.27 128.24 87.43 120.81 86.94 117.86 C 89.76 116.82 90.06 116.84 92.37 118.76 Z" fill="#555a40" />
<path d="M 95.20 116.98 C 98.30 118.64 96.78 124.88 96.81 127.83 C 93.48 129.23 95.44 118.84 95.20 116.98 Z" fill="#15191a" />
<path d="M 100.15 117.11 C 102.49 116.73 103.02 117.65 104.35 119.26 C 98.92 119.57 108.34 129.43 101.94 127.23 C 103.36 123.83 99.14 121.09 100.15 117.11 Z" fill="#151916" />
<path d="M 111.33 117.87 C 110.56 120.25 110.61 121.71 111.43 124.07 C 110.90 125.80 110.31 127.05 109.04 128.35 C 108.32 127.95 107.62 127.50 106.95 127.01 C 107.90 123.03 104.20 114.42 111.33 117.87 Z" fill="#302e28" />
<path d="M 118.87 117.14 C 118.27 120.82 119.26 125.16 117.28 128.37 C 115.40 127.75 114.22 128.17 113.68 125.90 C 114.97 121.13 111.23 115.46 118.87 117.14 Z" fill="#5b5b46" />
<path d="M 111.33 117.87 C 112.63 120.28 112.56 121.62 111.43 124.07 C 110.61 121.71 110.56 120.25 111.33 117.87 Z" fill="#9e9b90" />
<path d="M 92.37 118.76 C 95.15 119.21 94.91 124.59 91.99 121.99 C 91.95 120.92 92.08 119.85 92.37 118.76 Z" fill="#d6d7ca" />
<path d="M 104.35 119.26 C 106.97 121.41 105.17 124.69 106.95 127.01 C 107.62 127.50 108.32 127.95 109.04 128.35 C 110.00 128.72 110.99 129.03 112.00 129.29 C 109.39 130.73 108.17 130.04 110.18 133.33 C 109.15 133.46 108.16 133.34 107.14 133.16 C 107.47 127.37 101.87 130.03 98.19 129.23 C 99.39 126.03 98.56 126.09 101.94 127.23 C 108.34 129.43 98.92 119.57 104.35 119.26 Z" fill="#babdb9" />
<path d="M 83.04 123.25 C 83.04 125.25 83.13 128.78 85.67 129.18 C 88.08 130.25 91.67 128.86 90.89 132.73 C 86.93 132.96 83.03 133.64 79.09 133.89 C 78.69 131.14 80.42 128.82 81.25 126.16 C 81.78 125.14 82.31 124.14 83.04 123.25 Z" fill="#57605b" />
<path d="M 113.68 125.90 C 114.22 128.17 115.40 127.75 117.28 128.37 L 117.00 129.00 C 115.32 129.23 113.69 129.32 112.00 129.29 C 112.57 128.16 113.14 127.04 113.68 125.90 Z" fill="#b3b5af" />
<path d="M 93.16 128.74 C 94.85 128.99 96.48 129.25 98.19 129.23 C 101.87 130.03 107.47 127.37 107.14 133.16 L 106.20 133.06 C 101.47 132.18 96.85 133.52 92.08 132.82 C 91.99 131.30 92.56 130.09 93.16 128.74 Z" fill="#3a4040" />
<path d="M 112.00 129.29 C 113.69 129.32 115.32 129.23 117.00 129.00 C 118.44 130.09 119.21 131.19 119.91 132.84 C 116.66 133.02 113.42 133.01 110.18 133.33 C 108.17 130.04 109.39 130.73 112.00 129.29 Z" fill="#5b5f5e" />
<path d="M 64.17 134.98 C 66.44 136.26 65.84 137.73 65.90 140.00 C 62.57 144.96 64.47 136.91 64.17 134.98 Z" fill="#3e504c" />
<path d="M 102.27 136.91 L 103.11 138.07 C 99.67 141.83 106.99 144.62 103.82 138.20 C 105.86 137.46 107.81 136.57 109.91 136.18 C 109.97 138.29 110.13 140.32 110.81 142.34 L 111.02 143.16 C 109.27 142.67 108.97 141.29 108.01 139.96 C 107.07 142.65 102.46 145.36 100.88 141.95 C 100.79 139.88 100.97 139.18 99.13 137.97 C 99.08 139.85 98.67 141.55 99.70 143.23 C 100.72 144.36 101.38 144.98 103.00 144.95 C 113.91 145.21 124.87 144.74 135.78 145.13 C 134.86 147.09 125.95 145.33 123.21 146.20 C 122.82 149.62 122.82 153.37 123.21 156.79 C 126.85 157.13 130.53 157.03 134.19 157.21 C 128.85 158.63 122.23 158.24 116.79 157.38 C 124.99 158.27 121.41 151.48 121.80 146.18 C 117.57 145.58 113.32 146.55 108.96 146.48 C 111.37 148.35 113.88 147.51 114.91 150.95 C 112.26 150.04 110.99 149.99 108.29 150.45 C 110.19 146.07 104.68 148.96 102.28 148.38 C 98.98 148.43 94.45 146.89 97.41 151.96 C 97.64 153.70 96.84 157.67 99.79 156.04 C 100.23 156.68 100.66 157.32 101.09 157.96 C 94.09 158.37 87.22 157.21 80.25 157.25 L 78.34 157.07 C 78.24 156.08 78.10 155.09 77.90 154.11 C 77.91 151.49 77.89 148.81 78.22 146.20 C 84.35 145.61 90.61 146.34 96.76 145.88 C 96.20 144.01 88.27 145.42 86.01 144.99 C 87.39 143.40 88.53 141.63 89.67 139.87 C 91.36 145.17 90.96 137.27 91.62 135.71 C 95.26 136.22 98.39 137.31 102.27 136.91 Z" fill="#b6c0bc" />
<path d="M 116.01 138.04 C 112.65 138.72 113.33 139.26 112.53 135.68 C 115.83 135.18 116.04 133.91 116.01 138.04 Z" fill="#aab4b1" />
<path d="M 91.62 135.71 C 90.96 137.27 91.36 145.17 89.67 139.87 C 89.96 137.50 88.27 135.85 91.62 135.71 Z" fill="#212e2c" />
<path d="M 109.91 136.18 L 111.69 135.85 C 111.57 138.05 111.50 140.21 110.81 142.34 C 110.13 140.32 109.97 138.29 109.91 136.18 Z" fill="#232a2d" />
<path d="M 111.69 135.85 L 112.53 135.68 C 113.33 139.26 112.65 138.72 116.01 138.04 C 116.18 142.64 115.54 143.08 111.02 143.16 L 110.81 142.34 C 111.50 140.21 111.57 138.05 111.69 135.85 Z" fill="#666c6b" />
<path d="M 130.15 136.16 C 132.79 135.18 131.42 140.40 131.77 141.80 C 128.83 142.99 130.32 137.72 130.15 136.16 Z" fill="#828483" />
<path d="M 85.67 137.49 C 88.74 136.46 87.69 143.68 85.39 142.10 C 82.52 144.00 81.32 135.54 85.67 137.49 Z" fill="#3e4b49" />
<path d="M 134.77 137.08 C 136.78 137.03 138.87 136.97 140.88 137.17 C 140.76 138.93 141.93 142.12 139.16 141.92 C 137.14 141.83 135.13 141.93 133.11 141.79 C 132.73 139.41 133.23 138.74 134.77 137.08 Z" fill="#a3a5a4" />
<path d="M 77.85 138.55 C 77.88 141.07 78.56 145.20 76.64 140.42 C 74.08 144.17 73.22 142.43 71.35 139.37 C 71.73 142.08 65.48 142.71 65.90 140.00 C 68.31 136.57 74.22 138.23 77.85 138.55 Z" fill="#51615e" />
<path d="M 79.20 138.40 C 81.07 137.53 82.04 141.75 80.01 142.00 C 78.54 141.75 78.41 139.37 79.20 138.40 Z" fill="#576562" />
<path d="M 93.12 138.16 C 96.08 137.49 94.63 140.01 94.88 141.84 C 91.92 142.52 93.37 139.99 93.12 138.16 Z" fill="#2c3a36" />
<path d="M 96.10 138.17 C 99.22 137.16 97.56 141.26 97.87 143.02 C 95.63 141.74 95.97 140.49 96.10 138.17 Z" fill="#485251" />
<path d="M 99.13 137.97 C 100.97 139.18 100.79 139.88 100.88 141.95 L 99.70 143.23 C 98.67 141.55 99.08 139.85 99.13 137.97 Z" fill="#434d4c" />
<path d="M 103.11 138.07 L 103.82 138.20 C 106.99 144.62 99.67 141.83 103.11 138.07 Z" fill="#5e6767" />
<path d="M 117.11 138.48 C 120.95 138.20 121.23 137.24 120.88 141.87 C 116.99 141.97 116.78 142.74 117.11 138.48 Z" fill="#636769" />
<path d="M 122.22 138.42 C 125.72 140.32 120.18 144.47 122.22 138.42 Z" fill="#5c5e5d" />
<path d="M 124.15 138.13 C 128.60 137.64 127.50 138.23 127.74 141.85 C 123.43 142.16 123.93 142.32 124.15 138.13 Z" fill="#939497" />
<path d="M 62.25 145.13 C 70.15 144.77 78.09 145.14 86.01 144.99 C 88.27 145.42 96.20 144.01 96.76 145.88 C 90.61 146.34 84.35 145.61 78.22 146.20 C 77.89 148.81 77.91 151.49 77.90 154.11 C 76.87 151.52 77.04 148.91 76.74 146.20 C 73.08 145.23 64.16 147.21 62.25 145.13 Z" fill="#7d8c88" />
<path d="M 108.96 146.48 C 113.32 146.55 117.57 145.58 121.80 146.18 C 121.41 151.48 124.99 158.27 116.79 157.38 C 113.21 156.61 109.68 156.56 106.05 156.50 C 105.79 152.45 99.78 153.90 97.41 151.96 C 101.04 150.60 104.53 150.82 108.29 150.45 C 110.99 149.99 112.26 150.04 114.91 150.95 C 113.88 147.51 111.37 148.35 108.96 146.48 Z" fill="#e6ece7" />
<path d="M 71.91 147.60 C 72.53 151.62 69.60 149.37 67.38 149.03 C 66.30 149.32 65.24 149.69 64.15 149.95 C 62.53 144.94 69.14 147.86 71.91 147.60 Z" fill="#576860" />
<path d="M 142.86 147.11 C 143.74 151.31 136.96 148.44 135.93 151.02 C 137.09 154.93 141.95 150.48 145.10 151.45 C 144.64 154.48 141.10 153.85 138.83 154.66 C 136.84 154.22 134.90 154.30 132.89 154.42 C 135.63 148.69 135.24 145.88 142.86 147.11 Z" fill="#a6a9a8" />
<path d="M 88.06 148.17 C 90.34 147.90 92.65 147.90 94.93 148.16 C 95.30 151.41 87.41 152.49 88.06 148.17 Z" fill="#6d7a73" />
<path d="M 102.28 148.38 C 104.68 148.96 110.19 146.07 108.29 150.45 C 104.53 150.82 101.04 150.60 97.41 151.96 C 94.45 146.89 98.98 148.43 102.28 148.38 Z" fill="#6d7671" />
<path d="M 97.41 151.96 C 99.78 153.90 105.79 152.45 106.05 156.50 C 104.00 156.59 101.73 155.40 99.79 156.04 C 96.84 157.67 97.64 153.70 97.41 151.96 Z" fill="#8d9791" />
<path d="M 106.05 156.50 C 109.68 156.56 113.21 156.61 116.79 157.38 C 122.23 158.24 128.85 158.63 134.19 157.21 C 135.77 156.72 137.34 156.18 138.93 155.71 C 142.35 156.22 145.57 155.66 148.94 155.12 C 147.61 156.30 144.49 157.35 144.08 159.06 C 143.58 161.58 146.41 160.54 147.89 161.63 C 146.83 161.85 145.78 162.09 144.73 162.33 C 145.90 167.89 135.72 166.21 132.27 166.82 C 131.55 164.23 119.41 164.80 126.08 167.23 L 124.91 168.22 C 123.96 167.80 120.19 168.77 121.99 166.93 C 125.20 163.68 117.72 165.36 116.13 165.15 C 115.74 167.44 118.55 166.77 119.98 167.68 C 117.88 168.08 115.69 168.58 113.54 168.54 C 112.09 163.25 107.61 165.01 103.46 165.63 C 103.46 166.79 100.86 171.44 101.58 167.64 C 101.50 161.93 106.04 164.75 109.88 163.86 C 109.25 162.05 104.65 164.09 105.41 161.36 C 105.71 159.51 104.33 160.36 103.09 159.95 C 101.69 159.73 99.60 159.38 99.17 161.20 C 98.91 162.56 98.49 162.76 97.90 161.80 C 97.63 160.96 97.28 160.18 96.83 159.45 C 101.52 158.64 106.06 159.22 110.75 158.88 C 110.54 157.07 103.05 158.40 101.09 157.96 C 100.66 157.32 100.23 156.68 99.79 156.04 C 101.73 155.40 104.00 156.59 106.05 156.50 Z" fill="#cdd2cf" />
<path d="M 78.34 157.07 L 80.25 157.25 C 74.81 158.64 68.80 157.93 63.22 157.87 C 64.63 155.93 75.13 157.45 78.34 157.07 Z" fill="#708079" />
<path d="M 59.18 159.07 C 64.42 159.03 69.63 159.30 74.88 159.15 C 74.93 160.05 74.92 160.95 74.87 161.85 C 69.22 163.00 65.33 159.14 59.91 161.23 C 59.64 160.52 59.39 159.80 59.18 159.07 Z" fill="#6c7c73" />
<path d="M 77.29 159.25 C 80.52 158.64 79.88 159.05 79.88 161.88 C 77.21 162.02 74.19 162.45 77.29 159.25 Z" fill="#6a7972" />
<path d="M 120.08 159.35 C 122.81 159.30 123.46 159.49 125.00 161.89 C 122.37 161.55 119.35 163.42 120.08 159.35 Z" fill="#878e8c" />
<path d="M 135.00 159.04 C 139.07 159.06 136.36 161.38 133.80 160.87 C 131.24 161.23 128.78 161.82 126.17 161.70 C 124.33 157.74 132.93 159.89 135.00 159.04 Z" fill="#868a88" />
<path d="M 82.30 160.65 C 83.69 160.67 89.67 159.14 88.86 161.47 C 87.62 161.71 77.90 162.87 82.30 160.65 Z" fill="#596760" />
<path d="M 96.83 159.45 C 97.28 160.18 97.63 160.96 97.90 161.80 C 94.38 162.52 91.57 160.47 96.83 159.45 Z" fill="#5c6861" />
<path d="M 103.09 159.95 C 102.98 162.80 100.97 162.43 99.17 161.20 C 99.60 159.38 101.69 159.73 103.09 159.95 Z" fill="#606b65" />
<path d="M 107.26 160.25 C 113.46 158.22 106.52 165.48 107.26 160.25 Z" fill="#78827e" />
<path d="M 116.45 162.54 C 117.81 163.63 124.05 162.16 123.71 163.88 C 119.69 164.12 115.59 164.09 111.56 163.95 C 112.67 159.45 112.75 158.78 116.45 162.54 Z" fill="#98a19d" />
<path d="M 62.09 163.76 C 66.74 165.69 71.17 164.72 76.02 165.19 C 73.47 169.13 64.25 165.84 60.02 165.99 C 57.25 164.11 60.68 164.09 62.09 163.76 Z" fill="#697b75" />
<path d="M 132.27 166.82 C 130.20 166.93 128.14 167.07 126.08 167.23 C 119.41 164.80 131.55 164.23 132.27 166.82 Z" fill="#979b97" />
<path d="M 95.46 166.24 C 96.33 165.39 100.59 165.53 99.81 167.42 C 98.88 168.03 95.19 167.74 95.46 166.24 Z" fill="#5c6762" />
<path d="M 94.40 168.00 C 97.01 172.02 103.88 172.78 106.20 168.02 C 106.62 168.93 106.61 171.10 108.07 170.78 C 113.66 170.53 119.02 169.43 124.66 170.21 C 131.59 172.46 140.27 169.66 147.46 169.18 C 148.07 176.18 148.76 184.38 147.24 191.20 C 146.70 184.86 147.33 178.50 146.80 172.18 C 144.10 171.72 141.44 172.00 138.78 172.60 C 130.52 174.48 122.17 173.35 113.90 174.53 C 111.95 174.80 110.00 174.92 108.03 174.98 C 106.72 173.25 105.38 173.30 103.96 174.89 C 100.38 175.05 96.81 175.08 93.24 174.77 C 90.42 173.78 87.68 173.99 84.76 174.23 C 81.53 173.97 78.29 173.99 75.04 174.00 L 74.91 173.11 C 89.84 172.76 104.83 173.25 119.75 172.87 L 119.77 172.12 C 107.12 171.68 94.42 172.38 81.77 171.76 C 83.16 171.43 84.56 171.12 85.97 170.88 L 86.82 170.89 C 89.83 170.23 95.87 173.22 94.40 168.00 Z" fill="#d9d2c8" />
<path d="M 86.82 170.89 L 85.97 170.88 C 80.07 167.77 95.28 168.32 86.82 170.89 Z" fill="#5c675d" />
<path d="M 56.04 171.94 C 56.65 172.30 57.25 172.65 57.86 173.00 C 57.32 175.08 57.63 174.52 59.35 175.40 C 57.69 181.33 57.05 187.98 56.95 194.12 L 56.16 193.75 L 55.74 192.20 C 56.17 185.72 56.02 179.33 55.90 172.84 L 56.04 171.94 Z" fill="#68706a" />
<path d="M 81.77 171.76 C 94.42 172.38 107.12 171.68 119.77 172.12 L 119.75 172.87 C 104.83 173.25 89.84 172.76 74.91 173.11 C 66.78 171.71 80.17 172.05 81.77 171.76 Z" fill="#97897f" />
<path d="M 146.80 172.18 C 147.33 178.50 146.70 184.86 147.24 191.20 C 146.64 192.81 145.82 194.39 145.06 195.93 L 144.22 196.04 L 144.13 195.03 C 143.43 187.91 143.27 180.92 145.43 173.98 C 143.90 172.57 140.75 173.00 138.78 172.60 C 141.44 172.00 144.10 171.72 146.80 172.18 Z" fill="#717870" />
<path d="M 55.02 173.08 L 55.90 172.84 C 56.02 179.33 56.17 185.72 55.74 192.20 C 54.18 186.13 55.32 179.33 55.02 173.08 Z" fill="#9ea6a3" />
<path d="M 57.86 173.00 C 61.03 172.93 64.13 172.85 67.22 173.68 C 65.32 173.82 63.40 173.92 61.53 174.24 C 60.57 179.54 63.80 190.98 57.79 194.55 L 56.95 194.12 C 57.05 187.98 57.69 181.33 59.35 175.40 C 57.63 174.52 57.32 175.08 57.86 173.00 Z" fill="#4c5249" />
<path d="M 138.78 172.60 C 140.75 173.00 143.90 172.57 145.43 173.98 C 143.27 180.92 143.43 187.91 144.13 195.03 C 143.12 195.67 142.13 196.34 141.11 196.95 C 141.67 193.92 143.80 188.50 139.16 187.78 C 133.01 186.63 126.47 186.52 120.22 185.69 C 114.93 184.73 109.59 184.11 104.22 183.81 C 105.24 182.00 114.33 183.55 117.06 182.90 C 120.18 183.09 114.29 181.90 115.77 181.35 C 118.68 180.09 116.36 174.95 113.90 174.53 C 122.17 173.35 130.52 174.48 138.78 172.60 Z" fill="#494d2d" />
<path d="M 61.53 174.24 C 63.40 173.92 65.32 173.82 67.22 173.68 C 69.82 173.98 72.43 174.05 75.04 174.00 C 78.29 173.99 81.53 173.97 84.76 174.23 C 87.58 175.22 90.32 175.02 93.24 174.77 C 96.81 175.08 100.38 175.05 103.96 174.89 C 105.33 175.20 106.68 175.24 108.03 174.98 C 110.00 174.92 111.95 174.80 113.90 174.53 C 116.36 174.95 118.68 180.09 115.77 181.35 C 114.29 181.90 120.18 183.09 117.06 182.90 C 114.33 183.55 105.24 182.00 104.22 183.81 C 109.59 184.11 114.93 184.73 120.22 185.69 C 117.78 185.88 115.34 186.05 112.89 186.12 C 105.64 186.31 99.59 183.76 92.38 186.24 C 83.07 186.08 73.57 185.64 64.27 186.25 C 61.64 189.11 60.34 194.82 62.81 198.23 C 59.89 197.64 59.24 197.05 57.79 194.55 C 63.80 190.98 60.57 179.54 61.53 174.24 Z" fill="#383a1d" />
<path d="M 84.76 174.23 C 87.68 173.99 90.42 173.78 93.24 174.77 C 90.32 175.02 87.58 175.22 84.76 174.23 Z" fill="#8b8e78" />
<path d="M 108.03 174.98 C 106.68 175.24 105.33 175.20 103.96 174.89 C 105.38 173.30 106.72 173.25 108.03 174.98 Z" fill="#8d8a74" />
<path d="M 112.89 186.12 C 116.85 189.41 115.26 188.36 114.65 192.40 C 119.21 197.20 130.89 192.31 135.91 195.53 C 135.20 196.05 131.73 196.01 134.21 196.86 C 137.95 198.21 133.09 198.05 131.80 198.72 C 129.43 198.91 127.13 198.97 124.90 199.87 L 124.11 200.12 C 108.41 199.85 92.70 200.07 77.00 200.01 C 74.00 198.20 70.12 199.19 66.76 199.30 C 65.44 198.98 64.12 198.61 62.81 198.23 C 60.34 194.82 61.64 189.11 64.27 186.25 C 73.57 185.64 83.07 186.08 92.38 186.24 C 99.59 183.76 105.64 186.31 112.89 186.12 Z" fill="#121518" />
<path d="M 112.89 186.12 C 115.34 186.05 117.78 185.88 120.22 185.69 C 126.47 186.52 133.01 186.63 139.16 187.78 C 143.80 188.50 141.67 193.92 141.11 196.95 C 139.80 197.77 138.41 198.46 137.06 199.22 C 135.31 199.06 133.56 198.87 131.80 198.72 C 133.09 198.05 137.95 198.21 134.21 196.86 C 131.73 196.01 135.20 196.05 135.91 195.53 C 130.89 192.31 119.21 197.20 114.65 192.40 C 115.26 188.36 116.85 189.41 112.89 186.12 Z" fill="#222b2f" />
<path d="M 56.16 193.75 L 56.95 194.12 L 57.79 194.55 C 59.24 197.05 59.89 197.64 62.81 198.23 C 64.12 198.61 65.44 198.98 66.76 199.30 C 70.23 200.35 73.44 199.95 77.00 200.01 C 88.85 202.47 102.92 200.02 115.23 201.28 C 102.22 202.72 88.30 201.98 75.16 201.68 C 70.66 200.04 57.67 202.93 56.75 196.80 C 56.57 195.78 56.38 194.76 56.16 193.75 Z" fill="#8d969c" />
<path d="M 144.13 195.03 L 144.22 196.04 C 142.04 199.10 140.62 198.94 137.06 199.22 C 138.41 198.46 139.80 197.77 141.11 196.95 C 142.13 196.34 143.12 195.67 144.13 195.03 Z" fill="#676d74" />
<path d="M 144.22 196.04 L 145.06 195.93 C 147.07 198.36 146.19 200.15 145.81 203.00 L 56.84 203.00 C 56.25 201.05 53.38 197.65 56.75 196.80 C 57.67 202.93 70.66 200.04 75.16 201.68 C 88.30 201.98 102.22 202.72 115.23 201.28 C 118.38 200.99 121.20 201.30 124.11 200.12 L 124.90 199.87 C 129.11 199.85 133.11 200.62 137.06 199.22 C 140.62 198.94 142.04 199.10 144.22 196.04 Z" fill="#b2bdc4" />
<path d="M 66.76 199.30 C 70.12 199.19 74.00 198.20 77.00 200.01 C 73.44 199.95 70.23 200.35 66.76 199.30 Z" fill="#4d575b" />
<path d="M 131.80 198.72 C 133.56 198.87 135.31 199.06 137.06 199.22 C 133.11 200.62 129.11 199.85 124.90 199.87 C 127.13 198.97 129.43 198.91 131.80 198.72 Z" fill="#57646b" />
<path d="M 77.00 200.01 C 92.70 200.07 108.41 199.85 124.11 200.12 C 121.20 201.30 118.38 200.99 115.23 201.28 C 102.92 200.02 88.85 202.47 77.00 200.01 Z" fill="#575f64" />
</svg>